G04 start of page 7 for group -4063 idx -4063 *
G04 Title: pmc, componentmask *
G04 Creator: pcb 1.99z *
G04 CreationDate: Fri 27 Sep 2013 09:22:41 AM GMT UTC *
G04 For: russ *
G04 Format: Gerber/RS-274X *
G04 PCB-Dimensions (mm): 62.00 62.00 *
G04 PCB-Coordinate-Origin: lower left *
%MOMM*%
%FSLAX43Y43*%
%LNTOPMASK*%
%ADD134R,4.397X4.397*%
%ADD133R,0.947X0.947*%
%ADD132R,0.441X0.441*%
%ADD131C,0.367*%
%ADD130R,0.387X0.387*%
%ADD129R,0.367X0.367*%
%ADD128R,5.297X5.297*%
%ADD127R,5.497X5.497*%
%ADD126R,0.336X0.336*%
%ADD125R,1.227X1.227*%
%ADD124R,1.111X1.111*%
%ADD123R,0.306X0.306*%
%ADD122C,0.002*%
%ADD121R,0.334X0.334*%
%ADD120R,0.395X0.395*%
%ADD119C,0.395*%
%ADD118C,0.216*%
%ADD117R,1.027X1.027*%
%ADD116R,0.527X0.527*%
%ADD115R,1.270X1.270*%
%ADD114R,0.470X0.470*%
%ADD113R,1.577X1.577*%
%ADD112C,0.268*%
%ADD111R,1.152X1.152*%
%ADD110C,0.327*%
%ADD109R,0.537X0.537*%
%ADD108R,0.677X0.677*%
%ADD107C,0.527*%
%ADD106R,0.827X0.827*%
%ADD105C,0.209*%
%ADD104R,0.292X0.292*%
%ADD103C,0.427*%
%ADD102R,0.427X0.427*%
%ADD101C,0.227*%
%ADD100R,0.327X0.327*%
%ADD99C,1.152*%
%ADD98C,3.352*%
%ADD97C,1.800*%
%ADD96C,1.827*%
%ADD95C,1.527*%
%ADD94C,0.914*%
%ADD93C,2.413*%
%ADD92C,1.700*%
G54D92*X48230Y37350D03*
Y34810D03*
Y32270D03*
X50770Y37350D03*
Y34810D03*
Y32270D03*
Y29730D03*
Y27190D03*
Y24650D03*
X48230Y29730D03*
Y27190D03*
Y24650D03*
Y22110D03*
Y44970D03*
X50770D03*
X48230Y42430D03*
X50770D03*
X48230Y50050D03*
X50770D03*
X48230Y47510D03*
X50770D03*
X48230Y39890D03*
X50770D03*
X23920Y48230D03*
X26460D03*
X29000D03*
X31540D03*
X34080D03*
X26460Y50770D03*
X29000D03*
X31540D03*
X34080D03*
X23920D03*
X21380D03*
X18840D03*
X16300D03*
X13730Y40610D03*
Y43150D03*
Y45690D03*
Y48230D03*
Y50770D03*
X13720Y34260D03*
X11190Y40610D03*
Y43150D03*
Y45690D03*
Y48230D03*
Y50770D03*
X11180Y34260D03*
Y31720D03*
X13720D03*
Y29180D03*
Y26640D03*
Y24100D03*
Y21560D03*
X11180Y29180D03*
Y26640D03*
Y24100D03*
Y21560D03*
G54D93*X3500Y8900D03*
X8800D03*
G54D94*X6800Y10800D03*
G54D93*X3500Y16100D03*
X8800D03*
G54D94*X6800Y14200D03*
G54D92*X50770Y22110D03*
X48230Y19570D03*
Y17030D03*
Y14490D03*
X50770Y19570D03*
Y17030D03*
Y14490D03*
Y11950D03*
X48230D03*
G54D95*X37200Y9850D03*
X40500D03*
G54D96*X44500Y10250D03*
G54D97*X41000Y2750D03*
X29500D03*
G54D95*X25700Y9850D03*
X29000D03*
G54D96*X33000Y10250D03*
G54D98*X57000Y5000D03*
X5000Y57000D03*
Y5000D03*
G54D99*X3570Y12670D03*
Y51532D03*
G54D98*X57000Y57000D03*
G54D100*X44750Y44000D02*X44900D01*
G54D101*X44650Y43900D02*X45000D01*
Y44100D02*Y43900D01*
G54D100*X44750Y44000D02*X44900D01*
G54D101*X44650Y43900D02*X45000D01*
Y44100D02*Y43900D01*
X44650Y44100D02*X45000D01*
X44650D02*Y43900D01*
Y44100D02*X45000D01*
X44650D02*Y43900D01*
G54D100*X44750Y43500D02*X44900D01*
G54D101*X44650Y43600D02*Y43400D01*
G54D100*X44750Y43500D02*X44900D01*
G54D101*X44650Y43600D02*X45000D01*
X44650Y43400D02*X45000D01*
X44650Y43600D02*Y43400D01*
Y43600D02*X45000D01*
X44650Y43400D02*X45000D01*
Y43600D02*Y43400D01*
Y43600D02*Y43400D01*
G54D100*X44750Y43000D02*X44900D01*
G54D101*X45000Y43100D02*Y42900D01*
G54D100*X44750Y43000D02*X44900D01*
G54D101*X44650Y43100D02*X45000D01*
Y42900D01*
X44650Y43100D02*X45000D01*
X44650Y42900D02*X45000D01*
X44650D02*X45000D01*
X44650Y43100D02*Y42900D01*
Y43100D02*Y42900D01*
G54D100*X46100Y43000D02*X46250D01*
G54D101*X46000Y43100D02*Y42900D01*
G54D100*X46100Y43000D02*X46250D01*
G54D101*X46000Y42900D02*X46350D01*
X46000Y43100D02*Y42900D01*
X46350D01*
X46000Y43100D02*X46350D01*
X46000D02*X46350D01*
Y42900D01*
Y43100D02*Y42900D01*
G54D100*X46100Y44000D02*X46250D01*
G54D101*X46000Y44100D02*Y43900D01*
G54D100*X46100Y44000D02*X46250D01*
G54D101*X46000Y43900D02*X46350D01*
X46000Y44100D02*Y43900D01*
X46350D01*
X46000Y44100D02*X46350D01*
X46000D02*X46350D01*
Y43900D01*
Y44100D02*Y43900D01*
G54D100*X44750Y39000D02*X44900D01*
G54D101*X45000Y39100D02*Y38900D01*
G54D100*X44750Y39000D02*X44900D01*
G54D101*X44650Y39100D02*X45000D01*
Y38900D01*
X44650Y39100D02*X45000D01*
X44650Y38900D02*X45000D01*
X44650D02*X45000D01*
X44650Y39100D02*Y38900D01*
Y39100D02*Y38900D01*
G54D100*X44750Y38500D02*X44900D01*
G54D101*X45000Y38600D02*Y38400D01*
G54D100*X44750Y38500D02*X44900D01*
G54D101*X44650Y38600D02*X45000D01*
Y38400D01*
X44650Y38600D02*X45000D01*
X44650Y38400D02*X45000D01*
X44650D02*X45000D01*
X44650Y38600D02*Y38400D01*
Y38600D02*Y38400D01*
G54D100*X44750Y38000D02*X44900D01*
G54D101*X45000Y38100D02*Y37900D01*
G54D100*X44750Y38000D02*X44900D01*
G54D101*X44650Y38100D02*X45000D01*
Y37900D01*
X44650Y38100D02*X45000D01*
X44650Y37900D02*X45000D01*
X44650D02*X45000D01*
X44650Y38100D02*Y37900D01*
Y38100D02*Y37900D01*
G54D100*X46100Y38000D02*X46250D01*
G54D101*X46000Y38100D02*Y37900D01*
G54D100*X46100Y38000D02*X46250D01*
G54D101*X46000Y37900D02*X46350D01*
X46000Y38100D02*Y37900D01*
X46350D01*
X46000Y38100D02*X46350D01*
X46000D02*X46350D01*
Y37900D01*
Y38100D02*Y37900D01*
G54D100*X46100Y39000D02*X46250D01*
G54D101*X46000Y39100D02*Y38900D01*
G54D100*X46100Y39000D02*X46250D01*
G54D101*X46000Y38900D02*X46350D01*
X46000Y39100D02*Y38900D01*
X46350D01*
X46000Y39100D02*X46350D01*
X46000D02*X46350D01*
Y38900D01*
Y39100D02*Y38900D01*
G54D100*X44750Y49500D02*X44900D01*
G54D101*X44650Y49600D02*Y49400D01*
G54D100*X44750Y49500D02*X44900D01*
G54D101*X44650Y49600D02*X45000D01*
X44650Y49400D02*X45000D01*
X44650Y49600D02*Y49400D01*
Y49600D02*X45000D01*
X44650Y49400D02*X45000D01*
Y49600D02*Y49400D01*
Y49600D02*Y49400D01*
G54D102*Y52525D02*Y52475D01*
X44000Y52525D02*Y52475D01*
G54D103*X44150Y52675D02*Y52325D01*
X43850Y52675D02*Y52325D01*
X44150D01*
X43850Y52675D02*X44150D01*
X45150D02*Y52325D01*
X44850Y52675D02*Y52325D01*
X45150D01*
X44850Y52675D02*X45150D01*
G54D100*X44750Y49000D02*X44900D01*
G54D101*X45000Y49100D02*Y48900D01*
G54D100*X44750Y49000D02*X44900D01*
G54D101*X44650Y49100D02*X45000D01*
Y48900D01*
X44650Y49100D02*X45000D01*
X44650Y48900D02*X45000D01*
X44650D02*X45000D01*
X44650Y49100D02*Y48900D01*
Y49100D02*Y48900D01*
G54D100*X44750Y48500D02*X44900D01*
G54D101*X45000Y48600D02*Y48400D01*
G54D100*X44750Y48500D02*X44900D01*
G54D101*X44650Y48600D02*X45000D01*
Y48400D01*
X44650Y48600D02*X45000D01*
X44650Y48400D02*X45000D01*
X44650D02*X45000D01*
X44650Y48600D02*Y48400D01*
Y48600D02*Y48400D01*
G54D100*X46100Y48500D02*X46250D01*
G54D101*X46000Y48600D02*Y48400D01*
G54D100*X46100Y48500D02*X46250D01*
G54D101*X46000Y48400D02*X46350D01*
X46000Y48600D02*Y48400D01*
X46350D01*
X46000Y48600D02*X46350D01*
X46000D02*X46350D01*
Y48400D01*
Y48600D02*Y48400D01*
G54D100*X46100Y49500D02*X46250D01*
G54D101*X46000Y49600D02*Y49400D01*
G54D100*X46100Y49500D02*X46250D01*
G54D101*X46000Y49400D02*X46350D01*
X46000Y49600D02*Y49400D01*
X46350D01*
X46000Y49600D02*X46350D01*
X46000D02*X46350D01*
Y49400D01*
Y49600D02*Y49400D01*
G54D102*X46975Y52500D02*X47025D01*
X46975Y53500D02*X47025D01*
G54D103*X46825Y53350D02*X47175D01*
X46825Y53650D02*X47175D01*
X46825D02*Y53350D01*
X47175Y53650D02*Y53350D01*
X46825Y52350D02*X47175D01*
X46825Y52650D02*X47175D01*
X46825D02*Y52350D01*
X47175Y52650D02*Y52350D01*
G54D102*X45975Y52500D02*X46025D01*
G54D103*X45825Y52350D02*X46175D01*
X45825Y52650D02*X46175D01*
X45825D02*Y52350D01*
X46175Y52650D02*Y52350D01*
G54D102*X45975Y53500D02*X46025D01*
G54D103*X45825Y53350D02*X46175D01*
X45825Y53650D02*Y53350D01*
X46175Y53650D02*Y53350D01*
X45825Y53650D02*X46175D01*
G54D102*X49000Y58025D02*Y57975D01*
G54D103*X48150Y58175D02*Y57825D01*
X47850Y58175D02*X48150D01*
X49150D02*Y57825D01*
X48850Y58175D02*Y57825D01*
X49150D01*
X48850Y58175D02*X49150D01*
G54D102*X48000Y58025D02*Y57975D01*
G54D103*X47850Y58175D02*Y57825D01*
X48150D01*
G54D102*X47000Y58025D02*Y57975D01*
G54D103*X47150Y58175D02*Y57825D01*
X46850Y58175D02*Y57825D01*
G54D102*X46000Y58025D02*Y57975D01*
G54D103*X45850Y58175D02*Y57825D01*
X46150Y58175D02*Y57825D01*
X45850Y58175D02*X46150D01*
X45850Y57825D02*X46150D01*
X46850D02*X47150D01*
X46850Y58175D02*X47150D01*
G54D102*X44000Y58025D02*Y57975D01*
G54D103*X43850Y58175D02*Y57825D01*
X44150Y58175D02*Y57825D01*
X43850Y58175D02*X44150D01*
X43850Y57825D02*X44150D01*
G54D102*X45000Y58025D02*Y57975D01*
G54D103*X44850Y58175D02*Y57825D01*
X45150Y58175D02*Y57825D01*
X44850Y58175D02*X45150D01*
X44850Y57825D02*X45150D01*
G54D102*X43000Y58025D02*Y57975D01*
G54D103*X43150Y58175D02*Y57825D01*
X42850Y58175D02*Y57825D01*
X43150D01*
X42850Y58175D02*X43150D01*
G54D102*X42000Y58025D02*Y57975D01*
G54D103*X42150Y58175D02*Y57825D01*
X41850Y58175D02*Y57825D01*
X42150D01*
X41850Y58175D02*X42150D01*
G54D102*X41000Y58025D02*Y57975D01*
G54D103*X41150Y58175D02*Y57825D01*
X40850Y58175D02*Y57825D01*
X41150D01*
X40850Y58175D02*X41150D01*
G54D102*X40000Y58025D02*Y57975D01*
G54D103*X39850Y58175D02*Y57825D01*
X40150Y58175D02*Y57825D01*
X39850Y58175D02*X40150D01*
X39850Y57825D02*X40150D01*
G54D102*X38000Y58025D02*Y57975D01*
X39000Y58025D02*Y57975D01*
G54D103*X38850Y58175D02*Y57825D01*
X39150Y58175D02*Y57825D01*
X38850Y58175D02*X39150D01*
X38850Y57825D02*X39150D01*
X37850Y58175D02*Y57825D01*
X38150Y58175D02*Y57825D01*
X37850Y58175D02*X38150D01*
X37850Y57825D02*X38150D01*
G54D104*X39296Y56000D02*X40204D01*
G54D105*X39214Y56082D02*X40286D01*
Y55918D01*
X39214Y56082D02*Y55918D01*
G54D100*X39200Y56000D02*X40300D01*
G54D101*X39100Y56100D02*X40400D01*
X39100Y55900D02*X40400D01*
Y56100D02*Y55900D01*
X39100Y56100D02*Y55900D01*
G54D105*X39214Y55918D02*X40286D01*
X39214Y55582D02*Y55418D01*
G54D104*X39296Y55500D02*X40204D01*
G54D105*X39214Y55582D02*X40286D01*
G54D100*X39200Y55500D02*X40300D01*
G54D101*X39100Y55600D02*X40400D01*
G54D105*X39214Y55418D02*X40286D01*
Y55582D02*Y55418D01*
G54D101*X39100Y55400D02*X40400D01*
Y55600D02*Y55400D01*
Y55100D02*Y54900D01*
X39100Y55600D02*Y55400D01*
G54D104*X39296Y55000D02*X40204D01*
G54D105*X39214Y54918D02*X40286D01*
X39214Y55082D02*Y54918D01*
G54D100*X39200Y55000D02*X40300D01*
G54D105*X39214Y55082D02*X40286D01*
Y54918D01*
G54D101*X39100Y55100D02*X40400D01*
X39100D02*Y54900D01*
X40400D01*
G54D104*X39296Y54500D02*X40204D01*
G54D105*X39214Y54582D02*X40286D01*
X39214Y54418D02*X40286D01*
X39214Y54582D02*Y54418D01*
G54D100*X39200Y54500D02*X40300D01*
G54D101*X39100Y54600D02*X40400D01*
X39100Y54400D02*X40400D01*
Y54600D02*Y54400D01*
X39100Y54600D02*Y54400D01*
G54D105*X40286Y54582D02*Y54418D01*
Y54082D02*Y53918D01*
G54D104*X39296Y54000D02*X40204D01*
G54D105*X39214Y54082D02*X40286D01*
X39214Y53918D02*X40286D01*
G54D100*X39200Y54000D02*X40300D01*
G54D101*X40400Y54100D02*Y53900D01*
X39100Y54100D02*X40400D01*
X39100Y53900D02*X40400D01*
G54D105*X39214Y54082D02*Y53918D01*
G54D101*X39100Y54100D02*Y53900D01*
G54D102*X41500Y52525D02*Y52475D01*
X42500Y52525D02*Y52475D01*
G54D103*X42350Y52675D02*Y52325D01*
X42650Y52675D02*Y52325D01*
X42350Y52675D02*X42650D01*
X42350Y52325D02*X42650D01*
X41350Y52675D02*Y52325D01*
X41650Y52675D02*Y52325D01*
X41350Y52675D02*X41650D01*
X41350Y52325D02*X41650D01*
G54D102*X41500Y50525D02*Y50475D01*
G54D103*X41350Y50675D02*Y50325D01*
X41650Y50675D02*Y50325D01*
X41350Y50675D02*X41650D01*
X41350Y50325D02*X41650D01*
G54D102*X42500Y50525D02*Y50475D01*
G54D103*X42350Y50675D02*Y50325D01*
Y50675D02*X42650D01*
X42350Y50325D02*X42650D01*
Y50675D02*Y50325D01*
G54D104*X43796Y54000D02*X44704D01*
G54D105*X43714Y54082D02*Y53918D01*
G54D100*X43700Y54000D02*X44800D01*
G54D101*X43600Y53900D02*X44900D01*
G54D105*X43714Y53918D02*X44786D01*
X43714Y54082D02*X44786D01*
Y53918D01*
G54D101*X43600Y54100D02*X44900D01*
Y53900D01*
X43600Y54100D02*Y53900D01*
Y54600D02*Y54400D01*
G54D104*X43796Y54500D02*X44704D01*
G54D105*X43714Y54582D02*X44786D01*
Y54418D01*
G54D100*X43700Y54500D02*X44800D01*
G54D105*X43714Y54418D02*X44786D01*
X43714Y54582D02*Y54418D01*
G54D101*X43600Y54400D02*X44900D01*
X43600Y54600D02*X44900D01*
Y54400D01*
G54D102*X45975Y54500D02*X46025D01*
X46975D02*X47025D01*
G54D103*X46825Y54650D02*X47175D01*
X46825Y54350D02*X47175D01*
Y54650D02*Y54350D01*
X46825Y54650D02*Y54350D01*
X45825Y54650D02*X46175D01*
X45825Y54350D02*X46175D01*
Y54650D02*Y54350D01*
X45825Y54650D02*Y54350D01*
G54D104*X43796Y55000D02*X44704D01*
G54D105*X43714Y54918D02*X44786D01*
X43714Y55082D02*X44786D01*
Y54918D01*
G54D100*X43700Y55000D02*X44800D01*
G54D101*X43600Y54900D02*X44900D01*
X43600Y55100D02*X44900D01*
X43600D02*Y54900D01*
X44900Y55100D02*Y54900D01*
G54D105*X43714Y55082D02*Y54918D01*
G54D101*X43600Y55600D02*Y55400D01*
G54D105*X43714Y55582D02*Y55418D01*
Y55582D02*X44786D01*
Y55418D01*
G54D104*X43796Y55500D02*X44704D01*
G54D105*X43714Y55418D02*X44786D01*
G54D100*X43700Y55500D02*X44800D01*
G54D101*X43600Y55400D02*X44900D01*
X43600Y55600D02*X44900D01*
Y55400D01*
G54D104*X43796Y56000D02*X44704D01*
G54D105*X43714Y56082D02*X44786D01*
Y55918D01*
G54D100*X43700Y56000D02*X44800D01*
G54D105*X43714Y55918D02*X44786D01*
X43714Y56082D02*Y55918D01*
G54D101*X43600Y55900D02*X44900D01*
X43600Y56100D02*Y55900D01*
X44900Y56100D02*Y55900D01*
X43600Y56100D02*X44900D01*
G54D102*X45975Y55500D02*X46025D01*
X46000Y56525D02*Y56475D01*
G54D103*X45850Y56675D02*Y56325D01*
X46150Y56675D02*Y56325D01*
X45850Y56675D02*X46150D01*
X45850Y56325D02*X46150D01*
X45825Y55650D02*X46175D01*
X45825Y55350D02*X46175D01*
Y55650D02*Y55350D01*
X45825Y55650D02*Y55350D01*
G54D102*X46975Y55500D02*X47025D01*
G54D103*X46825Y55650D02*X47175D01*
X46825Y55350D02*X47175D01*
Y55650D02*Y55350D01*
X46825Y55650D02*Y55350D01*
G54D102*X47000Y56525D02*Y56475D01*
G54D103*X46850Y56675D02*Y56325D01*
X47150Y56675D02*Y56325D01*
X46850Y56675D02*X47150D01*
X46850Y56325D02*X47150D01*
G54D106*X33050Y13800D02*X33700D01*
G54D107*X34050Y14150D02*Y13450D01*
X32700Y14150D02*Y13450D01*
X34050D01*
X32700Y14150D02*X34050D01*
G54D106*X33050Y15200D02*X33700D01*
G54D107*X34050Y15550D02*Y14850D01*
X32700Y15550D02*Y14850D01*
X34050D01*
X32700Y15550D02*X34050D01*
G54D103*X31650Y16675D02*Y16325D01*
X31350Y16675D02*X31650D01*
G54D102*X34000Y16525D02*Y16475D01*
G54D103*X34150Y16675D02*Y16325D01*
X33850Y16675D02*Y16325D01*
X34150D01*
X33850Y16675D02*X34150D01*
G54D102*X33000Y16525D02*Y16475D01*
G54D103*X33150Y16675D02*Y16325D01*
X32850Y16675D02*X33150D01*
X32850D02*Y16325D01*
X33150D01*
G54D101*X46000Y15100D02*Y14900D01*
X46350Y15100D02*Y14900D01*
G54D102*X41000Y13525D02*Y13475D01*
X42000Y13525D02*Y13475D01*
G54D103*X41850Y13675D02*Y13325D01*
X42150Y13675D02*Y13325D01*
X41850Y13675D02*X42150D01*
X41850Y13325D02*X42150D01*
X40850Y13675D02*Y13325D01*
X41150Y13675D02*Y13325D01*
X40850Y13675D02*X41150D01*
X40850Y13325D02*X41150D01*
G54D102*X39000Y13525D02*Y13475D01*
G54D103*X38850Y13675D02*Y13325D01*
X39150Y13675D02*Y13325D01*
X38850Y13675D02*X39150D01*
X38850Y13325D02*X39150D01*
G54D102*X40000Y13525D02*Y13475D01*
G54D103*X39850Y13675D02*Y13325D01*
X40150Y13675D02*Y13325D01*
X39850Y13675D02*X40150D01*
X39850Y13325D02*X40150D01*
G54D100*X44750Y19000D02*X44900D01*
G54D101*X45000Y19100D02*Y18900D01*
G54D100*X44750Y19000D02*X44900D01*
G54D101*X44650Y19100D02*X45000D01*
Y18900D01*
X44650Y19100D02*X45000D01*
X44650Y18900D02*X45000D01*
X44650D02*X45000D01*
X44650Y19100D02*Y18900D01*
Y19100D02*Y18900D01*
G54D100*X44750Y18500D02*X44900D01*
G54D101*X45000Y18600D02*Y18400D01*
G54D100*X44750Y18500D02*X44900D01*
G54D101*X44650Y18600D02*X45000D01*
Y18400D01*
X44650Y18600D02*X45000D01*
X44650Y18400D02*X45000D01*
X44650D02*X45000D01*
X44650Y18600D02*Y18400D01*
Y18600D02*Y18400D01*
G54D100*X44750Y18000D02*X44900D01*
G54D101*X45000Y18100D02*Y17900D01*
G54D100*X44750Y18000D02*X44900D01*
G54D101*X44650Y18100D02*X45000D01*
Y17900D01*
X44650Y18100D02*X45000D01*
X44650Y17900D02*X45000D01*
X44650D02*X45000D01*
X44650Y18100D02*Y17900D01*
Y18100D02*Y17900D01*
G54D100*X46100Y18000D02*X46250D01*
G54D101*X46000Y18100D02*Y17900D01*
G54D100*X46100Y18000D02*X46250D01*
G54D101*X46000Y17900D02*X46350D01*
X46000Y18100D02*Y17900D01*
X46350D01*
X46000Y18100D02*X46350D01*
X46000D02*X46350D01*
Y17900D01*
Y18100D02*Y17900D01*
G54D100*X46100Y19000D02*X46250D01*
G54D101*X46000Y19100D02*Y18900D01*
G54D100*X46100Y19000D02*X46250D01*
G54D101*X46000Y18900D02*X46350D01*
X46000Y19100D02*Y18900D01*
X46350D01*
X46000Y19100D02*X46350D01*
X46000D02*X46350D01*
Y18900D01*
Y19100D02*Y18900D01*
G54D100*X44750Y24000D02*X44900D01*
G54D101*X45000Y24100D02*Y23900D01*
G54D100*X44750Y24000D02*X44900D01*
G54D101*X44650Y24100D02*X45000D01*
Y23900D01*
X44650Y24100D02*X45000D01*
X44650Y23900D02*X45000D01*
X44650D02*X45000D01*
X44650Y24100D02*Y23900D01*
Y24100D02*Y23900D01*
G54D100*X44750Y23500D02*X44900D01*
G54D101*X45000Y23600D02*Y23400D01*
G54D100*X44750Y23500D02*X44900D01*
G54D101*X44650Y23600D02*X45000D01*
Y23400D01*
X44650Y23600D02*X45000D01*
X44650Y23400D02*X45000D01*
X44650D02*X45000D01*
X44650Y23600D02*Y23400D01*
Y23600D02*Y23400D01*
G54D100*X44750Y23000D02*X44900D01*
G54D101*X45000Y23100D02*Y22900D01*
G54D100*X44750Y23000D02*X44900D01*
G54D101*X44650Y23100D02*X45000D01*
Y22900D01*
X44650Y23100D02*X45000D01*
X44650Y22900D02*X45000D01*
X44650D02*X45000D01*
X44650Y23100D02*Y22900D01*
Y23100D02*Y22900D01*
G54D100*X46100Y23000D02*X46250D01*
G54D101*X46000Y23100D02*Y22900D01*
G54D100*X46100Y23000D02*X46250D01*
G54D101*X46000Y22900D02*X46350D01*
X46000Y23100D02*Y22900D01*
X46350D01*
X46000Y23100D02*X46350D01*
X46000D02*X46350D01*
Y22900D01*
Y23100D02*Y22900D01*
G54D100*X46100Y24000D02*X46250D01*
G54D101*X46000Y24100D02*Y23900D01*
G54D100*X46100Y24000D02*X46250D01*
G54D101*X46000Y23900D02*X46350D01*
X46000Y24100D02*Y23900D01*
X46350D01*
X46000Y24100D02*X46350D01*
X46000D02*X46350D01*
Y23900D01*
Y24100D02*Y23900D01*
G54D102*X36000Y19525D02*Y19475D01*
G54D103*X35850Y19675D02*Y19325D01*
X36150Y19675D02*Y19325D01*
X35850Y19675D02*X36150D01*
X35850Y19325D02*X36150D01*
G54D102*X37000Y19525D02*Y19475D01*
X38000Y19525D02*Y19475D01*
G54D103*X37850Y19675D02*Y19325D01*
X38150Y19675D02*Y19325D01*
X37850Y19675D02*X38150D01*
X37850Y19325D02*X38150D01*
X36850Y19675D02*Y19325D01*
Y19675D02*X37150D01*
X36850Y19325D02*X37150D01*
Y19675D02*Y19325D01*
G54D102*X41000Y19525D02*Y19475D01*
G54D103*X40150Y19675D02*Y19325D01*
X39850Y19675D02*X40150D01*
X41150D02*Y19325D01*
X40850Y19675D02*Y19325D01*
X41150D01*
X40850Y19675D02*X41150D01*
G54D102*X40000Y19525D02*Y19475D01*
G54D103*X39850Y19675D02*Y19325D01*
X40150D01*
G54D102*X39000Y19525D02*Y19475D01*
G54D103*X39150Y19675D02*Y19325D01*
X38850Y19675D02*Y19325D01*
X39150D01*
X38850Y19675D02*X39150D01*
X37850Y18675D02*Y18325D01*
Y18675D02*X38150D01*
X37850Y18325D02*X38150D01*
Y18675D02*Y18325D01*
G54D102*X39000Y18525D02*Y18475D01*
G54D103*X38850Y18675D02*Y18325D01*
X39150Y18675D02*Y18325D01*
X38850Y18675D02*X39150D01*
X38850Y18325D02*X39150D01*
G54D102*X40000Y18525D02*Y18475D01*
X41000Y18525D02*Y18475D01*
G54D103*X40850Y18675D02*Y18325D01*
X41150Y18675D02*Y18325D01*
X40850Y18675D02*X41150D01*
X40850Y18325D02*X41150D01*
X39850Y18675D02*Y18325D01*
Y18675D02*X40150D01*
X39850Y18325D02*X40150D01*
Y18675D02*Y18325D01*
G54D108*X37575Y21550D02*X38025D01*
G54D101*X37300Y21825D02*X38300D01*
X37300D02*Y21275D01*
X38300Y21825D02*Y21275D01*
X37300D02*X38300D01*
G54D108*X37575Y22500D02*X38025D01*
G54D101*X37300Y22225D02*X38300D01*
X37300Y22775D02*X38300D01*
X37300D02*Y22225D01*
X38300Y22775D02*Y22225D01*
G54D102*X39475Y21000D02*X39525D01*
X39475Y22000D02*X39525D01*
G54D103*X39325Y21850D02*X39675D01*
X39325Y22150D02*X39675D01*
X39325D02*Y21850D01*
X39675Y22150D02*Y21850D01*
X39325Y20850D02*X39675D01*
X39325Y21150D02*Y20850D01*
X39675Y21150D02*Y20850D01*
X39325Y21150D02*X39675D01*
G54D108*X37575Y23450D02*X38025D01*
G54D101*X37300Y23725D02*Y23175D01*
X38300Y23725D02*Y23175D01*
X37300D02*X38300D01*
X37300Y23725D02*X38300D01*
G54D102*X39475Y24000D02*X39525D01*
X39475Y23000D02*X39525D01*
G54D103*X39325Y23150D02*X39675D01*
X39325Y22850D02*X39675D01*
Y23150D02*Y22850D01*
X39325Y23150D02*Y22850D01*
Y24150D02*X39675D01*
Y23850D01*
X39325Y24150D02*Y23850D01*
X39675D01*
G54D108*X34975Y23450D02*X35425D01*
G54D101*X34700Y23725D02*X35700D01*
X34700Y23175D02*X35700D01*
Y23725D02*Y23175D01*
X34700Y23725D02*Y23175D01*
G54D108*X34975Y22500D02*X35425D01*
G54D101*X34700Y22225D02*X35700D01*
Y22775D02*Y22225D01*
X34700Y22775D02*Y22225D01*
Y22775D02*X35700D01*
G54D108*X34975Y21550D02*X35425D01*
G54D101*X34700Y21825D02*X35700D01*
X34700Y21275D02*X35700D01*
Y21825D02*Y21275D01*
X34700Y21825D02*Y21275D01*
G54D102*X32000Y20025D02*Y19975D01*
G54D103*X32850Y20175D02*Y19825D01*
X33150D01*
X31850Y20175D02*Y19825D01*
X32150Y20175D02*Y19825D01*
X31850Y20175D02*X32150D01*
X31850Y19825D02*X32150D01*
G54D102*X33000Y20025D02*Y19975D01*
G54D103*X33150Y20175D02*Y19825D01*
X32850Y20175D02*X33150D01*
G54D102*X34000Y20025D02*Y19975D01*
G54D103*X33850Y20175D02*Y19825D01*
X34150Y20175D02*Y19825D01*
X33850D02*X34150D01*
X33850Y20175D02*X34150D01*
G54D102*X35000Y20025D02*Y19975D01*
G54D103*X35150Y20175D02*Y19825D01*
X34850Y20175D02*Y19825D01*
X35150D01*
X34850Y20175D02*X35150D01*
G54D109*X48095Y3160D02*Y2500D01*
G54D110*X47890Y2295D02*X48300D01*
X47890Y3365D02*Y2295D01*
X48300Y3365D02*Y2295D01*
X47890Y3365D02*X48300D01*
G54D109*X49365Y3160D02*Y2500D01*
G54D110*X49160Y3365D02*Y2295D01*
X49570Y3365D02*Y2295D01*
X49160Y3365D02*X49570D01*
X49160Y2295D02*X49570D01*
G54D109*X50635Y3160D02*Y2500D01*
G54D110*X50430Y3365D02*Y2295D01*
X50840Y3365D02*Y2295D01*
X50430Y3365D02*X50840D01*
X50430Y2295D02*X50840D01*
G54D109*X51905Y3160D02*Y2500D01*
G54D110*X51700Y3365D02*Y2295D01*
X52110Y3365D02*Y2295D01*
X51700Y3365D02*X52110D01*
X51700Y2295D02*X52110D01*
G54D111*X48870Y6954D02*Y5426D01*
G54D112*X49383Y7466D02*Y4914D01*
X48357Y7466D02*X49383D01*
G54D113*X48870Y7270D02*Y5110D01*
G54D112*X48357Y7466D02*Y4914D01*
X49383D01*
G54D110*X48145Y7995D02*Y4385D01*
X49595Y7995D02*Y4385D01*
X48145Y7995D02*X49595D01*
X48145Y4385D02*X49595D01*
G54D111*X51130Y6954D02*Y5426D01*
G54D112*X51643Y7466D02*Y4914D01*
X50617Y7466D02*X51643D01*
G54D113*X51130Y7270D02*Y5110D01*
G54D112*X50617Y7466D02*Y4914D01*
X51643D01*
G54D110*X50405Y7995D02*Y4385D01*
X51855Y7995D02*Y4385D01*
X50405Y7995D02*X51855D01*
X50405Y4385D02*X51855D01*
G54D100*X44750Y15000D02*X44900D01*
G54D101*X44650Y15100D02*Y14900D01*
G54D100*X44750Y15000D02*X44900D01*
G54D101*X44650Y15100D02*Y14900D01*
Y15100D02*X45000D01*
X44650D02*X45000D01*
X44650Y14900D02*X45000D01*
X44650D02*X45000D01*
Y15100D02*Y14900D01*
Y15100D02*Y14900D01*
G54D100*X44750Y14500D02*X44900D01*
G54D101*X44650Y14400D02*X45000D01*
Y14600D02*Y14400D01*
G54D100*X44750Y14500D02*X44900D01*
G54D101*X44650Y14400D02*X45000D01*
Y14600D02*Y14400D01*
X44650Y14600D02*X45000D01*
X44650D02*Y14400D01*
Y14600D02*X45000D01*
X44650D02*Y14400D01*
G54D100*X44750Y14000D02*X44900D01*
G54D101*X44650Y14100D02*Y13900D01*
G54D100*X44750Y14000D02*X44900D01*
G54D101*X44650Y14100D02*X45000D01*
X44650Y13900D02*X45000D01*
X44650Y14100D02*Y13900D01*
Y14100D02*X45000D01*
X44650Y13900D02*X45000D01*
Y14100D02*Y13900D01*
Y14100D02*Y13900D01*
G54D100*X46100Y14000D02*X46250D01*
G54D101*X46000Y14100D02*Y13900D01*
G54D100*X46100Y14000D02*X46250D01*
G54D101*X46000Y13900D02*X46350D01*
X46000Y14100D02*Y13900D01*
X46350D01*
X46000Y14100D02*X46350D01*
X46000D02*X46350D01*
Y13900D01*
Y14100D02*Y13900D01*
G54D100*X46100Y15000D02*X46250D01*
G54D101*X46000Y15100D02*Y14900D01*
X46350Y15100D02*Y14900D01*
G54D100*X46100Y15000D02*X46250D01*
G54D101*X46000Y14900D02*X46350D01*
X46000D02*X46350D01*
X46000Y15100D02*X46350D01*
X46000D02*X46350D01*
G54D109*X48095Y8500D02*Y8090D01*
G54D110*X47890Y8705D02*Y7885D01*
X48300Y8705D02*Y7885D01*
X47890Y8705D02*X48300D01*
X47890Y7885D02*X48300D01*
G54D109*X49365Y8500D02*Y8090D01*
G54D110*X49160Y8705D02*Y7885D01*
X49570Y8705D02*Y7885D01*
X49160Y8705D02*X49570D01*
X49160Y7885D02*X49570D01*
G54D109*X50635Y8500D02*Y8090D01*
G54D110*X50430Y8705D02*Y7885D01*
X50840Y8705D02*Y7885D01*
X50430Y8705D02*X50840D01*
X50430Y7885D02*X50840D01*
G54D109*X51905Y8500D02*Y8090D01*
G54D110*X51700Y8705D02*Y7885D01*
X52110Y8705D02*Y7885D01*
X51700Y8705D02*X52110D01*
X51700Y7885D02*X52110D01*
G54D102*X54500Y10025D02*Y9975D01*
G54D103*X54650Y10175D02*Y9825D01*
X54350Y10175D02*Y9825D01*
X54650D01*
X54350Y10175D02*X54650D01*
G54D102*X54500Y9025D02*Y8975D01*
G54D103*X54650Y9175D02*Y8825D01*
X54350Y9175D02*Y8825D01*
X54650D01*
X54350Y9175D02*X54650D01*
G54D102*X53500Y10025D02*Y9975D01*
G54D103*X53650Y10175D02*Y9825D01*
X53350Y10175D02*Y9825D01*
X53650D01*
X53350Y10175D02*X53650D01*
G54D102*X53500Y9025D02*Y8975D01*
G54D103*X53650Y9175D02*Y8825D01*
X53350Y9175D02*Y8825D01*
X53650D01*
X53350Y9175D02*X53650D01*
G54D100*X44750Y34000D02*X44900D01*
G54D101*X45000Y34100D02*Y33900D01*
G54D100*X44750Y34000D02*X44900D01*
G54D101*X44650Y34100D02*X45000D01*
Y33900D01*
X44650Y34100D02*X45000D01*
X44650Y33900D02*X45000D01*
X44650D02*X45000D01*
X44650Y34100D02*Y33900D01*
Y34100D02*Y33900D01*
G54D100*X44750Y33500D02*X44900D01*
G54D101*X45000Y33600D02*Y33400D01*
G54D100*X44750Y33500D02*X44900D01*
G54D101*X44650Y33600D02*X45000D01*
Y33400D01*
X44650Y33600D02*X45000D01*
X44650Y33400D02*X45000D01*
X44650D02*X45000D01*
X44650Y33600D02*Y33400D01*
Y33600D02*Y33400D01*
G54D100*X44750Y33000D02*X44900D01*
G54D101*X45000Y33100D02*Y32900D01*
G54D100*X44750Y33000D02*X44900D01*
G54D101*X44650Y33100D02*X45000D01*
Y32900D01*
X44650Y33100D02*X45000D01*
X44650Y32900D02*X45000D01*
X44650D02*X45000D01*
X44650Y33100D02*Y32900D01*
Y33100D02*Y32900D01*
G54D100*X46100Y33000D02*X46250D01*
G54D101*X46000Y33100D02*Y32900D01*
G54D100*X46100Y33000D02*X46250D01*
G54D101*X46000Y32900D02*X46350D01*
X46000Y33100D02*Y32900D01*
X46350D01*
X46000Y33100D02*X46350D01*
X46000D02*X46350D01*
Y32900D01*
Y33100D02*Y32900D01*
G54D100*X46100Y34000D02*X46250D01*
G54D101*X46000Y34100D02*Y33900D01*
G54D100*X46100Y34000D02*X46250D01*
G54D101*X46000Y33900D02*X46350D01*
X46000Y34100D02*Y33900D01*
X46350D01*
X46000Y34100D02*X46350D01*
X46000D02*X46350D01*
Y33900D01*
Y34100D02*Y33900D01*
G54D100*X44750Y29000D02*X44900D01*
G54D101*X45000Y29100D02*Y28900D01*
G54D100*X44750Y29000D02*X44900D01*
G54D101*X44650Y29100D02*X45000D01*
Y28900D01*
X44650Y29100D02*X45000D01*
X44650Y28900D02*X45000D01*
X44650D02*X45000D01*
X44650Y29100D02*Y28900D01*
Y29100D02*Y28900D01*
G54D100*X44750Y28500D02*X44900D01*
G54D101*X45000Y28600D02*Y28400D01*
G54D100*X44750Y28500D02*X44900D01*
G54D101*X44650Y28600D02*X45000D01*
Y28400D01*
X44650Y28600D02*X45000D01*
X44650Y28400D02*X45000D01*
X44650D02*X45000D01*
X44650Y28600D02*Y28400D01*
Y28600D02*Y28400D01*
G54D100*X44750Y28000D02*X44900D01*
G54D101*X45000Y28100D02*Y27900D01*
G54D100*X44750Y28000D02*X44900D01*
G54D101*X44650Y28100D02*X45000D01*
Y27900D01*
X44650Y28100D02*X45000D01*
X44650Y27900D02*X45000D01*
X44650D02*X45000D01*
X44650Y28100D02*Y27900D01*
Y28100D02*Y27900D01*
G54D100*X46100Y28000D02*X46250D01*
G54D101*X46000Y28100D02*Y27900D01*
G54D100*X46100Y28000D02*X46250D01*
G54D101*X46000Y27900D02*X46350D01*
X46000Y28100D02*Y27900D01*
X46350D01*
X46000Y28100D02*X46350D01*
X46000D02*X46350D01*
Y27900D01*
Y28100D02*Y27900D01*
G54D100*X46100Y29000D02*X46250D01*
G54D101*X46000Y29100D02*Y28900D01*
G54D100*X46100Y29000D02*X46250D01*
G54D101*X46000Y28900D02*X46350D01*
X46000Y29100D02*Y28900D01*
X46350D01*
X46000Y29100D02*X46350D01*
X46000D02*X46350D01*
Y28900D01*
Y29100D02*Y28900D01*
G54D102*X11975Y10000D02*X12025D01*
G54D103*X11825Y10150D02*X12175D01*
X11825Y9850D02*X12175D01*
Y10150D02*Y9850D01*
X11825Y10150D02*Y9850D01*
G54D102*X11975Y9000D02*X12025D01*
G54D103*X11825Y9150D02*X12175D01*
Y8850D01*
X11825Y9150D02*Y8850D01*
G54D114*X8228Y9472D02*Y8328D01*
G54D115*X9372Y9472D02*Y8328D01*
X2928Y9472D02*Y8328D01*
G54D114*X4072Y9472D02*Y8328D01*
G54D103*X11825Y8850D02*X12175D01*
G54D102*X11975Y8000D02*X12025D01*
G54D103*X11825Y7850D02*X12175D01*
X11825Y8150D02*X12175D01*
X11825D02*Y7850D01*
X12175Y8150D02*Y7850D01*
G54D102*X11975Y7000D02*X12025D01*
G54D103*X11825Y6850D02*X12175D01*
X11825Y7150D02*X12175D01*
X11825D02*Y6850D01*
X12175Y7150D02*Y6850D01*
G54D108*X13475Y7950D02*X13925D01*
G54D101*X13200Y8225D02*Y7675D01*
G54D108*X13475Y7950D02*X13925D01*
G54D101*X13200Y8225D02*Y7675D01*
Y8225D02*X14200D01*
X13200D02*X14200D01*
X13200Y7675D02*X14200D01*
X13200D02*X14200D01*
Y8225D02*Y7675D01*
Y8225D02*Y7675D01*
G54D116*X14800Y10075D02*Y9925D01*
X13200Y10075D02*Y9925D01*
G54D107*X13400Y10275D02*Y9725D01*
X13000Y10275D02*Y9725D01*
X13400D01*
X13000Y10275D02*X13400D01*
X15000D02*Y9725D01*
X14600Y10275D02*Y9725D01*
X15000D01*
X14600Y10275D02*X15000D01*
G54D108*X13475Y7000D02*X13925D01*
G54D101*X13200Y6725D02*X14200D01*
Y7275D02*Y6725D01*
G54D108*X13475Y7000D02*X13925D01*
G54D101*X13200Y6725D02*X14200D01*
Y7275D02*Y6725D01*
X13200Y7275D02*X14200D01*
X13200D02*Y6725D01*
Y7275D02*X14200D01*
X13200D02*Y6725D01*
G54D108*X13475Y6050D02*X13925D01*
G54D101*X13200Y6325D02*Y5775D01*
G54D108*X13475Y6050D02*X13925D01*
G54D101*X13200Y6325D02*X14200D01*
X13200Y5775D02*X14200D01*
X13200Y6325D02*Y5775D01*
Y6325D02*X14200D01*
X13200Y5775D02*X14200D01*
Y6325D02*Y5775D01*
Y6325D02*Y5775D01*
G54D108*X16075Y6050D02*X16525D01*
G54D101*X15800Y6325D02*Y5775D01*
G54D108*X16075Y6050D02*X16525D01*
G54D101*X15800Y5775D02*X16800D01*
X15800Y6325D02*Y5775D01*
X16800D01*
X15800Y6325D02*X16800D01*
X15800D02*X16800D01*
Y5775D01*
Y6325D02*Y5775D01*
G54D116*X20000Y5675D02*Y5525D01*
X18400Y5675D02*Y5525D01*
G54D107*X18600Y5875D02*Y5325D01*
X18200Y5875D02*Y5325D01*
X18600D01*
X18200Y5875D02*X18600D01*
X20200D02*Y5325D01*
X19800Y5875D02*Y5325D01*
X20200D01*
X19800Y5875D02*X20200D01*
G54D108*X16075Y7950D02*X16525D01*
G54D101*X15800Y8225D02*Y7675D01*
G54D108*X16075Y7950D02*X16525D01*
G54D101*X15800Y7675D02*X16800D01*
X15800Y8225D02*Y7675D01*
X16800D01*
X15800Y8225D02*X16800D01*
X15800D02*X16800D01*
Y7675D01*
Y8225D02*Y7675D01*
G54D117*X18425Y9550D02*X18975D01*
G54D107*X17975Y9100D02*X19425D01*
Y10000D02*Y9100D01*
X17975Y10000D02*Y9100D01*
Y10000D02*X19425D01*
G54D117*X18425Y7650D02*X18975D01*
G54D107*X17975Y8100D02*X19425D01*
X17975Y7200D02*X19425D01*
Y8100D02*Y7200D01*
X17975Y8100D02*Y7200D01*
G54D102*X21975Y13500D02*X22025D01*
X21975Y14500D02*X22025D01*
G54D103*X21825Y14350D02*X22175D01*
X21825Y14650D02*Y14350D01*
Y13350D02*X22175D01*
X21825Y13650D02*X22175D01*
X21825D02*Y13350D01*
X22175Y13650D02*Y13350D01*
X21825Y14650D02*X22175D01*
Y14350D01*
G54D102*X22975Y15500D02*X23025D01*
X22975Y14500D02*X23025D01*
G54D103*X22825Y14650D02*Y14350D01*
Y13650D02*Y13350D01*
G54D102*X20475Y13900D02*X20525D01*
X20475Y12900D02*X20525D01*
G54D103*X20325Y13050D02*X20675D01*
X20325Y12750D02*X20675D01*
Y13050D02*Y12750D01*
X20325Y13050D02*Y12750D01*
Y14050D02*X20675D01*
X20325Y13750D02*X20675D01*
Y14050D02*Y13750D01*
X20325Y14050D02*Y13750D01*
X22825Y15350D02*X23175D01*
Y15650D02*Y15350D01*
X22825Y15650D02*X23175D01*
X22825D02*Y15350D01*
G54D102*X22975Y16500D02*X23025D01*
G54D103*X22825Y16350D02*X23175D01*
X22825Y16650D02*X23175D01*
X22825D02*Y16350D01*
X23175Y16650D02*Y16350D01*
X22825Y14650D02*X23175D01*
X22825Y14350D02*X23175D01*
Y14650D02*Y14350D01*
G54D102*X22975Y13500D02*X23025D01*
G54D103*X22825Y13650D02*X23175D01*
X22825Y13350D02*X23175D01*
Y13650D02*Y13350D01*
G54D118*X21161Y17479D02*X21339D01*
G54D101*X21150Y17450D02*X21350D01*
G54D118*X21661Y17479D02*X21839D01*
G54D101*X21650Y17450D02*X21850D01*
G54D119*X21250Y17882D03*
G54D120*Y17747D02*Y17613D01*
G54D103*Y17900D03*
G54D102*Y17750D02*Y17600D01*
G54D119*X21750Y17882D03*
G54D120*Y17747D02*Y17613D01*
G54D103*Y17900D03*
G54D102*Y17750D02*Y17600D01*
G54D118*X22161Y17479D02*X22339D01*
G54D101*X22150Y17450D02*X22350D01*
G54D118*X22661Y17479D02*X22839D01*
G54D101*X22650Y17450D02*X22850D01*
G54D119*X22250Y17882D03*
G54D120*Y17747D02*Y17613D01*
G54D103*Y17900D03*
G54D102*Y17750D02*Y17600D01*
G54D119*X22750Y17882D03*
G54D120*Y17747D02*Y17613D01*
G54D103*Y17900D03*
G54D102*Y17750D02*Y17600D01*
G54D118*X23161Y17479D02*X23339D01*
G54D101*X23150Y17450D02*X23350D01*
G54D118*X23661Y17479D02*X23839D01*
G54D101*X23650Y17450D02*X23850D01*
G54D119*X23250Y17882D03*
G54D120*Y17747D02*Y17613D01*
G54D103*Y17900D03*
G54D102*Y17750D02*Y17600D01*
G54D119*X23750Y17882D03*
G54D120*Y17747D02*Y17613D01*
G54D103*Y17900D03*
G54D102*Y17750D02*Y17600D01*
G54D121*X23156Y20156D02*X23364D01*
G54D101*X23053Y20053D02*X23467D01*
G54D122*G36*
X22865Y20035D02*X23035Y19865D01*
X22905Y19735D01*
X22735Y19905D01*
X22865Y20035D01*
G37*
G36*
X22905Y20075D02*X23075Y19905D01*
X22945Y19775D01*
X22775Y19945D01*
X22905Y20075D01*
G37*
G54D118*X20479Y20339D02*Y20161D01*
G54D101*X20450Y20350D02*Y20150D01*
G54D118*X20479Y19839D02*Y19661D01*
G54D101*X20450Y19850D02*Y19650D01*
G54D119*X20882Y20250D03*
G54D120*X20613D02*X20747D01*
G54D103*X20900D03*
G54D102*X20600D02*X20750D01*
G54D119*X20882Y19750D03*
G54D120*X20613D02*X20747D01*
G54D103*X20900D03*
G54D102*X20600D02*X20750D01*
G54D118*X20479Y19339D02*Y19161D01*
G54D101*X20450Y19350D02*Y19150D01*
G54D118*X20479Y18839D02*Y18661D01*
G54D101*X20450Y18850D02*Y18650D01*
G54D119*X20882Y19250D03*
G54D120*X20613D02*X20747D01*
G54D103*X20900D03*
G54D102*X20600D02*X20750D01*
G54D119*X20882Y18750D03*
G54D120*X20613D02*X20747D01*
G54D103*X20900D03*
G54D102*X20600D02*X20750D01*
G54D118*X20479Y18339D02*Y18161D01*
G54D101*X20450Y18350D02*Y18150D01*
G54D119*X20882Y18250D03*
G54D120*X20613D02*X20747D01*
G54D103*X20900D03*
G54D102*X20600D02*X20750D01*
G54D123*X11529Y13500D02*X12021D01*
G54D118*X11440Y13411D02*X12110D01*
X11440Y13589D02*Y13411D01*
G54D100*X11500Y13500D02*X12050D01*
G54D118*X11440Y13589D02*X12110D01*
Y13411D01*
G54D101*X11400Y13600D02*X12150D01*
X11400Y13400D02*X12150D01*
Y13600D02*Y13400D01*
X11400Y13600D02*Y13400D01*
G54D123*X11529Y13000D02*X12021D01*
G54D118*X11440Y12911D02*X12110D01*
X11440Y13089D02*Y12911D01*
G54D100*X11500Y13000D02*X12050D01*
G54D118*X11440Y13089D02*X12110D01*
Y12911D01*
G54D101*X11400Y13100D02*X12150D01*
X11400Y12900D02*X12150D01*
Y13100D02*Y12900D01*
X11400Y13100D02*Y12900D01*
G54D123*X11529Y12500D02*X12021D01*
G54D118*X11440Y12411D02*X12110D01*
X11440Y12589D02*Y12411D01*
G54D100*X11500Y12500D02*X12050D01*
G54D118*X11440Y12589D02*X12110D01*
Y12411D01*
G54D101*X11400Y12600D02*X12150D01*
X11400Y12400D02*X12150D01*
Y12600D02*Y12400D01*
X11400Y12600D02*Y12400D01*
G54D123*X12979Y12500D02*X13471D01*
G54D118*X12890Y12589D02*X13560D01*
Y12411D01*
G54D100*X12950Y12500D02*X13500D01*
G54D118*X12890Y12411D02*X13560D01*
X12890Y12589D02*Y12411D01*
G54D101*X12850Y12400D02*X13600D01*
X12850Y12600D02*X13600D01*
X12850D02*Y12400D01*
X13600Y12600D02*Y12400D01*
G54D123*X12979Y13000D02*X13471D01*
G54D118*X12890Y13089D02*X13560D01*
Y12911D01*
G54D100*X12950Y13000D02*X13500D01*
G54D118*X12890Y12911D02*X13560D01*
X12890Y13089D02*Y12911D01*
G54D101*X12850Y12900D02*X13600D01*
X12850Y13100D02*X13600D01*
X12850D02*Y12900D01*
X13600Y13100D02*Y12900D01*
G54D123*X12979Y13500D02*X13471D01*
G54D118*X12890Y13589D02*X13560D01*
Y13411D01*
G54D100*X12950Y13500D02*X13500D01*
G54D118*X12890Y13411D02*X13560D01*
X12890Y13589D02*Y13411D01*
G54D101*X12850Y13400D02*X13600D01*
X12850Y13600D02*X13600D01*
X12850D02*Y13400D01*
X13600Y13600D02*Y13400D01*
G54D102*X11475Y16000D02*X11525D01*
G54D103*X11325Y16150D02*X11675D01*
X11325Y15850D02*X11675D01*
Y16150D02*Y15850D01*
X11325Y16150D02*Y15850D01*
G54D102*X11475Y15000D02*X11525D01*
G54D103*X11325Y15150D02*X11675D01*
X11325Y14850D02*X11675D01*
Y15150D02*Y14850D01*
X11325Y15150D02*Y14850D01*
G54D102*X13475Y18500D02*X13525D01*
G54D103*X13325Y18350D02*X13675D01*
X13325Y18650D02*X13675D01*
X13325D02*Y18350D01*
X13675Y18650D02*Y18350D01*
G54D102*X13475Y19500D02*X13525D01*
G54D103*X13325Y19350D02*X13675D01*
X13325Y19650D02*Y19350D01*
G54D102*X20475Y15900D02*X20525D01*
G54D103*X20325Y16050D02*X20675D01*
X20325Y15750D02*X20675D01*
Y16050D02*Y15750D01*
X20325Y16050D02*Y15750D01*
G54D102*X20475Y14900D02*X20525D01*
G54D103*X20325Y15050D02*X20675D01*
X20325Y14750D02*X20675D01*
Y15050D02*Y14750D01*
X20325Y15050D02*Y14750D01*
G54D102*X18500Y18025D02*Y17975D01*
G54D103*X18350Y18175D02*Y17825D01*
X18650Y18175D02*Y17825D01*
X18350Y18175D02*X18650D01*
X18350Y17825D02*X18650D01*
G54D102*X19500Y18025D02*Y17975D01*
G54D103*X19350Y18175D02*Y17825D01*
X19650Y18175D02*Y17825D01*
X19350Y18175D02*X19650D01*
X19350Y17825D02*X19650D01*
G54D102*X16500Y18025D02*Y17975D01*
G54D103*X16350Y18175D02*Y17825D01*
X16650Y18175D02*Y17825D01*
X16350Y18175D02*X16650D01*
X16350Y17825D02*X16650D01*
G54D102*X17500Y18025D02*Y17975D01*
G54D103*X17350Y18175D02*Y17825D01*
X17650Y18175D02*Y17825D01*
X17350Y18175D02*X17650D01*
X17350Y17825D02*X17650D01*
G54D124*X18511Y16350D02*X18689D01*
G54D118*X18019Y16842D02*X19181D01*
G54D125*X18500Y16350D02*X18700D01*
G54D118*X19181Y16842D02*Y15858D01*
X18019D02*X19181D01*
G54D101*X19250Y16900D02*Y15800D01*
X17950D02*X19250D01*
X17950Y16900D02*X19250D01*
G54D124*X18511Y14650D02*X18689D01*
G54D118*X18019Y15142D02*Y14158D01*
X19181Y15142D02*Y14158D01*
X18019Y15142D02*X19181D01*
X18019Y14158D02*X19181D01*
G54D125*X18500Y14650D02*X18700D01*
G54D101*X17950Y15200D02*X19250D01*
X17950Y14100D02*X19250D01*
X17950Y15200D02*Y14100D01*
X19250Y15200D02*Y14100D01*
X17050Y16900D02*Y15800D01*
G54D124*X16311Y14650D02*X16489D01*
G54D118*X15819Y15142D02*X16981D01*
X15819Y14158D02*X16981D01*
G54D125*X16300Y14650D02*X16500D01*
G54D101*X15750Y15200D02*X17050D01*
X15750Y14100D02*X17050D01*
G54D118*X15819Y15142D02*Y14158D01*
G54D101*X15750Y15200D02*Y14100D01*
G54D118*X16981Y15142D02*Y14158D01*
G54D101*X17050Y15200D02*Y14100D01*
G54D102*X14475Y16000D02*X14525D01*
G54D103*X14325Y15850D02*X14675D01*
X14325Y16150D02*X14675D01*
X14325D02*Y15850D01*
X14675Y16150D02*Y15850D01*
G54D102*X14475Y17000D02*X14525D01*
G54D103*X14325Y16850D02*X14675D01*
X14325Y17150D02*X14675D01*
X14325D02*Y16850D01*
X14675Y17150D02*Y16850D01*
X13325Y19650D02*X13675D01*
Y19350D01*
G54D102*X14475Y19500D02*X14525D01*
G54D103*X14325Y19650D02*X14675D01*
X14325Y19350D02*X14675D01*
Y19650D02*Y19350D01*
X14325Y19650D02*Y19350D01*
G54D102*X14475Y18500D02*X14525D01*
G54D103*X14325Y18650D02*X14675D01*
X14325D02*Y18350D01*
X14675D01*
Y18650D02*Y18350D01*
G54D108*X16050Y19925D02*Y19475D01*
G54D101*X15775Y20200D02*Y19200D01*
X16325D01*
Y20200D02*Y19200D01*
X15775Y20200D02*X16325D01*
G54D108*X17000Y19925D02*Y19475D01*
G54D101*X16725Y20200D02*Y19200D01*
X17275Y20200D02*Y19200D01*
X16725Y20200D02*X17275D01*
X16725Y19200D02*X17275D01*
G54D108*X17950Y19925D02*Y19475D01*
G54D101*X18225Y20200D02*Y19200D01*
X17675Y20200D02*X18225D01*
X17675Y19200D02*X18225D01*
X17675Y20200D02*Y19200D01*
G54D118*X18019Y16842D02*Y15858D01*
G54D101*X17950Y16900D02*Y15800D01*
G54D124*X16311Y16350D02*X16489D01*
G54D118*X16981Y16842D02*Y15858D01*
X15819Y16842D02*Y15858D01*
X16981D01*
X15819Y16842D02*X16981D01*
G54D125*X16300Y16350D02*X16500D01*
G54D101*X15750Y16900D02*Y15800D01*
X17050D01*
X15750Y16900D02*X17050D01*
G54D102*X8250Y14100D02*X9750D01*
G54D110*X8100Y14250D02*X9900D01*
X8100Y13950D02*X9900D01*
X8100Y14250D02*Y13950D01*
X9900Y14250D02*Y13950D01*
G54D102*X8250Y13300D02*X9750D01*
G54D110*X8100Y13450D02*X9900D01*
Y13150D01*
G54D115*X2928Y16672D02*Y15528D01*
X4072Y16672D02*Y15528D01*
X8228Y16672D02*Y15528D01*
X9372Y16672D02*Y15528D01*
G54D110*X8100Y13150D02*X9900D01*
X8100Y13450D02*Y13150D01*
G54D102*X8250Y12500D02*X9750D01*
G54D110*X8100Y12650D02*X9900D01*
X8100Y12350D02*X9900D01*
X8100Y12650D02*Y12350D01*
X9900Y12650D02*Y12350D01*
X8100Y11550D02*X9900D01*
Y11850D02*Y11550D01*
G54D102*X8250Y11700D02*X9750D01*
G54D110*X8100Y11850D02*X9900D01*
X8100D02*Y11550D01*
G54D102*X8250Y10900D02*X9750D01*
G54D110*X8100Y11050D02*X9900D01*
X8100Y10750D02*X9900D01*
Y11050D02*Y10750D01*
X8100Y11050D02*Y10750D01*
G54D101*X39650Y34700D02*X39850D01*
X39150D02*X39350D01*
X38650D02*X38850D01*
X38150D02*X38350D01*
G54D103*X39750Y34100D03*
G54D102*Y34550D02*Y34250D01*
G54D103*X39250Y34100D03*
G54D102*Y34550D02*Y34250D01*
G54D103*X38750Y34100D03*
G54D102*Y34550D02*Y34250D01*
G54D103*X38250Y34100D03*
G54D102*Y34550D02*Y34250D01*
G54D101*X40700Y32850D02*Y32650D01*
Y33350D02*Y33150D01*
Y33850D02*Y33650D01*
G54D103*X40100Y32750D03*
Y33250D03*
Y33750D03*
G54D102*X40250Y32750D02*X40550D01*
X40250Y33250D02*X40550D01*
X40250Y33750D02*X40550D01*
G54D122*G36*
X39545Y33715D02*X39715Y33545D01*
X39585Y33415D01*
X39415Y33585D01*
X39545Y33715D01*
G37*
G36*
X39505Y33675D02*X39675Y33505D01*
X39545Y33375D01*
X39375Y33545D01*
X39505Y33675D01*
G37*
G54D126*X39083Y33292D02*X39292D01*
X39083Y33083D02*X39292D01*
G54D101*X38979Y33396D02*X39396D01*
X38979D02*Y32979D01*
X39396D01*
Y33396D02*Y32979D01*
G54D126*X37333Y33292D02*X37542D01*
X37333Y33083D02*X37542D01*
G54D101*X37229Y32979D02*X37646D01*
Y33396D02*Y32979D01*
X37229Y33396D02*Y32979D01*
Y33396D02*X37646D01*
G54D126*X38208Y33292D02*X38417D01*
X38208Y33083D02*X38417D01*
G54D101*X38104Y33396D02*X38521D01*
X38104D02*Y32979D01*
X38521D01*
Y33396D02*Y32979D01*
X37650Y34700D02*X37850D01*
X37150D02*X37350D01*
X36650D02*X36850D01*
G54D103*X37750Y34100D03*
X37250D03*
X36750D03*
X36250D03*
X35750D03*
X35250D03*
G54D102*X37750Y34550D02*Y34250D01*
X37250Y34550D02*Y34250D01*
X36750Y34550D02*Y34250D01*
X36250Y34550D02*Y34250D01*
X35750Y34550D02*Y34250D01*
X35250Y34550D02*Y34250D01*
G54D101*X36150Y34700D02*X36350D01*
X35650D02*X35850D01*
X35150D02*X35350D01*
X34650D02*X34850D01*
X34150D02*X34350D01*
G54D103*X34750Y34100D03*
X34250D03*
G54D102*X34750Y34550D02*Y34250D01*
X34250Y34550D02*Y34250D01*
X30475Y34500D02*X30525D01*
X30475Y33500D02*X30525D01*
G54D103*X30325Y33650D02*X30675D01*
X30325Y33350D02*X30675D01*
Y33650D02*Y33350D01*
X30325Y33650D02*Y33350D01*
Y34650D02*X30675D01*
Y34350D01*
X30325Y34650D02*Y34350D01*
X30675D01*
X33900Y33750D03*
G54D102*X33450D02*X33750D01*
G54D103*X33900Y33250D03*
G54D102*X33450D02*X33750D01*
G54D103*X33900Y32750D03*
G54D102*X33450D02*X33750D01*
G54D126*X34708Y33292D02*X34917D01*
X34708Y33083D02*X34917D01*
G54D101*X34604Y33396D02*X35021D01*
X34604Y32979D02*X35021D01*
Y33396D02*Y32979D01*
X34604Y33396D02*Y32979D01*
G54D126*X36458Y33292D02*X36667D01*
G54D101*X36354Y33396D02*X36771D01*
Y32979D01*
X36354Y33396D02*Y32979D01*
G54D126*X36458Y33083D02*X36667D01*
G54D101*X36354Y32979D02*X36771D01*
G54D126*X35583Y33292D02*X35792D01*
X35583Y33083D02*X35792D01*
G54D101*X35479Y33396D02*X35896D01*
X35479D02*Y32979D01*
X35896D01*
Y33396D02*Y32979D01*
G54D103*X33900Y32250D03*
Y31750D03*
Y31250D03*
G54D102*X33450Y32250D02*X33750D01*
X33450Y31750D02*X33750D01*
X33450Y31250D02*X33750D01*
X33450Y30750D02*X33750D01*
X33450Y30250D02*X33750D01*
X33450Y29750D02*X33750D01*
G54D103*X33900Y30750D03*
Y30250D03*
Y29750D03*
Y29250D03*
G54D102*X33450D02*X33750D01*
G54D103*X33900Y28750D03*
Y28250D03*
G54D102*X33450Y28750D02*X33750D01*
X33450Y28250D02*X33750D01*
G54D101*X34150Y27300D02*X34350D01*
G54D103*X34250Y27900D03*
G54D102*Y27750D02*Y27450D01*
G54D101*X34650Y27300D02*X34850D01*
G54D103*X34750Y27900D03*
G54D102*Y27750D02*Y27450D01*
G54D101*X35150Y27300D02*X35350D01*
X35650D02*X35850D01*
X36150D02*X36350D01*
X36650D02*X36850D01*
G54D103*X35250Y27900D03*
G54D102*Y27750D02*Y27450D01*
G54D103*X35750Y27900D03*
G54D102*Y27750D02*Y27450D01*
G54D126*X36458Y29792D02*X36667D01*
X36458Y29583D02*X36667D01*
G54D101*X36354Y29896D02*X36771D01*
X36354D02*Y29479D01*
X36771D01*
Y29896D02*Y29479D01*
G54D126*X36458Y28917D02*X36667D01*
X36458Y28708D02*X36667D01*
G54D101*X36354Y29021D02*X36771D01*
X36354D02*Y28604D01*
X36771D01*
Y29021D02*Y28604D01*
G54D126*X35583Y29792D02*X35792D01*
X35583Y29583D02*X35792D01*
G54D101*X35479Y29896D02*X35896D01*
X35479D02*Y29479D01*
X35896D01*
Y29896D02*Y29479D01*
G54D126*X35583Y28917D02*X35792D01*
X35583Y28708D02*X35792D01*
G54D101*X35479Y29021D02*X35896D01*
X35479D02*Y28604D01*
X35896Y29021D02*Y28604D01*
X35479D02*X35896D01*
G54D126*X34708Y29792D02*X34917D01*
X34708Y29583D02*X34917D01*
G54D101*X34604Y29896D02*X35021D01*
X34604Y29479D02*X35021D01*
Y29896D02*Y29479D01*
X34604Y29896D02*Y29479D01*
G54D126*X34708Y28917D02*X34917D01*
X34708Y28708D02*X34917D01*
G54D101*X34604Y29021D02*X35021D01*
X34604Y28604D02*X35021D01*
Y29021D02*Y28604D01*
X34604Y29021D02*Y28604D01*
G54D126*X36458Y32417D02*X36667D01*
X36458Y32208D02*X36667D01*
G54D101*X36354Y32104D02*X36771D01*
Y32521D02*Y32104D01*
X36354Y32521D02*Y32104D01*
Y32521D02*X36771D01*
G54D126*X36458Y31542D02*X36667D01*
X36458Y31333D02*X36667D01*
G54D101*X36354Y31646D02*X36771D01*
X36354D02*Y31229D01*
X36771D01*
Y31646D02*Y31229D01*
G54D126*X36458Y30667D02*X36667D01*
X36458Y30458D02*X36667D01*
G54D101*X36354Y30771D02*X36771D01*
X36354D02*Y30354D01*
X36771D01*
Y30771D02*Y30354D01*
G54D126*X35583Y30667D02*X35792D01*
X35583Y30458D02*X35792D01*
G54D101*X35479Y30354D02*X35896D01*
Y30771D02*Y30354D01*
X35479Y30771D02*Y30354D01*
Y30771D02*X35896D01*
G54D126*X34708Y30667D02*X34917D01*
X34708Y30458D02*X34917D01*
G54D101*X34604Y30354D02*X35021D01*
Y30771D02*Y30354D01*
X34604Y30771D02*Y30354D01*
Y30771D02*X35021D01*
G54D126*X35583Y32417D02*X35792D01*
X35583Y32208D02*X35792D01*
G54D101*X35479Y32104D02*X35896D01*
Y32521D02*Y32104D01*
X35479Y32521D02*Y32104D01*
Y32521D02*X35896D01*
G54D126*X34708Y32417D02*X34917D01*
X34708Y32208D02*X34917D01*
G54D101*X34604Y32521D02*X35021D01*
X34604Y32104D02*X35021D01*
Y32521D02*Y32104D01*
X34604Y32521D02*Y32104D01*
G54D126*X35583Y31542D02*X35792D01*
X35583Y31333D02*X35792D01*
G54D101*X35479Y31229D02*X35896D01*
Y31646D02*Y31229D01*
X35479Y31646D02*Y31229D01*
Y31646D02*X35896D01*
G54D126*X34708Y31542D02*X34917D01*
X34708Y31333D02*X34917D01*
G54D101*X34604Y31646D02*X35021D01*
X34604Y31229D02*X35021D01*
Y31646D02*Y31229D01*
X34604Y31646D02*Y31229D01*
G54D103*X36250Y27900D03*
G54D102*Y27750D02*Y27450D01*
G54D103*X36750Y27900D03*
G54D102*Y27750D02*Y27450D01*
G54D101*X37150Y27300D02*X37350D01*
X37650D02*X37850D01*
X38150D02*X38350D01*
X38650D02*X38850D01*
G54D103*X37250Y27900D03*
G54D102*Y27750D02*Y27450D01*
G54D103*X37750Y27900D03*
G54D102*Y27750D02*Y27450D01*
G54D103*X38250Y27900D03*
G54D102*Y27750D02*Y27450D01*
G54D103*X38750Y27900D03*
G54D102*Y27750D02*Y27450D01*
G54D101*X39150Y27300D02*X39350D01*
X39650D02*X39850D01*
G54D103*X39250Y27900D03*
G54D102*Y27750D02*Y27450D01*
G54D103*X39750Y27900D03*
G54D102*Y27750D02*Y27450D01*
G54D101*X40700Y28350D02*Y28150D01*
G54D103*X40100Y28250D03*
G54D102*X40250D02*X40550D01*
G54D101*X40700Y28850D02*Y28650D01*
Y29350D02*Y29150D01*
Y29850D02*Y29650D01*
Y30350D02*Y30150D01*
G54D103*X40100Y28750D03*
G54D102*X40250D02*X40550D01*
G54D103*X40100Y29250D03*
G54D102*X40250D02*X40550D01*
G54D103*X40100Y29750D03*
G54D102*X40250D02*X40550D01*
G54D103*X40100Y30250D03*
G54D102*X40250D02*X40550D01*
G54D103*X40100Y30750D03*
G54D102*X40250D02*X40550D01*
G54D103*X40100Y31250D03*
G54D102*X40250D02*X40550D01*
G54D126*X39083Y29792D02*X39292D01*
X39083Y29583D02*X39292D01*
G54D101*X38979Y29896D02*Y29479D01*
Y29896D02*X39396D01*
X38979Y29479D02*X39396D01*
Y29896D02*Y29479D01*
G54D126*X39083Y28917D02*X39292D01*
X39083Y28708D02*X39292D01*
G54D101*X38979Y29021D02*X39396D01*
X38979Y28604D02*X39396D01*
Y29021D02*Y28604D01*
X38979Y29021D02*Y28604D01*
X40700Y30850D02*Y30650D01*
Y31350D02*Y31150D01*
Y31850D02*Y31650D01*
Y32350D02*Y32150D01*
G54D103*X40100Y31750D03*
G54D102*X40250D02*X40550D01*
G54D103*X40100Y32250D03*
G54D102*X40250D02*X40550D01*
G54D126*X39083Y32417D02*X39292D01*
G54D101*X38979Y32521D02*X39396D01*
Y32104D01*
X38979Y32521D02*Y32104D01*
G54D126*X39083Y32208D02*X39292D01*
G54D101*X38979Y32104D02*X39396D01*
G54D126*X39083Y31542D02*X39292D01*
X39083Y31333D02*X39292D01*
G54D101*X38979Y31646D02*X39396D01*
Y31229D01*
X38979Y31646D02*Y31229D01*
X39396D01*
G54D126*X38208Y31542D02*X38417D01*
G54D101*X38104Y31646D02*X38521D01*
Y31229D01*
X38104Y31646D02*Y31229D01*
G54D126*X38208Y31333D02*X38417D01*
G54D101*X38104Y31229D02*X38521D01*
G54D126*X39083Y30667D02*X39292D01*
X39083Y30458D02*X39292D01*
G54D101*X38979Y30354D02*X39396D01*
Y30771D02*Y30354D01*
X38979Y30771D02*Y30354D01*
Y30771D02*X39396D01*
G54D126*X38208Y30667D02*X38417D01*
G54D101*X38521Y30771D02*Y30354D01*
X38104Y30771D02*Y30354D01*
G54D126*X38208Y30458D02*X38417D01*
G54D101*X38104Y30771D02*X38521D01*
X38104Y30354D02*X38521D01*
G54D126*X38208Y29792D02*X38417D01*
X38208Y29583D02*X38417D01*
G54D101*X38104Y29896D02*X38521D01*
X38104Y29479D02*X38521D01*
Y29896D02*Y29479D01*
X38104Y29896D02*Y29479D01*
G54D126*X38208Y28917D02*X38417D01*
X38208Y28708D02*X38417D01*
G54D101*X38104Y29021D02*X38521D01*
X38104Y28604D02*X38521D01*
Y29021D02*Y28604D01*
X38104Y29021D02*Y28604D01*
G54D126*X38208Y32417D02*X38417D01*
X38208Y32208D02*X38417D01*
G54D101*X38104Y32521D02*X38521D01*
X38104D02*Y32104D01*
X38521D01*
Y32521D02*Y32104D01*
G54D126*X37333Y32417D02*X37542D01*
X37333Y32208D02*X37542D01*
G54D101*X37229Y32521D02*X37646D01*
X37229D02*Y32104D01*
X37646D01*
Y32521D02*Y32104D01*
G54D126*X37333Y31542D02*X37542D01*
X37333Y31333D02*X37542D01*
G54D101*X37229Y31646D02*X37646D01*
X37229D02*Y31229D01*
X37646D01*
Y31646D02*Y31229D01*
G54D126*X37333Y30667D02*X37542D01*
X37333Y30458D02*X37542D01*
G54D101*X37229Y30771D02*X37646D01*
X37229D02*Y30354D01*
X37646D01*
Y30771D02*Y30354D01*
G54D126*X37333Y29792D02*X37542D01*
X37333Y29583D02*X37542D01*
G54D101*X37229Y29896D02*X37646D01*
X37229D02*Y29479D01*
G54D127*X36960Y30960D02*X37040D01*
G54D128*X36960Y31040D02*Y30960D01*
G54D101*X37229Y29479D02*X37646D01*
Y29896D02*Y29479D01*
G54D126*X37333Y28917D02*X37542D01*
X37333Y28708D02*X37542D01*
G54D101*X37229Y29021D02*X37646D01*
X37229D02*Y28604D01*
X37646D01*
Y29021D02*Y28604D01*
G54D108*X31550Y40425D02*Y39975D01*
G54D101*X31275Y40700D02*X31825D01*
X31275Y39700D02*X31825D01*
X31275Y40700D02*Y39700D01*
X31825Y40700D02*Y39700D01*
G54D108*X32500Y40425D02*Y39975D01*
G54D101*X32225Y40700D02*Y39700D01*
X32775Y40700D02*Y39700D01*
X32225Y40700D02*X32775D01*
X32225Y39700D02*X32775D01*
G54D108*X33450Y40425D02*Y39975D01*
G54D101*X33725Y40700D02*Y39700D01*
X33175Y40700D02*X33725D01*
X33175Y39700D02*X33725D01*
X33175Y40700D02*Y39700D01*
G54D102*X31000Y38525D02*Y38475D01*
X32000Y38525D02*Y38475D01*
G54D103*X31850Y38675D02*Y38325D01*
X32150Y38675D02*Y38325D01*
X31850Y38675D02*X32150D01*
X31850Y38325D02*X32150D01*
X30850Y38675D02*Y38325D01*
X31150Y38675D02*Y38325D01*
X30850Y38675D02*X31150D01*
X30850Y38325D02*X31150D01*
G54D101*X29950Y39320D02*Y39180D01*
G54D129*X29340Y39250D02*X29830D01*
G54D101*X29950Y39820D02*Y39680D01*
G54D129*X29340Y39750D02*X29830D01*
G54D102*X33000Y38525D02*Y38475D01*
X34000Y38525D02*Y38475D01*
G54D103*X33850Y38675D02*Y38325D01*
X34150Y38675D02*Y38325D01*
X33850Y38675D02*X34150D01*
X33850Y38325D02*X34150D01*
X32850Y38675D02*Y38325D01*
X33150Y38675D02*Y38325D01*
X32850Y38675D02*X33150D01*
X32850Y38325D02*X33150D01*
G54D108*X35550Y40425D02*Y39975D01*
G54D101*X35275Y39700D02*X35825D01*
X35275Y40700D02*Y39700D01*
X35825Y40700D02*Y39700D01*
X35275Y40700D02*X35825D01*
G54D108*X36500Y40425D02*Y39975D01*
G54D101*X36225Y40700D02*Y39700D01*
X36775Y40700D02*Y39700D01*
X36225Y40700D02*X36775D01*
X36225Y39700D02*X36775D01*
G54D108*X37450Y40425D02*Y39975D01*
G54D101*X37175Y40700D02*Y39700D01*
X37725Y40700D02*Y39700D01*
X37175Y40700D02*X37725D01*
X37175Y39700D02*X37725D01*
G54D108*X33450Y43025D02*Y42575D01*
G54D101*X33725Y43300D02*Y42300D01*
X33175Y43300D02*Y42300D01*
X33725D01*
X33175Y43300D02*X33725D01*
G54D108*X32500Y43025D02*Y42575D01*
G54D101*X32225Y42300D02*X32775D01*
X32225Y43300D02*X32775D01*
Y42300D01*
X32225Y43300D02*Y42300D01*
G54D108*X31550Y43025D02*Y42575D01*
G54D101*X31825Y43300D02*Y42300D01*
X31275Y43300D02*Y42300D01*
X31825D01*
X31275Y43300D02*X31825D01*
G54D108*X37450Y43025D02*Y42575D01*
G54D101*X37175Y43300D02*Y42300D01*
X37725D01*
X37175Y43300D02*X37725D01*
Y42300D01*
G54D108*X36500Y43025D02*Y42575D01*
G54D101*X36775Y43300D02*Y42300D01*
X36225Y43300D02*Y42300D01*
X36775D01*
X36225Y43300D02*X36775D01*
G54D108*X35550Y43025D02*Y42575D01*
G54D101*X35275Y42300D02*X35825D01*
X35275Y43300D02*X35825D01*
Y42300D01*
X35275Y43300D02*Y42300D01*
G54D100*X32500Y44900D02*Y44750D01*
G54D101*X32600Y45000D02*Y44650D01*
X32400Y45000D02*X32600D01*
G54D100*X32500Y44900D02*Y44750D01*
G54D101*X32600Y45000D02*Y44650D01*
X32400Y45000D02*X32600D01*
X32400D02*Y44650D01*
X32600D01*
X32400Y45000D02*Y44650D01*
X32600D01*
G54D100*X33000Y44900D02*Y44750D01*
G54D101*X32900Y45000D02*X33100D01*
G54D100*X33000Y44900D02*Y44750D01*
G54D101*X32900Y45000D02*Y44650D01*
Y45000D02*X33100D01*
X32900D02*Y44650D01*
X33100Y45000D02*Y44650D01*
Y45000D02*Y44650D01*
X32900D02*X33100D01*
X32900D02*X33100D01*
G54D100*X33500Y44900D02*Y44750D01*
G54D101*X33400Y45000D02*X33600D01*
G54D100*X33500Y44900D02*Y44750D01*
G54D101*X33400Y45000D02*Y44650D01*
Y45000D02*X33600D01*
X33400D02*Y44650D01*
X33600Y45000D02*Y44650D01*
Y45000D02*Y44650D01*
X33400D02*X33600D01*
X33400D02*X33600D01*
G54D100*X33500Y46250D02*Y46100D01*
G54D101*X33400Y46000D02*X33600D01*
G54D100*X33500Y46250D02*Y46100D01*
G54D101*X33600Y46350D02*Y46000D01*
X33400D02*X33600D01*
Y46350D02*Y46000D01*
X33400Y46350D02*Y46000D01*
Y46350D02*Y46000D01*
Y46350D02*X33600D01*
X33400D02*X33600D01*
G54D100*X32500Y46250D02*Y46100D01*
G54D101*X32400Y46000D02*X32600D01*
G54D100*X32500Y46250D02*Y46100D01*
G54D101*X32600Y46350D02*Y46000D01*
X32400D02*X32600D01*
Y46350D02*Y46000D01*
X32400Y46350D02*Y46000D01*
Y46350D02*Y46000D01*
Y46350D02*X32600D01*
X32400D02*X32600D01*
G54D100*X27000Y44900D02*Y44750D01*
G54D101*X26900Y44650D02*X27100D01*
G54D100*X27000Y44900D02*Y44750D01*
G54D101*X26900Y45000D02*Y44650D01*
X27100Y45000D02*Y44650D01*
X26900D02*X27100D01*
X26900Y45000D02*Y44650D01*
X27100Y45000D02*Y44650D01*
X26900Y45000D02*X27100D01*
X26900D02*X27100D01*
G54D100*X27500Y44900D02*Y44750D01*
G54D101*X27400Y45000D02*X27600D01*
G54D100*X27500Y44900D02*Y44750D01*
G54D101*X27400Y45000D02*Y44650D01*
Y45000D02*X27600D01*
X27400D02*Y44650D01*
X27600Y45000D02*Y44650D01*
Y45000D02*Y44650D01*
X27400D02*X27600D01*
X27400D02*X27600D01*
G54D100*X28000Y44900D02*Y44750D01*
G54D101*X27900Y45000D02*X28100D01*
G54D100*X28000Y44900D02*Y44750D01*
G54D101*X27900Y45000D02*Y44650D01*
Y45000D02*X28100D01*
X27900D02*Y44650D01*
X28100Y45000D02*Y44650D01*
Y45000D02*Y44650D01*
X27900D02*X28100D01*
X27900D02*X28100D01*
G54D100*X28000Y46250D02*Y46100D01*
G54D101*X27900Y46000D02*X28100D01*
G54D100*X28000Y46250D02*Y46100D01*
G54D101*X28100Y46350D02*Y46000D01*
X27900D02*X28100D01*
Y46350D02*Y46000D01*
X27900Y46350D02*Y46000D01*
Y46350D02*Y46000D01*
Y46350D02*X28100D01*
X27900D02*X28100D01*
G54D130*X21780Y42325D02*X22720D01*
G54D101*X21650Y42455D02*Y42195D01*
G54D130*X21780Y42325D02*X22720D01*
G54D101*X21650Y42195D02*X22850D01*
X21650Y42455D02*Y42195D01*
X22850Y42455D02*Y42195D01*
X21650D02*X22850D01*
X21650Y42455D02*X22850D01*
Y42195D01*
X21650Y42455D02*X22850D01*
G54D130*X21780Y42975D02*X22720D01*
G54D101*X22850Y43105D02*Y42845D01*
G54D130*X21780Y42975D02*X22720D01*
G54D101*X21650Y42845D02*X22850D01*
X21650Y43105D02*X22850D01*
Y42845D01*
X21650D02*X22850D01*
X21650Y43105D02*X22850D01*
X21650D02*Y42845D01*
Y43105D02*Y42845D01*
G54D102*X23975Y43000D02*X24025D01*
G54D103*X23825Y43150D02*X24175D01*
X23825Y42850D02*X24175D01*
Y43150D02*Y42850D01*
X23825Y43150D02*Y42850D01*
G54D130*X21780Y43625D02*X22720D01*
G54D101*X21650Y43755D02*Y43495D01*
G54D130*X21780Y43625D02*X22720D01*
G54D101*X21650Y43495D02*X22850D01*
X21650Y43755D02*Y43495D01*
X22850Y43755D02*Y43495D01*
X21650D02*X22850D01*
X21650Y43755D02*X22850D01*
Y43495D01*
X21650Y43755D02*X22850D01*
G54D130*X21780Y44275D02*X22720D01*
G54D101*X22850Y44405D02*Y44145D01*
G54D130*X21780Y44275D02*X22720D01*
G54D101*X21650Y44145D02*X22850D01*
X21650Y44405D02*X22850D01*
Y44145D01*
X21650D02*X22850D01*
X21650Y44405D02*X22850D01*
X21650D02*Y44145D01*
Y44405D02*Y44145D01*
G54D100*X27000Y46250D02*Y46100D01*
G54D101*X26900Y46000D02*X27100D01*
G54D100*X27000Y46250D02*Y46100D01*
G54D101*X27100Y46350D02*Y46000D01*
X26900D02*X27100D01*
Y46350D02*Y46000D01*
X26900Y46350D02*Y46000D01*
Y46350D02*Y46000D01*
Y46350D02*X27100D01*
X26900D02*X27100D01*
G54D130*X21780Y44925D02*X22720D01*
G54D101*X21650Y45055D02*Y44795D01*
G54D130*X21780Y44925D02*X22720D01*
G54D101*X21650Y44795D02*X22850D01*
X21650Y45055D02*Y44795D01*
X22850Y45055D02*Y44795D01*
X21650D02*X22850D01*
X21650Y45055D02*X22850D01*
Y44795D01*
X21650Y45055D02*X22850D01*
G54D130*X21780Y45575D02*X22720D01*
G54D101*X22850Y45705D02*Y45445D01*
G54D130*X21780Y45575D02*X22720D01*
G54D101*X21650Y45445D02*X22850D01*
X21650Y45705D02*X22850D01*
Y45445D01*
X21650D02*X22850D01*
X21650Y45705D02*X22850D01*
X21650D02*Y45445D01*
Y45705D02*Y45445D01*
G54D102*X17000Y47025D02*Y46975D01*
X16000Y47025D02*Y46975D01*
G54D103*X16150Y47175D02*Y46825D01*
X15850Y47175D02*Y46825D01*
X16150D01*
X15850Y47175D02*X16150D01*
X17150D02*Y46825D01*
X16850Y47175D02*Y46825D01*
X17150D01*
X16850Y47175D02*X17150D01*
G54D102*X18500Y47025D02*Y46975D01*
G54D103*X18350Y47175D02*Y46825D01*
X18650Y47175D02*Y46825D01*
X18350Y47175D02*X18650D01*
X18350Y46825D02*X18650D01*
G54D102*X19500Y47025D02*Y46975D01*
G54D103*X19350Y47175D02*Y46825D01*
Y47175D02*X19650D01*
X19350Y46825D02*X19650D01*
Y47175D02*Y46825D01*
G54D102*X25975Y42000D02*X26025D01*
X25975Y43000D02*X26025D01*
G54D103*X25825Y42850D02*X26175D01*
X25825Y43150D02*X26175D01*
X25825D02*Y42850D01*
X26175Y43150D02*Y42850D01*
X25825Y41850D02*X26175D01*
X25825Y42150D02*X26175D01*
X25825D02*Y41850D01*
X26175Y42150D02*Y41850D01*
G54D102*X26975Y42000D02*X27025D01*
G54D103*X26825Y41850D02*X27175D01*
X26825Y42150D02*X27175D01*
X26825D02*Y41850D01*
X27175Y42150D02*Y41850D01*
G54D102*X26975Y43000D02*X27025D01*
G54D103*X26825Y42850D02*X27175D01*
X26825Y43150D02*Y42850D01*
X27175Y43150D02*Y42850D01*
X26825Y43150D02*X27175D01*
G54D102*X27975Y42000D02*X28025D01*
X27975Y43000D02*X28025D01*
G54D103*X27825Y42850D02*X28175D01*
X27825Y43150D02*X28175D01*
X27825D02*Y42850D01*
X28175Y43150D02*Y42850D01*
X27825Y41850D02*X28175D01*
X27825Y42150D02*X28175D01*
X27825D02*Y41850D01*
X28175Y42150D02*Y41850D01*
G54D102*X28975Y42000D02*X29025D01*
G54D103*X28825Y41850D02*X29175D01*
X28825Y42150D02*X29175D01*
X28825D02*Y41850D01*
X29175Y42150D02*Y41850D01*
G54D102*X28975Y43000D02*X29025D01*
G54D103*X28825Y42850D02*X29175D01*
X28825Y43150D02*Y42850D01*
X29175Y43150D02*Y42850D01*
X28825Y43150D02*X29175D01*
G54D101*X26930Y37800D02*X27070D01*
X27430D02*X27570D01*
X27930D02*X28070D01*
X28430D02*X28570D01*
G54D131*X27000Y38530D03*
G54D129*Y38410D02*Y37920D01*
G54D131*X27500Y38530D03*
G54D129*Y38410D02*Y37920D01*
G54D131*X28000Y38530D03*
G54D129*Y38410D02*Y37920D01*
G54D131*X28500Y38530D03*
G54D129*Y38410D02*Y37920D01*
G54D101*X28930Y37800D02*X29070D01*
G54D129*X29000Y38410D02*Y37920D01*
G54D131*Y38530D03*
X29220Y39250D03*
Y39750D03*
G54D101*X28930Y41200D02*X29070D01*
G54D131*X29000Y40470D03*
G54D129*Y41080D02*Y40590D01*
G54D101*X28430Y41200D02*X28570D01*
G54D129*X28500Y41080D02*Y40590D01*
G54D101*X28507Y39716D02*Y39284D01*
G54D131*X28500Y40470D03*
X27500D03*
G54D101*X27930Y41200D02*X28070D01*
X27430D02*X27570D01*
X26930D02*X27070D01*
G54D131*X28000Y40470D03*
G54D129*Y41080D02*Y40590D01*
X27500Y41080D02*Y40590D01*
X27000Y41080D02*Y40590D01*
G54D131*Y40470D03*
G54D101*X26050Y39820D02*Y39680D01*
G54D131*X26780Y39750D03*
G54D129*X26170D02*X26660D01*
G54D101*X26050Y39320D02*Y39180D01*
G54D131*X26780Y39250D03*
G54D101*X27493Y39716D02*Y39284D01*
G54D129*X26170Y39250D02*X26660D01*
G54D132*X27650Y39559D02*Y39441D01*
G54D101*X27493Y39284D02*X27807D01*
X27493Y39716D02*X27807D01*
Y39284D01*
X28193D02*X28507D01*
X28193Y39716D02*X28507D01*
G54D132*X28350Y39559D02*Y39441D01*
G54D101*X28193Y39716D02*Y39284D01*
G54D133*X27710Y39540D02*X28290D01*
G54D117*X27830Y39500D02*X28250D01*
G54D122*G36*
X27340Y39260D02*X27510Y39090D01*
X27380Y38960D01*
X27210Y39130D01*
X27340Y39260D01*
G37*
G36*
X27380Y39300D02*X27550Y39130D01*
X27420Y39000D01*
X27250Y39170D01*
X27380Y39300D01*
G37*
G54D102*X24975Y38000D02*X25025D01*
G54D103*X24825Y37850D02*X25175D01*
X24825Y38150D02*X25175D01*
X24825D02*Y37850D01*
X25175Y38150D02*Y37850D01*
G54D102*X24975Y39000D02*X25025D01*
G54D103*X24825Y38850D02*X25175D01*
X24825Y39150D02*X25175D01*
G54D102*X24975Y40000D02*X25025D01*
G54D103*X24825Y40150D02*X25175D01*
X24825Y39850D02*X25175D01*
Y40150D02*Y39850D01*
X24825Y40150D02*Y39850D01*
Y39150D02*Y38850D01*
X25175Y39150D02*Y38850D01*
G54D102*X24975Y41000D02*X25025D01*
G54D103*X24825Y41150D02*X25175D01*
X24825Y40850D02*X25175D01*
Y41150D02*Y40850D01*
X24825Y41150D02*Y40850D01*
G54D130*X21780Y38425D02*X22720D01*
G54D101*X21650Y38555D02*X22850D01*
G54D130*X21780Y38425D02*X22720D01*
G54D101*X21650Y38555D02*X22850D01*
X21650D02*Y38295D01*
X22850D01*
X21650Y38555D02*Y38295D01*
X22850D01*
Y38555D02*Y38295D01*
Y38555D02*Y38295D01*
G54D102*X23000Y37025D02*Y36975D01*
X22000Y37025D02*Y36975D01*
G54D103*X22150Y37175D02*Y36825D01*
X21850Y37175D02*Y36825D01*
X22150D01*
X21850Y37175D02*X22150D01*
X23150D02*Y36825D01*
X22850D02*X23150D01*
X22850Y37175D02*X23150D01*
X22850D02*Y36825D01*
G54D130*X21780Y39075D02*X22720D01*
G54D101*X22850Y39205D02*Y38945D01*
G54D130*X21780Y39075D02*X22720D01*
G54D101*X21650Y38945D02*X22850D01*
X21650Y39205D02*X22850D01*
Y38945D01*
X21650D02*X22850D01*
X21650Y39205D02*X22850D01*
X21650D02*Y38945D01*
Y39205D02*Y38945D01*
G54D130*X21780Y39725D02*X22720D01*
G54D101*X21650Y39855D02*Y39595D01*
G54D130*X21780Y39725D02*X22720D01*
G54D101*X21650Y39595D02*X22850D01*
X21650Y39855D02*Y39595D01*
X22850Y39855D02*Y39595D01*
X21650D02*X22850D01*
X21650Y39855D02*X22850D01*
Y39595D01*
X21650Y39855D02*X22850D01*
G54D102*X23975Y40000D02*X24025D01*
G54D103*X23825Y40850D02*X24175D01*
Y41150D02*Y40850D01*
G54D102*X23975Y41000D02*X24025D01*
G54D103*X23825Y41150D02*X24175D01*
X23825D02*Y40850D01*
G54D102*X23975Y42000D02*X24025D01*
G54D103*X23825Y41850D02*X24175D01*
X23825Y42150D02*Y41850D01*
Y42150D02*X24175D01*
Y41850D01*
G54D102*X23975Y38000D02*X24025D01*
G54D103*X23825Y37850D02*X24175D01*
X23825Y38150D02*X24175D01*
X23825D02*Y37850D01*
X24175Y38150D02*Y37850D01*
X23825Y39850D02*X24175D01*
X23825Y40150D02*Y39850D01*
X24175Y40150D02*Y39850D01*
X23825Y40150D02*X24175D01*
G54D102*X23975Y39000D02*X24025D01*
G54D103*X23825Y38850D02*X24175D01*
X23825Y39150D02*X24175D01*
X23825D02*Y38850D01*
X24175Y39150D02*Y38850D01*
G54D130*X21780Y40375D02*X22720D01*
G54D101*X22850Y40505D02*Y40245D01*
G54D130*X21780Y40375D02*X22720D01*
G54D101*X21650Y40245D02*X22850D01*
X21650Y40505D02*X22850D01*
Y40245D01*
X21650D02*X22850D01*
X21650Y40505D02*X22850D01*
X21650D02*Y40245D01*
Y40505D02*Y40245D01*
G54D130*X21780Y41025D02*X22720D01*
G54D101*X21650Y41155D02*Y40895D01*
G54D130*X21780Y41025D02*X22720D01*
G54D101*X21650Y40895D02*X22850D01*
X21650Y41155D02*Y40895D01*
X22850Y41155D02*Y40895D01*
X21650D02*X22850D01*
X21650Y41155D02*X22850D01*
Y40895D01*
X21650Y41155D02*X22850D01*
G54D130*X21780Y41675D02*X22720D01*
G54D101*X22850Y41805D02*Y41545D01*
G54D130*X21780Y41675D02*X22720D01*
G54D101*X21650Y41545D02*X22850D01*
X21650Y41805D02*X22850D01*
Y41545D01*
X21650D02*X22850D01*
X21650Y41805D02*X22850D01*
X21650D02*Y41545D01*
Y41805D02*Y41545D01*
G54D130*X16280Y45575D02*X17220D01*
G54D101*X17350Y45705D02*Y45445D01*
G54D130*X16280Y45575D02*X17220D01*
G54D101*X16150Y45705D02*X17350D01*
Y45445D01*
X16150Y45705D02*Y45445D01*
Y45705D02*X17350D01*
X16150Y45445D02*X17350D01*
X16150Y45705D02*Y45445D01*
X17350D01*
G54D130*X16280Y44925D02*X17220D01*
G54D101*X16150Y45055D02*Y44795D01*
G54D130*X16280Y44925D02*X17220D01*
G54D101*X16150Y45055D02*X17350D01*
X16150Y44795D02*X17350D01*
X16150Y45055D02*Y44795D01*
Y45055D02*X17350D01*
X16150Y44795D02*X17350D01*
Y45055D02*Y44795D01*
Y45055D02*Y44795D01*
G54D130*X16280Y44275D02*X17220D01*
G54D101*X17350Y44405D02*Y44145D01*
G54D130*X16280Y44275D02*X17220D01*
G54D101*X16150Y44405D02*X17350D01*
Y44145D01*
X16150Y44405D02*Y44145D01*
Y44405D02*X17350D01*
X16150Y44145D02*X17350D01*
X16150Y44405D02*Y44145D01*
X17350D01*
G54D130*X16280Y43625D02*X17220D01*
G54D101*X16150Y43755D02*Y43495D01*
G54D130*X16280Y43625D02*X17220D01*
G54D101*X16150Y43755D02*X17350D01*
X16150Y43495D02*X17350D01*
X16150Y43755D02*Y43495D01*
Y43755D02*X17350D01*
X16150Y43495D02*X17350D01*
Y43755D02*Y43495D01*
Y43755D02*Y43495D01*
G54D130*X16280Y42975D02*X17220D01*
G54D101*X17350Y43105D02*Y42845D01*
G54D130*X16280Y42975D02*X17220D01*
G54D101*X16150Y43105D02*X17350D01*
Y42845D01*
X16150Y43105D02*Y42845D01*
Y43105D02*X17350D01*
X16150Y42845D02*X17350D01*
X16150Y43105D02*Y42845D01*
X17350D01*
G54D130*X16280Y42325D02*X17220D01*
G54D101*X16150Y42455D02*Y42195D01*
G54D130*X16280Y42325D02*X17220D01*
G54D101*X16150Y42455D02*X17350D01*
X16150Y42195D02*X17350D01*
X16150Y42455D02*Y42195D01*
Y42455D02*X17350D01*
X16150Y42195D02*X17350D01*
Y42455D02*Y42195D01*
Y42455D02*Y42195D01*
G54D130*X16280Y41675D02*X17220D01*
G54D101*X17350Y41805D02*Y41545D01*
G54D130*X16280Y41675D02*X17220D01*
G54D101*X16150Y41805D02*X17350D01*
Y41545D01*
X16150Y41805D02*Y41545D01*
Y41805D02*X17350D01*
X16150Y41545D02*X17350D01*
X16150Y41805D02*Y41545D01*
X17350D01*
G54D130*X16280Y41025D02*X17220D01*
G54D101*X16150Y41155D02*Y40895D01*
G54D130*X16280Y41025D02*X17220D01*
G54D101*X16150Y41155D02*X17350D01*
X16150Y40895D02*X17350D01*
X16150Y41155D02*Y40895D01*
Y41155D02*X17350D01*
X16150Y40895D02*X17350D01*
Y41155D02*Y40895D01*
Y41155D02*Y40895D01*
G54D130*X16280Y40375D02*X17220D01*
G54D101*X17350Y40505D02*Y40245D01*
G54D130*X16280Y40375D02*X17220D01*
G54D101*X16150Y40505D02*X17350D01*
Y40245D01*
X16150Y40505D02*Y40245D01*
Y40505D02*X17350D01*
X16150Y40245D02*X17350D01*
X16150Y40505D02*Y40245D01*
X17350D01*
G54D130*X16280Y39725D02*X17220D01*
G54D101*X16150Y39855D02*Y39595D01*
G54D130*X16280Y39725D02*X17220D01*
G54D101*X16150Y39855D02*X17350D01*
X16150Y39595D02*X17350D01*
X16150Y39855D02*Y39595D01*
Y39855D02*X17350D01*
X16150Y39595D02*X17350D01*
Y39855D02*Y39595D01*
Y39855D02*Y39595D01*
G54D130*X16280Y39075D02*X17220D01*
G54D101*X17350Y39205D02*Y38945D01*
G54D130*X16280Y39075D02*X17220D01*
G54D101*X16150Y39205D02*X17350D01*
Y38945D01*
X16150Y39205D02*Y38945D01*
Y39205D02*X17350D01*
X16150Y38945D02*X17350D01*
X16150Y39205D02*Y38945D01*
X17350D01*
G54D130*X16280Y38425D02*X17220D01*
G54D101*X16150Y38555D02*Y38295D01*
G54D130*X16280Y38425D02*X17220D01*
G54D101*X16150Y38555D02*X17350D01*
X16150Y38295D02*X17350D01*
X16150Y38555D02*Y38295D01*
Y38555D02*X17350D01*
X16150Y38295D02*X17350D01*
Y38555D02*Y38295D01*
Y38555D02*Y38295D01*
G54D102*X17000Y37025D02*Y36975D01*
X16000Y37025D02*Y36975D01*
G54D103*X16150Y37175D02*Y36825D01*
X15850Y37175D02*Y36825D01*
X16150D01*
X15850Y37175D02*X16150D01*
X17150D02*Y36825D01*
X16850Y37175D02*Y36825D01*
X17150D01*
X16850Y37175D02*X17150D01*
G54D106*X30300Y13800D02*X30950D01*
G54D107*X31300Y14150D02*Y13450D01*
X29950Y14150D02*Y13450D01*
X31300D01*
X29950Y14150D02*X31300D01*
G54D104*X36296Y17000D02*X37204D01*
G54D105*X36214Y17082D02*X37286D01*
X36214Y16918D02*X37286D01*
Y17082D02*Y16918D01*
X36214Y17082D02*Y16918D01*
G54D100*X36200Y17000D02*X37300D01*
G54D101*X36100Y17100D02*X37400D01*
X36100Y16900D02*X37400D01*
X36100Y17100D02*Y16900D01*
X37400Y17100D02*Y16900D01*
Y16600D02*Y16400D01*
G54D104*X36296Y16500D02*X37204D01*
G54D105*X36214Y16418D02*X37286D01*
X36214Y16582D02*Y16418D01*
G54D100*X36200Y16500D02*X37300D01*
G54D105*X36214Y16582D02*X37286D01*
Y16418D01*
G54D101*X36100Y16600D02*X37400D01*
X36100Y16400D02*X37400D01*
X36100Y16600D02*Y16400D01*
G54D104*X36296Y16000D02*X37204D01*
G54D105*X36214Y16082D02*X37286D01*
X36214Y15918D02*X37286D01*
X36214Y16082D02*Y15918D01*
G54D100*X36200Y16000D02*X37300D01*
G54D101*X36100Y16100D02*X37400D01*
X36100Y15900D02*X37400D01*
Y16100D02*Y15900D01*
X36100Y16100D02*Y15900D01*
G54D105*X37286Y16082D02*Y15918D01*
G54D101*X37400Y15600D02*Y15400D01*
G54D105*X37286Y15582D02*Y15418D01*
X36214D02*X37286D01*
X36214Y15582D02*Y15418D01*
G54D104*X36296Y15500D02*X37204D01*
G54D105*X36214Y15582D02*X37286D01*
G54D100*X36200Y15500D02*X37300D01*
G54D101*X36100Y15600D02*X37400D01*
X36100Y15400D02*X37400D01*
X36100Y15600D02*Y15400D01*
G54D104*X36296Y15000D02*X37204D01*
G54D105*X36214Y14918D02*X37286D01*
X36214Y15082D02*Y14918D01*
G54D100*X36200Y15000D02*X37300D01*
G54D105*X36214Y15082D02*X37286D01*
Y14918D01*
G54D101*X36100Y15100D02*X37400D01*
Y14900D01*
X36100Y15100D02*Y14900D01*
X37400D01*
G54D104*X40796Y15000D02*X41704D01*
G54D105*X40714Y14918D02*X41786D01*
X40714Y15082D02*X41786D01*
Y14918D01*
G54D100*X40700Y15000D02*X41800D01*
G54D101*X40600Y14900D02*X41900D01*
X40600Y15100D02*X41900D01*
X40600D02*Y14900D01*
G54D105*X40714Y15082D02*Y14918D01*
G54D101*X41900Y15100D02*Y14900D01*
G54D105*X41786Y15582D02*Y15418D01*
G54D101*X41900Y15600D02*Y15400D01*
G54D105*X40714Y15582D02*X41786D01*
Y16082D02*Y15918D01*
G54D104*X40796Y15500D02*X41704D01*
G54D105*X40714Y15418D02*X41786D01*
G54D100*X40700Y15500D02*X41800D01*
G54D101*X40600Y15400D02*X41900D01*
X40600Y15600D02*X41900D01*
G54D104*X40796Y16000D02*X41704D01*
G54D105*X40714Y15918D02*X41786D01*
X40714Y16082D02*X41786D01*
G54D100*X40700Y16000D02*X41800D01*
G54D101*X40600Y16100D02*X41900D01*
X40600Y15900D02*X41900D01*
G54D105*X40714Y15582D02*Y15418D01*
G54D101*X40600Y15600D02*Y15400D01*
G54D105*X40714Y16082D02*Y15918D01*
G54D101*X40600Y16100D02*Y15900D01*
X41900Y16100D02*Y15900D01*
Y16600D02*Y16400D01*
G54D104*X40796Y16500D02*X41704D01*
G54D105*X40714Y16582D02*X41786D01*
Y16418D01*
G54D100*X40700Y16500D02*X41800D01*
G54D105*X40714Y16418D02*X41786D01*
X40714Y16582D02*Y16418D01*
G54D101*X40600Y16400D02*X41900D01*
X40600Y16600D02*X41900D01*
X40600D02*Y16400D01*
G54D104*X40796Y17000D02*X41704D01*
G54D105*X40714Y16918D02*X41786D01*
X40714Y17082D02*X41786D01*
X40714D02*Y16918D01*
X41786Y17082D02*Y16918D01*
G54D100*X40700Y17000D02*X41800D01*
G54D101*X40600Y16900D02*X41900D01*
X40600Y17100D02*X41900D01*
X40600D02*Y16900D01*
X41900Y17100D02*Y16900D01*
G54D102*X36000Y18525D02*Y18475D01*
G54D103*X36850Y18675D02*Y18325D01*
X37150D01*
X35850Y18675D02*Y18325D01*
X36150Y18675D02*Y18325D01*
X35850Y18675D02*X36150D01*
X35850Y18325D02*X36150D01*
G54D102*X37000Y18525D02*Y18475D01*
G54D103*X37150Y18675D02*Y18325D01*
X36850Y18675D02*X37150D01*
G54D102*X38000Y18525D02*Y18475D01*
X18500Y25025D02*Y24975D01*
X19500Y25025D02*Y24975D01*
G54D103*X19350Y25175D02*Y24825D01*
X19650Y25175D02*Y24825D01*
X19350Y25175D02*X19650D01*
X19350Y24825D02*X19650D01*
X18350Y25175D02*Y24825D01*
X18650D01*
Y25175D02*Y24825D01*
X18350Y25175D02*X18650D01*
G54D102*X19475Y27000D02*X19525D01*
G54D103*X19325Y27150D02*X19675D01*
X19325Y26850D02*X19675D01*
Y27150D02*Y26850D01*
X19325Y27150D02*Y26850D01*
G54D102*X19475Y26000D02*X19525D01*
G54D103*X19325Y26150D02*X19675D01*
X19325Y25850D02*X19675D01*
Y26150D02*Y25850D01*
X19325Y26150D02*Y25850D01*
G54D118*X20479Y25839D02*Y25661D01*
G54D119*X20882Y25750D03*
G54D120*X20613D02*X20747D01*
G54D101*X20450Y25850D02*Y25650D01*
G54D103*X20900Y25750D03*
G54D102*X20600D02*X20750D01*
G54D118*X20479Y25339D02*Y25161D01*
G54D101*X20450Y25350D02*Y25150D01*
G54D118*X20479Y24839D02*Y24661D01*
G54D101*X20450Y24850D02*Y24650D01*
G54D119*X20882Y25250D03*
G54D120*X20613D02*X20747D01*
G54D103*X20900D03*
G54D102*X20600D02*X20750D01*
G54D119*X20882Y24750D03*
G54D120*X20613D02*X20747D01*
G54D103*X20900D03*
G54D102*X20600D02*X20750D01*
G54D100*X17100Y25500D02*X17250D01*
G54D101*X17000Y25400D02*X17350D01*
G54D100*X17100Y25500D02*X17250D01*
G54D101*X17000Y25400D02*X17350D01*
X17000Y25600D02*X17350D01*
X17000D02*X17350D01*
X17000D02*Y25400D01*
Y25600D02*Y25400D01*
X17350Y25600D02*Y25400D01*
Y25600D02*Y25400D01*
G54D100*X17100Y26000D02*X17250D01*
G54D101*X17000Y26100D02*Y25900D01*
G54D100*X17100Y26000D02*X17250D01*
G54D101*X17000Y25900D02*X17350D01*
X17000Y26100D02*Y25900D01*
X17350D01*
X17000Y26100D02*X17350D01*
X17000D02*X17350D01*
Y25900D01*
Y26100D02*Y25900D01*
G54D100*X17100Y26500D02*X17250D01*
G54D101*X17000Y26600D02*Y26400D01*
G54D100*X17100Y26500D02*X17250D01*
G54D101*X17000Y26400D02*X17350D01*
X17000Y26600D02*Y26400D01*
X17350D01*
X17000Y26600D02*X17350D01*
X17000D02*X17350D01*
Y26400D01*
Y26600D02*Y26400D01*
G54D100*X15750Y26500D02*X15900D01*
G54D101*X16000Y26600D02*Y26400D01*
G54D100*X15750Y26500D02*X15900D01*
G54D101*X15650Y26600D02*X16000D01*
Y26400D01*
X15650Y26600D02*X16000D01*
X15650Y26400D02*X16000D01*
X15650D02*X16000D01*
X15650Y26600D02*Y26400D01*
Y26600D02*Y26400D01*
G54D100*X15750Y25500D02*X15900D01*
G54D101*X16000Y25600D02*Y25400D01*
G54D100*X15750Y25500D02*X15900D01*
G54D101*X15650Y25600D02*X16000D01*
Y25400D01*
X15650Y25600D02*X16000D01*
X15650Y25400D02*X16000D01*
X15650D02*X16000D01*
X15650Y25600D02*Y25400D01*
Y25600D02*Y25400D01*
G54D102*X15500Y24025D02*Y23975D01*
G54D103*X15650Y24175D02*Y23825D01*
X15350Y24175D02*Y23825D01*
X15650D01*
X15350Y24175D02*X15650D01*
G54D102*X16500Y24025D02*Y23975D01*
G54D101*X16725Y22800D02*X17275D01*
G54D102*X17500Y24025D02*Y23975D01*
G54D103*X17350Y24175D02*Y23825D01*
Y24175D02*X17650D01*
X17350Y23825D02*X17650D01*
X16650Y24175D02*Y23825D01*
X16350Y24175D02*Y23825D01*
X16650D01*
X16350Y24175D02*X16650D01*
G54D108*X17000Y22525D02*Y22075D01*
G54D101*X17275Y22800D02*Y21800D01*
X16725Y22800D02*Y21800D01*
X17275D01*
G54D108*X16050Y22525D02*Y22075D01*
G54D101*X16325Y22800D02*Y21800D01*
X15775Y22800D02*Y21800D01*
X16325D01*
X15775Y22800D02*X16325D01*
G54D100*X17100Y28500D02*X17250D01*
G54D101*X17000Y28600D02*Y28400D01*
G54D100*X17100Y28500D02*X17250D01*
G54D101*X17000Y28400D02*X17350D01*
X17000Y28600D02*Y28400D01*
X17350D01*
X17000Y28600D02*X17350D01*
X17000D02*X17350D01*
Y28400D01*
Y28600D02*Y28400D01*
G54D100*X17100Y29000D02*X17250D01*
G54D101*X17000Y29100D02*Y28900D01*
G54D100*X17100Y29000D02*X17250D01*
G54D101*X17000Y28900D02*X17350D01*
X17000Y29100D02*Y28900D01*
X17350D01*
X17000Y29100D02*X17350D01*
X17000D02*X17350D01*
Y28900D01*
Y29100D02*Y28900D01*
G54D100*X17100Y29500D02*X17250D01*
G54D101*X17000Y29600D02*Y29400D01*
G54D100*X17100Y29500D02*X17250D01*
G54D101*X17000Y29400D02*X17350D01*
X17000Y29600D02*Y29400D01*
X17350D01*
X17000Y29600D02*X17350D01*
X17000D02*X17350D01*
Y29400D01*
Y29600D02*Y29400D01*
G54D102*X18490Y31035D02*Y30985D01*
X19490Y31035D02*Y30985D01*
G54D103*X19340Y31185D02*Y30835D01*
X19640Y31185D02*Y30835D01*
X19340Y31185D02*X19640D01*
X19340Y30835D02*X19640D01*
X18340Y31185D02*Y30835D01*
X18640Y31185D02*Y30835D01*
X18340Y31185D02*X18640D01*
X18340Y30835D02*X18640D01*
G54D100*X15750Y29500D02*X15900D01*
G54D101*X16000Y29600D02*Y29400D01*
G54D100*X15750Y29500D02*X15900D01*
G54D101*X15650Y29600D02*X16000D01*
Y29400D01*
X15650Y29600D02*X16000D01*
X15650Y29400D02*X16000D01*
X15650D02*X16000D01*
X15650Y29600D02*Y29400D01*
Y29600D02*Y29400D01*
G54D102*X15500Y31025D02*Y30975D01*
X16500Y31025D02*Y30975D01*
G54D103*X16350Y31175D02*Y30825D01*
X16650Y31175D02*Y30825D01*
X16350Y31175D02*X16650D01*
X16350Y30825D02*X16650D01*
X15350Y31175D02*Y30825D01*
X15650Y31175D02*Y30825D01*
X15350Y31175D02*X15650D01*
X15350Y30825D02*X15650D01*
G54D100*X15750Y28500D02*X15900D01*
G54D101*X16000Y28600D02*Y28400D01*
G54D100*X15750Y28500D02*X15900D01*
G54D101*X15650Y28600D02*X16000D01*
Y28400D01*
X15650Y28600D02*X16000D01*
X15650Y28400D02*X16000D01*
X15650D02*X16000D01*
X15650Y28600D02*Y28400D01*
Y28600D02*Y28400D01*
G54D123*X15529Y34000D02*X16021D01*
G54D118*X15440Y34089D02*X16110D01*
X15440Y33911D02*X16110D01*
Y34089D02*Y33911D01*
X15440Y34089D02*Y33911D01*
G54D100*X15500Y34000D02*X16050D01*
G54D101*X15400Y34100D02*X16150D01*
X15400Y33900D02*X16150D01*
Y34100D02*Y33900D01*
X15400Y34100D02*Y33900D01*
G54D123*X15529Y33500D02*X16021D01*
G54D118*X15440Y33411D02*X16110D01*
X15440Y33589D02*Y33411D01*
G54D100*X15500Y33500D02*X16050D01*
G54D118*X15440Y33589D02*X16110D01*
Y33411D01*
G54D101*X15400Y33600D02*X16150D01*
X15400Y33400D02*X16150D01*
Y33600D02*Y33400D01*
X15400Y33600D02*Y33400D01*
G54D123*X15529Y33000D02*X16021D01*
G54D118*X15440Y32911D02*X16110D01*
X15440Y33089D02*Y32911D01*
G54D100*X15500Y33000D02*X16050D01*
G54D118*X15440Y33089D02*X16110D01*
Y32911D01*
G54D101*X15400Y33100D02*X16150D01*
X15400Y32900D02*X16150D01*
Y33100D02*Y32900D01*
X15400Y33100D02*Y32900D01*
G54D123*X16979Y33000D02*X17471D01*
G54D118*X16890Y33089D02*X17560D01*
Y32911D01*
G54D100*X16950Y33000D02*X17500D01*
G54D118*X16890Y32911D02*X17560D01*
X16890Y33089D02*Y32911D01*
G54D101*X16850Y32900D02*X17600D01*
X16850Y33100D02*X17600D01*
X16850D02*Y32900D01*
X17600Y33100D02*Y32900D01*
G54D123*X16979Y33500D02*X17471D01*
G54D118*X16890Y33589D02*X17560D01*
Y33411D01*
G54D100*X16950Y33500D02*X17500D01*
G54D118*X16890Y33411D02*X17560D01*
X16890Y33589D02*Y33411D01*
G54D101*X16850Y33400D02*X17600D01*
X16850Y33600D02*X17600D01*
X16850D02*Y33400D01*
X17600Y33600D02*Y33400D01*
G54D123*X16979Y34000D02*X17471D01*
G54D118*X16890Y34089D02*X17560D01*
Y33911D01*
G54D100*X16950Y34000D02*X17500D01*
G54D118*X16890Y33911D02*X17560D01*
X16890Y34089D02*Y33911D01*
G54D101*X16850Y33900D02*X17600D01*
X16850Y34100D02*X17600D01*
X16850D02*Y33900D01*
X17600Y34100D02*Y33900D01*
G54D102*X19475Y23000D02*X19525D01*
X19475Y22000D02*X19525D01*
G54D103*X19325Y22150D02*X19675D01*
X19325Y21850D02*X19675D01*
Y22150D02*Y21850D01*
X19325Y22150D02*Y21850D01*
Y23150D02*X19675D01*
X19325Y22850D02*X19675D01*
Y23150D02*Y22850D01*
X19325Y23150D02*Y22850D01*
G54D108*X17950Y22525D02*Y22075D01*
G54D101*X17675Y22800D02*X18225D01*
Y21800D01*
G54D102*X18500Y24025D02*Y23975D01*
G54D103*X18350Y24175D02*Y23825D01*
X18650Y24175D02*Y23825D01*
X18350Y24175D02*X18650D01*
X18350Y23825D02*X18650D01*
G54D101*X17675Y22800D02*Y21800D01*
G54D103*X17650Y24175D02*Y23825D01*
G54D101*X17675Y21800D02*X18225D01*
G54D118*X20479Y24339D02*Y24161D01*
G54D101*X20450Y24350D02*Y24150D01*
G54D118*X20479Y23839D02*Y23661D01*
G54D101*X20450Y23850D02*Y23650D01*
G54D119*X20882Y24250D03*
G54D120*X20613D02*X20747D01*
G54D103*X20900D03*
G54D102*X20600D02*X20750D01*
G54D119*X20882Y23750D03*
G54D120*X20613D02*X20747D01*
G54D103*X20900D03*
G54D102*X20600D02*X20750D01*
G54D118*X20479Y23339D02*Y23161D01*
G54D101*X20450Y23350D02*Y23150D01*
G54D118*X20479Y22839D02*Y22661D01*
G54D101*X20450Y22850D02*Y22650D01*
G54D119*X20882Y23250D03*
G54D120*X20613D02*X20747D01*
G54D103*X20900D03*
G54D102*X20600D02*X20750D01*
G54D119*X20882Y22750D03*
G54D120*X20613D02*X20747D01*
G54D103*X20900D03*
G54D102*X20600D02*X20750D01*
G54D118*X20479Y22339D02*Y22161D01*
G54D101*X20450Y22350D02*Y22150D01*
G54D118*X20479Y21839D02*Y21661D01*
G54D101*X20450Y21850D02*Y21650D01*
G54D119*X20882Y22250D03*
G54D120*X20613D02*X20747D01*
G54D103*X20900D03*
G54D102*X20600D02*X20750D01*
G54D119*X20882Y21750D03*
G54D120*X20613D02*X20747D01*
G54D103*X20900D03*
G54D102*X20600D02*X20750D01*
G54D118*X20479Y21339D02*Y21161D01*
G54D101*X20450Y21350D02*Y21150D01*
G54D118*X20479Y20839D02*Y20661D01*
G54D101*X20450Y20850D02*Y20650D01*
G54D119*X20882Y21250D03*
G54D120*X20613D02*X20747D01*
G54D103*X20900D03*
G54D102*X20600D02*X20750D01*
G54D119*X20882Y20750D03*
G54D120*X20613D02*X20747D01*
G54D103*X20900D03*
G54D102*X20600D02*X20750D01*
G54D106*X30300Y15200D02*X30950D01*
G54D107*X31300Y15550D02*Y14850D01*
X29950Y15550D02*Y14850D01*
X31300D01*
X29950Y15550D02*X31300D01*
G54D102*X30500Y16525D02*Y16475D01*
G54D103*X30350Y16675D02*Y16325D01*
X30650Y16675D02*Y16325D01*
X30350Y16675D02*X30650D01*
X30350Y16325D02*X30650D01*
G54D102*X31500Y16525D02*Y16475D01*
G54D103*X31350Y16675D02*Y16325D01*
X31650D01*
G54D102*X30475Y18500D02*X30525D01*
X30475Y19500D02*X30525D01*
G54D103*X30325Y19350D02*X30675D01*
X30325Y19650D02*X30675D01*
X30325D02*Y19350D01*
X30675Y19650D02*Y19350D01*
X30325Y18350D02*X30675D01*
X30325Y18650D02*X30675D01*
X30325D02*Y18350D01*
X30675Y18650D02*Y18350D01*
G54D118*X29521Y18339D02*Y18161D01*
G54D101*X29550Y18350D02*Y18150D01*
G54D118*X29521Y18839D02*Y18661D01*
G54D101*X29550Y18850D02*Y18650D01*
G54D118*X29521Y19339D02*Y19161D01*
Y19839D02*Y19661D01*
G54D101*X29550Y19850D02*Y19650D01*
Y19350D02*Y19150D01*
G54D118*X29521Y20339D02*Y20161D01*
G54D101*X29550Y20350D02*Y20150D01*
G54D118*X29521Y20839D02*Y20661D01*
G54D101*X29550Y20850D02*Y20650D01*
G54D118*X29521Y21339D02*Y21161D01*
G54D101*X29550Y21350D02*Y21150D01*
G54D102*X25500Y13525D02*Y13475D01*
X26500Y13525D02*Y13475D01*
G54D103*X26350Y13675D02*Y13325D01*
X26650Y13675D02*Y13325D01*
X26350Y13675D02*X26650D01*
X26350Y13325D02*X26650D01*
X25350Y13675D02*Y13325D01*
X25650Y13675D02*Y13325D01*
X25350Y13675D02*X25650D01*
X25350Y13325D02*X25650D01*
G54D102*X27975Y13500D02*X28025D01*
G54D103*X27825Y13650D02*X28175D01*
X27825D02*Y13350D01*
X28175D01*
Y13650D02*Y13350D01*
X26825Y15350D02*X27175D01*
X26825Y15650D02*Y15350D01*
X27175Y15650D02*Y15350D01*
G54D102*X27975Y14500D02*X28025D01*
G54D103*X27825Y14650D02*X28175D01*
X27825Y14350D02*X28175D01*
Y14650D02*Y14350D01*
X27825Y14650D02*Y14350D01*
G54D102*X25475Y15500D02*X25525D01*
G54D103*X25325Y15350D02*X25675D01*
X25325Y15650D02*X25675D01*
X25325D02*Y15350D01*
X25675Y15650D02*Y15350D01*
G54D102*X25475Y16500D02*X25525D01*
G54D103*X25325Y16350D02*X25675D01*
X25325Y16650D02*Y16350D01*
X25675Y16650D02*Y16350D01*
X25325Y16650D02*X25675D01*
G54D118*X24161Y17479D02*X24339D01*
G54D101*X24150Y17450D02*X24350D01*
G54D118*X24661Y17479D02*X24839D01*
G54D101*X24650Y17450D02*X24850D01*
G54D119*X24250Y17882D03*
G54D120*Y17747D02*Y17613D01*
G54D103*Y17900D03*
G54D102*Y17750D02*Y17600D01*
G54D119*X24750Y17882D03*
G54D120*Y17747D02*Y17613D01*
G54D103*Y17900D03*
G54D102*Y17750D02*Y17600D01*
G54D118*X25161Y17479D02*X25339D01*
G54D101*X25150Y17450D02*X25350D01*
G54D118*X25661Y17479D02*X25839D01*
G54D101*X25650Y17450D02*X25850D01*
G54D119*X25250Y17882D03*
G54D120*Y17747D02*Y17613D01*
G54D103*Y17900D03*
G54D102*Y17750D02*Y17600D01*
G54D119*X25750Y17882D03*
G54D120*Y17747D02*Y17613D01*
G54D103*Y17900D03*
G54D102*Y17750D02*Y17600D01*
X27975Y15500D02*X28025D01*
G54D103*X27825Y15350D02*X28175D01*
X27825Y15650D02*Y15350D01*
X28175Y15650D02*Y15350D01*
X27825Y15650D02*X28175D01*
G54D102*X27975Y16500D02*X28025D01*
G54D103*X27825Y16350D02*X28175D01*
X27825Y16650D02*X28175D01*
X27825D02*Y16350D01*
X28175Y16650D02*Y16350D01*
G54D102*X26975Y15500D02*X27025D01*
X26975Y16500D02*X27025D01*
G54D103*X26825Y16350D02*X27175D01*
X26825Y16650D02*X27175D01*
X26825D02*Y16350D01*
X27175Y16650D02*Y16350D01*
X26825Y15650D02*X27175D01*
G54D118*X26161Y17479D02*X26339D01*
G54D101*X26150Y17450D02*X26350D01*
G54D118*X26661Y17479D02*X26839D01*
G54D101*X26650Y17450D02*X26850D01*
G54D119*X26250Y17882D03*
G54D120*Y17747D02*Y17613D01*
G54D103*Y17900D03*
G54D102*Y17750D02*Y17600D01*
G54D119*X26750Y17882D03*
G54D120*Y17747D02*Y17613D01*
G54D103*Y17900D03*
G54D102*Y17750D02*Y17600D01*
G54D118*X27161Y17479D02*X27339D01*
G54D101*X27150Y17450D02*X27350D01*
G54D118*X27661Y17479D02*X27839D01*
G54D101*X27650Y17450D02*X27850D01*
G54D119*X27250Y17882D03*
G54D120*Y17747D02*Y17613D01*
G54D103*Y17900D03*
G54D102*Y17750D02*Y17600D01*
G54D119*X27750Y17882D03*
G54D120*Y17747D02*Y17613D01*
G54D103*Y17900D03*
G54D102*Y17750D02*Y17600D01*
G54D118*X28161Y17479D02*X28339D01*
G54D101*X28150Y17450D02*X28350D01*
G54D118*X28661Y17479D02*X28839D01*
G54D101*X28650Y17450D02*X28850D01*
G54D119*X28250Y17882D03*
G54D120*Y17747D02*Y17613D01*
G54D103*Y17900D03*
G54D102*Y17750D02*Y17600D01*
G54D119*X28750Y17882D03*
G54D120*Y17747D02*Y17613D01*
G54D103*Y17900D03*
G54D102*Y17750D02*Y17600D01*
G54D119*X29118Y18250D03*
G54D103*X29100D03*
G54D120*X29253D02*X29387D01*
G54D102*X29250D02*X29400D01*
G54D119*X29118Y18750D03*
G54D120*X29253D02*X29387D01*
G54D103*X29100D03*
G54D102*X29250D02*X29400D01*
G54D119*X29118Y19250D03*
G54D120*X29253D02*X29387D01*
G54D103*X29100D03*
G54D102*X29250D02*X29400D01*
G54D119*X29118Y19750D03*
G54D120*X29253D02*X29387D01*
G54D103*X29100D03*
G54D102*X29250D02*X29400D01*
G54D119*X29118Y20250D03*
G54D120*X29253D02*X29387D01*
G54D103*X29100D03*
G54D102*X29250D02*X29400D01*
G54D119*X29118Y20750D03*
G54D120*X29253D02*X29387D01*
G54D103*X29100D03*
G54D102*X29250D02*X29400D01*
G54D119*X29118Y21250D03*
G54D120*X29253D02*X29387D01*
G54D103*X29100D03*
G54D102*X30475Y26500D02*X30525D01*
X30475Y25500D02*X30525D01*
G54D103*X30325Y25650D02*X30675D01*
X30325Y25350D02*X30675D01*
Y25650D02*Y25350D01*
X30325Y25650D02*Y25350D01*
Y26650D02*X30675D01*
X30325D02*Y26350D01*
X30675D01*
Y26650D02*Y26350D01*
G54D118*X29521Y25839D02*Y25661D01*
G54D101*X29550Y25850D02*Y25650D01*
G54D119*X29118Y25750D03*
G54D120*X29253D02*X29387D01*
G54D103*X29100D03*
G54D102*X29250D02*X29400D01*
G54D118*X28661Y26521D02*X28839D01*
G54D119*X28750Y26118D03*
G54D120*Y26387D02*Y26253D01*
G54D103*Y26100D03*
X28250D03*
G54D102*X28750Y26400D02*Y26250D01*
G54D101*X28650Y26550D02*X28850D01*
G54D118*X28161Y26521D02*X28339D01*
G54D101*X28150Y26550D02*X28350D01*
G54D118*X27661Y26521D02*X27839D01*
G54D119*X28250Y26118D03*
G54D120*Y26387D02*Y26253D01*
G54D102*Y26400D02*Y26250D01*
G54D101*X27650Y26550D02*X27850D01*
G54D119*X27750Y26118D03*
G54D120*Y26387D02*Y26253D01*
G54D103*Y26100D03*
G54D102*Y26400D02*Y26250D01*
X32475Y34500D02*X32525D01*
G54D101*X33300Y33850D02*Y33650D01*
G54D103*X32325Y34650D02*X32675D01*
X32325Y34350D02*X32675D01*
Y34650D02*Y34350D01*
X32325Y34650D02*Y34350D01*
G54D102*X32475Y33500D02*X32525D01*
G54D103*X32325Y33650D02*X32675D01*
X32325Y33350D02*X32675D01*
Y33650D02*Y33350D01*
X32325Y33650D02*Y33350D01*
G54D101*X33300D02*Y33150D01*
Y32850D02*Y32650D01*
Y32350D02*Y32150D01*
Y31850D02*Y31650D01*
Y31350D02*Y31150D01*
Y30850D02*Y30650D01*
Y30350D02*Y30150D01*
Y29850D02*Y29650D01*
Y29350D02*Y29150D01*
Y28850D02*Y28650D01*
Y28350D02*Y28150D01*
G54D102*X29250Y21250D02*X29400D01*
G54D118*X29521Y21839D02*Y21661D01*
G54D119*X29118Y21750D03*
G54D120*X29253D02*X29387D01*
G54D101*X29550Y21850D02*Y21650D01*
G54D103*X29100Y21750D03*
G54D102*X29250D02*X29400D01*
G54D118*X29521Y22339D02*Y22161D01*
Y22839D02*Y22661D01*
G54D101*X29550Y22850D02*Y22650D01*
G54D118*X29521Y23339D02*Y23161D01*
G54D119*X29118Y22250D03*
G54D103*X29100D03*
G54D120*X29253D02*X29387D01*
G54D102*X29250D02*X29400D01*
G54D101*X29550Y22350D02*Y22150D01*
G54D119*X29118Y22750D03*
G54D120*X29253D02*X29387D01*
G54D103*X29100D03*
G54D102*X29250D02*X29400D01*
G54D101*X29550Y23350D02*Y23150D01*
G54D119*X29118Y23250D03*
G54D120*X29253D02*X29387D01*
G54D103*X29100D03*
G54D102*X29250D02*X29400D01*
G54D119*X29118Y23750D03*
G54D103*X29100D03*
G54D120*X29253D02*X29387D01*
G54D102*X29250D02*X29400D01*
G54D118*X29521Y23839D02*Y23661D01*
G54D101*X29550Y23850D02*Y23650D01*
G54D118*X29521Y24339D02*Y24161D01*
G54D101*X29550Y24350D02*Y24150D01*
G54D118*X29521Y24839D02*Y24661D01*
G54D119*X29118Y24250D03*
G54D120*X29253D02*X29387D01*
G54D103*X29100D03*
G54D102*X29250D02*X29400D01*
G54D119*X29118Y24750D03*
G54D120*X29253D02*X29387D01*
G54D101*X29550Y24850D02*Y24650D01*
G54D103*X29100Y24750D03*
G54D102*X29250D02*X29400D01*
G54D118*X29521Y25339D02*Y25161D01*
G54D119*X29118Y25250D03*
G54D120*X29253D02*X29387D01*
G54D101*X29550Y25350D02*Y25150D01*
G54D103*X29100Y25250D03*
G54D102*X29250D02*X29400D01*
X26975Y28500D02*X27025D01*
X26975Y27500D02*X27025D01*
G54D103*X26825Y27650D02*X27175D01*
X26825Y27350D02*X27175D01*
Y27650D02*Y27350D01*
X26825Y27650D02*Y27350D01*
Y28650D02*X27175D01*
X26825Y28350D02*X27175D01*
Y28650D02*Y28350D01*
X26825Y28650D02*Y28350D01*
G54D102*X24475Y28500D02*X24525D01*
G54D103*X24325Y28650D02*X24675D01*
X24325Y28350D02*X24675D01*
Y28650D02*Y28350D01*
X24325Y28650D02*Y28350D01*
G54D102*X24475Y27500D02*X24525D01*
G54D103*X24325Y27650D02*X24675D01*
Y27350D01*
X24325Y27650D02*Y27350D01*
X24675D01*
G54D118*X27161Y26521D02*X27339D01*
G54D101*X27150Y26550D02*X27350D01*
G54D118*X26661Y26521D02*X26839D01*
G54D101*X26650Y26550D02*X26850D01*
G54D119*X27250Y26118D03*
G54D120*Y26387D02*Y26253D01*
G54D103*Y26100D03*
G54D102*Y26400D02*Y26250D01*
G54D119*X26750Y26118D03*
G54D120*Y26387D02*Y26253D01*
G54D103*Y26100D03*
G54D102*Y26400D02*Y26250D01*
G54D121*X26636Y23844D02*X26844D01*
G54D101*X26533Y23947D02*X26947D01*
X26533D02*Y23533D01*
X26947Y23947D02*Y23533D01*
X26533D02*X26947D01*
G54D118*X26161Y26521D02*X26339D01*
G54D101*X26150Y26550D02*X26350D01*
G54D118*X25661Y26521D02*X25839D01*
G54D101*X25650Y26550D02*X25850D01*
G54D119*X26250Y26118D03*
G54D120*Y26387D02*Y26253D01*
G54D103*Y26100D03*
G54D102*Y26400D02*Y26250D01*
G54D119*X25750Y26118D03*
G54D120*Y26387D02*Y26253D01*
G54D103*Y26100D03*
G54D102*Y26400D02*Y26250D01*
G54D118*X25161Y26521D02*X25339D01*
G54D101*X25150Y26550D02*X25350D01*
G54D118*X24661Y26521D02*X24839D01*
G54D101*X24650Y26550D02*X24850D01*
G54D119*X25250Y26118D03*
G54D120*Y26387D02*Y26253D01*
G54D103*Y26100D03*
G54D102*Y26400D02*Y26250D01*
G54D119*X24750Y26118D03*
G54D120*Y26387D02*Y26253D01*
G54D103*Y26100D03*
G54D102*Y26400D02*Y26250D01*
G54D118*X24161Y26521D02*X24339D01*
G54D101*X24150Y26550D02*X24350D01*
G54D118*X23661Y26521D02*X23839D01*
G54D101*X23650Y26550D02*X23850D01*
G54D119*X24250Y26118D03*
G54D120*Y26387D02*Y26253D01*
G54D103*Y26100D03*
G54D102*Y26400D02*Y26250D01*
G54D119*X23750Y26118D03*
G54D120*Y26387D02*Y26253D01*
G54D103*Y26100D03*
G54D102*Y26400D02*Y26250D01*
G54D118*X23161Y26521D02*X23339D01*
G54D101*X23150Y26550D02*X23350D01*
G54D118*X22661Y26521D02*X22839D01*
G54D101*X22650Y26550D02*X22850D01*
G54D119*X23250Y26118D03*
G54D120*Y26387D02*Y26253D01*
G54D103*Y26100D03*
G54D102*Y26400D02*Y26250D01*
G54D119*X22750Y26118D03*
G54D120*Y26387D02*Y26253D01*
G54D103*Y26100D03*
G54D102*Y26400D02*Y26250D01*
G54D118*X22161Y26521D02*X22339D01*
G54D101*X22150Y26550D02*X22350D01*
G54D118*X21661Y26521D02*X21839D01*
G54D101*X21650Y26550D02*X21850D01*
G54D119*X22250Y26118D03*
G54D120*Y26387D02*Y26253D01*
G54D103*Y26100D03*
G54D102*Y26400D02*Y26250D01*
G54D119*X21750Y26118D03*
G54D120*Y26387D02*Y26253D01*
G54D103*Y26100D03*
G54D102*Y26400D02*Y26250D01*
G54D118*X21161Y26521D02*X21339D01*
G54D101*X21150Y26550D02*X21350D01*
G54D119*X21250Y26118D03*
G54D120*Y26387D02*Y26253D01*
G54D103*Y26100D03*
G54D102*Y26400D02*Y26250D01*
G54D121*X23156Y20364D02*X23364D01*
G54D101*X23053Y20467D02*Y20053D01*
X23467Y20467D02*Y20053D01*
X23053Y20467D02*X23467D01*
X23923Y20053D02*X24337D01*
G54D121*X23156Y21026D02*X23364D01*
X23156Y21234D02*X23364D01*
G54D101*X23053Y20923D02*X23467D01*
X23053Y21337D02*X23467D01*
X23053D02*Y20923D01*
X23467Y21337D02*Y20923D01*
G54D121*X24026Y21026D02*X24234D01*
X24026Y21234D02*X24234D01*
G54D101*X23923Y20923D02*X24337D01*
Y21337D02*Y20923D01*
X23923Y21337D02*X24337D01*
X23923D02*Y20923D01*
G54D121*X24026Y20156D02*X24234D01*
X24026Y20364D02*X24234D01*
G54D101*X23923Y20467D02*X24337D01*
X23923D02*Y20053D01*
X24337Y20467D02*Y20053D01*
G54D121*X23156Y21896D02*X23364D01*
X23156Y22104D02*X23364D01*
G54D101*X23053Y22207D02*X23467D01*
X23053D02*Y21793D01*
X23467Y22207D02*Y21793D01*
X23053D02*X23467D01*
G54D121*X23156Y22766D02*X23364D01*
X23156Y22974D02*X23364D01*
G54D101*X23053Y22663D02*X23467D01*
Y23077D02*Y22663D01*
X23053Y23077D02*X23467D01*
X23053D02*Y22663D01*
G54D121*X23156Y23636D02*X23364D01*
X23156Y23844D02*X23364D01*
G54D101*X23053Y23533D02*X23467D01*
Y23947D02*Y23533D01*
X23053Y23947D02*X23467D01*
X23053D02*Y23533D01*
G54D121*X24026Y21896D02*X24234D01*
X24026Y22104D02*X24234D01*
G54D101*X23923Y22207D02*X24337D01*
X23923D02*Y21793D01*
X24337Y22207D02*Y21793D01*
X23923D02*X24337D01*
G54D121*X24026Y22766D02*X24234D01*
X24026Y22974D02*X24234D01*
G54D101*X23923Y22663D02*X24337D01*
Y23077D02*Y22663D01*
X23923Y23077D02*X24337D01*
X23923D02*Y22663D01*
G54D121*X24026Y23636D02*X24234D01*
X24026Y23844D02*X24234D01*
G54D101*X23923Y23533D02*X24337D01*
Y23947D02*Y23533D01*
X23923Y23947D02*X24337D01*
X23923D02*Y23533D01*
G54D121*X24896Y21026D02*X25104D01*
X24896Y21234D02*X25104D01*
G54D101*X24793Y20923D02*X25207D01*
X24793Y21337D02*X25207D01*
X24793D02*Y20923D01*
X25207Y21337D02*Y20923D01*
G54D121*X24896Y21896D02*X25104D01*
X24896Y22104D02*X25104D01*
G54D101*X24793Y21793D02*X25207D01*
X24793Y22207D02*X25207D01*
X24793D02*Y21793D01*
X25207Y22207D02*Y21793D01*
G54D121*X24896Y20156D02*X25104D01*
X24896Y20364D02*X25104D01*
G54D101*X24793Y20467D02*X25207D01*
X24793D02*Y20053D01*
X25207Y20467D02*Y20053D01*
X24793D02*X25207D01*
G54D121*X25766Y20156D02*X25974D01*
X25766Y20364D02*X25974D01*
G54D101*X25663Y20053D02*X26077D01*
X25663Y20467D02*X26077D01*
X25663D02*Y20053D01*
X26077Y20467D02*Y20053D01*
G54D121*X26636Y20156D02*X26844D01*
G54D101*X26533Y20053D02*X26947D01*
X26533Y20467D02*Y20053D01*
X26947Y20467D02*Y20053D01*
G54D121*X26636Y20364D02*X26844D01*
G54D101*X26533Y20467D02*X26947D01*
G54D121*X25766Y21026D02*X25974D01*
G54D101*X25663Y20923D02*X26077D01*
X25663Y21337D02*Y20923D01*
X26077Y21337D02*Y20923D01*
G54D121*X25766Y21234D02*X25974D01*
G54D101*X25663Y21337D02*X26077D01*
G54D121*X24896Y22766D02*X25104D01*
X24896Y22974D02*X25104D01*
G54D101*X24793Y22663D02*X25207D01*
X24793Y23077D02*X25207D01*
X24793D02*Y22663D01*
X25207Y23077D02*Y22663D01*
G54D121*X24896Y23636D02*X25104D01*
G54D101*X25207Y23947D02*Y23533D01*
G54D121*X24896Y23844D02*X25104D01*
G54D101*X24793Y23533D02*X25207D01*
X24793Y23947D02*X25207D01*
X24793D02*Y23533D01*
G54D121*X25766Y21896D02*X25974D01*
X25766Y22104D02*X25974D01*
G54D101*X25663Y21793D02*X26077D01*
X25663Y22207D02*X26077D01*
X25663D02*Y21793D01*
X26077Y22207D02*Y21793D01*
G54D121*X26636Y21026D02*X26844D01*
G54D101*X26533Y21337D02*Y20923D01*
X26947Y21337D02*Y20923D01*
G54D121*X26636Y21234D02*X26844D01*
G54D101*X26533Y20923D02*X26947D01*
X26533Y21337D02*X26947D01*
G54D121*X26636Y21896D02*X26844D01*
X26636Y22104D02*X26844D01*
G54D101*X26533Y21793D02*X26947D01*
X26533Y22207D02*X26947D01*
X26533D02*Y21793D01*
X26947Y22207D02*Y21793D01*
G54D121*X26636Y22766D02*X26844D01*
X26636Y22974D02*X26844D01*
G54D101*X26533Y22663D02*X26947D01*
X26533Y23077D02*X26947D01*
X26533D02*Y22663D01*
X26947Y23077D02*Y22663D01*
G54D121*X26636Y23636D02*X26844D01*
X25766Y22766D02*X25974D01*
X25766Y22974D02*X25974D01*
G54D101*X25663Y22663D02*X26077D01*
X25663Y23077D02*X26077D01*
X25663D02*Y22663D01*
X26077Y23077D02*Y22663D01*
G54D121*X25766Y23636D02*X25974D01*
X25766Y23844D02*X25974D01*
G54D101*X25663Y23533D02*X26077D01*
X25663Y23947D02*X26077D01*
X25663D02*Y23533D01*
X26077Y23947D02*Y23533D01*
G54D134*X24960Y22040D02*X25040D01*
Y21960D01*
M02*
