G04 start of page 10 for group -4078 idx -4078 *
G04 Title: pmc, bottomsilk *
G04 Creator: pcb 1.99z *
G04 CreationDate: Mon 09 Sep 2013 06:37:42 AM GMT UTC *
G04 For: russ *
G04 Format: Gerber/RS-274X *
G04 PCB-Dimensions (mm): 62.00 62.00 *
G04 PCB-Coordinate-Origin: lower left *
%MOMM*%
%FSLAX43Y43*%
%LNBOTTOMSILK*%
%ADD161C,0.188*%
%ADD160C,0.150*%
%ADD159C,0.185*%
%ADD158C,0.134*%
%ADD157C,0.132*%
%ADD156C,0.002*%
G54D156*G36*
X31356Y25311D02*X31541Y25295D01*
X31709Y25245D01*
X31860Y25162D01*
X31994Y25044D01*
X32218Y24720D01*
X32293Y24380D01*
Y24159D01*
X31895Y24333D01*
Y24369D01*
X31884Y24480D01*
X31854Y24583D01*
X31806Y24675D01*
X31738Y24756D01*
X31654Y24824D01*
X31564Y24871D01*
X31468Y24899D01*
X31366Y24908D01*
X31252Y24898D01*
X31149Y24869D01*
X31057Y24821D01*
X30974Y24750D01*
X30906Y24666D01*
X30856Y24571D01*
X30827Y24467D01*
X30817Y24354D01*
X31827Y23935D01*
X32035Y23821D01*
X32184Y23674D01*
X32273Y23494D01*
X32302Y23280D01*
Y23260D01*
X32255Y23017D01*
X32109Y22804D01*
X31798Y22597D01*
X31444Y22526D01*
X31220Y22553D01*
X31016Y22631D01*
X31167Y23003D01*
X31296Y22947D01*
X31444Y22929D01*
X31567Y22939D01*
X31671Y22970D01*
X31758Y23021D01*
X31827Y23091D01*
X31874Y23177D01*
X31889Y23260D01*
X31873Y23357D01*
X31825Y23445D01*
X31745Y23522D01*
X31633Y23589D01*
X30817Y23924D01*
Y22526D01*
X30419Y22704D01*
Y24380D01*
X30486Y24738D01*
X30690Y25039D01*
X30995Y25244D01*
X31356Y25311D01*
G37*
G36*
X37659Y25474D02*X37726Y25468D01*
X38060Y25378D01*
X38344Y25175D01*
X38547Y24891D01*
X38637Y24558D01*
X38643Y24458D01*
Y22485D01*
X38527Y22532D01*
X38129Y22710D01*
X38082Y22731D01*
Y24458D01*
X38073Y24547D01*
X38029Y24665D01*
X37947Y24773D01*
X37874Y24833D01*
X37795Y24875D01*
X37710Y24900D01*
X37616Y24908D01*
X37527Y24899D01*
X37445Y24874D01*
X37369Y24832D01*
X37297Y24773D01*
X37240Y24704D01*
X37200Y24629D01*
X37176Y24544D01*
X37167Y24448D01*
Y22485D01*
X37051Y22532D01*
X36653Y22710D01*
X36606Y22731D01*
Y24458D01*
X36624Y24660D01*
X36679Y24847D01*
X36771Y25020D01*
X36900Y25175D01*
X37057Y25304D01*
X37230Y25398D01*
X37419Y25455D01*
X37622Y25474D01*
X37659D01*
G37*
G36*
X40281D02*Y25468D01*
X40302D01*
X40632Y25378D01*
X40914Y25175D01*
X41044Y25020D01*
X41140Y24847D01*
X41198Y24660D01*
X41219Y24458D01*
Y24333D01*
X40653D01*
Y24458D01*
X40643Y24547D01*
X40602Y24669D01*
X40523Y24777D01*
X40452Y24836D01*
X40377Y24877D01*
X40298Y24900D01*
X40212Y24908D01*
X40113Y24899D01*
X40024Y24874D01*
X39945Y24832D01*
X39873Y24773D01*
X39792Y24659D01*
X39752Y24526D01*
X40653Y24128D01*
Y24337D01*
X41219D01*
Y23542D01*
X41199Y23340D01*
X41140Y23153D01*
X41045Y22981D01*
X40914Y22825D01*
X40759Y22696D01*
X40587Y22602D01*
X40399Y22546D01*
X40197Y22526D01*
X39997Y22545D01*
X39812Y22600D01*
X39644Y22692D01*
X39496Y22820D01*
X39258Y23168D01*
X39176Y23542D01*
Y23888D01*
X39286Y23836D01*
X39685Y23658D01*
X39737Y23636D01*
Y23553D01*
X39747Y23457D01*
X39773Y23370D01*
X39816Y23292D01*
X39873Y23222D01*
X39981Y23140D01*
X40098Y23097D01*
X40182Y23091D01*
X40281Y23100D01*
X40370Y23125D01*
X40450Y23168D01*
X40523Y23228D01*
X40611Y23360D01*
X40648Y23516D01*
X39223Y24150D01*
X39176Y24171D01*
Y24458D01*
X39196Y24665D01*
X39254Y24855D01*
X39349Y25025D01*
X39481Y25175D01*
X39642Y25304D01*
X39815Y25397D01*
X40001Y25455D01*
X40197Y25474D01*
X40281D01*
G37*
G36*
X42767D02*X42969Y25455D01*
X43157Y25398D01*
X43329Y25304D01*
X43485Y25175D01*
X43616Y25020D01*
X43711Y24847D01*
X43769Y24660D01*
X43789Y24458D01*
Y24107D01*
X43166D01*
Y24464D01*
X43130Y24633D01*
X43029Y24777D01*
X42902Y24871D01*
X42758Y24908D01*
X42747D01*
X42659Y24895D01*
X42580Y24868D01*
X42508Y24827D01*
X42443Y24773D01*
X42386Y24704D01*
X42346Y24629D01*
X42322Y24544D01*
X42313Y24448D01*
Y23553D01*
X42322Y23457D01*
X42346Y23370D01*
X42386Y23292D01*
X42443Y23222D01*
X42577Y23129D01*
X42726Y23091D01*
X42732D01*
X42885Y23131D01*
X43024Y23228D01*
X43087Y23298D01*
X43131Y23374D01*
X43157Y23459D01*
X43166Y23553D01*
Y24111D01*
X43789D01*
Y21516D01*
X43725Y21537D01*
Y21511D01*
X43611Y21563D01*
X43212Y21735D01*
X43166Y21758D01*
Y22616D01*
X42974Y22551D01*
X42767Y22526D01*
X42700D01*
X42499Y22546D01*
X42313Y22602D01*
X42142Y22696D01*
X41987Y22825D01*
X41858Y22981D01*
X41766Y23153D01*
X41709Y23340D01*
X41690Y23542D01*
Y24458D01*
X41709Y24660D01*
X41766Y24847D01*
X41858Y25020D01*
X41987Y25175D01*
X42142Y25304D01*
X42313Y25398D01*
X42499Y25455D01*
X42700Y25474D01*
X42767D01*
G37*
G36*
X30240Y12924D02*Y15972D01*
X39130D01*
Y17242D01*
X41924Y14448D01*
X39130Y11654D01*
Y12924D01*
X30240D01*
G37*
G36*
X21723Y25311D02*X21910Y25295D01*
X22079Y25245D01*
X22232Y25162D01*
X22367Y25044D01*
X22589Y24720D01*
X22660Y24380D01*
Y24159D01*
X22262Y24333D01*
Y24369D01*
X22251Y24480D01*
X22221Y24583D01*
X22173Y24675D01*
X22105Y24756D01*
X22023Y24824D01*
X21935Y24871D01*
X21840Y24899D01*
X21739Y24908D01*
X21624Y24898D01*
X21520Y24869D01*
X21426Y24821D01*
X21342Y24750D01*
X21274Y24666D01*
X21226Y24571D01*
X21199Y24467D01*
X21190Y24354D01*
X22200Y23935D01*
X22408Y23821D01*
X22555Y23674D01*
X22642Y23494D01*
X22671Y23280D01*
Y23260D01*
X22626Y23017D01*
X22482Y22804D01*
X22171Y22597D01*
X21817Y22526D01*
X21592Y22553D01*
X21389Y22631D01*
X21540Y23003D01*
X21670Y22947D01*
X21817Y22929D01*
X21940Y22939D01*
X22044Y22970D01*
X22131Y23021D01*
X22200Y23091D01*
X22247Y23177D01*
X22262Y23260D01*
X22246Y23357D01*
X22198Y23445D01*
X22118Y23522D01*
X22006Y23589D01*
X21190Y23924D01*
Y22526D01*
X20792Y22704D01*
Y24380D01*
X20859Y24738D01*
X21063Y25039D01*
X21365Y25244D01*
X21723Y25311D01*
G37*
G36*
X24995D02*X25393Y25140D01*
Y23207D01*
X25343Y22941D01*
X25199Y22720D01*
X24984Y22575D01*
X24713Y22526D01*
X24454Y22575D01*
X24235Y22720D01*
X24024Y22575D01*
X23760Y22526D01*
X23499Y22576D01*
X23278Y22725D01*
X23129Y22944D01*
X23079Y23202D01*
Y25311D01*
X23478Y25140D01*
X23482Y23217D01*
X23500Y23101D01*
X23560Y23003D01*
X23652Y22940D01*
X23760Y22919D01*
X23867Y22940D01*
X23958Y23003D01*
X24021Y23101D01*
X24043Y23217D01*
X24037Y25311D01*
X24435Y25140D01*
X24441Y23217D01*
Y23213D01*
X24459Y23100D01*
X24520Y23003D01*
X24610Y22940D01*
X24718Y22919D01*
X24825Y22940D01*
X24916Y23003D01*
X24976Y23101D01*
X24995Y23217D01*
Y25311D01*
G37*
G36*
X29036D02*X29395Y25244D01*
X29697Y25039D01*
X29904Y24738D01*
X29974Y24380D01*
Y22526D01*
X29576Y22704D01*
Y24380D01*
X29565Y24486D01*
X29535Y24584D01*
X29484Y24674D01*
X29414Y24756D01*
X29331Y24824D01*
X29240Y24871D01*
X29140Y24899D01*
X29031Y24908D01*
X28927Y24899D01*
X28829Y24871D01*
X28738Y24824D01*
X28655Y24756D01*
X28587Y24675D01*
X28539Y24583D01*
X28509Y24480D01*
X28498Y24369D01*
Y24191D01*
X28100Y24369D01*
Y24380D01*
X28167Y24733D01*
X28372Y25039D01*
X28514Y25159D01*
X28672Y25244D01*
X28847Y25294D01*
X29036Y25311D01*
G37*
G36*
X19451D02*X19810Y25244D01*
X20111Y25039D01*
X20318Y24738D01*
X20388Y24380D01*
Y22526D01*
X19991Y22704D01*
Y24380D01*
X19981Y24486D01*
X19950Y24583D01*
X19899Y24674D01*
X19829Y24756D01*
X19745Y24824D01*
X19654Y24871D01*
X19555Y24899D01*
X19447Y24908D01*
X19342Y24899D01*
X19244Y24871D01*
X19153Y24824D01*
X19070Y24756D01*
X19002Y24675D01*
X18951Y24583D01*
X18920Y24480D01*
X18907Y24369D01*
Y24191D01*
X18510Y24369D01*
Y24380D01*
X18579Y24733D01*
X18787Y25039D01*
X18929Y25159D01*
X19087Y25244D01*
X19262Y25294D01*
X19451Y25311D01*
G37*
G36*
X17174D02*X17533Y25244D01*
X17835Y25039D01*
X18041Y24738D01*
X18112Y24380D01*
Y24238D01*
X17713D01*
Y24380D01*
X17704Y24486D01*
X17674Y24583D01*
X17625Y24674D01*
X17556Y24756D01*
X17474Y24824D01*
X17386Y24871D01*
X17291Y24899D01*
X17189Y24908D01*
X17076Y24899D01*
X16972Y24871D01*
X16877Y24824D01*
X16793Y24756D01*
X16681Y24598D01*
X16636Y24406D01*
X17713Y23924D01*
Y24242D01*
X18112D01*
Y23464D01*
X18094Y23277D01*
X18041Y23105D01*
X17955Y22948D01*
X17835Y22804D01*
X17691Y22683D01*
X17533Y22597D01*
X17361Y22544D01*
X17174Y22526D01*
X16988Y22544D01*
X16819Y22596D01*
X16666Y22681D01*
X16531Y22799D01*
X16309Y23124D01*
X16237Y23464D01*
Y23678D01*
X16636Y23505D01*
Y23469D01*
X16647Y23358D01*
X16677Y23258D01*
X16725Y23167D01*
X16793Y23086D01*
X16875Y23018D01*
X16963Y22969D01*
X17058Y22939D01*
X17159Y22929D01*
X17274Y22939D01*
X17379Y22970D01*
X17473Y23021D01*
X17556Y23091D01*
X17625Y23177D01*
X17674Y23272D01*
X17704Y23376D01*
X17713Y23490D01*
X16237Y24144D01*
Y24380D01*
X16254Y24572D01*
X16304Y24745D01*
X16389Y24901D01*
X16509Y25039D01*
X16821Y25244D01*
X17174Y25311D01*
G37*
G36*
X45343Y25474D02*X45545Y25455D01*
X45733Y25398D01*
X45905Y25304D01*
X46061Y25175D01*
X46190Y25020D01*
X46285Y24847D01*
X46344Y24660D01*
X46364Y24458D01*
Y24107D01*
X45741D01*
Y24464D01*
X45732Y24552D01*
X45706Y24633D01*
X45664Y24707D01*
X45605Y24777D01*
X45477Y24871D01*
X45333Y24908D01*
X45322D01*
X45155Y24868D01*
X45019Y24773D01*
X44962Y24704D01*
X44922Y24629D01*
X44898Y24544D01*
X44888Y24448D01*
Y23553D01*
X44898Y23457D01*
X44922Y23370D01*
X44962Y23292D01*
X45019Y23222D01*
X45152Y23128D01*
X45302Y23091D01*
X45458Y23132D01*
X45599Y23228D01*
X45662Y23298D01*
X45706Y23374D01*
X45733Y23459D01*
X45741Y23553D01*
Y24111D01*
X46364D01*
Y23542D01*
X46344Y23340D01*
X46286Y23153D01*
X46191Y22981D01*
X46061Y22825D01*
X45905Y22696D01*
X45733Y22602D01*
X45545Y22546D01*
X45343Y22526D01*
X45281D01*
X45080Y22546D01*
X44892Y22603D01*
X44720Y22697D01*
X44563Y22825D01*
X44434Y22981D01*
X44341Y23153D01*
X44284Y23340D01*
X44265Y23542D01*
Y24458D01*
X44284Y24660D01*
X44340Y24847D01*
X44434Y25020D01*
X44563Y25175D01*
X44719Y25304D01*
X44892Y25398D01*
X45079Y25455D01*
X45281Y25474D01*
X45343D01*
G37*
G36*
X25838Y26286D02*X26237Y26112D01*
Y25143D01*
X26491Y25270D01*
X26781Y25311D01*
X27138Y25244D01*
X27439Y25039D01*
X27645Y24738D01*
X27712Y24380D01*
Y23741D01*
X27314D01*
Y24386D01*
X27304Y24489D01*
X27274Y24586D01*
X27225Y24675D01*
X27157Y24756D01*
X27075Y24824D01*
X26987Y24871D01*
X26892Y24899D01*
X26790Y24908D01*
X26677Y24899D01*
X26572Y24871D01*
X26478Y24824D01*
X26394Y24756D01*
X26326Y24675D01*
X26277Y24583D01*
X26248Y24480D01*
X26237Y24369D01*
Y23469D01*
X26248Y23358D01*
X26277Y23258D01*
X26326Y23167D01*
X26394Y23086D01*
X26477Y23018D01*
X26567Y22969D01*
X26663Y22939D01*
X26764Y22929D01*
X26869Y22939D01*
X26968Y22969D01*
X27060Y23018D01*
X27147Y23086D01*
X27220Y23168D01*
X27272Y23259D01*
X27304Y23359D01*
X27314Y23469D01*
Y23745D01*
X27712D01*
Y23464D01*
X27645Y23105D01*
X27439Y22804D01*
X27138Y22597D01*
X26781Y22526D01*
X26593Y22544D01*
X26418Y22597D01*
X26256Y22683D01*
X26110Y22804D01*
X25990Y22948D01*
X25905Y23105D01*
X25855Y23277D01*
X25838Y23464D01*
Y26286D01*
G37*
G36*
X34219D02*X34618Y26112D01*
Y22526D01*
X34219Y22704D01*
Y24386D01*
X34209Y24489D01*
X34179Y24586D01*
X34130Y24675D01*
X34062Y24756D01*
X33979Y24824D01*
X33885Y24871D01*
X33782Y24899D01*
X33670Y24908D01*
X33565Y24899D01*
X33469Y24871D01*
X33380Y24824D01*
X33298Y24756D01*
X33230Y24675D01*
X33182Y24583D01*
X33152Y24480D01*
X33140Y24369D01*
Y22526D01*
X32744Y22704D01*
Y24380D01*
X32811Y24738D01*
X33015Y25039D01*
X33320Y25244D01*
X33681Y25311D01*
X33967Y25269D01*
X34219Y25143D01*
Y26286D01*
G37*
G36*
X32633Y47004D02*X32680Y46996D01*
X32720Y46971D01*
X32752Y46935D01*
X32770Y46890D01*
X32816Y46644D01*
X32840Y46528D01*
X32864Y46413D01*
X33271Y44210D01*
X33288Y44162D01*
X33319Y44118D01*
X33358Y44081D01*
X33402Y44057D01*
X33512Y44010D01*
X34330Y43728D01*
X35104Y43361D01*
X35110Y43356D01*
X35203Y43320D01*
X35252Y43305D01*
X35305Y43303D01*
X35357Y43313D01*
X35402Y43335D01*
X37244Y44597D01*
X37342Y44664D01*
X37439Y44732D01*
X37648Y44874D01*
X37691Y44893D01*
X37737Y44897D01*
X37782Y44885D01*
X37820Y44859D01*
X38166Y44513D01*
X38684Y44001D01*
X38853Y43832D01*
X39365Y43314D01*
X39711Y42968D01*
X39738Y42929D01*
X39752Y42882D01*
X39750Y42834D01*
X39732Y42791D01*
X39586Y42587D01*
X39517Y42487D01*
X39449Y42388D01*
X38219Y40587D01*
X38197Y40541D01*
X38186Y40489D01*
X38188Y40435D01*
X38203Y40387D01*
X38245Y40288D01*
X38647Y39480D01*
X38957Y38623D01*
X38999Y38535D01*
X39023Y38490D01*
X39061Y38449D01*
X39107Y38417D01*
X39156Y38399D01*
X41266Y38011D01*
X41380Y37987D01*
X41496Y37965D01*
X41746Y37916D01*
X41790Y37899D01*
X41825Y37869D01*
X41848Y37828D01*
X41856Y37782D01*
Y35111D01*
X41848Y35064D01*
X41825Y35021D01*
X41790Y34988D01*
X41746Y34970D01*
X41496Y34928D01*
X41380Y34907D01*
X41266Y34886D01*
X39214Y34499D01*
X39166Y34482D01*
X39123Y34452D01*
X39088Y34412D01*
X39066Y34368D01*
X39041Y34299D01*
X38727Y33353D01*
X38302Y32462D01*
X38276Y32395D01*
X38262Y32347D01*
X38260Y32293D01*
X38270Y32241D01*
X38292Y32195D01*
X39455Y30500D01*
X39520Y30405D01*
X39586Y30311D01*
X39732Y30102D01*
X39750Y30058D01*
X39752Y30010D01*
X39738Y29963D01*
X39711Y29924D01*
X39533Y29741D01*
X38853Y29060D01*
X38684Y28897D01*
X38166Y28379D01*
X37999Y28211D01*
X37820Y28033D01*
X37782Y28006D01*
X37737Y27995D01*
X37691Y27999D01*
X37648Y28018D01*
X37439Y28158D01*
X37342Y28224D01*
X37246Y28289D01*
X35591Y29426D01*
X35545Y29448D01*
X35492Y29457D01*
X35439Y29453D01*
X35392Y29436D01*
X35046Y29243D01*
X34944Y29187D01*
X34842Y29133D01*
X34481Y28950D01*
X34437Y28937D01*
X34395Y28942D01*
X34359Y28965D01*
X34334Y29002D01*
X34182Y29374D01*
X34138Y29481D01*
X34094Y29589D01*
X32654Y33064D01*
X32609Y33172D01*
X32564Y33279D01*
X32465Y33524D01*
X32455Y33571D01*
X32462Y33618D01*
X32483Y33660D01*
X32518Y33693D01*
X32748Y33833D01*
X32818Y33883D01*
X32890Y33944D01*
X33183Y34158D01*
X33448Y34407D01*
X33680Y34685D01*
X33878Y34992D01*
X34036Y35323D01*
X34154Y35675D01*
X34226Y36045D01*
X34251Y36431D01*
X34236Y36733D01*
X34191Y37026D01*
X34118Y37309D01*
X34019Y37580D01*
X33895Y37838D01*
X33747Y38081D01*
X33577Y38308D01*
X33386Y38518D01*
X33176Y38709D01*
X32949Y38879D01*
X32706Y39027D01*
X32447Y39151D01*
X32176Y39250D01*
X31893Y39323D01*
X31600Y39368D01*
X31298Y39383D01*
X30996Y39368D01*
X30703Y39323D01*
X30420Y39250D01*
X30149Y39151D01*
X29891Y39027D01*
X29648Y38879D01*
X29420Y38709D01*
X29211Y38518D01*
X29020Y38308D01*
X28850Y38081D01*
X28702Y37838D01*
X28578Y37580D01*
X28479Y37309D01*
X28406Y37026D01*
X28361Y36733D01*
X28346Y36431D01*
X28371Y36045D01*
X28444Y35675D01*
X28561Y35323D01*
X28720Y34992D01*
X28916Y34685D01*
X29148Y34407D01*
X29413Y34158D01*
X29706Y33944D01*
X29781Y33883D01*
X29854Y33833D01*
X30079Y33693D01*
X30114Y33660D01*
X30137Y33618D01*
X30146Y33571D01*
X30136Y33524D01*
X30032Y33279D01*
X29987Y33172D01*
X29942Y33064D01*
X28507Y29589D01*
X28464Y29481D01*
X28419Y29374D01*
X28268Y29002D01*
X28242Y28965D01*
X28204Y28942D01*
X28159Y28937D01*
X28115Y28950D01*
X27759Y29133D01*
X27654Y29187D01*
X27550Y29243D01*
X27210Y29436D01*
X27163Y29453D01*
X27109Y29457D01*
X27056Y29448D01*
X27011Y29426D01*
X25352Y28289D01*
X25257Y28224D01*
X25163Y28158D01*
X24954Y28018D01*
X24910Y27999D01*
X24862Y27995D01*
X24815Y28006D01*
X24776Y28033D01*
X23749Y29060D01*
X23231Y29572D01*
X23064Y29741D01*
X22885Y29924D01*
X22858Y29963D01*
X22847Y30010D01*
X22851Y30058D01*
X22870Y30102D01*
X23012Y30311D01*
X23077Y30405D01*
X23143Y30500D01*
X24310Y32195D01*
X24331Y32241D01*
X24339Y32293D01*
X24335Y32347D01*
X24320Y32395D01*
X24304Y32441D01*
X24299Y32452D01*
X23874Y33342D01*
X23560Y34289D01*
X23556Y34299D01*
X23530Y34368D01*
X23508Y34412D01*
X23473Y34452D01*
X23430Y34482D01*
X23382Y34499D01*
X21331Y34886D01*
X21216Y34907D01*
X21100Y34928D01*
X20850Y34970D01*
X20806Y34988D01*
X20771Y35021D01*
X20748Y35064D01*
X20740Y35111D01*
Y37782D01*
X20748Y37828D01*
X20771Y37869D01*
X20806Y37899D01*
X20850Y37916D01*
X21100Y37965D01*
X21216Y37987D01*
X21331Y38011D01*
X23446Y38399D01*
X23494Y38417D01*
X23538Y38449D01*
X23574Y38490D01*
X23597Y38535D01*
X23639Y38623D01*
X23950Y39480D01*
X24351Y40288D01*
X24393Y40387D01*
X24409Y40435D01*
X24413Y40489D01*
X24404Y40541D01*
X24383Y40587D01*
X23147Y42388D01*
X23079Y42487D01*
X23012Y42587D01*
X22870Y42791D01*
X22851Y42834D01*
X22847Y42882D01*
X22858Y42929D01*
X22885Y42968D01*
X23064Y43146D01*
X23231Y43314D01*
X23749Y43832D01*
X23912Y44001D01*
X24430Y44513D01*
X24598Y44680D01*
X24776Y44859D01*
X24815Y44885D01*
X24862Y44897D01*
X24910Y44893D01*
X24954Y44874D01*
X25163Y44732D01*
X25257Y44664D01*
X25352Y44597D01*
X27194Y43335D01*
X27240Y43313D01*
X27294Y43303D01*
X27349Y43305D01*
X27398Y43320D01*
X27488Y43356D01*
X27492Y43361D01*
X28266Y43728D01*
X29084Y44010D01*
X29194Y44057D01*
X29239Y44081D01*
X29280Y44118D01*
X29312Y44162D01*
X29330Y44210D01*
X29738Y46413D01*
X29759Y46528D01*
X29780Y46644D01*
X29828Y46890D01*
X29845Y46934D01*
X29875Y46971D01*
X29916Y46995D01*
X29963Y47004D01*
X32633D01*
G37*
G54D157*X32868Y5164D02*Y6495D01*
X32369D02*X33034D01*
X32369D02*X32202Y6329D01*
Y5996D02*Y6329D01*
X32369Y5830D02*X32202Y5996D01*
X32369Y5830D02*X32868D01*
X31803D02*Y6495D01*
Y5830D02*X31636Y5164D01*
X31304Y5830D01*
X30971Y5164D01*
X30805Y5830D01*
Y6495D01*
X29740D02*X30405D01*
X29740D02*X29574Y6329D01*
Y5996D02*Y6329D01*
X29740Y5830D02*X29574Y5996D01*
X29740Y5830D02*X30239D01*
Y5164D02*Y6495D01*
X29973Y5830D02*X29574Y5164D01*
X28243Y6495D02*X28575D01*
X28409Y5164D02*Y6495D01*
X28243Y5164D02*X28575D01*
X27843D02*Y6495D01*
X27011Y5164D01*
Y6495D01*
G54D158*X44550Y5152D02*Y6493D01*
X44047D02*X44718D01*
X44047D02*X43880Y6325D01*
Y5990D02*Y6325D01*
X44047Y5822D02*X43880Y5990D01*
X44047Y5822D02*X44550D01*
X43477D02*Y6493D01*
Y5822D02*X43310Y5152D01*
X42975Y5822D01*
X42639Y5152D01*
X42472Y5822D01*
Y6493D01*
X41399D02*X42069D01*
X41399D02*X41231Y6325D01*
Y5990D02*Y6325D01*
X41399Y5822D02*X41231Y5990D01*
X41399Y5822D02*X41902D01*
Y5152D02*Y6493D01*
X41633Y5822D02*X41231Y5152D01*
X40225Y5319D02*Y6325D01*
X40058Y6493D01*
X39722D02*X40058D01*
X39722D02*X39555Y6325D01*
Y5319D02*Y6325D01*
X39722Y5152D02*X39555Y5319D01*
X39722Y5152D02*X40058D01*
X40225Y5319D02*X40058Y5152D01*
X39152Y5319D02*Y6493D01*
Y5319D02*X38985Y5152D01*
X38649D02*X38985D01*
X38649D02*X38482Y5319D01*
Y6493D01*
X37409D02*X38079D01*
X37744Y5152D02*Y6493D01*
G54D159*X44994Y58098D02*Y59957D01*
X44296D02*X45226D01*
X44296D02*X44064Y59725D01*
Y59260D02*Y59725D01*
X44296Y59028D02*X44064Y59260D01*
X44296Y59028D02*X44994D01*
X43506Y58098D02*Y59957D01*
X42809Y59028D01*
X42112Y59957D01*
Y58098D02*Y59957D01*
X40624Y58098D02*X41229D01*
X41554Y58423D02*X41229Y58098D01*
X41554Y58423D02*Y59632D01*
X41229Y59957D01*
X40624D02*X41229D01*
X39137Y59028D02*X40066D01*
X38579Y59585D02*X38207Y59957D01*
Y58098D02*Y59957D01*
X37882Y58098D02*X38579D01*
X37092D02*X36162Y59957D01*
X37324D01*
X34768Y59028D02*X34303Y58098D01*
X33838Y59028D02*X34303Y58098D01*
X33280Y59585D02*X32908Y59957D01*
Y58098D02*Y59957D01*
X32583Y58098D02*X33280D01*
X31793D02*X32025D01*
X31235Y58330D02*X31002Y58098D01*
X31235Y58330D02*Y59725D01*
X31002Y59957D01*
X30538D02*X31002D01*
X30538D02*X30305Y59725D01*
Y58330D02*Y59725D01*
X30538Y58098D02*X30305Y58330D01*
X30538Y58098D02*X31002D01*
X31235Y58563D02*X30305Y59492D01*
G54D160*X26749Y58530D02*Y59097D01*
X26560Y59287D01*
X26181D02*X26560D01*
X26938D02*X26749Y59097D01*
X25727Y58719D02*Y59287D01*
Y58719D02*X25538Y58530D01*
X25159D02*X25538D01*
X25159D02*X24970Y58719D01*
Y59287D01*
X23759Y58530D02*X24327D01*
X23759D02*X23570Y58719D01*
X23759Y58908D02*X23570Y58719D01*
X23759Y58908D02*X24327D01*
X24516Y59097D02*X24327Y58908D01*
X24516Y59097D02*X24327Y59287D01*
X23759D02*X24327D01*
X23759D02*X23570Y59097D01*
X24516Y58719D02*X24327Y58530D01*
X22359D02*X22926D01*
X22359D02*X22169Y58719D01*
X22359Y58908D02*X22169Y58719D01*
X22359Y58908D02*X22926D01*
X23116Y59097D02*X22926Y58908D01*
X23116Y59097D02*X22926Y59287D01*
X22359D02*X22926D01*
X22359D02*X22169Y59097D01*
X23116Y58719D02*X22926Y58530D01*
X21526D02*X21715D01*
X20315D02*Y60044D01*
X20504Y58530D02*X20315Y58719D01*
X20504Y58530D02*X20883D01*
X21072Y58719D02*X20883Y58530D01*
X21072Y58719D02*Y59097D01*
X20883Y59287D01*
X20504D02*X20883D01*
X20504D02*X20315Y59097D01*
G54D161*X19861Y59627D02*Y59665D01*
G54D160*Y58530D02*Y59097D01*
X19482Y58719D02*Y60044D01*
Y58719D02*X19293Y58530D01*
X18915Y58719D02*Y60044D01*
Y58719D02*X18725Y58530D01*
X18347Y58908D02*Y60044D01*
Y58908D02*X17968Y58530D01*
X16833D02*X17968D01*
X16455Y59097D02*Y60044D01*
X16833Y60422D01*
X17968D01*
X18347Y60044D01*
X17779Y59287D02*Y59665D01*
Y59287D02*X17590Y59097D01*
X17212D02*X17590D01*
X17212D02*X17022Y59287D01*
X16833Y59097D01*
X17022Y59287D02*Y59854D01*
Y59665D02*X17212Y59854D01*
X17590D01*
X17779Y59665D01*
X16455Y59097D02*X16833D01*
X15433Y59287D02*X15244Y59097D01*
X15433Y59287D02*X15811D01*
X16000Y59097D02*X15811Y59287D01*
X16000Y58719D02*Y59097D01*
Y58719D02*X15811Y58530D01*
X15433D02*X15811D01*
X15433D02*X15244Y58719D01*
X16000Y58151D02*X15811Y57962D01*
X15433D02*X15811D01*
X15433D02*X15244Y58151D01*
Y59287D01*
X14600Y58530D02*Y59097D01*
X14411Y59287D01*
X14222D02*X14411D01*
X14222D02*X14032Y59097D01*
Y58530D02*Y59097D01*
X13843Y59287D01*
X13654D02*X13843D01*
X13654D02*X13465Y59097D01*
Y58530D02*Y59097D01*
X14789Y59287D02*X14600Y59097D01*
X12443Y59287D02*X12254Y59097D01*
X12443Y59287D02*X12821D01*
X13011Y59097D02*X12821Y59287D01*
X13011Y58719D02*Y59097D01*
Y58719D02*X12821Y58530D01*
X12254Y58719D02*Y59287D01*
Y58719D02*X12065Y58530D01*
X12443D02*X12821D01*
X12443D02*X12254Y58719D01*
G54D161*X11610Y59627D02*Y59665D01*
G54D160*Y58530D02*Y59097D01*
X11232Y58719D02*Y60044D01*
Y58719D02*X11043Y58530D01*
X10475D02*X10664D01*
X9264Y59287D02*X9832D01*
X10021Y59097D02*X9832Y59287D01*
X10021Y58719D02*Y59097D01*
Y58719D02*X9832Y58530D01*
X9264D02*X9832D01*
X8810Y58719D02*Y59097D01*
X8621Y59287D01*
X8242D02*X8621D01*
X8242D02*X8053Y59097D01*
Y58719D02*Y59097D01*
X8242Y58530D02*X8053Y58719D01*
X8242Y58530D02*X8621D01*
X8810Y58719D02*X8621Y58530D01*
X7409D02*Y59097D01*
X7220Y59287D01*
X7031D02*X7220D01*
X7031D02*X6842Y59097D01*
Y58530D02*Y59097D01*
X6653Y59287D01*
X6463D02*X6653D01*
X6463D02*X6274Y59097D01*
Y58530D02*Y59097D01*
X7599Y59287D02*X7409Y59097D01*
X36530Y54969D02*X36341Y54779D01*
X36530Y54969D02*X36909D01*
X37098Y54779D02*X36909Y54969D01*
X37098Y54401D02*Y54779D01*
Y54401D02*X36909Y54212D01*
X36530D02*X36909D01*
X36530D02*X36341Y54401D01*
X37098Y53833D02*X36909Y53644D01*
X36530D02*X36909D01*
X36530D02*X36341Y53833D01*
Y54969D01*
G54D161*X35887Y55309D02*Y55347D01*
G54D160*Y54212D02*Y54779D01*
X35319Y54401D02*Y55726D01*
Y54401D02*X35130Y54212D01*
Y55158D02*X35508D01*
X34752Y54212D02*Y55726D01*
Y54779D02*X34562Y54969D01*
X34184D02*X34562D01*
X34184D02*X33995Y54779D01*
Y54212D02*Y54779D01*
X33540Y54401D02*Y54969D01*
Y54401D02*X33351Y54212D01*
X32973D02*X33351D01*
X32973D02*X32784Y54401D01*
Y54969D01*
X32329Y54212D02*Y55726D01*
Y54401D02*X32140Y54212D01*
X31762D02*X32140D01*
X31762D02*X31572Y54401D01*
Y54779D01*
X31762Y54969D02*X31572Y54779D01*
X31762Y54969D02*X32140D01*
X32329Y54779D02*X32140Y54969D01*
X30929Y54212D02*X31118D01*
X29718Y54969D02*X30286D01*
X30475Y54779D02*X30286Y54969D01*
X30475Y54401D02*Y54779D01*
Y54401D02*X30286Y54212D01*
X29718D02*X30286D01*
X29264Y54401D02*Y54779D01*
X29075Y54969D01*
X28696D02*X29075D01*
X28696D02*X28507Y54779D01*
Y54401D02*Y54779D01*
X28696Y54212D02*X28507Y54401D01*
X28696Y54212D02*X29075D01*
X29264Y54401D02*X29075Y54212D01*
X27864D02*Y54779D01*
X27674Y54969D01*
X27485D02*X27674D01*
X27485D02*X27296Y54779D01*
Y54212D02*Y54779D01*
X27107Y54969D01*
X26917D02*X27107D01*
X26917D02*X26728Y54779D01*
Y54212D02*Y54779D01*
X28053Y54969D02*X27864Y54779D01*
X26274Y54401D02*X25139Y55536D01*
X24495Y54212D02*Y54779D01*
X24306Y54969D01*
X23928D02*X24306D01*
X24684D02*X24495Y54779D01*
X23473Y54401D02*Y54969D01*
Y54401D02*X23284Y54212D01*
X22906D02*X23284D01*
X22906D02*X22717Y54401D01*
Y54969D01*
X21505Y54212D02*X22073D01*
X21505D02*X21316Y54401D01*
X21505Y54590D02*X21316Y54401D01*
X21505Y54590D02*X22073D01*
X22262Y54779D02*X22073Y54590D01*
X22262Y54779D02*X22073Y54969D01*
X21505D02*X22073D01*
X21505D02*X21316Y54779D01*
X22262Y54401D02*X22073Y54212D01*
X20105D02*X20673D01*
X20105D02*X19916Y54401D01*
X20105Y54590D02*X19916Y54401D01*
X20105Y54590D02*X20673D01*
X20862Y54779D02*X20673Y54590D01*
X20862Y54779D02*X20673Y54969D01*
X20105D02*X20673D01*
X20105D02*X19916Y54779D01*
X20862Y54401D02*X20673Y54212D01*
X18705D02*Y55726D01*
X18894Y54212D02*X18705Y54401D01*
X18894Y54212D02*X19273D01*
X19462Y54401D02*X19273Y54212D01*
X19462Y54401D02*Y54779D01*
X19273Y54969D01*
X18894D02*X19273D01*
X18894D02*X18705Y54779D01*
G54D161*X18251Y55309D02*Y55347D01*
G54D160*Y54212D02*Y54779D01*
X17872Y54401D02*Y55726D01*
Y54401D02*X17683Y54212D01*
X17305Y54401D02*Y55726D01*
Y54401D02*X17115Y54212D01*
X16737Y54401D02*X15601Y55536D01*
X14958Y53644D02*Y54779D01*
X15147Y54969D02*X14958Y54779D01*
X14769Y54969D01*
X14390D02*X14769D01*
X14390D02*X14201Y54779D01*
Y54401D02*Y54779D01*
X14390Y54212D02*X14201Y54401D01*
X14390Y54212D02*X14769D01*
X14958Y54401D02*X14769Y54212D01*
X13558D02*Y54779D01*
X13369Y54969D01*
X13179D02*X13369D01*
X13179D02*X12990Y54779D01*
Y54212D02*Y54779D01*
X12801Y54969D01*
X12612D02*X12801D01*
X12612D02*X12422Y54779D01*
Y54212D02*Y54779D01*
X13747Y54969D02*X13558Y54779D01*
X11211Y54969D02*X11779D01*
X11968Y54779D02*X11779Y54969D01*
X11968Y54401D02*Y54779D01*
Y54401D02*X11779Y54212D01*
X11211D02*X11779D01*
X10000Y54969D02*X10757D01*
X9546Y55423D02*X9243Y55726D01*
Y54212D02*Y55726D01*
X8978Y54212D02*X9546D01*
X8335D02*X7578Y55726D01*
X8524D01*
M02*
