G04 start of page 4 for group 2 idx 2 *
G04 Title: pmc, outline *
G04 Creator: pcb 1.99z *
G04 CreationDate: Fri 27 Sep 2013 09:22:41 AM GMT UTC *
G04 For: russ *
G04 Format: Gerber/RS-274X *
G04 PCB-Dimensions (mm): 62.00 62.00 *
G04 PCB-Coordinate-Origin: lower left *
%MOMM*%
%FSLAX43Y43*%
%LNOUTLINE*%
%ADD83C,0.254*%
G54D83*X5000Y61000D02*X57000D01*
X1000Y5000D02*Y57000D01*
X61000D02*Y5000D01*
X23500Y1000D02*X5000D01*
X44900D02*X57000D01*
X45000D02*Y8210D01*
X24600Y1000D02*X32300D01*
X43900D02*Y8210D01*
X24600Y1000D02*Y8210D01*
X23500Y1000D02*Y8210D01*
X36100Y1000D02*X43800D01*
X33400D02*X35000D01*
X33400D02*Y8210D01*
X32300Y1000D02*Y8210D01*
X36100Y1000D02*Y8210D01*
X35000Y1000D02*Y8210D01*
X57000Y61000D02*G75*G02X61000Y57000I0J-4000D01*G01*
X5000Y61000D02*G75*G03X1000Y57000I0J-4000D01*G01*
X57000Y1000D02*G75*G03X61000Y5000I0J4000D01*G01*
X5000Y1000D02*G75*G02X1000Y5000I0J4000D01*G01*
X24600Y8210D02*G75*G03X24050Y8760I-550J0D01*G01*
G75*G03X23500Y8210I0J-550D01*G01*
X33400D02*G75*G03X32850Y8760I-550J0D01*G01*
G75*G03X32300Y8210I0J-550D01*G01*
X45000D02*G75*G03X44450Y8760I-550J0D01*G01*
G75*G03X43900Y8210I0J-550D01*G01*
X36100D02*G75*G03X35550Y8760I-550J0D01*G01*
G75*G03X35000Y8210I0J-550D01*G01*
M02*
