G04 start of page 4 for group 2 idx 2 *
G04 Title: pmc, outline *
G04 Creator: pcb 1.99z *
G04 CreationDate: Mon 09 Sep 2013 06:37:42 AM GMT UTC *
G04 For: russ *
G04 Format: Gerber/RS-274X *
G04 PCB-Dimensions (mm): 62.00 62.00 *
G04 PCB-Coordinate-Origin: lower left *
%MOMM*%
%FSLAX43Y43*%
%LNOUTLINE*%
%ADD84C,0.254*%
G54D84*X61000Y57000D02*Y5000D01*
X45900Y1000D02*X57000D01*
X45900D02*Y7700D01*
X5000Y61000D02*X57000D01*
X1000Y5000D02*Y57000D01*
X24600Y1000D02*X5000D01*
X24600D02*Y7700D01*
X25700Y1000D02*X33300D01*
X25700D02*Y7700D01*
X34400Y1000D02*X36100D01*
X33300D02*Y7700D01*
X34400Y1000D02*Y7700D01*
X36100Y1000D02*Y7700D01*
X37200Y1000D02*Y7700D01*
Y1000D02*X44800D01*
Y7700D01*
X57000Y61000D02*G75*G02X61000Y57000I0J-4000D01*G01*
X5000Y61000D02*G75*G03X1000Y57000I0J-4000D01*G01*
X57000Y1000D02*G75*G03X61000Y5000I0J4000D01*G01*
X5000Y1000D02*G75*G02X1000Y5000I0J4000D01*G01*
X25700Y7700D02*G75*G03X25150Y8250I-550J0D01*G01*
G75*G03X24600Y7700I0J-550D01*G01*
X34400D02*G75*G03X33850Y8250I-550J0D01*G01*
G75*G03X33300Y7700I0J-550D01*G01*
X37200D02*G75*G03X36650Y8250I-550J0D01*G01*
G75*G03X36100Y7700I0J-550D01*G01*
X45900D02*G75*G03X45350Y8250I-550J0D01*G01*
G75*G03X44800Y7700I0J-550D01*G01*
M02*
