G04 start of page 3 for group 1 idx 1 *
G04 Title: pmc, bottom *
G04 Creator: pcb 1.99z *
G04 CreationDate: Mon 09 Sep 2013 06:37:42 AM GMT UTC *
G04 For: russ *
G04 Format: Gerber/RS-274X *
G04 PCB-Dimensions (mm): 62.00 62.00 *
G04 PCB-Coordinate-Origin: lower left *
%MOMM*%
%FSLAX43Y43*%
%LNBOTTOM*%
%ADD83C,0.914*%
%ADD82C,1.727*%
%ADD81C,1.800*%
%ADD80C,1.300*%
%ADD79C,1.000*%
%ADD78C,0.330*%
%ADD77C,3.200*%
%ADD76R,1.143X1.143*%
%ADD75R,0.343X0.343*%
%ADD74C,2.286*%
%ADD73C,1.700*%
%ADD72C,1.400*%
%ADD71C,1.600*%
%ADD70C,0.240*%
%ADD69C,0.300*%
%ADD68C,0.686*%
%ADD67C,0.500*%
%ADD66C,0.754*%
%ADD65C,0.152*%
%ADD64C,0.254*%
%ADD63C,0.002*%
G54D63*G36*
X20900Y19795D02*Y26100D01*
X22271D01*
Y25900D01*
X22274Y25864D01*
X22282Y25829D01*
X22296Y25796D01*
X22314Y25765D01*
X22338Y25738D01*
X22365Y25714D01*
X22396Y25696D01*
X22429Y25682D01*
X22464Y25674D01*
X22500Y25671D01*
X22536Y25674D01*
X22571Y25682D01*
X22604Y25696D01*
X22635Y25714D01*
X22662Y25738D01*
X22686Y25765D01*
X22704Y25796D01*
X22718Y25829D01*
X22726Y25864D01*
X22729Y25900D01*
Y26100D01*
X29100D01*
Y21195D01*
X29022Y21191D01*
X28946Y21173D01*
X28874Y21143D01*
X28808Y21102D01*
X28749Y21051D01*
X28698Y20992D01*
X28657Y20926D01*
X28627Y20854D01*
X28609Y20778D01*
X28603Y20700D01*
X28609Y20622D01*
X28627Y20546D01*
X28657Y20474D01*
X28698Y20408D01*
X28749Y20349D01*
X28808Y20298D01*
X28874Y20257D01*
X28946Y20227D01*
X29022Y20209D01*
X29100Y20205D01*
Y19950D01*
X28950Y20100D01*
X28892Y20152D01*
X28826Y20193D01*
X28754Y20223D01*
X28678Y20241D01*
X28600Y20247D01*
X28522Y20241D01*
X28446Y20223D01*
X28374Y20193D01*
X28308Y20152D01*
X28249Y20101D01*
X28198Y20042D01*
X28157Y19976D01*
X28127Y19904D01*
X28109Y19828D01*
X28103Y19750D01*
X28109Y19672D01*
X28127Y19596D01*
X28157Y19524D01*
X28198Y19458D01*
X28250Y19400D01*
X28450Y19200D01*
X27550D01*
Y25100D01*
X22600D01*
Y18900D01*
X21494D01*
X21551Y18949D01*
X21602Y19008D01*
X21643Y19074D01*
X21673Y19146D01*
X21691Y19222D01*
X21697Y19300D01*
X21695Y19321D01*
X21695Y19322D01*
X21720Y19362D01*
X21738Y19406D01*
X21750Y19453D01*
X21753Y19500D01*
X21750Y19547D01*
X21738Y19594D01*
X21720Y19638D01*
X21695Y19678D01*
X21664Y19714D01*
X21628Y19745D01*
X21588Y19770D01*
X21544Y19788D01*
X21497Y19800D01*
X21450Y19803D01*
X21403Y19800D01*
X21356Y19788D01*
X21331Y19778D01*
X21278Y19791D01*
X21200Y19795D01*
X20900D01*
G37*
G36*
X42278Y10200D02*X44498D01*
X44507Y10093D01*
X44544Y9939D01*
X44604Y9794D01*
X44687Y9659D01*
X44789Y9539D01*
X44909Y9437D01*
X45044Y9354D01*
X45189Y9294D01*
X45343Y9257D01*
X45500Y9245D01*
X45657Y9257D01*
X45811Y9294D01*
X45956Y9354D01*
X46091Y9437D01*
X46211Y9539D01*
X46313Y9659D01*
X46396Y9794D01*
X46456Y9939D01*
X46493Y10093D01*
X46499Y10200D01*
X48200D01*
Y4800D01*
X46281D01*
Y7700D01*
X46281Y7700D01*
X46278Y7781D01*
X46268Y7862D01*
X46250Y7941D01*
X46226Y8019D01*
X46195Y8094D01*
X46157Y8166D01*
X46113Y8235D01*
X46064Y8299D01*
X46009Y8359D01*
X45949Y8414D01*
X45885Y8463D01*
X45816Y8507D01*
X45744Y8545D01*
X45669Y8576D01*
X45591Y8600D01*
X45512Y8618D01*
X45431Y8628D01*
X45350Y8632D01*
X45327Y8630D01*
X45269Y8628D01*
X45188Y8618D01*
X45109Y8600D01*
X45031Y8576D01*
X44956Y8545D01*
X44884Y8507D01*
X44815Y8463D01*
X44751Y8414D01*
X44691Y8359D01*
X44636Y8299D01*
X44587Y8235D01*
X44543Y8166D01*
X44505Y8094D01*
X44474Y8019D01*
X44450Y7941D01*
X44432Y7862D01*
X44422Y7781D01*
X44418Y7700D01*
X44419Y7688D01*
Y7100D01*
X41700D01*
Y9021D01*
X41764Y9037D01*
X41888Y9088D01*
X42003Y9158D01*
X42105Y9245D01*
X42192Y9347D01*
X42262Y9462D01*
X42313Y9586D01*
X42345Y9716D01*
X42352Y9850D01*
X42345Y9984D01*
X42313Y10114D01*
X42278Y10200D01*
G37*
G36*
X26299Y24850D02*X27300D01*
Y19000D01*
X28650D01*
X28655Y18995D01*
Y15105D01*
X28045Y14495D01*
X27269D01*
X27250Y14497D01*
X27172Y14491D01*
X27096Y14473D01*
X27024Y14443D01*
X26958Y14402D01*
X26899Y14351D01*
X26886Y14337D01*
X26299Y13750D01*
Y24850D01*
G37*
G36*
X39671Y12159D02*Y11041D01*
X39608Y11002D01*
X39600Y10995D01*
Y12205D01*
X39608Y12198D01*
X39671Y12159D01*
G37*
G36*
X41249Y9034D02*X41366Y9005D01*
X41500Y8995D01*
Y6900D01*
X44419D01*
Y1381D01*
X41249D01*
Y2009D01*
X41254Y2004D01*
X41380Y1896D01*
X41521Y1809D01*
X41674Y1746D01*
X41835Y1707D01*
X42000Y1694D01*
X42165Y1707D01*
X42326Y1746D01*
X42479Y1809D01*
X42620Y1896D01*
X42746Y2004D01*
X42854Y2130D01*
X42941Y2271D01*
X43004Y2424D01*
X43043Y2585D01*
X43052Y2750D01*
X43043Y2915D01*
X43004Y3076D01*
X42941Y3229D01*
X42854Y3370D01*
X42746Y3496D01*
X42620Y3604D01*
X42479Y3691D01*
X42326Y3754D01*
X42165Y3793D01*
X42000Y3806D01*
X41835Y3793D01*
X41674Y3754D01*
X41521Y3691D01*
X41380Y3604D01*
X41254Y3496D01*
X41249Y3491D01*
Y9034D01*
G37*
G36*
X56995Y60616D02*X57000Y60616D01*
X57315Y60605D01*
X57628Y60564D01*
X57937Y60496D01*
X58238Y60401D01*
X58529Y60280D01*
X58810Y60134D01*
X59076Y59965D01*
X59326Y59772D01*
X59559Y59559D01*
X59772Y59326D01*
X59965Y59076D01*
X60134Y58810D01*
X60280Y58529D01*
X60401Y58238D01*
X60496Y57937D01*
X60564Y57628D01*
X60605Y57315D01*
X60619Y57000D01*
Y5058D01*
X60616Y5000D01*
X60605Y4685D01*
X60564Y4372D01*
X60496Y4063D01*
X60401Y3762D01*
X60280Y3471D01*
X60134Y3190D01*
X59965Y2924D01*
X59772Y2674D01*
X59559Y2441D01*
X59326Y2228D01*
X59076Y2035D01*
X58810Y1866D01*
X58529Y1720D01*
X58238Y1599D01*
X57937Y1504D01*
X57628Y1436D01*
X57315Y1395D01*
X57000Y1381D01*
X56995D01*
Y1991D01*
X57000Y1991D01*
X57471Y2028D01*
X57930Y2138D01*
X58366Y2319D01*
X58769Y2565D01*
X59128Y2872D01*
X59435Y3231D01*
X59681Y3634D01*
X59862Y4070D01*
X59972Y4529D01*
X60000Y5000D01*
X59972Y5471D01*
X59862Y5930D01*
X59681Y6366D01*
X59435Y6769D01*
X59128Y7128D01*
X58769Y7435D01*
X58366Y7681D01*
X57930Y7862D01*
X57471Y7972D01*
X57000Y8009D01*
X56995Y8009D01*
Y53991D01*
X57000Y53991D01*
X57471Y54028D01*
X57930Y54138D01*
X58366Y54319D01*
X58769Y54565D01*
X59128Y54872D01*
X59435Y55231D01*
X59681Y55634D01*
X59862Y56070D01*
X59972Y56529D01*
X60000Y57000D01*
X59972Y57471D01*
X59862Y57930D01*
X59681Y58366D01*
X59435Y58769D01*
X59128Y59128D01*
X58769Y59435D01*
X58366Y59681D01*
X57930Y59862D01*
X57471Y59972D01*
X57000Y60009D01*
X56995Y60009D01*
Y60616D01*
G37*
G36*
X50769Y60619D02*X56942D01*
X56995Y60616D01*
Y60009D01*
X56529Y59972D01*
X56070Y59862D01*
X55634Y59681D01*
X55231Y59435D01*
X54872Y59128D01*
X54565Y58769D01*
X54319Y58366D01*
X54138Y57930D01*
X54028Y57471D01*
X53991Y57000D01*
X54028Y56529D01*
X54138Y56070D01*
X54319Y55634D01*
X54565Y55231D01*
X54872Y54872D01*
X55231Y54565D01*
X55634Y54319D01*
X56070Y54138D01*
X56529Y54028D01*
X56995Y53991D01*
Y8009D01*
X56529Y7972D01*
X56070Y7862D01*
X55634Y7681D01*
X55231Y7435D01*
X54872Y7128D01*
X54565Y6769D01*
X54319Y6366D01*
X54138Y5930D01*
X54028Y5471D01*
X53991Y5000D01*
X54028Y4529D01*
X54138Y4070D01*
X54319Y3634D01*
X54565Y3231D01*
X54872Y2872D01*
X55231Y2565D01*
X55634Y2319D01*
X56070Y2138D01*
X56529Y2028D01*
X56995Y1991D01*
Y1381D01*
X50769D01*
Y10995D01*
X50770Y10995D01*
X50919Y11006D01*
X51065Y11041D01*
X51204Y11099D01*
X51332Y11177D01*
X51446Y11274D01*
X51543Y11388D01*
X51621Y11516D01*
X51679Y11655D01*
X51714Y11801D01*
X51722Y11950D01*
X51714Y12099D01*
X51679Y12245D01*
X51621Y12384D01*
X51543Y12512D01*
X51446Y12626D01*
X51332Y12723D01*
X51204Y12801D01*
X51065Y12859D01*
X50919Y12894D01*
X50770Y12905D01*
X50769Y12905D01*
Y13535D01*
X50770Y13535D01*
X50919Y13546D01*
X51065Y13581D01*
X51204Y13639D01*
X51332Y13717D01*
X51446Y13814D01*
X51543Y13928D01*
X51621Y14056D01*
X51679Y14195D01*
X51714Y14341D01*
X51722Y14490D01*
X51714Y14639D01*
X51679Y14785D01*
X51621Y14924D01*
X51543Y15052D01*
X51446Y15166D01*
X51332Y15263D01*
X51204Y15341D01*
X51065Y15399D01*
X50919Y15434D01*
X50770Y15445D01*
X50769Y15445D01*
Y16075D01*
X50770Y16075D01*
X50919Y16086D01*
X51065Y16121D01*
X51204Y16179D01*
X51332Y16257D01*
X51446Y16354D01*
X51543Y16468D01*
X51621Y16596D01*
X51679Y16735D01*
X51714Y16881D01*
X51722Y17030D01*
X51714Y17179D01*
X51679Y17325D01*
X51621Y17464D01*
X51543Y17592D01*
X51446Y17706D01*
X51332Y17803D01*
X51204Y17881D01*
X51065Y17939D01*
X50919Y17974D01*
X50770Y17985D01*
X50769Y17985D01*
Y18615D01*
X50770Y18615D01*
X50919Y18626D01*
X51065Y18661D01*
X51204Y18719D01*
X51332Y18797D01*
X51446Y18894D01*
X51543Y19008D01*
X51621Y19136D01*
X51679Y19275D01*
X51714Y19421D01*
X51722Y19570D01*
X51714Y19719D01*
X51679Y19865D01*
X51621Y20004D01*
X51543Y20132D01*
X51446Y20246D01*
X51332Y20343D01*
X51204Y20421D01*
X51065Y20479D01*
X50919Y20514D01*
X50770Y20525D01*
X50769Y20525D01*
Y21155D01*
X50770Y21155D01*
X50919Y21166D01*
X51065Y21201D01*
X51204Y21259D01*
X51332Y21337D01*
X51446Y21434D01*
X51543Y21548D01*
X51621Y21676D01*
X51679Y21815D01*
X51714Y21961D01*
X51722Y22110D01*
X51714Y22259D01*
X51679Y22405D01*
X51621Y22544D01*
X51543Y22672D01*
X51446Y22786D01*
X51332Y22883D01*
X51204Y22961D01*
X51065Y23019D01*
X50919Y23054D01*
X50770Y23065D01*
X50769Y23065D01*
Y23695D01*
X50770Y23695D01*
X50919Y23706D01*
X51065Y23741D01*
X51204Y23799D01*
X51332Y23877D01*
X51446Y23974D01*
X51543Y24088D01*
X51621Y24216D01*
X51679Y24355D01*
X51714Y24501D01*
X51722Y24650D01*
X51714Y24799D01*
X51679Y24945D01*
X51621Y25084D01*
X51543Y25212D01*
X51446Y25326D01*
X51332Y25423D01*
X51204Y25501D01*
X51065Y25559D01*
X50919Y25594D01*
X50770Y25605D01*
X50769Y25605D01*
Y26235D01*
X50770Y26235D01*
X50919Y26246D01*
X51065Y26281D01*
X51204Y26339D01*
X51332Y26417D01*
X51446Y26514D01*
X51543Y26628D01*
X51621Y26756D01*
X51679Y26895D01*
X51714Y27041D01*
X51722Y27190D01*
X51714Y27339D01*
X51679Y27485D01*
X51621Y27624D01*
X51543Y27752D01*
X51446Y27866D01*
X51332Y27963D01*
X51204Y28041D01*
X51065Y28099D01*
X50919Y28134D01*
X50770Y28145D01*
X50769Y28145D01*
Y28775D01*
X50770Y28775D01*
X50919Y28786D01*
X51065Y28821D01*
X51204Y28879D01*
X51332Y28957D01*
X51446Y29054D01*
X51543Y29168D01*
X51621Y29296D01*
X51679Y29435D01*
X51714Y29581D01*
X51722Y29730D01*
X51714Y29879D01*
X51679Y30025D01*
X51621Y30164D01*
X51543Y30292D01*
X51446Y30406D01*
X51332Y30503D01*
X51228Y30567D01*
X51795D01*
X51795Y30567D01*
X52406D01*
X52409Y30522D01*
X52427Y30446D01*
X52457Y30374D01*
X52498Y30308D01*
X52549Y30249D01*
X52608Y30198D01*
X52674Y30157D01*
X52746Y30127D01*
X52822Y30109D01*
X52900Y30103D01*
X52978Y30109D01*
X53054Y30127D01*
X53126Y30157D01*
X53192Y30198D01*
X53251Y30249D01*
X53302Y30308D01*
X53343Y30374D01*
X53373Y30446D01*
X53391Y30522D01*
X53395Y30600D01*
X53391Y30678D01*
X53373Y30754D01*
X53343Y30826D01*
X53302Y30892D01*
X53251Y30951D01*
X53192Y31002D01*
X53126Y31043D01*
X53054Y31073D01*
X52978Y31091D01*
X52900Y31097D01*
X52822Y31091D01*
X52746Y31073D01*
X52674Y31043D01*
X52653Y31029D01*
X52750Y31127D01*
X52822Y31109D01*
X52900Y31103D01*
X52978Y31109D01*
X53054Y31127D01*
X53126Y31157D01*
X53192Y31198D01*
X53251Y31249D01*
X53302Y31308D01*
X53343Y31374D01*
X53373Y31446D01*
X53391Y31522D01*
X53395Y31600D01*
X53391Y31678D01*
X53373Y31754D01*
X53343Y31826D01*
X53302Y31892D01*
X53251Y31951D01*
X53192Y32002D01*
X53126Y32043D01*
X53054Y32073D01*
X52978Y32091D01*
X52900Y32097D01*
X52822Y32091D01*
X52746Y32073D01*
X52674Y32043D01*
X52608Y32002D01*
X52549Y31951D01*
X52498Y31892D01*
X52457Y31826D01*
X52427Y31754D01*
X52409Y31678D01*
X52403Y31600D01*
X52409Y31522D01*
X52427Y31450D01*
X52305Y31329D01*
X50929D01*
X51065Y31361D01*
X51204Y31419D01*
X51332Y31497D01*
X51446Y31594D01*
X51543Y31708D01*
X51621Y31836D01*
X51679Y31975D01*
X51714Y32121D01*
X51722Y32270D01*
X51714Y32419D01*
X51679Y32565D01*
X51621Y32704D01*
X51543Y32832D01*
X51446Y32946D01*
X51332Y33043D01*
X51204Y33121D01*
X51065Y33179D01*
X50919Y33214D01*
X50770Y33225D01*
X50769Y33225D01*
Y33855D01*
X50770Y33855D01*
X50919Y33866D01*
X51065Y33901D01*
X51204Y33959D01*
X51332Y34037D01*
X51446Y34134D01*
X51543Y34248D01*
X51621Y34376D01*
X51679Y34515D01*
X51714Y34661D01*
X51722Y34810D01*
X51714Y34959D01*
X51679Y35105D01*
X51621Y35244D01*
X51543Y35372D01*
X51446Y35486D01*
X51332Y35583D01*
X51204Y35661D01*
X51065Y35719D01*
X50919Y35754D01*
X50770Y35765D01*
X50769Y35765D01*
Y36395D01*
X50770Y36395D01*
X50919Y36406D01*
X51065Y36441D01*
X51204Y36499D01*
X51332Y36577D01*
X51446Y36674D01*
X51543Y36788D01*
X51621Y36916D01*
X51679Y37055D01*
X51714Y37201D01*
X51722Y37350D01*
X51714Y37499D01*
X51679Y37645D01*
X51621Y37784D01*
X51543Y37912D01*
X51446Y38026D01*
X51332Y38123D01*
X51204Y38201D01*
X51065Y38259D01*
X50919Y38294D01*
X50770Y38305D01*
X50769Y38305D01*
Y38935D01*
X50770Y38935D01*
X50919Y38946D01*
X51065Y38981D01*
X51204Y39039D01*
X51332Y39117D01*
X51446Y39214D01*
X51543Y39328D01*
X51621Y39456D01*
X51679Y39595D01*
X51714Y39741D01*
X51722Y39890D01*
X51714Y40039D01*
X51679Y40185D01*
X51621Y40324D01*
X51543Y40452D01*
X51446Y40566D01*
X51332Y40663D01*
X51204Y40741D01*
X51065Y40799D01*
X50919Y40834D01*
X50770Y40845D01*
X50769Y40845D01*
Y41475D01*
X50770Y41475D01*
X50919Y41486D01*
X51065Y41521D01*
X51204Y41579D01*
X51332Y41657D01*
X51446Y41754D01*
X51543Y41868D01*
X51621Y41996D01*
X51679Y42135D01*
X51714Y42281D01*
X51722Y42430D01*
X51714Y42579D01*
X51679Y42725D01*
X51621Y42864D01*
X51543Y42992D01*
X51446Y43106D01*
X51332Y43203D01*
X51204Y43281D01*
X51065Y43339D01*
X50919Y43374D01*
X50770Y43385D01*
X50769Y43385D01*
Y44015D01*
X50770Y44015D01*
X50919Y44026D01*
X51065Y44061D01*
X51204Y44119D01*
X51332Y44197D01*
X51446Y44294D01*
X51543Y44408D01*
X51621Y44536D01*
X51679Y44675D01*
X51714Y44821D01*
X51722Y44970D01*
X51714Y45119D01*
X51679Y45265D01*
X51621Y45404D01*
X51543Y45532D01*
X51446Y45646D01*
X51332Y45743D01*
X51204Y45821D01*
X51065Y45879D01*
X50919Y45914D01*
X50770Y45925D01*
X50769Y45925D01*
Y46555D01*
X50770Y46555D01*
X50919Y46566D01*
X51065Y46601D01*
X51204Y46659D01*
X51332Y46737D01*
X51446Y46834D01*
X51543Y46948D01*
X51621Y47076D01*
X51679Y47215D01*
X51714Y47361D01*
X51722Y47510D01*
X51714Y47659D01*
X51679Y47805D01*
X51621Y47944D01*
X51543Y48072D01*
X51446Y48186D01*
X51332Y48283D01*
X51204Y48361D01*
X51065Y48419D01*
X50919Y48454D01*
X50770Y48465D01*
X50769Y48465D01*
Y49095D01*
X50770Y49095D01*
X50919Y49106D01*
X51065Y49141D01*
X51204Y49199D01*
X51332Y49277D01*
X51446Y49374D01*
X51543Y49488D01*
X51621Y49616D01*
X51679Y49755D01*
X51714Y49901D01*
X51722Y50050D01*
X51714Y50199D01*
X51679Y50345D01*
X51621Y50484D01*
X51543Y50612D01*
X51446Y50726D01*
X51332Y50823D01*
X51204Y50901D01*
X51065Y50959D01*
X50919Y50994D01*
X50770Y51005D01*
X50769Y51005D01*
Y60619D01*
G37*
G36*
Y1381D02*X46281D01*
Y4600D01*
X48400D01*
Y10400D01*
X46494D01*
X46493Y10407D01*
X46456Y10561D01*
X46396Y10706D01*
X46313Y10841D01*
X46211Y10961D01*
X46091Y11063D01*
X45999Y11120D01*
Y11877D01*
X46082Y11795D01*
X46088Y11788D01*
X46115Y11764D01*
X46146Y11746D01*
X46179Y11732D01*
X46214Y11724D01*
X46214D01*
X46250Y11721D01*
X46259Y11721D01*
X47305D01*
X47321Y11655D01*
X47379Y11516D01*
X47457Y11388D01*
X47554Y11274D01*
X47668Y11177D01*
X47796Y11099D01*
X47935Y11041D01*
X48081Y11006D01*
X48230Y10995D01*
X48379Y11006D01*
X48525Y11041D01*
X48664Y11099D01*
X48792Y11177D01*
X48906Y11274D01*
X49003Y11388D01*
X49081Y11516D01*
X49139Y11655D01*
X49174Y11801D01*
X49182Y11950D01*
X49174Y12099D01*
X49139Y12245D01*
X49081Y12384D01*
X49003Y12512D01*
X48906Y12626D01*
X48792Y12723D01*
X48664Y12801D01*
X48525Y12859D01*
X48379Y12894D01*
X48230Y12905D01*
X48081Y12894D01*
X47935Y12859D01*
X47796Y12801D01*
X47668Y12723D01*
X47554Y12626D01*
X47457Y12512D01*
X47379Y12384D01*
X47321Y12245D01*
X47305Y12179D01*
X46345D01*
X45999Y12524D01*
Y16371D01*
X46025D01*
X47415Y14982D01*
X47379Y14924D01*
X47321Y14785D01*
X47286Y14639D01*
X47275Y14490D01*
X47286Y14341D01*
X47321Y14195D01*
X47379Y14056D01*
X47457Y13928D01*
X47554Y13814D01*
X47668Y13717D01*
X47796Y13639D01*
X47935Y13581D01*
X48081Y13546D01*
X48230Y13535D01*
X48379Y13546D01*
X48525Y13581D01*
X48664Y13639D01*
X48792Y13717D01*
X48906Y13814D01*
X49003Y13928D01*
X49081Y14056D01*
X49139Y14195D01*
X49174Y14341D01*
X49182Y14490D01*
X49174Y14639D01*
X49139Y14785D01*
X49081Y14924D01*
X49003Y15052D01*
X48906Y15166D01*
X48792Y15263D01*
X48664Y15341D01*
X48525Y15399D01*
X48379Y15434D01*
X48230Y15445D01*
X48081Y15434D01*
X47935Y15399D01*
X47796Y15341D01*
X47738Y15305D01*
X46288Y16755D01*
X46282Y16762D01*
X46255Y16786D01*
X46229Y16801D01*
X47305D01*
X47321Y16735D01*
X47379Y16596D01*
X47457Y16468D01*
X47554Y16354D01*
X47668Y16257D01*
X47796Y16179D01*
X47935Y16121D01*
X48081Y16086D01*
X48230Y16075D01*
X48379Y16086D01*
X48525Y16121D01*
X48664Y16179D01*
X48792Y16257D01*
X48906Y16354D01*
X49003Y16468D01*
X49081Y16596D01*
X49139Y16735D01*
X49174Y16881D01*
X49182Y17030D01*
X49174Y17179D01*
X49139Y17325D01*
X49081Y17464D01*
X49003Y17592D01*
X48906Y17706D01*
X48792Y17803D01*
X48664Y17881D01*
X48525Y17939D01*
X48379Y17974D01*
X48230Y17985D01*
X48081Y17974D01*
X47935Y17939D01*
X47796Y17881D01*
X47668Y17803D01*
X47554Y17706D01*
X47457Y17592D01*
X47379Y17464D01*
X47321Y17325D01*
X47305Y17259D01*
X45999D01*
Y20177D01*
X46762Y19415D01*
X46768Y19408D01*
X46795Y19384D01*
X46795Y19384D01*
X46826Y19366D01*
X46859Y19352D01*
X46894Y19344D01*
X46930Y19341D01*
X46939Y19341D01*
X47305D01*
X47321Y19275D01*
X47379Y19136D01*
X47457Y19008D01*
X47554Y18894D01*
X47668Y18797D01*
X47796Y18719D01*
X47935Y18661D01*
X48081Y18626D01*
X48230Y18615D01*
X48379Y18626D01*
X48525Y18661D01*
X48664Y18719D01*
X48792Y18797D01*
X48906Y18894D01*
X49003Y19008D01*
X49081Y19136D01*
X49139Y19275D01*
X49174Y19421D01*
X49182Y19570D01*
X49174Y19719D01*
X49139Y19865D01*
X49081Y20004D01*
X49003Y20132D01*
X48906Y20246D01*
X48792Y20343D01*
X48664Y20421D01*
X48525Y20479D01*
X48379Y20514D01*
X48230Y20525D01*
X48081Y20514D01*
X47935Y20479D01*
X47796Y20421D01*
X47668Y20343D01*
X47554Y20246D01*
X47457Y20132D01*
X47379Y20004D01*
X47321Y19865D01*
X47305Y19799D01*
X47025D01*
X45999Y20824D01*
Y21881D01*
X47305D01*
X47321Y21815D01*
X47379Y21676D01*
X47457Y21548D01*
X47554Y21434D01*
X47668Y21337D01*
X47796Y21259D01*
X47935Y21201D01*
X48081Y21166D01*
X48230Y21155D01*
X48379Y21166D01*
X48525Y21201D01*
X48664Y21259D01*
X48792Y21337D01*
X48906Y21434D01*
X49003Y21548D01*
X49081Y21676D01*
X49139Y21815D01*
X49174Y21961D01*
X49182Y22110D01*
X49174Y22259D01*
X49139Y22405D01*
X49081Y22544D01*
X49003Y22672D01*
X48906Y22786D01*
X48792Y22883D01*
X48664Y22961D01*
X48525Y23019D01*
X48379Y23054D01*
X48230Y23065D01*
X48081Y23054D01*
X47935Y23019D01*
X47796Y22961D01*
X47668Y22883D01*
X47554Y22786D01*
X47457Y22672D01*
X47379Y22544D01*
X47321Y22405D01*
X47305Y22339D01*
X45999D01*
Y24427D01*
X46014Y24424D01*
X46050Y24421D01*
X46059Y24421D01*
X47305D01*
X47321Y24355D01*
X47379Y24216D01*
X47457Y24088D01*
X47554Y23974D01*
X47668Y23877D01*
X47796Y23799D01*
X47935Y23741D01*
X48081Y23706D01*
X48230Y23695D01*
X48379Y23706D01*
X48525Y23741D01*
X48664Y23799D01*
X48792Y23877D01*
X48906Y23974D01*
X49003Y24088D01*
X49081Y24216D01*
X49139Y24355D01*
X49174Y24501D01*
X49182Y24650D01*
X49174Y24799D01*
X49139Y24945D01*
X49081Y25084D01*
X49003Y25212D01*
X48906Y25326D01*
X48792Y25423D01*
X48664Y25501D01*
X48525Y25559D01*
X48379Y25594D01*
X48230Y25605D01*
X48081Y25594D01*
X47935Y25559D01*
X47796Y25501D01*
X47668Y25423D01*
X47554Y25326D01*
X47457Y25212D01*
X47379Y25084D01*
X47321Y24945D01*
X47305Y24879D01*
X46145D01*
X45999Y25024D01*
Y26961D01*
X47305D01*
X47321Y26895D01*
X47379Y26756D01*
X47457Y26628D01*
X47554Y26514D01*
X47668Y26417D01*
X47796Y26339D01*
X47935Y26281D01*
X48081Y26246D01*
X48230Y26235D01*
X48379Y26246D01*
X48525Y26281D01*
X48664Y26339D01*
X48792Y26417D01*
X48906Y26514D01*
X49003Y26628D01*
X49081Y26756D01*
X49139Y26895D01*
X49174Y27041D01*
X49182Y27190D01*
X49174Y27339D01*
X49139Y27485D01*
X49081Y27624D01*
X49003Y27752D01*
X48906Y27866D01*
X48792Y27963D01*
X48664Y28041D01*
X48525Y28099D01*
X48379Y28134D01*
X48230Y28145D01*
X48081Y28134D01*
X47935Y28099D01*
X47796Y28041D01*
X47668Y27963D01*
X47554Y27866D01*
X47457Y27752D01*
X47379Y27624D01*
X47321Y27485D01*
X47305Y27419D01*
X45999D01*
Y29501D01*
X47305D01*
X47321Y29435D01*
X47379Y29296D01*
X47457Y29168D01*
X47554Y29054D01*
X47668Y28957D01*
X47796Y28879D01*
X47935Y28821D01*
X48081Y28786D01*
X48230Y28775D01*
X48379Y28786D01*
X48525Y28821D01*
X48664Y28879D01*
X48792Y28957D01*
X48906Y29054D01*
X49003Y29168D01*
X49081Y29296D01*
X49139Y29435D01*
X49174Y29581D01*
X49182Y29730D01*
X49174Y29879D01*
X49139Y30025D01*
X49081Y30164D01*
X49003Y30292D01*
X48906Y30406D01*
X48792Y30503D01*
X48688Y30567D01*
X50312D01*
X50208Y30503D01*
X50094Y30406D01*
X49997Y30292D01*
X49919Y30164D01*
X49861Y30025D01*
X49826Y29879D01*
X49815Y29730D01*
X49826Y29581D01*
X49861Y29435D01*
X49919Y29296D01*
X49997Y29168D01*
X50094Y29054D01*
X50208Y28957D01*
X50336Y28879D01*
X50475Y28821D01*
X50621Y28786D01*
X50769Y28775D01*
Y28145D01*
X50621Y28134D01*
X50475Y28099D01*
X50336Y28041D01*
X50208Y27963D01*
X50094Y27866D01*
X49997Y27752D01*
X49919Y27624D01*
X49861Y27485D01*
X49826Y27339D01*
X49815Y27190D01*
X49826Y27041D01*
X49861Y26895D01*
X49919Y26756D01*
X49997Y26628D01*
X50094Y26514D01*
X50208Y26417D01*
X50336Y26339D01*
X50475Y26281D01*
X50621Y26246D01*
X50769Y26235D01*
Y25605D01*
X50621Y25594D01*
X50475Y25559D01*
X50336Y25501D01*
X50208Y25423D01*
X50094Y25326D01*
X49997Y25212D01*
X49919Y25084D01*
X49861Y24945D01*
X49826Y24799D01*
X49815Y24650D01*
X49826Y24501D01*
X49861Y24355D01*
X49919Y24216D01*
X49997Y24088D01*
X50094Y23974D01*
X50208Y23877D01*
X50336Y23799D01*
X50475Y23741D01*
X50621Y23706D01*
X50769Y23695D01*
Y23065D01*
X50621Y23054D01*
X50475Y23019D01*
X50336Y22961D01*
X50208Y22883D01*
X50094Y22786D01*
X49997Y22672D01*
X49919Y22544D01*
X49861Y22405D01*
X49826Y22259D01*
X49815Y22110D01*
X49826Y21961D01*
X49861Y21815D01*
X49919Y21676D01*
X49997Y21548D01*
X50094Y21434D01*
X50208Y21337D01*
X50336Y21259D01*
X50475Y21201D01*
X50621Y21166D01*
X50769Y21155D01*
Y20525D01*
X50621Y20514D01*
X50475Y20479D01*
X50336Y20421D01*
X50208Y20343D01*
X50094Y20246D01*
X49997Y20132D01*
X49919Y20004D01*
X49861Y19865D01*
X49826Y19719D01*
X49815Y19570D01*
X49826Y19421D01*
X49861Y19275D01*
X49919Y19136D01*
X49997Y19008D01*
X50094Y18894D01*
X50208Y18797D01*
X50336Y18719D01*
X50475Y18661D01*
X50621Y18626D01*
X50769Y18615D01*
Y17985D01*
X50621Y17974D01*
X50475Y17939D01*
X50336Y17881D01*
X50208Y17803D01*
X50094Y17706D01*
X49997Y17592D01*
X49919Y17464D01*
X49861Y17325D01*
X49826Y17179D01*
X49815Y17030D01*
X49826Y16881D01*
X49861Y16735D01*
X49919Y16596D01*
X49997Y16468D01*
X50094Y16354D01*
X50208Y16257D01*
X50336Y16179D01*
X50475Y16121D01*
X50621Y16086D01*
X50769Y16075D01*
Y15445D01*
X50621Y15434D01*
X50475Y15399D01*
X50336Y15341D01*
X50208Y15263D01*
X50094Y15166D01*
X49997Y15052D01*
X49919Y14924D01*
X49861Y14785D01*
X49826Y14639D01*
X49815Y14490D01*
X49826Y14341D01*
X49861Y14195D01*
X49919Y14056D01*
X49997Y13928D01*
X50094Y13814D01*
X50208Y13717D01*
X50336Y13639D01*
X50475Y13581D01*
X50621Y13546D01*
X50769Y13535D01*
Y12905D01*
X50621Y12894D01*
X50475Y12859D01*
X50336Y12801D01*
X50208Y12723D01*
X50094Y12626D01*
X49997Y12512D01*
X49919Y12384D01*
X49861Y12245D01*
X49826Y12099D01*
X49815Y11950D01*
X49826Y11801D01*
X49861Y11655D01*
X49919Y11516D01*
X49997Y11388D01*
X50094Y11274D01*
X50208Y11177D01*
X50336Y11099D01*
X50475Y11041D01*
X50621Y11006D01*
X50769Y10995D01*
Y1381D01*
G37*
G36*
X45999Y60619D02*X50769D01*
Y51005D01*
X50621Y50994D01*
X50475Y50959D01*
X50336Y50901D01*
X50208Y50823D01*
X50094Y50726D01*
X49997Y50612D01*
X49919Y50484D01*
X49861Y50345D01*
X49826Y50199D01*
X49815Y50050D01*
X49826Y49901D01*
X49861Y49755D01*
X49919Y49616D01*
X49997Y49488D01*
X50094Y49374D01*
X50208Y49277D01*
X50336Y49199D01*
X50475Y49141D01*
X50621Y49106D01*
X50769Y49095D01*
Y48465D01*
X50621Y48454D01*
X50475Y48419D01*
X50336Y48361D01*
X50208Y48283D01*
X50094Y48186D01*
X49997Y48072D01*
X49919Y47944D01*
X49861Y47805D01*
X49826Y47659D01*
X49815Y47510D01*
X49826Y47361D01*
X49861Y47215D01*
X49919Y47076D01*
X49997Y46948D01*
X50094Y46834D01*
X50208Y46737D01*
X50336Y46659D01*
X50475Y46601D01*
X50621Y46566D01*
X50769Y46555D01*
Y45925D01*
X50621Y45914D01*
X50475Y45879D01*
X50336Y45821D01*
X50208Y45743D01*
X50094Y45646D01*
X49997Y45532D01*
X49919Y45404D01*
X49861Y45265D01*
X49826Y45119D01*
X49815Y44970D01*
X49826Y44821D01*
X49861Y44675D01*
X49919Y44536D01*
X49997Y44408D01*
X50094Y44294D01*
X50208Y44197D01*
X50336Y44119D01*
X50475Y44061D01*
X50621Y44026D01*
X50769Y44015D01*
Y43385D01*
X50621Y43374D01*
X50475Y43339D01*
X50336Y43281D01*
X50208Y43203D01*
X50094Y43106D01*
X49997Y42992D01*
X49919Y42864D01*
X49861Y42725D01*
X49826Y42579D01*
X49815Y42430D01*
X49826Y42281D01*
X49861Y42135D01*
X49919Y41996D01*
X49997Y41868D01*
X50094Y41754D01*
X50208Y41657D01*
X50336Y41579D01*
X50475Y41521D01*
X50621Y41486D01*
X50769Y41475D01*
Y40845D01*
X50621Y40834D01*
X50475Y40799D01*
X50336Y40741D01*
X50208Y40663D01*
X50094Y40566D01*
X49997Y40452D01*
X49919Y40324D01*
X49861Y40185D01*
X49826Y40039D01*
X49815Y39890D01*
X49826Y39741D01*
X49861Y39595D01*
X49919Y39456D01*
X49997Y39328D01*
X50094Y39214D01*
X50208Y39117D01*
X50336Y39039D01*
X50475Y38981D01*
X50621Y38946D01*
X50769Y38935D01*
Y38305D01*
X50621Y38294D01*
X50475Y38259D01*
X50336Y38201D01*
X50208Y38123D01*
X50094Y38026D01*
X49997Y37912D01*
X49919Y37784D01*
X49861Y37645D01*
X49826Y37499D01*
X49815Y37350D01*
X49826Y37201D01*
X49861Y37055D01*
X49919Y36916D01*
X49997Y36788D01*
X50094Y36674D01*
X50208Y36577D01*
X50336Y36499D01*
X50475Y36441D01*
X50621Y36406D01*
X50769Y36395D01*
Y35765D01*
X50621Y35754D01*
X50475Y35719D01*
X50336Y35661D01*
X50208Y35583D01*
X50094Y35486D01*
X49997Y35372D01*
X49919Y35244D01*
X49861Y35105D01*
X49826Y34959D01*
X49815Y34810D01*
X49826Y34661D01*
X49861Y34515D01*
X49919Y34376D01*
X49997Y34248D01*
X50094Y34134D01*
X50208Y34037D01*
X50336Y33959D01*
X50475Y33901D01*
X50621Y33866D01*
X50769Y33855D01*
Y33225D01*
X50621Y33214D01*
X50475Y33179D01*
X50336Y33121D01*
X50208Y33043D01*
X50094Y32946D01*
X49997Y32832D01*
X49919Y32704D01*
X49861Y32565D01*
X49826Y32419D01*
X49815Y32270D01*
X49826Y32121D01*
X49861Y31975D01*
X49919Y31836D01*
X49997Y31708D01*
X50094Y31594D01*
X50208Y31497D01*
X50336Y31419D01*
X50475Y31361D01*
X50611Y31329D01*
X48389D01*
X48525Y31361D01*
X48664Y31419D01*
X48792Y31497D01*
X48906Y31594D01*
X49003Y31708D01*
X49081Y31836D01*
X49139Y31975D01*
X49174Y32121D01*
X49182Y32270D01*
X49174Y32419D01*
X49139Y32565D01*
X49081Y32704D01*
X49003Y32832D01*
X48906Y32946D01*
X48792Y33043D01*
X48664Y33121D01*
X48525Y33179D01*
X48379Y33214D01*
X48230Y33225D01*
X48081Y33214D01*
X47935Y33179D01*
X47796Y33121D01*
X47668Y33043D01*
X47554Y32946D01*
X47457Y32832D01*
X47379Y32704D01*
X47321Y32565D01*
X47305Y32499D01*
X45999D01*
Y34581D01*
X47305D01*
X47321Y34515D01*
X47379Y34376D01*
X47457Y34248D01*
X47554Y34134D01*
X47668Y34037D01*
X47796Y33959D01*
X47935Y33901D01*
X48081Y33866D01*
X48230Y33855D01*
X48379Y33866D01*
X48525Y33901D01*
X48664Y33959D01*
X48792Y34037D01*
X48906Y34134D01*
X49003Y34248D01*
X49081Y34376D01*
X49139Y34515D01*
X49174Y34661D01*
X49182Y34810D01*
X49174Y34959D01*
X49139Y35105D01*
X49081Y35244D01*
X49003Y35372D01*
X48906Y35486D01*
X48792Y35583D01*
X48664Y35661D01*
X48525Y35719D01*
X48379Y35754D01*
X48230Y35765D01*
X48081Y35754D01*
X47935Y35719D01*
X47796Y35661D01*
X47668Y35583D01*
X47554Y35486D01*
X47457Y35372D01*
X47379Y35244D01*
X47321Y35105D01*
X47305Y35039D01*
X45999D01*
Y37121D01*
X47305D01*
X47321Y37055D01*
X47379Y36916D01*
X47457Y36788D01*
X47554Y36674D01*
X47668Y36577D01*
X47796Y36499D01*
X47935Y36441D01*
X48081Y36406D01*
X48230Y36395D01*
X48379Y36406D01*
X48525Y36441D01*
X48664Y36499D01*
X48792Y36577D01*
X48906Y36674D01*
X49003Y36788D01*
X49081Y36916D01*
X49139Y37055D01*
X49174Y37201D01*
X49182Y37350D01*
X49174Y37499D01*
X49139Y37645D01*
X49081Y37784D01*
X49003Y37912D01*
X48906Y38026D01*
X48792Y38123D01*
X48664Y38201D01*
X48525Y38259D01*
X48379Y38294D01*
X48230Y38305D01*
X48081Y38294D01*
X47935Y38259D01*
X47796Y38201D01*
X47668Y38123D01*
X47554Y38026D01*
X47457Y37912D01*
X47379Y37784D01*
X47321Y37645D01*
X47305Y37579D01*
X45999D01*
Y39661D01*
X47305D01*
X47321Y39595D01*
X47379Y39456D01*
X47457Y39328D01*
X47554Y39214D01*
X47668Y39117D01*
X47796Y39039D01*
X47935Y38981D01*
X48081Y38946D01*
X48230Y38935D01*
X48379Y38946D01*
X48525Y38981D01*
X48664Y39039D01*
X48792Y39117D01*
X48906Y39214D01*
X49003Y39328D01*
X49081Y39456D01*
X49139Y39595D01*
X49174Y39741D01*
X49182Y39890D01*
X49174Y40039D01*
X49139Y40185D01*
X49081Y40324D01*
X49003Y40452D01*
X48906Y40566D01*
X48792Y40663D01*
X48664Y40741D01*
X48525Y40799D01*
X48379Y40834D01*
X48230Y40845D01*
X48081Y40834D01*
X47935Y40799D01*
X47796Y40741D01*
X47668Y40663D01*
X47554Y40566D01*
X47457Y40452D01*
X47379Y40324D01*
X47321Y40185D01*
X47305Y40119D01*
X45999D01*
Y40276D01*
X47519Y41796D01*
X47554Y41754D01*
X47668Y41657D01*
X47796Y41579D01*
X47935Y41521D01*
X48081Y41486D01*
X48230Y41475D01*
X48379Y41486D01*
X48525Y41521D01*
X48664Y41579D01*
X48792Y41657D01*
X48906Y41754D01*
X49003Y41868D01*
X49081Y41996D01*
X49139Y42135D01*
X49174Y42281D01*
X49182Y42430D01*
X49174Y42579D01*
X49139Y42725D01*
X49081Y42864D01*
X49003Y42992D01*
X48906Y43106D01*
X48792Y43203D01*
X48664Y43281D01*
X48525Y43339D01*
X48379Y43374D01*
X48230Y43385D01*
X48081Y43374D01*
X47935Y43339D01*
X47796Y43281D01*
X47668Y43203D01*
X47554Y43106D01*
X47457Y42992D01*
X47379Y42864D01*
X47321Y42725D01*
X47286Y42579D01*
X47275Y42430D01*
X47286Y42281D01*
X47300Y42223D01*
X45999Y40923D01*
Y44741D01*
X47305D01*
X47321Y44675D01*
X47379Y44536D01*
X47457Y44408D01*
X47554Y44294D01*
X47668Y44197D01*
X47796Y44119D01*
X47935Y44061D01*
X48081Y44026D01*
X48230Y44015D01*
X48379Y44026D01*
X48525Y44061D01*
X48664Y44119D01*
X48792Y44197D01*
X48906Y44294D01*
X49003Y44408D01*
X49081Y44536D01*
X49139Y44675D01*
X49174Y44821D01*
X49182Y44970D01*
X49174Y45119D01*
X49139Y45265D01*
X49081Y45404D01*
X49003Y45532D01*
X48906Y45646D01*
X48792Y45743D01*
X48664Y45821D01*
X48525Y45879D01*
X48379Y45914D01*
X48230Y45925D01*
X48081Y45914D01*
X47935Y45879D01*
X47796Y45821D01*
X47668Y45743D01*
X47554Y45646D01*
X47457Y45532D01*
X47379Y45404D01*
X47321Y45265D01*
X47305Y45199D01*
X45999D01*
Y47281D01*
X47305D01*
X47321Y47215D01*
X47379Y47076D01*
X47457Y46948D01*
X47554Y46834D01*
X47668Y46737D01*
X47796Y46659D01*
X47935Y46601D01*
X48081Y46566D01*
X48230Y46555D01*
X48379Y46566D01*
X48525Y46601D01*
X48664Y46659D01*
X48792Y46737D01*
X48906Y46834D01*
X49003Y46948D01*
X49081Y47076D01*
X49139Y47215D01*
X49174Y47361D01*
X49182Y47510D01*
X49174Y47659D01*
X49139Y47805D01*
X49081Y47944D01*
X49003Y48072D01*
X48906Y48186D01*
X48792Y48283D01*
X48664Y48361D01*
X48525Y48419D01*
X48379Y48454D01*
X48230Y48465D01*
X48081Y48454D01*
X47935Y48419D01*
X47796Y48361D01*
X47668Y48283D01*
X47554Y48186D01*
X47457Y48072D01*
X47379Y47944D01*
X47321Y47805D01*
X47305Y47739D01*
X45999D01*
Y49821D01*
X47305D01*
X47321Y49755D01*
X47379Y49616D01*
X47457Y49488D01*
X47554Y49374D01*
X47668Y49277D01*
X47796Y49199D01*
X47935Y49141D01*
X48081Y49106D01*
X48230Y49095D01*
X48379Y49106D01*
X48525Y49141D01*
X48664Y49199D01*
X48792Y49277D01*
X48906Y49374D01*
X49003Y49488D01*
X49081Y49616D01*
X49139Y49755D01*
X49174Y49901D01*
X49182Y50050D01*
X49174Y50199D01*
X49139Y50345D01*
X49081Y50484D01*
X49003Y50612D01*
X48906Y50726D01*
X48792Y50823D01*
X48664Y50901D01*
X48525Y50959D01*
X48379Y50994D01*
X48230Y51005D01*
X48081Y50994D01*
X47935Y50959D01*
X47796Y50901D01*
X47668Y50823D01*
X47554Y50726D01*
X47457Y50612D01*
X47379Y50484D01*
X47321Y50345D01*
X47305Y50279D01*
X45999D01*
Y58203D01*
X46000Y58203D01*
X46078Y58209D01*
X46154Y58227D01*
X46226Y58257D01*
X46292Y58298D01*
X46351Y58349D01*
X46402Y58408D01*
X46443Y58474D01*
X46473Y58546D01*
X46491Y58622D01*
X46495Y58700D01*
X46491Y58778D01*
X46473Y58854D01*
X46443Y58926D01*
X46402Y58992D01*
X46351Y59051D01*
X46292Y59102D01*
X46229Y59141D01*
Y59459D01*
X46292Y59498D01*
X46351Y59549D01*
X46402Y59608D01*
X46443Y59674D01*
X46473Y59746D01*
X46491Y59822D01*
X46495Y59900D01*
X46491Y59978D01*
X46473Y60054D01*
X46443Y60126D01*
X46402Y60192D01*
X46351Y60251D01*
X46292Y60302D01*
X46226Y60343D01*
X46154Y60373D01*
X46078Y60391D01*
X46000Y60397D01*
X45999Y60397D01*
Y60619D01*
G37*
G36*
Y47739D02*X45909D01*
X45900Y47739D01*
X45864Y47736D01*
X45829Y47728D01*
X45796Y47714D01*
X45765Y47696D01*
X45765Y47695D01*
X45738Y47672D01*
X45732Y47665D01*
X43345Y45278D01*
X43338Y45272D01*
X43329Y45261D01*
Y48205D01*
X44945Y49821D01*
X45999D01*
Y47739D01*
G37*
G36*
Y45199D02*X45079D01*
X45070Y45199D01*
X45034Y45196D01*
X44999Y45188D01*
X44966Y45174D01*
X44935Y45156D01*
X44908Y45132D01*
X44902Y45125D01*
X43745Y43968D01*
X43738Y43962D01*
X43729Y43951D01*
Y45015D01*
X45995Y47281D01*
X45999D01*
Y45199D01*
G37*
G36*
Y40923D02*X44129Y39052D01*
Y43705D01*
X45165Y44741D01*
X45999D01*
Y40923D01*
G37*
G36*
Y40119D02*X45842D01*
X45999Y40276D01*
Y40119D01*
G37*
G36*
Y37579D02*X43822D01*
X45905Y39661D01*
X45999D01*
Y37579D01*
G37*
G36*
Y35039D02*X41762D01*
X43845Y37121D01*
X45999D01*
Y35039D01*
G37*
G36*
Y32499D02*X41249D01*
Y34026D01*
X41805Y34581D01*
X45999D01*
Y32499D01*
G37*
G36*
Y27419D02*X45105D01*
X43402Y29121D01*
X44811D01*
X44820Y29121D01*
X44856Y29124D01*
X44856Y29124D01*
X44891Y29132D01*
X44924Y29146D01*
X44955Y29164D01*
X44982Y29188D01*
X44988Y29195D01*
X45295Y29501D01*
X45999D01*
Y27419D01*
G37*
G36*
Y25024D02*X42268Y28755D01*
X42262Y28762D01*
X42251Y28771D01*
X43105D01*
X44842Y27035D01*
X44848Y27028D01*
X44875Y27004D01*
X44875Y27004D01*
X44906Y26986D01*
X44939Y26972D01*
X44974Y26964D01*
X45010Y26961D01*
X45019Y26961D01*
X45999D01*
Y25024D01*
G37*
G36*
Y22339D02*X45085D01*
X44229Y23195D01*
Y26091D01*
X44229Y26100D01*
X44226Y26136D01*
X44222Y26155D01*
X45882Y24495D01*
X45888Y24488D01*
X45915Y24464D01*
X45915Y24464D01*
X45946Y24446D01*
X45979Y24432D01*
X45999Y24427D01*
Y22339D01*
G37*
G36*
Y20824D02*X44935Y21888D01*
X44954Y21884D01*
X44990Y21881D01*
X44999Y21881D01*
X45999D01*
Y20824D01*
G37*
G36*
Y17259D02*X45065D01*
X43429Y18895D01*
Y22749D01*
X43438Y22738D01*
X43445Y22732D01*
X45999Y20177D01*
Y17259D01*
G37*
G36*
Y12524D02*X44429Y14095D01*
Y16591D01*
X44429Y16600D01*
X44426Y16636D01*
X44422Y16655D01*
X44632Y16445D01*
X44638Y16438D01*
X44665Y16414D01*
X44696Y16396D01*
X44729Y16382D01*
X44764Y16374D01*
X44764D01*
X44800Y16371D01*
X44809Y16371D01*
X45999D01*
Y12524D01*
G37*
G36*
Y11120D02*X45956Y11146D01*
X45811Y11206D01*
X45657Y11243D01*
X45500Y11255D01*
X45343Y11243D01*
X45189Y11206D01*
X45044Y11146D01*
X44909Y11063D01*
X44789Y10961D01*
X44687Y10841D01*
X44604Y10706D01*
X44544Y10561D01*
X44507Y10407D01*
X44506Y10400D01*
X42151D01*
X42105Y10455D01*
X42003Y10542D01*
X41888Y10612D01*
X41764Y10663D01*
X41634Y10695D01*
X41500Y10705D01*
X41366Y10695D01*
X41249Y10666D01*
Y24671D01*
X41505D01*
X42171Y24005D01*
Y18409D01*
X42171Y18400D01*
X42174Y18364D01*
Y18364D01*
X42182Y18329D01*
X42196Y18296D01*
X42214Y18265D01*
X42238Y18238D01*
X42245Y18232D01*
X43971Y16505D01*
Y14009D01*
X43971Y14000D01*
X43974Y13964D01*
X43982Y13929D01*
X43996Y13896D01*
X44014Y13865D01*
X44014Y13865D01*
X44038Y13838D01*
X44045Y13832D01*
X45999Y11877D01*
Y11120D01*
G37*
G36*
X42399Y60619D02*X45999D01*
Y60397D01*
X45922Y60391D01*
X45846Y60373D01*
X45774Y60343D01*
X45708Y60302D01*
X45649Y60251D01*
X45598Y60192D01*
X45557Y60126D01*
X45527Y60054D01*
X45509Y59978D01*
X45503Y59900D01*
X45509Y59822D01*
X45527Y59746D01*
X45557Y59674D01*
X45598Y59608D01*
X45649Y59549D01*
X45708Y59498D01*
X45771Y59459D01*
Y59141D01*
X45708Y59102D01*
X45649Y59051D01*
X45598Y58992D01*
X45557Y58926D01*
X45527Y58854D01*
X45509Y58778D01*
X45503Y58700D01*
X45509Y58622D01*
X45527Y58546D01*
X45557Y58474D01*
X45598Y58408D01*
X45649Y58349D01*
X45708Y58298D01*
X45774Y58257D01*
X45846Y58227D01*
X45922Y58209D01*
X45999Y58203D01*
Y50279D01*
X44859D01*
X44850Y50279D01*
X44814Y50276D01*
X44779Y50268D01*
X44746Y50254D01*
X44715Y50236D01*
X44715Y50235D01*
X44688Y50212D01*
X44682Y50205D01*
X42945Y48468D01*
X42938Y48462D01*
X42914Y48435D01*
X42896Y48404D01*
X42882Y48371D01*
X42874Y48336D01*
X42874Y48336D01*
X42871Y48300D01*
X42871Y48291D01*
Y39295D01*
X42399Y38823D01*
Y54446D01*
X42426Y54457D01*
X42492Y54498D01*
X42551Y54549D01*
X42602Y54608D01*
X42643Y54674D01*
X42673Y54746D01*
X42691Y54822D01*
X42695Y54900D01*
X42691Y54978D01*
X42673Y55054D01*
X42643Y55126D01*
X42602Y55192D01*
X42551Y55251D01*
X42492Y55302D01*
X42429Y55341D01*
Y56705D01*
X42450Y56727D01*
X42522Y56709D01*
X42600Y56703D01*
X42678Y56709D01*
X42754Y56727D01*
X42826Y56757D01*
X42892Y56798D01*
X42951Y56849D01*
X43002Y56908D01*
X43043Y56974D01*
X43073Y57046D01*
X43091Y57122D01*
X43095Y57200D01*
X43091Y57278D01*
X43073Y57354D01*
X43043Y57426D01*
X43002Y57492D01*
X42951Y57551D01*
X42892Y57602D01*
X42826Y57643D01*
X42754Y57673D01*
X42678Y57691D01*
X42600Y57697D01*
X42522Y57691D01*
X42446Y57673D01*
X42399Y57653D01*
Y60619D01*
G37*
G36*
X41249D02*X42399D01*
Y57653D01*
X42374Y57643D01*
X42308Y57602D01*
X42249Y57551D01*
X42198Y57492D01*
X42157Y57426D01*
X42127Y57354D01*
X42109Y57278D01*
X42103Y57200D01*
X42109Y57122D01*
X42127Y57050D01*
X42045Y56968D01*
X42038Y56962D01*
X42014Y56935D01*
X41996Y56904D01*
X41982Y56871D01*
X41974Y56836D01*
X41974Y56836D01*
X41971Y56800D01*
X41971Y56791D01*
Y55341D01*
X41908Y55302D01*
X41849Y55251D01*
X41798Y55192D01*
X41757Y55126D01*
X41727Y55054D01*
X41709Y54978D01*
X41703Y54900D01*
X41709Y54822D01*
X41727Y54746D01*
X41757Y54674D01*
X41798Y54608D01*
X41849Y54549D01*
X41908Y54498D01*
X41974Y54457D01*
X42046Y54427D01*
X42122Y54409D01*
X42200Y54403D01*
X42278Y54409D01*
X42354Y54427D01*
X42399Y54446D01*
Y38823D01*
X41249Y37673D01*
Y52773D01*
X41274Y52757D01*
X41346Y52727D01*
X41422Y52709D01*
X41500Y52703D01*
X41578Y52709D01*
X41654Y52727D01*
X41726Y52757D01*
X41792Y52798D01*
X41851Y52849D01*
X41902Y52908D01*
X41943Y52974D01*
X41973Y53046D01*
X41991Y53122D01*
X41995Y53200D01*
X41991Y53278D01*
X41973Y53354D01*
X41943Y53426D01*
X41902Y53492D01*
X41851Y53551D01*
X41792Y53602D01*
X41726Y53643D01*
X41654Y53673D01*
X41578Y53691D01*
X41500Y53697D01*
X41422Y53691D01*
X41350Y53673D01*
X41249Y53774D01*
Y54472D01*
X41292Y54498D01*
X41351Y54549D01*
X41402Y54608D01*
X41443Y54674D01*
X41473Y54746D01*
X41491Y54822D01*
X41495Y54900D01*
X41491Y54978D01*
X41473Y55054D01*
X41443Y55126D01*
X41402Y55192D01*
X41351Y55251D01*
X41292Y55302D01*
X41249Y55328D01*
Y56172D01*
X41292Y56198D01*
X41351Y56249D01*
X41402Y56308D01*
X41443Y56374D01*
X41473Y56446D01*
X41491Y56522D01*
X41495Y56600D01*
X41491Y56678D01*
X41473Y56754D01*
X41443Y56826D01*
X41402Y56892D01*
X41351Y56951D01*
X41292Y57002D01*
X41249Y57028D01*
Y60619D01*
G37*
G36*
Y55328D02*X41229Y55341D01*
Y56159D01*
X41249Y56172D01*
Y55328D01*
G37*
G36*
Y53774D02*X41229Y53795D01*
Y54459D01*
X41249Y54472D01*
Y53774D01*
G37*
G36*
Y32499D02*X39722D01*
X41249Y34026D01*
Y32499D01*
G37*
G36*
Y10666D02*X41236Y10663D01*
X41112Y10612D01*
X40997Y10542D01*
X40895Y10455D01*
X40808Y10353D01*
X40738Y10238D01*
X40687Y10114D01*
X40655Y9984D01*
X40645Y9850D01*
X40655Y9716D01*
X40687Y9586D01*
X40738Y9462D01*
X40808Y9347D01*
X40895Y9245D01*
X40997Y9158D01*
X41112Y9088D01*
X41236Y9037D01*
X41249Y9034D01*
Y3491D01*
X41146Y3370D01*
X41059Y3229D01*
X40996Y3076D01*
X40957Y2915D01*
X40944Y2750D01*
X40957Y2585D01*
X40996Y2424D01*
X41059Y2271D01*
X41146Y2130D01*
X41249Y2009D01*
Y1381D01*
X39600D01*
Y10205D01*
X39608Y10198D01*
X39674Y10157D01*
X39746Y10127D01*
X39822Y10109D01*
X39900Y10103D01*
X39978Y10109D01*
X40054Y10127D01*
X40126Y10157D01*
X40192Y10198D01*
X40251Y10249D01*
X40302Y10308D01*
X40343Y10374D01*
X40373Y10446D01*
X40391Y10522D01*
X40395Y10600D01*
X40391Y10678D01*
X40373Y10754D01*
X40343Y10826D01*
X40302Y10892D01*
X40251Y10951D01*
X40192Y11002D01*
X40129Y11041D01*
Y12159D01*
X40192Y12198D01*
X40251Y12249D01*
X40302Y12308D01*
X40343Y12374D01*
X40373Y12446D01*
X40391Y12522D01*
X40395Y12600D01*
X40391Y12678D01*
X40373Y12754D01*
X40343Y12826D01*
X40302Y12892D01*
X40251Y12951D01*
X40192Y13002D01*
X40126Y13043D01*
X40054Y13073D01*
X39978Y13091D01*
X39900Y13097D01*
X39822Y13091D01*
X39746Y13073D01*
X39674Y13043D01*
X39608Y13002D01*
X39600Y12995D01*
Y18900D01*
X39705Y18795D01*
Y15019D01*
X39703Y15000D01*
X39709Y14922D01*
X39727Y14846D01*
X39757Y14774D01*
X39798Y14708D01*
X39849Y14649D01*
X39908Y14598D01*
X39974Y14557D01*
X40046Y14527D01*
X40122Y14509D01*
X40200Y14503D01*
X40278Y14509D01*
X40354Y14527D01*
X40426Y14557D01*
X40492Y14598D01*
X40551Y14649D01*
X40602Y14708D01*
X40643Y14774D01*
X40673Y14846D01*
X40691Y14922D01*
X40695Y15000D01*
Y18981D01*
X40697Y19000D01*
X40691Y19078D01*
X40691Y19078D01*
X40673Y19154D01*
X40643Y19226D01*
X40602Y19292D01*
X40551Y19351D01*
X40536Y19364D01*
X39600Y20300D01*
Y25027D01*
X39672Y25009D01*
X39750Y25003D01*
X39828Y25009D01*
X39904Y25027D01*
X39976Y25057D01*
X40042Y25098D01*
X40101Y25149D01*
X40152Y25208D01*
X40193Y25274D01*
X40223Y25346D01*
X40241Y25422D01*
X40243Y25456D01*
X40249Y25449D01*
X40308Y25398D01*
X40374Y25357D01*
X40392Y25350D01*
X40374Y25343D01*
X40308Y25302D01*
X40249Y25251D01*
X40198Y25192D01*
X40157Y25126D01*
X40127Y25054D01*
X40109Y24978D01*
X40103Y24900D01*
X40109Y24822D01*
X40127Y24746D01*
X40157Y24674D01*
X40198Y24608D01*
X40249Y24549D01*
X40308Y24498D01*
X40374Y24457D01*
X40446Y24427D01*
X40522Y24409D01*
X40600Y24403D01*
X40678Y24409D01*
X40754Y24427D01*
X40826Y24457D01*
X40892Y24498D01*
X40951Y24549D01*
X41002Y24608D01*
X41041Y24671D01*
X41249D01*
Y10666D01*
G37*
G36*
X39600Y60619D02*X41249D01*
Y57028D01*
X41226Y57043D01*
X41154Y57073D01*
X41078Y57091D01*
X41000Y57097D01*
X40922Y57091D01*
X40846Y57073D01*
X40774Y57043D01*
X40708Y57002D01*
X40649Y56951D01*
X40598Y56892D01*
X40557Y56826D01*
X40527Y56754D01*
X40509Y56678D01*
X40503Y56600D01*
X40509Y56522D01*
X40527Y56446D01*
X40557Y56374D01*
X40598Y56308D01*
X40649Y56249D01*
X40708Y56198D01*
X40771Y56159D01*
Y55341D01*
X40708Y55302D01*
X40649Y55251D01*
X40598Y55192D01*
X40557Y55126D01*
X40527Y55054D01*
X40509Y54978D01*
X40503Y54900D01*
X40509Y54822D01*
X40527Y54746D01*
X40557Y54674D01*
X40598Y54608D01*
X40649Y54549D01*
X40708Y54498D01*
X40771Y54459D01*
Y53709D01*
X40771Y53700D01*
X40774Y53664D01*
Y53664D01*
X40782Y53629D01*
X40796Y53596D01*
X40814Y53565D01*
X40838Y53538D01*
X40845Y53532D01*
X41027Y53350D01*
X41009Y53278D01*
X41003Y53200D01*
X41009Y53122D01*
X41027Y53046D01*
X41057Y52974D01*
X41098Y52908D01*
X41149Y52849D01*
X41208Y52798D01*
X41249Y52773D01*
Y37673D01*
X39600Y36023D01*
Y60619D01*
G37*
G36*
X37800D02*X39600D01*
Y36023D01*
X37800Y34223D01*
Y38800D01*
X38836Y39836D01*
X38851Y39849D01*
X38902Y39908D01*
X38943Y39974D01*
X38973Y40046D01*
X38991Y40122D01*
X38997Y40200D01*
X38991Y40278D01*
X38973Y40354D01*
X38943Y40426D01*
X38902Y40492D01*
X38851Y40551D01*
X38792Y40602D01*
X38726Y40643D01*
X38654Y40673D01*
X38578Y40691D01*
X38500Y40697D01*
X38422Y40691D01*
X38346Y40673D01*
X38274Y40643D01*
X38208Y40602D01*
X38149Y40551D01*
X38136Y40537D01*
X37800Y40200D01*
Y52947D01*
X37846Y52927D01*
X37922Y52909D01*
X38000Y52903D01*
X38078Y52909D01*
X38154Y52927D01*
X38226Y52957D01*
X38292Y52998D01*
X38351Y53049D01*
X38402Y53108D01*
X38443Y53174D01*
X38473Y53246D01*
X38491Y53322D01*
X38495Y53400D01*
Y55600D01*
X38491Y55678D01*
X38473Y55754D01*
X38443Y55826D01*
X38402Y55892D01*
X38351Y55951D01*
X38292Y56002D01*
X38226Y56043D01*
X38154Y56073D01*
X38078Y56091D01*
X38000Y56097D01*
X37922Y56091D01*
X37846Y56073D01*
X37800Y56053D01*
Y60619D01*
G37*
G36*
X35799D02*X37800D01*
Y56053D01*
X37774Y56043D01*
X37708Y56002D01*
X37649Y55951D01*
X37598Y55892D01*
X37557Y55826D01*
X37527Y55754D01*
X37509Y55678D01*
X37509Y55678D01*
X37503Y55600D01*
X37505Y55581D01*
Y53419D01*
X37503Y53400D01*
X37509Y53322D01*
X37527Y53246D01*
X37557Y53174D01*
X37598Y53108D01*
X37649Y53049D01*
X37708Y52998D01*
X37774Y52957D01*
X37800Y52947D01*
Y40200D01*
X36763Y39164D01*
X36749Y39151D01*
X36698Y39092D01*
X36657Y39026D01*
X36627Y38954D01*
X36609Y38878D01*
X36603Y38800D01*
X36609Y38722D01*
X36627Y38646D01*
X36657Y38574D01*
X36698Y38508D01*
X36749Y38449D01*
X36808Y38398D01*
X36874Y38357D01*
X36946Y38327D01*
X37022Y38309D01*
X37100Y38303D01*
X37178Y38309D01*
X37254Y38327D01*
X37326Y38357D01*
X37392Y38398D01*
X37451Y38449D01*
X37464Y38464D01*
X37800Y38800D01*
Y34223D01*
X35799Y32223D01*
Y52003D01*
X35800Y52003D01*
X35878Y52009D01*
X35954Y52027D01*
X36026Y52057D01*
X36092Y52098D01*
X36151Y52149D01*
X36202Y52208D01*
X36243Y52274D01*
X36273Y52346D01*
X36291Y52422D01*
X36295Y52500D01*
Y56600D01*
X36291Y56678D01*
X36273Y56754D01*
X36243Y56826D01*
X36202Y56892D01*
X36151Y56951D01*
X36092Y57002D01*
X36026Y57043D01*
X35954Y57073D01*
X35878Y57091D01*
X35800Y57097D01*
X35799Y57097D01*
Y60619D01*
G37*
G36*
X34199D02*X35799D01*
Y57097D01*
X35722Y57091D01*
X35646Y57073D01*
X35574Y57043D01*
X35508Y57002D01*
X35449Y56951D01*
X35398Y56892D01*
X35357Y56826D01*
X35327Y56754D01*
X35309Y56678D01*
X35309Y56678D01*
X35303Y56600D01*
X35305Y56581D01*
Y52519D01*
X35303Y52500D01*
X35309Y52422D01*
X35327Y52346D01*
X35357Y52274D01*
X35398Y52208D01*
X35449Y52149D01*
X35508Y52098D01*
X35574Y52057D01*
X35646Y52027D01*
X35722Y52009D01*
X35799Y52003D01*
Y32223D01*
X34199Y30623D01*
Y44303D01*
X34200Y44303D01*
X34278Y44309D01*
X34354Y44327D01*
X34426Y44357D01*
X34492Y44398D01*
X34551Y44449D01*
X34602Y44508D01*
X34643Y44574D01*
X34673Y44646D01*
X34691Y44722D01*
X34695Y44800D01*
X34691Y44878D01*
X34673Y44954D01*
X34643Y45026D01*
X34602Y45092D01*
X34551Y45151D01*
X34492Y45202D01*
X34429Y45241D01*
Y45759D01*
X34492Y45798D01*
X34551Y45849D01*
X34602Y45908D01*
X34643Y45974D01*
X34673Y46046D01*
X34691Y46122D01*
X34695Y46200D01*
X34691Y46278D01*
X34673Y46354D01*
X34643Y46426D01*
X34602Y46492D01*
X34551Y46551D01*
X34492Y46602D01*
X34426Y46643D01*
X34354Y46673D01*
X34278Y46691D01*
X34200Y46697D01*
X34199Y46697D01*
Y47284D01*
X34229Y47286D01*
X34375Y47321D01*
X34514Y47379D01*
X34642Y47457D01*
X34756Y47554D01*
X34853Y47668D01*
X34931Y47796D01*
X34989Y47935D01*
X35024Y48081D01*
X35032Y48230D01*
X35024Y48379D01*
X34989Y48525D01*
X34931Y48664D01*
X34853Y48792D01*
X34756Y48906D01*
X34642Y49003D01*
X34514Y49081D01*
X34375Y49139D01*
X34229Y49174D01*
X34199Y49176D01*
Y49824D01*
X34229Y49826D01*
X34375Y49861D01*
X34514Y49919D01*
X34642Y49997D01*
X34756Y50094D01*
X34853Y50208D01*
X34931Y50336D01*
X34989Y50475D01*
X35024Y50621D01*
X35032Y50770D01*
X35024Y50919D01*
X34989Y51065D01*
X34931Y51204D01*
X34853Y51332D01*
X34756Y51446D01*
X34642Y51543D01*
X34514Y51621D01*
X34375Y51679D01*
X34229Y51714D01*
X34199Y51716D01*
Y60619D01*
G37*
G36*
X31799D02*X34199D01*
Y51716D01*
X34080Y51725D01*
X33931Y51714D01*
X33785Y51679D01*
X33646Y51621D01*
X33518Y51543D01*
X33404Y51446D01*
X33307Y51332D01*
X33229Y51204D01*
X33171Y51065D01*
X33136Y50919D01*
X33125Y50770D01*
X33136Y50621D01*
X33171Y50475D01*
X33229Y50336D01*
X33307Y50208D01*
X33404Y50094D01*
X33518Y49997D01*
X33646Y49919D01*
X33785Y49861D01*
X33931Y49826D01*
X34080Y49815D01*
X34199Y49824D01*
Y49176D01*
X34080Y49185D01*
X33931Y49174D01*
X33785Y49139D01*
X33646Y49081D01*
X33518Y49003D01*
X33404Y48906D01*
X33307Y48792D01*
X33229Y48664D01*
X33171Y48525D01*
X33136Y48379D01*
X33125Y48230D01*
X33136Y48081D01*
X33171Y47935D01*
X33229Y47796D01*
X33307Y47668D01*
X33404Y47554D01*
X33518Y47457D01*
X33646Y47379D01*
X33785Y47321D01*
X33931Y47286D01*
X34080Y47275D01*
X34199Y47284D01*
Y46697D01*
X34122Y46691D01*
X34046Y46673D01*
X33974Y46643D01*
X33908Y46602D01*
X33849Y46551D01*
X33798Y46492D01*
X33757Y46426D01*
X33727Y46354D01*
X33709Y46278D01*
X33703Y46200D01*
X33709Y46122D01*
X33727Y46046D01*
X33757Y45974D01*
X33798Y45908D01*
X33849Y45849D01*
X33908Y45798D01*
X33971Y45759D01*
Y45241D01*
X33908Y45202D01*
X33849Y45151D01*
X33798Y45092D01*
X33757Y45026D01*
X33727Y44954D01*
X33709Y44878D01*
X33703Y44800D01*
X33709Y44722D01*
X33727Y44646D01*
X33757Y44574D01*
X33798Y44508D01*
X33849Y44449D01*
X33908Y44398D01*
X33974Y44357D01*
X34046Y44327D01*
X34122Y44309D01*
X34199Y44303D01*
Y30623D01*
X34095Y30518D01*
X34088Y30512D01*
X34064Y30485D01*
X34046Y30454D01*
X34032Y30421D01*
X34024Y30386D01*
X34024Y30386D01*
X34021Y30350D01*
X34021Y30341D01*
Y27860D01*
X34002Y27892D01*
X33951Y27951D01*
X33892Y28002D01*
X33826Y28043D01*
X33754Y28073D01*
X33678Y28091D01*
X33600Y28097D01*
X33522Y28091D01*
X33450Y28073D01*
X33268Y28255D01*
X33262Y28262D01*
X33235Y28286D01*
X33204Y28304D01*
X33171Y28318D01*
X33136Y28326D01*
X33136Y28326D01*
X33100Y28329D01*
X33091Y28329D01*
X31799D01*
Y44303D01*
X31800Y44303D01*
X31878Y44309D01*
X31954Y44327D01*
X32026Y44357D01*
X32092Y44398D01*
X32151Y44449D01*
X32202Y44508D01*
X32243Y44574D01*
X32273Y44646D01*
X32291Y44722D01*
X32295Y44800D01*
X32291Y44878D01*
X32273Y44954D01*
X32243Y45026D01*
X32202Y45092D01*
X32151Y45151D01*
X32092Y45202D01*
X32029Y45241D01*
Y45759D01*
X32092Y45798D01*
X32151Y45849D01*
X32202Y45908D01*
X32243Y45974D01*
X32273Y46046D01*
X32291Y46122D01*
X32295Y46200D01*
X32291Y46278D01*
X32273Y46354D01*
X32243Y46426D01*
X32202Y46492D01*
X32151Y46551D01*
X32092Y46602D01*
X32026Y46643D01*
X31954Y46673D01*
X31878Y46691D01*
X31800Y46697D01*
X31799Y46697D01*
Y47313D01*
X31835Y47321D01*
X31974Y47379D01*
X32102Y47457D01*
X32216Y47554D01*
X32313Y47668D01*
X32391Y47796D01*
X32449Y47935D01*
X32484Y48081D01*
X32492Y48230D01*
X32484Y48379D01*
X32449Y48525D01*
X32391Y48664D01*
X32313Y48792D01*
X32216Y48906D01*
X32102Y49003D01*
X31974Y49081D01*
X31835Y49139D01*
X31799Y49147D01*
Y49853D01*
X31835Y49861D01*
X31974Y49919D01*
X32102Y49997D01*
X32216Y50094D01*
X32313Y50208D01*
X32391Y50336D01*
X32449Y50475D01*
X32484Y50621D01*
X32492Y50770D01*
X32484Y50919D01*
X32449Y51065D01*
X32391Y51204D01*
X32313Y51332D01*
X32216Y51446D01*
X32102Y51543D01*
X31974Y51621D01*
X31835Y51679D01*
X31799Y51687D01*
Y60619D01*
G37*
G36*
X35799Y26407D02*X35800Y26407D01*
X35799Y26406D01*
Y26407D01*
G37*
G36*
X38199Y25007D02*X38250Y25003D01*
X38328Y25009D01*
X38404Y25027D01*
X38476Y25057D01*
X38542Y25098D01*
X38601Y25149D01*
X38652Y25208D01*
X38693Y25274D01*
X38723Y25346D01*
X38741Y25422D01*
X38745Y25500D01*
X38741Y25578D01*
X38723Y25654D01*
X38693Y25726D01*
X38652Y25792D01*
X38601Y25851D01*
X38579Y25871D01*
Y26050D01*
X38579Y26050D01*
Y26399D01*
X38579Y26408D01*
X38577Y26435D01*
X38596Y26427D01*
X38672Y26409D01*
X38750Y26403D01*
X38800Y26407D01*
X38777Y26354D01*
X38759Y26278D01*
X38753Y26200D01*
X38759Y26122D01*
X38777Y26046D01*
X38807Y25974D01*
X38848Y25908D01*
X38899Y25849D01*
X38958Y25798D01*
X39024Y25757D01*
X39096Y25727D01*
X39172Y25709D01*
X39250Y25703D01*
X39300Y25707D01*
X39277Y25654D01*
X39259Y25578D01*
X39253Y25500D01*
X39259Y25422D01*
X39277Y25346D01*
X39307Y25274D01*
X39348Y25208D01*
X39399Y25149D01*
X39458Y25098D01*
X39524Y25057D01*
X39596Y25027D01*
X39600Y25027D01*
Y20300D01*
X39364Y20536D01*
X39351Y20551D01*
X39292Y20602D01*
X39226Y20643D01*
X39154Y20673D01*
X39078Y20691D01*
X39000Y20697D01*
X38922Y20691D01*
X38846Y20673D01*
X38774Y20643D01*
X38708Y20602D01*
X38649Y20551D01*
X38598Y20492D01*
X38557Y20426D01*
X38527Y20354D01*
X38509Y20278D01*
X38503Y20200D01*
X38509Y20122D01*
X38527Y20046D01*
X38557Y19974D01*
X38598Y19908D01*
X38649Y19849D01*
X38664Y19836D01*
X39600Y18900D01*
Y12995D01*
X39549Y12951D01*
X39498Y12892D01*
X39457Y12826D01*
X39427Y12754D01*
X39409Y12678D01*
X39403Y12600D01*
X39409Y12522D01*
X39427Y12446D01*
X39457Y12374D01*
X39498Y12308D01*
X39549Y12249D01*
X39600Y12205D01*
Y10995D01*
X39549Y10951D01*
X39498Y10892D01*
X39457Y10826D01*
X39427Y10754D01*
X39409Y10678D01*
X39403Y10600D01*
X39409Y10522D01*
X39427Y10446D01*
X39457Y10374D01*
X39498Y10308D01*
X39549Y10249D01*
X39600Y10205D01*
Y1381D01*
X38199D01*
Y8995D01*
X38200Y8995D01*
X38334Y9005D01*
X38464Y9037D01*
X38588Y9088D01*
X38703Y9158D01*
X38805Y9245D01*
X38892Y9347D01*
X38962Y9462D01*
X39013Y9586D01*
X39045Y9716D01*
X39052Y9850D01*
X39045Y9984D01*
X39013Y10114D01*
X38962Y10238D01*
X38892Y10353D01*
X38805Y10455D01*
X38703Y10542D01*
X38588Y10612D01*
X38464Y10663D01*
X38334Y10695D01*
X38200Y10705D01*
X38199Y10705D01*
Y15346D01*
X38226Y15357D01*
X38292Y15398D01*
X38351Y15449D01*
X38402Y15508D01*
X38443Y15574D01*
X38473Y15646D01*
X38491Y15722D01*
X38495Y15800D01*
X38491Y15878D01*
X38473Y15950D01*
X38555Y16032D01*
X38562Y16038D01*
X38586Y16065D01*
X38604Y16096D01*
X38618Y16129D01*
X38626Y16164D01*
X38629Y16200D01*
X38629Y16209D01*
Y16759D01*
X38692Y16798D01*
X38751Y16849D01*
X38802Y16908D01*
X38843Y16974D01*
X38873Y17046D01*
X38891Y17122D01*
X38895Y17200D01*
X38891Y17278D01*
X38873Y17354D01*
X38843Y17426D01*
X38802Y17492D01*
X38751Y17551D01*
X38692Y17602D01*
X38626Y17643D01*
X38554Y17673D01*
X38478Y17691D01*
X38400Y17697D01*
X38322Y17691D01*
X38246Y17673D01*
X38199Y17653D01*
Y25007D01*
G37*
G36*
X35799Y20205D02*X36145D01*
X36336Y20014D01*
X36349Y19999D01*
X36408Y19948D01*
X36474Y19907D01*
X36546Y19877D01*
X36622Y19859D01*
X36700Y19853D01*
X36778Y19859D01*
X36854Y19877D01*
X36926Y19907D01*
X36992Y19948D01*
X37051Y19999D01*
X37102Y20058D01*
X37143Y20124D01*
X37173Y20196D01*
X37191Y20272D01*
X37191Y20272D01*
X37197Y20350D01*
X37191Y20428D01*
X37191Y20428D01*
X37173Y20504D01*
X37143Y20576D01*
X37102Y20642D01*
X37051Y20701D01*
X37036Y20714D01*
X36714Y21036D01*
X36701Y21051D01*
X36642Y21102D01*
X36576Y21143D01*
X36504Y21173D01*
X36428Y21191D01*
X36428Y21191D01*
X36350Y21197D01*
X36331Y21195D01*
X35799D01*
Y25994D01*
X35807Y25974D01*
X35848Y25908D01*
X35899Y25849D01*
X35958Y25798D01*
X36024Y25757D01*
X36096Y25727D01*
X36172Y25709D01*
X36250Y25703D01*
X36300Y25707D01*
X36277Y25654D01*
X36259Y25578D01*
X36253Y25500D01*
X36259Y25422D01*
X36277Y25346D01*
X36307Y25274D01*
X36348Y25208D01*
X36399Y25149D01*
X36458Y25098D01*
X36524Y25057D01*
X36596Y25027D01*
X36672Y25009D01*
X36750Y25003D01*
X36828Y25009D01*
X36904Y25027D01*
X36976Y25057D01*
X37042Y25098D01*
X37101Y25149D01*
X37152Y25208D01*
X37193Y25274D01*
X37223Y25346D01*
X37241Y25422D01*
X37245Y25500D01*
X37241Y25578D01*
X37223Y25654D01*
X37193Y25726D01*
X37152Y25792D01*
X37101Y25851D01*
X37079Y25871D01*
Y26050D01*
X37079Y26050D01*
Y26399D01*
X37079Y26408D01*
X37077Y26435D01*
X37096Y26427D01*
X37172Y26409D01*
X37250Y26403D01*
X37300Y26407D01*
X37277Y26354D01*
X37259Y26278D01*
X37253Y26200D01*
X37259Y26122D01*
X37277Y26046D01*
X37307Y25974D01*
X37348Y25908D01*
X37399Y25849D01*
X37458Y25798D01*
X37524Y25757D01*
X37596Y25727D01*
X37672Y25709D01*
X37750Y25703D01*
X37800Y25707D01*
X37777Y25654D01*
X37759Y25578D01*
X37753Y25500D01*
X37759Y25422D01*
X37777Y25346D01*
X37807Y25274D01*
X37848Y25208D01*
X37899Y25149D01*
X37958Y25098D01*
X38024Y25057D01*
X38096Y25027D01*
X38172Y25009D01*
X38199Y25007D01*
Y17653D01*
X38174Y17643D01*
X38108Y17602D01*
X38049Y17551D01*
X37998Y17492D01*
X37957Y17426D01*
X37927Y17354D01*
X37909Y17278D01*
X37903Y17200D01*
X37909Y17122D01*
X37927Y17046D01*
X37957Y16974D01*
X37998Y16908D01*
X38049Y16849D01*
X38108Y16798D01*
X38171Y16759D01*
Y16295D01*
X38150Y16273D01*
X38078Y16291D01*
X38000Y16297D01*
X37922Y16291D01*
X37846Y16273D01*
X37774Y16243D01*
X37708Y16202D01*
X37649Y16151D01*
X37598Y16092D01*
X37557Y16026D01*
X37527Y15954D01*
X37509Y15878D01*
X37503Y15800D01*
X37509Y15722D01*
X37527Y15646D01*
X37557Y15574D01*
X37598Y15508D01*
X37649Y15449D01*
X37708Y15398D01*
X37774Y15357D01*
X37846Y15327D01*
X37922Y15309D01*
X38000Y15303D01*
X38078Y15309D01*
X38154Y15327D01*
X38199Y15346D01*
Y10705D01*
X38066Y10695D01*
X37936Y10663D01*
X37812Y10612D01*
X37697Y10542D01*
X37595Y10455D01*
X37508Y10353D01*
X37438Y10238D01*
X37387Y10114D01*
X37355Y9984D01*
X37345Y9850D01*
X37355Y9716D01*
X37387Y9586D01*
X37438Y9462D01*
X37508Y9347D01*
X37595Y9245D01*
X37697Y9158D01*
X37812Y9088D01*
X37936Y9037D01*
X38066Y9005D01*
X38199Y8995D01*
Y1381D01*
X37581D01*
Y7700D01*
X37581Y7700D01*
X37578Y7781D01*
X37568Y7862D01*
X37550Y7941D01*
X37526Y8019D01*
X37495Y8094D01*
X37457Y8166D01*
X37413Y8235D01*
X37364Y8299D01*
X37309Y8359D01*
X37249Y8414D01*
X37185Y8463D01*
X37116Y8507D01*
X37044Y8545D01*
X36969Y8576D01*
X36891Y8600D01*
X36812Y8618D01*
X36731Y8628D01*
X36650Y8632D01*
X36627Y8630D01*
X36569Y8628D01*
X36488Y8618D01*
X36409Y8600D01*
X36331Y8576D01*
X36256Y8545D01*
X36184Y8507D01*
X36115Y8463D01*
X36051Y8414D01*
X35991Y8359D01*
X35936Y8299D01*
X35887Y8235D01*
X35843Y8166D01*
X35805Y8094D01*
X35799Y8079D01*
Y15476D01*
X36455Y16132D01*
X36462Y16138D01*
X36486Y16165D01*
X36504Y16196D01*
X36518Y16229D01*
X36526Y16264D01*
X36529Y16300D01*
X36529Y16309D01*
Y17259D01*
X36592Y17298D01*
X36651Y17349D01*
X36702Y17408D01*
X36743Y17474D01*
X36773Y17546D01*
X36791Y17622D01*
X36795Y17700D01*
X36791Y17778D01*
X36773Y17854D01*
X36743Y17926D01*
X36702Y17992D01*
X36651Y18051D01*
X36592Y18102D01*
X36526Y18143D01*
X36454Y18173D01*
X36378Y18191D01*
X36300Y18197D01*
X36222Y18191D01*
X36146Y18173D01*
X36074Y18143D01*
X36008Y18102D01*
X35949Y18051D01*
X35898Y17992D01*
X35857Y17926D01*
X35827Y17854D01*
X35809Y17778D01*
X35803Y17700D01*
X35809Y17622D01*
X35827Y17546D01*
X35857Y17474D01*
X35898Y17408D01*
X35949Y17349D01*
X36008Y17298D01*
X36071Y17259D01*
Y16395D01*
X35799Y16123D01*
Y20205D01*
G37*
G36*
Y21195D02*X34019D01*
X34000Y21197D01*
X33981Y21195D01*
X31799D01*
Y27471D01*
X32205D01*
X32377Y27300D01*
X32359Y27228D01*
X32353Y27150D01*
X32359Y27072D01*
X32377Y26996D01*
X32407Y26924D01*
X32448Y26858D01*
X32499Y26799D01*
X32558Y26748D01*
X32624Y26707D01*
X32696Y26677D01*
X32772Y26659D01*
X32850Y26653D01*
X32928Y26659D01*
X33004Y26677D01*
X33076Y26707D01*
X33142Y26748D01*
X33201Y26799D01*
X33252Y26858D01*
X33293Y26924D01*
X33323Y26996D01*
X33341Y27072D01*
X33345Y27150D01*
X33344Y27176D01*
X33374Y27157D01*
X33446Y27127D01*
X33522Y27109D01*
X33600Y27103D01*
X33678Y27109D01*
X33754Y27127D01*
X33826Y27157D01*
X33828Y27159D01*
X33807Y27126D01*
X33777Y27054D01*
X33759Y26978D01*
X33753Y26900D01*
X33759Y26822D01*
X33777Y26746D01*
X33807Y26674D01*
X33848Y26608D01*
X33899Y26549D01*
X33958Y26498D01*
X34024Y26457D01*
X34096Y26427D01*
X34172Y26409D01*
X34250Y26403D01*
X34300Y26407D01*
X34277Y26354D01*
X34259Y26278D01*
X34253Y26200D01*
X34259Y26122D01*
X34277Y26046D01*
X34307Y25974D01*
X34348Y25908D01*
X34399Y25849D01*
X34458Y25798D01*
X34524Y25757D01*
X34596Y25727D01*
X34672Y25709D01*
X34750Y25703D01*
X34800Y25707D01*
X34777Y25654D01*
X34759Y25578D01*
X34753Y25500D01*
X34759Y25422D01*
X34777Y25346D01*
X34807Y25274D01*
X34848Y25208D01*
X34899Y25149D01*
X34958Y25098D01*
X35024Y25057D01*
X35096Y25027D01*
X35172Y25009D01*
X35250Y25003D01*
X35328Y25009D01*
X35404Y25027D01*
X35476Y25057D01*
X35542Y25098D01*
X35601Y25149D01*
X35652Y25208D01*
X35693Y25274D01*
X35723Y25346D01*
X35741Y25422D01*
X35745Y25500D01*
X35741Y25578D01*
X35723Y25654D01*
X35693Y25726D01*
X35652Y25792D01*
X35601Y25851D01*
X35579Y25871D01*
Y26050D01*
X35579Y26050D01*
Y26399D01*
X35579Y26408D01*
X35577Y26435D01*
X35596Y26427D01*
X35672Y26409D01*
X35750Y26403D01*
X35799Y26407D01*
Y26406D01*
X35777Y26354D01*
X35759Y26278D01*
X35753Y26200D01*
X35759Y26122D01*
X35777Y26046D01*
X35799Y25994D01*
Y21195D01*
G37*
G36*
X34840Y10377D02*X34847Y10325D01*
X34850Y10250D01*
X34847Y10175D01*
X34840Y10123D01*
Y10377D01*
G37*
G36*
Y15117D02*X34857Y15074D01*
X34898Y15008D01*
X34949Y14949D01*
X35008Y14898D01*
X35074Y14857D01*
X35146Y14827D01*
X35222Y14809D01*
X35300Y14803D01*
X35378Y14809D01*
X35454Y14827D01*
X35526Y14857D01*
X35592Y14898D01*
X35651Y14949D01*
X35702Y15008D01*
X35743Y15074D01*
X35773Y15146D01*
X35791Y15222D01*
X35795Y15300D01*
X35791Y15378D01*
X35773Y15450D01*
X35799Y15476D01*
Y8079D01*
X35774Y8019D01*
X35750Y7941D01*
X35732Y7862D01*
X35722Y7781D01*
X35718Y7700D01*
X35719Y7688D01*
Y1381D01*
X34840D01*
Y9704D01*
X34865Y9741D01*
X34906Y9819D01*
X34941Y9901D01*
X34968Y9986D01*
X34988Y10073D01*
X34999Y10161D01*
X35003Y10250D01*
X34999Y10339D01*
X34988Y10427D01*
X34968Y10514D01*
X34941Y10599D01*
X34906Y10681D01*
X34865Y10759D01*
X34840Y10797D01*
Y15117D01*
G37*
G36*
Y20205D02*X35799D01*
Y16123D01*
X35450Y15773D01*
X35378Y15791D01*
X35300Y15797D01*
X35222Y15791D01*
X35146Y15773D01*
X35074Y15743D01*
X35008Y15702D01*
X34949Y15651D01*
X34898Y15592D01*
X34857Y15526D01*
X34840Y15483D01*
Y20205D01*
G37*
G36*
X34781Y1381D02*Y7700D01*
X34781Y7700D01*
X34778Y7781D01*
X34768Y7862D01*
X34750Y7941D01*
X34726Y8019D01*
X34695Y8094D01*
X34657Y8166D01*
X34613Y8235D01*
X34564Y8299D01*
X34509Y8359D01*
X34449Y8414D01*
X34385Y8463D01*
X34316Y8507D01*
X34244Y8545D01*
X34169Y8576D01*
X34091Y8600D01*
X34012Y8618D01*
X34000Y8619D01*
Y9247D01*
X34089Y9251D01*
X34177Y9262D01*
X34264Y9282D01*
X34349Y9309D01*
X34431Y9344D01*
X34509Y9385D01*
X34584Y9434D01*
X34593Y9442D01*
X34601Y9451D01*
X34607Y9461D01*
X34612Y9472D01*
X34615Y9484D01*
X34616Y9496D01*
X34615Y9508D01*
X34612Y9520D01*
X34608Y9531D01*
X34602Y9542D01*
X34594Y9551D01*
X34585Y9559D01*
X34574Y9565D01*
X34563Y9570D01*
X34551Y9573D01*
X34539Y9574D01*
X34527Y9573D01*
X34515Y9570D01*
X34504Y9566D01*
X34494Y9559D01*
X34431Y9518D01*
X34365Y9482D01*
X34295Y9453D01*
X34224Y9430D01*
X34150Y9413D01*
X34075Y9403D01*
X34000Y9400D01*
Y11100D01*
X34075Y11097D01*
X34150Y11087D01*
X34224Y11070D01*
X34295Y11047D01*
X34365Y11018D01*
X34431Y10982D01*
X34494Y10941D01*
X34505Y10935D01*
X34516Y10930D01*
X34527Y10928D01*
X34539Y10927D01*
X34551Y10928D01*
X34563Y10931D01*
X34574Y10936D01*
X34584Y10942D01*
X34593Y10950D01*
X34601Y10959D01*
X34607Y10969D01*
X34612Y10980D01*
X34614Y10992D01*
X34615Y11004D01*
X34614Y11016D01*
X34611Y11028D01*
X34607Y11039D01*
X34600Y11049D01*
X34592Y11058D01*
X34583Y11065D01*
X34509Y11115D01*
X34431Y11156D01*
X34349Y11191D01*
X34264Y11218D01*
X34177Y11238D01*
X34089Y11249D01*
X34000Y11253D01*
Y20203D01*
X34019Y20205D01*
X34840D01*
Y15483D01*
X34827Y15454D01*
X34809Y15378D01*
X34803Y15300D01*
X34809Y15222D01*
X34827Y15146D01*
X34840Y15117D01*
Y10797D01*
X34816Y10834D01*
X34808Y10843D01*
X34799Y10851D01*
X34789Y10857D01*
X34778Y10862D01*
X34766Y10865D01*
X34754Y10866D01*
X34742Y10865D01*
X34730Y10862D01*
X34719Y10858D01*
X34708Y10852D01*
X34699Y10844D01*
X34691Y10835D01*
X34685Y10824D01*
X34680Y10813D01*
X34677Y10801D01*
X34676Y10789D01*
X34677Y10777D01*
X34680Y10765D01*
X34684Y10754D01*
X34691Y10744D01*
X34732Y10681D01*
X34768Y10615D01*
X34797Y10545D01*
X34820Y10474D01*
X34837Y10400D01*
X34840Y10377D01*
Y10123D01*
X34837Y10100D01*
X34820Y10026D01*
X34797Y9955D01*
X34768Y9885D01*
X34732Y9819D01*
X34691Y9756D01*
X34685Y9745D01*
X34680Y9734D01*
X34678Y9723D01*
X34677Y9711D01*
X34678Y9699D01*
X34681Y9687D01*
X34686Y9676D01*
X34692Y9666D01*
X34700Y9657D01*
X34709Y9649D01*
X34719Y9643D01*
X34730Y9638D01*
X34742Y9636D01*
X34754Y9635D01*
X34766Y9636D01*
X34778Y9639D01*
X34789Y9643D01*
X34799Y9650D01*
X34808Y9658D01*
X34815Y9667D01*
X34840Y9704D01*
Y1381D01*
X34781D01*
G37*
G36*
X34000Y8619D02*X33931Y8628D01*
X33850Y8632D01*
X33827Y8630D01*
X33769Y8628D01*
X33688Y8618D01*
X33609Y8600D01*
X33531Y8576D01*
X33456Y8545D01*
X33384Y8507D01*
X33315Y8463D01*
X33251Y8414D01*
X33191Y8359D01*
X33160Y8325D01*
Y9703D01*
X33184Y9666D01*
X33192Y9657D01*
X33201Y9649D01*
X33211Y9643D01*
X33222Y9638D01*
X33234Y9635D01*
X33246Y9634D01*
X33258Y9635D01*
X33270Y9638D01*
X33281Y9642D01*
X33292Y9648D01*
X33301Y9656D01*
X33309Y9665D01*
X33315Y9676D01*
X33320Y9687D01*
X33323Y9699D01*
X33324Y9711D01*
X33323Y9723D01*
X33320Y9735D01*
X33316Y9746D01*
X33309Y9756D01*
X33268Y9819D01*
X33232Y9885D01*
X33203Y9955D01*
X33180Y10026D01*
X33163Y10100D01*
X33160Y10123D01*
Y10377D01*
X33163Y10400D01*
X33180Y10474D01*
X33203Y10545D01*
X33232Y10615D01*
X33268Y10681D01*
X33309Y10744D01*
X33315Y10755D01*
X33320Y10766D01*
X33322Y10777D01*
X33323Y10789D01*
X33322Y10801D01*
X33319Y10813D01*
X33314Y10824D01*
X33308Y10834D01*
X33300Y10843D01*
X33291Y10851D01*
X33281Y10857D01*
X33270Y10862D01*
X33258Y10864D01*
X33246Y10865D01*
X33234Y10864D01*
X33222Y10861D01*
X33211Y10857D01*
X33201Y10850D01*
X33192Y10842D01*
X33185Y10833D01*
X33160Y10796D01*
Y18517D01*
X33173Y18546D01*
X33191Y18622D01*
X33195Y18700D01*
X33191Y18778D01*
X33173Y18854D01*
X33160Y18883D01*
Y20205D01*
X33981D01*
X34000Y20203D01*
X34000Y20203D01*
Y11253D01*
X34000Y11253D01*
X33911Y11249D01*
X33823Y11238D01*
X33736Y11218D01*
X33651Y11191D01*
X33569Y11156D01*
X33491Y11115D01*
X33416Y11066D01*
X33407Y11058D01*
X33399Y11049D01*
X33393Y11039D01*
X33388Y11028D01*
X33385Y11016D01*
X33384Y11004D01*
X33385Y10992D01*
X33388Y10980D01*
X33392Y10969D01*
X33398Y10958D01*
X33406Y10949D01*
X33415Y10941D01*
X33426Y10935D01*
X33437Y10930D01*
X33449Y10927D01*
X33461Y10926D01*
X33473Y10927D01*
X33485Y10930D01*
X33496Y10934D01*
X33506Y10941D01*
X33569Y10982D01*
X33635Y11018D01*
X33705Y11047D01*
X33776Y11070D01*
X33850Y11087D01*
X33925Y11097D01*
X34000Y11100D01*
X34000Y11100D01*
Y9400D01*
X34000Y9400D01*
X33925Y9403D01*
X33850Y9413D01*
X33776Y9430D01*
X33705Y9453D01*
X33635Y9482D01*
X33569Y9518D01*
X33506Y9559D01*
X33495Y9565D01*
X33484Y9570D01*
X33473Y9572D01*
X33461Y9573D01*
X33449Y9572D01*
X33437Y9569D01*
X33426Y9564D01*
X33416Y9558D01*
X33407Y9550D01*
X33399Y9541D01*
X33393Y9531D01*
X33388Y9520D01*
X33386Y9508D01*
X33385Y9496D01*
X33386Y9484D01*
X33389Y9472D01*
X33393Y9461D01*
X33400Y9451D01*
X33408Y9442D01*
X33417Y9435D01*
X33491Y9385D01*
X33569Y9344D01*
X33651Y9309D01*
X33736Y9282D01*
X33823Y9262D01*
X33911Y9251D01*
X34000Y9247D01*
X34000Y9247D01*
Y8619D01*
G37*
G36*
X33160Y10123D02*X33153Y10175D01*
X33150Y10250D01*
X33153Y10325D01*
X33160Y10377D01*
Y10123D01*
G37*
G36*
Y18883D02*X33143Y18926D01*
X33102Y18992D01*
X33051Y19051D01*
X32992Y19102D01*
X32926Y19143D01*
X32854Y19173D01*
X32778Y19191D01*
X32700Y19197D01*
X32622Y19191D01*
X32546Y19173D01*
X32474Y19143D01*
X32408Y19102D01*
X32349Y19051D01*
X32298Y18992D01*
X32257Y18926D01*
X32227Y18854D01*
X32209Y18778D01*
X32203Y18700D01*
X32209Y18622D01*
X32227Y18546D01*
X32257Y18474D01*
X32298Y18408D01*
X32349Y18349D01*
X32408Y18298D01*
X32471Y18259D01*
Y14295D01*
X32022Y13845D01*
X32026Y13864D01*
X32029Y13900D01*
X32029Y13909D01*
Y17459D01*
X32092Y17498D01*
X32151Y17549D01*
X32202Y17608D01*
X32243Y17674D01*
X32273Y17746D01*
X32291Y17822D01*
X32295Y17900D01*
X32291Y17978D01*
X32273Y18054D01*
X32243Y18126D01*
X32202Y18192D01*
X32151Y18251D01*
X32092Y18302D01*
X32026Y18343D01*
X31954Y18373D01*
X31878Y18391D01*
X31800Y18397D01*
X31799Y18397D01*
Y20205D01*
X33160D01*
Y18883D01*
G37*
G36*
Y8325D02*X33136Y8299D01*
X33087Y8235D01*
X33043Y8166D01*
X33005Y8094D01*
X32974Y8019D01*
X32950Y7941D01*
X32932Y7862D01*
X32922Y7781D01*
X32918Y7700D01*
X32919Y7688D01*
Y1381D01*
X31799D01*
Y12976D01*
X32855Y14032D01*
X32862Y14038D01*
X32886Y14065D01*
X32904Y14096D01*
X32918Y14129D01*
X32926Y14164D01*
X32929Y14200D01*
X32929Y14209D01*
Y18259D01*
X32992Y18298D01*
X33051Y18349D01*
X33102Y18408D01*
X33143Y18474D01*
X33160Y18517D01*
Y10796D01*
X33135Y10759D01*
X33094Y10681D01*
X33059Y10599D01*
X33032Y10514D01*
X33012Y10427D01*
X33001Y10339D01*
X32997Y10250D01*
X33001Y10161D01*
X33012Y10073D01*
X33032Y9986D01*
X33059Y9901D01*
X33094Y9819D01*
X33135Y9741D01*
X33160Y9703D01*
Y8325D01*
G37*
G36*
X28349Y45848D02*X28408Y45798D01*
X28471Y45759D01*
Y44495D01*
X28349Y44373D01*
Y45848D01*
G37*
G36*
X31799Y21195D02*X29300D01*
Y26300D01*
X28349D01*
Y38443D01*
X28904D01*
X28915Y38442D01*
X28958Y38445D01*
X28958Y38445D01*
X28999Y38455D01*
X29039Y38472D01*
X29076Y38494D01*
X29108Y38522D01*
X29115Y38530D01*
X30300Y39715D01*
X30322Y39709D01*
X30400Y39703D01*
X30478Y39709D01*
X30554Y39727D01*
X30626Y39757D01*
X30692Y39798D01*
X30751Y39849D01*
X30802Y39908D01*
X30843Y39974D01*
X30873Y40046D01*
X30891Y40122D01*
X30895Y40200D01*
X30891Y40278D01*
X30873Y40354D01*
X30843Y40426D01*
X30802Y40492D01*
X30751Y40551D01*
X30692Y40602D01*
X30626Y40643D01*
X30554Y40673D01*
X30478Y40691D01*
X30400Y40697D01*
X30322Y40691D01*
X30246Y40673D01*
X30174Y40643D01*
X30108Y40602D01*
X30049Y40551D01*
X29998Y40492D01*
X29957Y40426D01*
X29927Y40354D01*
X29909Y40278D01*
X29903Y40200D01*
X29909Y40122D01*
X29915Y40100D01*
X28802Y38987D01*
X28349D01*
Y43347D01*
X28351Y43349D01*
X28402Y43408D01*
X28443Y43474D01*
X28473Y43546D01*
X28491Y43622D01*
X28495Y43700D01*
X28491Y43778D01*
X28473Y43850D01*
X28855Y44232D01*
X28862Y44238D01*
X28886Y44265D01*
X28904Y44296D01*
X28918Y44329D01*
X28926Y44364D01*
X28929Y44400D01*
X28929Y44409D01*
Y45759D01*
X28992Y45798D01*
X29051Y45849D01*
X29102Y45908D01*
X29143Y45974D01*
X29173Y46046D01*
X29191Y46122D01*
X29195Y46200D01*
X29191Y46278D01*
X29173Y46354D01*
X29143Y46426D01*
X29102Y46492D01*
X29051Y46551D01*
X28992Y46602D01*
X28926Y46643D01*
X28854Y46673D01*
X28778Y46691D01*
X28700Y46697D01*
X28622Y46691D01*
X28546Y46673D01*
X28474Y46643D01*
X28408Y46602D01*
X28349Y46552D01*
Y47533D01*
X28438Y47457D01*
X28566Y47379D01*
X28705Y47321D01*
X28851Y47286D01*
X29000Y47275D01*
X29149Y47286D01*
X29295Y47321D01*
X29434Y47379D01*
X29562Y47457D01*
X29676Y47554D01*
X29773Y47668D01*
X29851Y47796D01*
X29909Y47935D01*
X29944Y48081D01*
X29952Y48230D01*
X29944Y48379D01*
X29909Y48525D01*
X29851Y48664D01*
X29773Y48792D01*
X29676Y48906D01*
X29562Y49003D01*
X29434Y49081D01*
X29295Y49139D01*
X29149Y49174D01*
X29000Y49185D01*
X28851Y49174D01*
X28705Y49139D01*
X28566Y49081D01*
X28438Y49003D01*
X28349Y48927D01*
Y50073D01*
X28438Y49997D01*
X28566Y49919D01*
X28705Y49861D01*
X28851Y49826D01*
X29000Y49815D01*
X29149Y49826D01*
X29295Y49861D01*
X29434Y49919D01*
X29562Y49997D01*
X29676Y50094D01*
X29773Y50208D01*
X29851Y50336D01*
X29909Y50475D01*
X29944Y50621D01*
X29952Y50770D01*
X29944Y50919D01*
X29909Y51065D01*
X29851Y51204D01*
X29773Y51332D01*
X29676Y51446D01*
X29562Y51543D01*
X29434Y51621D01*
X29295Y51679D01*
X29149Y51714D01*
X29000Y51725D01*
X28851Y51714D01*
X28705Y51679D01*
X28566Y51621D01*
X28438Y51543D01*
X28349Y51467D01*
Y60619D01*
X31799D01*
Y51687D01*
X31689Y51714D01*
X31540Y51725D01*
X31391Y51714D01*
X31245Y51679D01*
X31106Y51621D01*
X30978Y51543D01*
X30864Y51446D01*
X30767Y51332D01*
X30689Y51204D01*
X30631Y51065D01*
X30596Y50919D01*
X30585Y50770D01*
X30596Y50621D01*
X30631Y50475D01*
X30689Y50336D01*
X30767Y50208D01*
X30864Y50094D01*
X30978Y49997D01*
X31106Y49919D01*
X31245Y49861D01*
X31391Y49826D01*
X31540Y49815D01*
X31689Y49826D01*
X31799Y49853D01*
Y49147D01*
X31689Y49174D01*
X31540Y49185D01*
X31391Y49174D01*
X31245Y49139D01*
X31106Y49081D01*
X30978Y49003D01*
X30864Y48906D01*
X30767Y48792D01*
X30689Y48664D01*
X30631Y48525D01*
X30596Y48379D01*
X30585Y48230D01*
X30596Y48081D01*
X30631Y47935D01*
X30689Y47796D01*
X30767Y47668D01*
X30864Y47554D01*
X30978Y47457D01*
X31106Y47379D01*
X31245Y47321D01*
X31391Y47286D01*
X31540Y47275D01*
X31689Y47286D01*
X31799Y47313D01*
Y46697D01*
X31722Y46691D01*
X31646Y46673D01*
X31574Y46643D01*
X31508Y46602D01*
X31449Y46551D01*
X31398Y46492D01*
X31357Y46426D01*
X31327Y46354D01*
X31309Y46278D01*
X31303Y46200D01*
X31309Y46122D01*
X31327Y46046D01*
X31357Y45974D01*
X31398Y45908D01*
X31449Y45849D01*
X31508Y45798D01*
X31571Y45759D01*
Y45241D01*
X31508Y45202D01*
X31449Y45151D01*
X31398Y45092D01*
X31357Y45026D01*
X31327Y44954D01*
X31309Y44878D01*
X31303Y44800D01*
X31309Y44722D01*
X31327Y44646D01*
X31357Y44574D01*
X31398Y44508D01*
X31449Y44449D01*
X31508Y44398D01*
X31574Y44357D01*
X31646Y44327D01*
X31722Y44309D01*
X31799Y44303D01*
Y28329D01*
X31395D01*
X31173Y28550D01*
X31191Y28622D01*
X31195Y28700D01*
X31191Y28778D01*
X31173Y28854D01*
X31143Y28926D01*
X31102Y28992D01*
X31051Y29051D01*
X30992Y29102D01*
X30926Y29143D01*
X30854Y29173D01*
X30778Y29191D01*
X30700Y29197D01*
X30622Y29191D01*
X30546Y29173D01*
X30474Y29143D01*
X30408Y29102D01*
X30349Y29051D01*
X30298Y28992D01*
X30257Y28926D01*
X30227Y28854D01*
X30209Y28778D01*
X30203Y28700D01*
X30209Y28622D01*
X30227Y28546D01*
X30257Y28474D01*
X30298Y28408D01*
X30349Y28349D01*
X30408Y28298D01*
X30474Y28257D01*
X30492Y28250D01*
X30474Y28243D01*
X30408Y28202D01*
X30349Y28151D01*
X30298Y28092D01*
X30257Y28026D01*
X30227Y27954D01*
X30209Y27878D01*
X30203Y27800D01*
X30209Y27722D01*
X30227Y27646D01*
X30257Y27574D01*
X30298Y27508D01*
X30349Y27449D01*
X30408Y27398D01*
X30474Y27357D01*
X30546Y27327D01*
X30622Y27309D01*
X30700Y27303D01*
X30778Y27309D01*
X30854Y27327D01*
X30926Y27357D01*
X30992Y27398D01*
X31051Y27449D01*
X31071Y27471D01*
X31799D01*
Y21195D01*
G37*
G36*
X28349Y38987D02*X26805D01*
X26802Y38992D01*
X26751Y39051D01*
X26692Y39102D01*
X26626Y39143D01*
X26554Y39173D01*
X26478Y39191D01*
X26400Y39197D01*
X26336Y39192D01*
X26299Y39228D01*
Y39815D01*
X26322Y39809D01*
X26400Y39803D01*
X26478Y39809D01*
X26554Y39827D01*
X26626Y39857D01*
X26692Y39898D01*
X26751Y39949D01*
X26764Y39964D01*
X27086Y40286D01*
X27101Y40299D01*
X27152Y40358D01*
X27193Y40424D01*
X27223Y40496D01*
X27241Y40572D01*
X27247Y40650D01*
X27245Y40669D01*
Y42581D01*
X27247Y42600D01*
X27241Y42678D01*
X27241Y42678D01*
X27223Y42754D01*
X27193Y42826D01*
X27152Y42892D01*
X27101Y42951D01*
X27086Y42964D01*
X26299Y43751D01*
Y44303D01*
X26300Y44303D01*
X26378Y44309D01*
X26454Y44327D01*
X26526Y44357D01*
X26592Y44398D01*
X26651Y44449D01*
X26702Y44508D01*
X26743Y44574D01*
X26773Y44646D01*
X26791Y44722D01*
X26795Y44800D01*
X26791Y44878D01*
X26773Y44954D01*
X26743Y45026D01*
X26702Y45092D01*
X26651Y45151D01*
X26592Y45202D01*
X26529Y45241D01*
Y45759D01*
X26592Y45798D01*
X26651Y45849D01*
X26702Y45908D01*
X26743Y45974D01*
X26773Y46046D01*
X26791Y46122D01*
X26795Y46200D01*
X26791Y46278D01*
X26773Y46354D01*
X26743Y46426D01*
X26702Y46492D01*
X26651Y46551D01*
X26592Y46602D01*
X26526Y46643D01*
X26454Y46673D01*
X26378Y46691D01*
X26300Y46697D01*
X26299Y46697D01*
Y47289D01*
X26311Y47286D01*
X26460Y47275D01*
X26609Y47286D01*
X26755Y47321D01*
X26894Y47379D01*
X27022Y47457D01*
X27136Y47554D01*
X27233Y47668D01*
X27311Y47796D01*
X27369Y47935D01*
X27404Y48081D01*
X27412Y48230D01*
X27404Y48379D01*
X27369Y48525D01*
X27311Y48664D01*
X27233Y48792D01*
X27136Y48906D01*
X27022Y49003D01*
X26894Y49081D01*
X26755Y49139D01*
X26609Y49174D01*
X26460Y49185D01*
X26311Y49174D01*
X26299Y49171D01*
Y49829D01*
X26311Y49826D01*
X26460Y49815D01*
X26609Y49826D01*
X26755Y49861D01*
X26894Y49919D01*
X27022Y49997D01*
X27136Y50094D01*
X27233Y50208D01*
X27311Y50336D01*
X27369Y50475D01*
X27404Y50621D01*
X27412Y50770D01*
X27404Y50919D01*
X27369Y51065D01*
X27311Y51204D01*
X27233Y51332D01*
X27136Y51446D01*
X27022Y51543D01*
X26894Y51621D01*
X26755Y51679D01*
X26609Y51714D01*
X26460Y51725D01*
X26311Y51714D01*
X26299Y51711D01*
Y60619D01*
X28349D01*
Y51467D01*
X28324Y51446D01*
X28227Y51332D01*
X28149Y51204D01*
X28091Y51065D01*
X28056Y50919D01*
X28045Y50770D01*
X28056Y50621D01*
X28091Y50475D01*
X28149Y50336D01*
X28227Y50208D01*
X28324Y50094D01*
X28349Y50073D01*
Y48927D01*
X28324Y48906D01*
X28227Y48792D01*
X28149Y48664D01*
X28091Y48525D01*
X28056Y48379D01*
X28045Y48230D01*
X28056Y48081D01*
X28091Y47935D01*
X28149Y47796D01*
X28227Y47668D01*
X28324Y47554D01*
X28349Y47533D01*
Y46552D01*
X28349Y46551D01*
X28298Y46492D01*
X28257Y46426D01*
X28227Y46354D01*
X28209Y46278D01*
X28203Y46200D01*
X28209Y46122D01*
X28227Y46046D01*
X28257Y45974D01*
X28298Y45908D01*
X28349Y45849D01*
X28349Y45848D01*
Y44373D01*
X28150Y44173D01*
X28078Y44191D01*
X28000Y44197D01*
X27922Y44191D01*
X27846Y44173D01*
X27774Y44143D01*
X27708Y44102D01*
X27649Y44051D01*
X27598Y43992D01*
X27557Y43926D01*
X27527Y43854D01*
X27509Y43778D01*
X27503Y43700D01*
X27509Y43622D01*
X27527Y43546D01*
X27557Y43474D01*
X27598Y43408D01*
X27649Y43349D01*
X27708Y43298D01*
X27774Y43257D01*
X27846Y43227D01*
X27922Y43209D01*
X28000Y43203D01*
X28078Y43209D01*
X28154Y43227D01*
X28226Y43257D01*
X28292Y43298D01*
X28349Y43347D01*
Y38987D01*
G37*
G36*
Y26300D02*X26299D01*
Y38215D01*
X26322Y38209D01*
X26400Y38203D01*
X26478Y38209D01*
X26554Y38227D01*
X26626Y38257D01*
X26692Y38298D01*
X26751Y38349D01*
X26802Y38408D01*
X26823Y38443D01*
X28349D01*
Y26300D01*
G37*
G36*
X30498Y12371D02*X30500Y12371D01*
X30536Y12374D01*
X30536Y12374D01*
X30555Y12378D01*
X30498Y12322D01*
Y12371D01*
G37*
G36*
Y20205D02*X31799D01*
Y18397D01*
X31722Y18391D01*
X31646Y18373D01*
X31574Y18343D01*
X31508Y18302D01*
X31449Y18251D01*
X31398Y18192D01*
X31357Y18126D01*
X31327Y18054D01*
X31309Y17978D01*
X31303Y17900D01*
X31309Y17822D01*
X31327Y17746D01*
X31357Y17674D01*
X31398Y17608D01*
X31449Y17549D01*
X31508Y17498D01*
X31571Y17459D01*
Y13995D01*
X30498Y12922D01*
Y20205D01*
G37*
G36*
X31799Y1381D02*X30710D01*
Y1718D01*
X30826Y1746D01*
X30979Y1809D01*
X31120Y1896D01*
X31246Y2004D01*
X31354Y2130D01*
X31441Y2271D01*
X31504Y2424D01*
X31543Y2585D01*
X31552Y2750D01*
X31543Y2915D01*
X31504Y3076D01*
X31441Y3229D01*
X31354Y3370D01*
X31246Y3496D01*
X31120Y3604D01*
X30979Y3691D01*
X30826Y3754D01*
X30710Y3782D01*
Y9379D01*
X30749Y9442D01*
X30783Y9512D01*
X30811Y9584D01*
X30831Y9658D01*
X30845Y9734D01*
X30852Y9811D01*
Y9889D01*
X30845Y9966D01*
X30831Y10042D01*
X30811Y10116D01*
X30783Y10188D01*
X30749Y10258D01*
X30710Y10323D01*
Y11887D01*
X31799Y12976D01*
Y1381D01*
G37*
G36*
X30710Y3782D02*X30665Y3793D01*
X30500Y3806D01*
X30498Y3806D01*
Y9167D01*
X30499Y9167D01*
X30504Y9178D01*
X30507Y9190D01*
X30508Y9202D01*
X30508Y9214D01*
X30505Y9226D01*
X30501Y9237D01*
X30498Y9242D01*
Y10459D01*
X30501Y10463D01*
X30505Y10475D01*
X30507Y10486D01*
X30508Y10498D01*
X30506Y10510D01*
X30503Y10522D01*
X30498Y10532D01*
Y11675D01*
X30710Y11887D01*
Y10323D01*
X30709Y10324D01*
X30702Y10334D01*
X30693Y10342D01*
X30683Y10349D01*
X30672Y10354D01*
X30660Y10357D01*
X30648Y10358D01*
X30636Y10358D01*
X30624Y10356D01*
X30613Y10351D01*
X30603Y10345D01*
X30593Y10338D01*
X30585Y10329D01*
X30578Y10319D01*
X30573Y10308D01*
X30570Y10296D01*
X30568Y10284D01*
X30569Y10272D01*
X30571Y10260D01*
X30575Y10249D01*
X30581Y10239D01*
X30615Y10185D01*
X30643Y10128D01*
X30665Y10068D01*
X30682Y10007D01*
X30694Y9945D01*
X30699Y9882D01*
Y9818D01*
X30694Y9755D01*
X30682Y9693D01*
X30665Y9632D01*
X30643Y9572D01*
X30615Y9515D01*
X30582Y9461D01*
X30576Y9451D01*
X30572Y9440D01*
X30569Y9428D01*
X30569Y9416D01*
X30570Y9404D01*
X30574Y9392D01*
X30579Y9381D01*
X30585Y9371D01*
X30594Y9363D01*
X30603Y9355D01*
X30613Y9349D01*
X30625Y9345D01*
X30636Y9343D01*
X30648Y9342D01*
X30660Y9344D01*
X30672Y9347D01*
X30683Y9352D01*
X30693Y9359D01*
X30702Y9367D01*
X30709Y9376D01*
X30710Y9379D01*
Y3782D01*
G37*
G36*
Y1381D02*X30498D01*
Y1694D01*
X30500Y1694D01*
X30665Y1707D01*
X30710Y1718D01*
Y1381D01*
G37*
G36*
X29290Y12371D02*X30491D01*
X30498Y12371D01*
Y12322D01*
X30205Y12029D01*
X29290D01*
Y12371D01*
G37*
G36*
Y14339D02*X29486Y14536D01*
X29501Y14549D01*
X29552Y14608D01*
X29593Y14674D01*
X29623Y14746D01*
X29641Y14822D01*
X29647Y14900D01*
X29645Y14919D01*
Y19181D01*
X29647Y19200D01*
X29641Y19278D01*
X29641Y19278D01*
X29623Y19354D01*
X29593Y19426D01*
X29552Y19492D01*
X29501Y19551D01*
X29486Y19564D01*
X29300Y19750D01*
Y20205D01*
X30498D01*
Y12922D01*
X30405Y12829D01*
X29290D01*
Y14339D01*
G37*
G36*
X30498Y1381D02*X29290D01*
Y9377D01*
X29291Y9376D01*
X29298Y9366D01*
X29307Y9358D01*
X29317Y9351D01*
X29328Y9346D01*
X29340Y9343D01*
X29352Y9342D01*
X29364Y9342D01*
X29376Y9345D01*
X29387Y9349D01*
X29397Y9355D01*
X29407Y9362D01*
X29415Y9371D01*
X29422Y9381D01*
X29427Y9392D01*
X29430Y9404D01*
X29432Y9416D01*
X29431Y9428D01*
X29429Y9440D01*
X29425Y9451D01*
X29419Y9461D01*
X29385Y9515D01*
X29357Y9572D01*
X29335Y9632D01*
X29318Y9693D01*
X29306Y9755D01*
X29301Y9818D01*
Y9882D01*
X29306Y9945D01*
X29318Y10007D01*
X29335Y10068D01*
X29357Y10128D01*
X29385Y10185D01*
X29418Y10239D01*
X29424Y10249D01*
X29428Y10260D01*
X29431Y10272D01*
X29431Y10284D01*
X29430Y10296D01*
X29426Y10308D01*
X29421Y10319D01*
X29415Y10329D01*
X29406Y10337D01*
X29397Y10345D01*
X29387Y10351D01*
X29375Y10355D01*
X29364Y10357D01*
X29352Y10358D01*
X29340Y10356D01*
X29328Y10353D01*
X29317Y10348D01*
X29307Y10341D01*
X29298Y10333D01*
X29291Y10324D01*
X29290Y10321D01*
Y11571D01*
X30291D01*
X30300Y11571D01*
X30336Y11574D01*
X30336Y11574D01*
X30371Y11582D01*
X30404Y11596D01*
X30435Y11614D01*
X30462Y11638D01*
X30468Y11645D01*
X30498Y11675D01*
Y10532D01*
X30498Y10533D01*
X30491Y10543D01*
X30483Y10552D01*
X30474Y10559D01*
X30408Y10599D01*
X30338Y10633D01*
X30266Y10661D01*
X30192Y10681D01*
X30116Y10695D01*
X30039Y10702D01*
X29961D01*
X29884Y10695D01*
X29808Y10681D01*
X29734Y10661D01*
X29662Y10633D01*
X29592Y10599D01*
X29526Y10559D01*
X29516Y10552D01*
X29508Y10543D01*
X29501Y10533D01*
X29496Y10522D01*
X29493Y10510D01*
X29492Y10498D01*
X29492Y10486D01*
X29494Y10474D01*
X29499Y10463D01*
X29505Y10453D01*
X29512Y10443D01*
X29521Y10435D01*
X29531Y10428D01*
X29542Y10423D01*
X29554Y10420D01*
X29566Y10418D01*
X29578Y10419D01*
X29590Y10421D01*
X29601Y10425D01*
X29611Y10431D01*
X29665Y10465D01*
X29722Y10493D01*
X29782Y10515D01*
X29843Y10532D01*
X29905Y10544D01*
X29968Y10549D01*
X30032D01*
X30095Y10544D01*
X30157Y10532D01*
X30218Y10515D01*
X30278Y10493D01*
X30335Y10465D01*
X30389Y10432D01*
X30399Y10426D01*
X30410Y10422D01*
X30422Y10419D01*
X30434Y10419D01*
X30446Y10420D01*
X30458Y10424D01*
X30469Y10429D01*
X30479Y10435D01*
X30487Y10444D01*
X30495Y10453D01*
X30498Y10459D01*
Y9242D01*
X30495Y9247D01*
X30488Y9257D01*
X30479Y9265D01*
X30469Y9272D01*
X30458Y9277D01*
X30446Y9280D01*
X30434Y9282D01*
X30422Y9281D01*
X30410Y9279D01*
X30399Y9275D01*
X30389Y9269D01*
X30335Y9235D01*
X30278Y9207D01*
X30218Y9185D01*
X30157Y9168D01*
X30095Y9156D01*
X30032Y9151D01*
X29968D01*
X29905Y9156D01*
X29843Y9168D01*
X29782Y9185D01*
X29722Y9207D01*
X29665Y9235D01*
X29611Y9268D01*
X29601Y9274D01*
X29590Y9278D01*
X29578Y9281D01*
X29566Y9281D01*
X29554Y9280D01*
X29542Y9276D01*
X29531Y9271D01*
X29521Y9265D01*
X29513Y9256D01*
X29505Y9247D01*
X29499Y9237D01*
X29495Y9225D01*
X29493Y9214D01*
X29492Y9202D01*
X29494Y9190D01*
X29497Y9178D01*
X29502Y9167D01*
X29509Y9157D01*
X29517Y9148D01*
X29526Y9141D01*
X29592Y9101D01*
X29662Y9067D01*
X29734Y9039D01*
X29808Y9019D01*
X29884Y9005D01*
X29961Y8998D01*
X30039D01*
X30116Y9005D01*
X30192Y9019D01*
X30266Y9039D01*
X30338Y9067D01*
X30408Y9101D01*
X30474Y9141D01*
X30484Y9148D01*
X30492Y9157D01*
X30498Y9167D01*
Y3806D01*
X30335Y3793D01*
X30174Y3754D01*
X30021Y3691D01*
X29880Y3604D01*
X29754Y3496D01*
X29646Y3370D01*
X29559Y3229D01*
X29496Y3076D01*
X29457Y2915D01*
X29444Y2750D01*
X29457Y2585D01*
X29496Y2424D01*
X29559Y2271D01*
X29646Y2130D01*
X29754Y2004D01*
X29880Y1896D01*
X30021Y1809D01*
X30174Y1746D01*
X30335Y1707D01*
X30498Y1694D01*
Y1381D01*
G37*
G36*
X29290D02*X26299D01*
Y9096D01*
X26312Y9088D01*
X26436Y9037D01*
X26566Y9005D01*
X26700Y8995D01*
X26834Y9005D01*
X26964Y9037D01*
X27088Y9088D01*
X27203Y9158D01*
X27305Y9245D01*
X27392Y9347D01*
X27462Y9462D01*
X27513Y9586D01*
X27545Y9716D01*
X27552Y9850D01*
X27545Y9984D01*
X27513Y10114D01*
X27462Y10238D01*
X27392Y10353D01*
X27305Y10455D01*
X27203Y10542D01*
X27088Y10612D01*
X26964Y10663D01*
X26834Y10695D01*
X26700Y10705D01*
X26566Y10695D01*
X26436Y10663D01*
X26312Y10612D01*
X26299Y10604D01*
Y11504D01*
X26351Y11549D01*
X26364Y11564D01*
X26736Y11936D01*
X26751Y11949D01*
X26802Y12008D01*
X26843Y12074D01*
X26873Y12146D01*
X26891Y12222D01*
X26897Y12300D01*
X26895Y12319D01*
Y12945D01*
X27455Y13505D01*
X28231D01*
X28250Y13503D01*
X28328Y13509D01*
X28328Y13509D01*
X28404Y13527D01*
X28476Y13557D01*
X28542Y13598D01*
X28601Y13649D01*
X28614Y13664D01*
X29290Y14339D01*
Y12829D01*
X28441D01*
X28402Y12892D01*
X28351Y12951D01*
X28292Y13002D01*
X28226Y13043D01*
X28154Y13073D01*
X28078Y13091D01*
X28000Y13097D01*
X27922Y13091D01*
X27846Y13073D01*
X27774Y13043D01*
X27708Y13002D01*
X27649Y12951D01*
X27598Y12892D01*
X27557Y12826D01*
X27527Y12754D01*
X27509Y12678D01*
X27503Y12600D01*
X27509Y12522D01*
X27527Y12446D01*
X27557Y12374D01*
X27598Y12308D01*
X27649Y12249D01*
X27708Y12198D01*
X27774Y12157D01*
X27846Y12127D01*
X27922Y12109D01*
X28000Y12103D01*
X28078Y12109D01*
X28154Y12127D01*
X28226Y12157D01*
X28292Y12198D01*
X28351Y12249D01*
X28402Y12308D01*
X28441Y12371D01*
X29290D01*
Y12029D01*
X29241D01*
X29202Y12092D01*
X29151Y12151D01*
X29092Y12202D01*
X29026Y12243D01*
X28954Y12273D01*
X28878Y12291D01*
X28800Y12297D01*
X28722Y12291D01*
X28646Y12273D01*
X28574Y12243D01*
X28508Y12202D01*
X28449Y12151D01*
X28398Y12092D01*
X28357Y12026D01*
X28327Y11954D01*
X28309Y11878D01*
X28303Y11800D01*
X28309Y11722D01*
X28327Y11646D01*
X28357Y11574D01*
X28398Y11508D01*
X28449Y11449D01*
X28508Y11398D01*
X28574Y11357D01*
X28646Y11327D01*
X28722Y11309D01*
X28800Y11303D01*
X28878Y11309D01*
X28954Y11327D01*
X29026Y11357D01*
X29092Y11398D01*
X29151Y11449D01*
X29202Y11508D01*
X29241Y11571D01*
X29290D01*
Y10321D01*
X29251Y10258D01*
X29217Y10188D01*
X29189Y10116D01*
X29169Y10042D01*
X29155Y9966D01*
X29148Y9889D01*
Y9811D01*
X29155Y9734D01*
X29169Y9658D01*
X29189Y9584D01*
X29217Y9512D01*
X29251Y9442D01*
X29290Y9377D01*
Y1381D01*
G37*
G36*
X23920Y44729D02*X26255Y42395D01*
Y40855D01*
X26063Y40664D01*
X26049Y40651D01*
X25998Y40592D01*
X25957Y40526D01*
X25927Y40454D01*
X25909Y40378D01*
X25903Y40300D01*
X25909Y40222D01*
X25927Y40146D01*
X25957Y40074D01*
X25998Y40008D01*
X26049Y39949D01*
X26108Y39898D01*
X26174Y39857D01*
X26246Y39827D01*
X26299Y39815D01*
Y39228D01*
X25302Y40225D01*
Y41607D01*
X25351Y41649D01*
X25402Y41708D01*
X25443Y41774D01*
X25473Y41846D01*
X25491Y41922D01*
X25495Y42000D01*
X25491Y42078D01*
X25473Y42154D01*
X25443Y42226D01*
X25402Y42292D01*
X25351Y42351D01*
X25292Y42402D01*
X25226Y42443D01*
X25154Y42473D01*
X25078Y42491D01*
X25000Y42497D01*
X24922Y42491D01*
X24846Y42473D01*
X24774Y42443D01*
X24708Y42402D01*
X24649Y42351D01*
X24598Y42292D01*
X24557Y42226D01*
X24527Y42154D01*
X24509Y42078D01*
X24503Y42000D01*
X24509Y41922D01*
X24527Y41846D01*
X24557Y41774D01*
X24598Y41708D01*
X24649Y41649D01*
X24698Y41607D01*
Y40112D01*
X24697Y40100D01*
X24700Y40053D01*
X24709Y40017D01*
X24712Y40006D01*
X24717Y39993D01*
X24730Y39962D01*
X24755Y39922D01*
X24755Y39922D01*
X24786Y39886D01*
X24795Y39878D01*
X25908Y38764D01*
X25903Y38700D01*
X25909Y38622D01*
X25927Y38546D01*
X25957Y38474D01*
X25998Y38408D01*
X26049Y38349D01*
X26108Y38298D01*
X26174Y38257D01*
X26246Y38227D01*
X26299Y38215D01*
Y26300D01*
X23920D01*
Y32117D01*
X23945Y32142D01*
X23952Y32148D01*
X23976Y32175D01*
X23994Y32206D01*
X24008Y32239D01*
X24016Y32274D01*
X24019Y32310D01*
X24019Y32319D01*
Y32969D01*
X24082Y33008D01*
X24141Y33059D01*
X24192Y33118D01*
X24233Y33184D01*
X24263Y33256D01*
X24281Y33332D01*
X24285Y33410D01*
X24281Y33488D01*
X24263Y33564D01*
X24233Y33636D01*
X24192Y33702D01*
X24141Y33761D01*
X24082Y33812D01*
X24016Y33853D01*
X23944Y33883D01*
X23920Y33888D01*
Y44729D01*
G37*
G36*
X24717Y50841D02*X24717Y50840D01*
X24720Y50770D01*
X24717Y50700D01*
X24717Y50699D01*
Y50841D01*
G37*
G36*
Y60619D02*X26299D01*
Y51711D01*
X26165Y51679D01*
X26026Y51621D01*
X25898Y51543D01*
X25784Y51446D01*
X25687Y51332D01*
X25609Y51204D01*
X25551Y51065D01*
X25516Y50919D01*
X25505Y50770D01*
X25516Y50621D01*
X25551Y50475D01*
X25609Y50336D01*
X25687Y50208D01*
X25784Y50094D01*
X25898Y49997D01*
X26026Y49919D01*
X26165Y49861D01*
X26299Y49829D01*
Y49171D01*
X26165Y49139D01*
X26026Y49081D01*
X25898Y49003D01*
X25784Y48906D01*
X25687Y48792D01*
X25609Y48664D01*
X25551Y48525D01*
X25516Y48379D01*
X25505Y48230D01*
X25516Y48081D01*
X25551Y47935D01*
X25609Y47796D01*
X25687Y47668D01*
X25784Y47554D01*
X25898Y47457D01*
X26026Y47379D01*
X26165Y47321D01*
X26299Y47289D01*
Y46697D01*
X26222Y46691D01*
X26146Y46673D01*
X26074Y46643D01*
X26008Y46602D01*
X25949Y46551D01*
X25898Y46492D01*
X25857Y46426D01*
X25827Y46354D01*
X25809Y46278D01*
X25803Y46200D01*
X25809Y46122D01*
X25827Y46046D01*
X25857Y45974D01*
X25898Y45908D01*
X25949Y45849D01*
X26008Y45798D01*
X26071Y45759D01*
Y45241D01*
X26008Y45202D01*
X25949Y45151D01*
X25898Y45092D01*
X25857Y45026D01*
X25827Y44954D01*
X25809Y44878D01*
X25803Y44800D01*
X25809Y44722D01*
X25827Y44646D01*
X25857Y44574D01*
X25898Y44508D01*
X25949Y44449D01*
X26008Y44398D01*
X26074Y44357D01*
X26146Y44327D01*
X26222Y44309D01*
X26299Y44303D01*
Y43751D01*
X24717Y45334D01*
Y47707D01*
X24771Y47796D01*
X24829Y47935D01*
X24864Y48081D01*
X24872Y48230D01*
X24864Y48379D01*
X24829Y48525D01*
X24771Y48664D01*
X24717Y48753D01*
Y50249D01*
X24745Y50293D01*
X24784Y50367D01*
X24816Y50444D01*
X24841Y50523D01*
X24859Y50604D01*
X24870Y50687D01*
X24873Y50770D01*
X24870Y50853D01*
X24859Y50936D01*
X24841Y51017D01*
X24816Y51096D01*
X24784Y51173D01*
X24745Y51247D01*
X24717Y51292D01*
Y60619D01*
G37*
G36*
Y45334D02*X24415Y45635D01*
Y47417D01*
X24482Y47457D01*
X24596Y47554D01*
X24693Y47668D01*
X24717Y47707D01*
Y45334D01*
G37*
G36*
X23920Y60619D02*X24717D01*
Y51292D01*
X24701Y51317D01*
X24693Y51327D01*
X24684Y51335D01*
X24674Y51341D01*
X24663Y51346D01*
X24651Y51349D01*
X24639Y51350D01*
X24627Y51349D01*
X24615Y51347D01*
X24604Y51342D01*
X24593Y51336D01*
X24584Y51328D01*
X24576Y51319D01*
X24569Y51309D01*
X24564Y51298D01*
X24561Y51286D01*
X24560Y51274D01*
X24561Y51262D01*
X24564Y51250D01*
X24568Y51239D01*
X24574Y51229D01*
X24613Y51170D01*
X24645Y51108D01*
X24672Y51044D01*
X24693Y50977D01*
X24708Y50909D01*
X24717Y50841D01*
Y50699D01*
X24708Y50631D01*
X24693Y50563D01*
X24672Y50496D01*
X24645Y50432D01*
X24613Y50370D01*
X24575Y50311D01*
X24569Y50301D01*
X24564Y50289D01*
X24562Y50278D01*
X24561Y50266D01*
X24562Y50254D01*
X24565Y50242D01*
X24570Y50231D01*
X24576Y50221D01*
X24584Y50212D01*
X24594Y50204D01*
X24604Y50198D01*
X24615Y50194D01*
X24627Y50191D01*
X24639Y50191D01*
X24651Y50192D01*
X24662Y50195D01*
X24673Y50199D01*
X24683Y50206D01*
X24692Y50214D01*
X24700Y50223D01*
X24717Y50249D01*
Y48753D01*
X24693Y48792D01*
X24596Y48906D01*
X24482Y49003D01*
X24354Y49081D01*
X24215Y49139D01*
X24069Y49174D01*
X23920Y49185D01*
Y49817D01*
X24003Y49820D01*
X24086Y49831D01*
X24167Y49849D01*
X24246Y49874D01*
X24323Y49906D01*
X24397Y49945D01*
X24467Y49989D01*
X24477Y49997D01*
X24485Y50006D01*
X24491Y50016D01*
X24496Y50027D01*
X24499Y50039D01*
X24500Y50051D01*
X24499Y50063D01*
X24497Y50075D01*
X24492Y50086D01*
X24486Y50097D01*
X24478Y50106D01*
X24469Y50114D01*
X24459Y50121D01*
X24448Y50126D01*
X24436Y50129D01*
X24424Y50130D01*
X24412Y50129D01*
X24400Y50126D01*
X24389Y50122D01*
X24379Y50116D01*
X24320Y50077D01*
X24258Y50045D01*
X24194Y50018D01*
X24127Y49997D01*
X24059Y49982D01*
X23990Y49973D01*
X23920Y49970D01*
Y51570D01*
X23990Y51567D01*
X24059Y51558D01*
X24127Y51543D01*
X24194Y51522D01*
X24258Y51495D01*
X24320Y51463D01*
X24379Y51425D01*
X24389Y51419D01*
X24401Y51414D01*
X24412Y51412D01*
X24424Y51411D01*
X24436Y51412D01*
X24448Y51415D01*
X24459Y51420D01*
X24469Y51426D01*
X24478Y51434D01*
X24486Y51444D01*
X24492Y51454D01*
X24496Y51465D01*
X24499Y51477D01*
X24499Y51489D01*
X24498Y51501D01*
X24495Y51512D01*
X24491Y51523D01*
X24484Y51533D01*
X24476Y51542D01*
X24467Y51550D01*
X24397Y51595D01*
X24323Y51634D01*
X24246Y51666D01*
X24167Y51691D01*
X24086Y51709D01*
X24003Y51720D01*
X23920Y51723D01*
Y60619D01*
G37*
G36*
Y26300D02*X22729D01*
Y27391D01*
X22729Y27400D01*
X22726Y27436D01*
X22718Y27471D01*
X22715Y27478D01*
X22723Y27496D01*
X22741Y27572D01*
X22745Y27650D01*
X22741Y27728D01*
X22723Y27804D01*
X22693Y27876D01*
X22652Y27942D01*
X22601Y28001D01*
X22542Y28052D01*
X22476Y28093D01*
X22404Y28123D01*
X22389Y28126D01*
Y30657D01*
X22436Y30637D01*
X22512Y30619D01*
X22590Y30613D01*
X22668Y30619D01*
X22744Y30637D01*
X22816Y30667D01*
X22882Y30708D01*
X22941Y30759D01*
X22992Y30818D01*
X23033Y30884D01*
X23063Y30956D01*
X23081Y31032D01*
X23085Y31110D01*
X23081Y31188D01*
X23063Y31260D01*
X23920Y32117D01*
Y26300D01*
G37*
G36*
X23123Y47707D02*X23147Y47668D01*
X23244Y47554D01*
X23358Y47457D01*
X23425Y47417D01*
Y45449D01*
X23423Y45430D01*
X23429Y45352D01*
X23429Y45352D01*
X23447Y45276D01*
X23477Y45204D01*
X23518Y45138D01*
X23569Y45079D01*
X23584Y45066D01*
X23920Y44729D01*
Y33888D01*
X23868Y33901D01*
X23790Y33907D01*
X23712Y33901D01*
X23636Y33883D01*
X23564Y33853D01*
X23498Y33812D01*
X23439Y33761D01*
X23388Y33702D01*
X23347Y33636D01*
X23317Y33564D01*
X23299Y33488D01*
X23293Y33410D01*
X23299Y33332D01*
X23317Y33256D01*
X23347Y33184D01*
X23388Y33118D01*
X23439Y33059D01*
X23498Y33008D01*
X23561Y32969D01*
Y32405D01*
X23123Y31967D01*
Y47707D01*
G37*
G36*
Y60619D02*X23920D01*
Y51723D01*
X23920Y51723D01*
X23837Y51720D01*
X23754Y51709D01*
X23673Y51691D01*
X23594Y51666D01*
X23517Y51634D01*
X23443Y51595D01*
X23373Y51551D01*
X23363Y51543D01*
X23355Y51534D01*
X23349Y51524D01*
X23344Y51513D01*
X23341Y51501D01*
X23340Y51489D01*
X23341Y51477D01*
X23343Y51465D01*
X23348Y51454D01*
X23354Y51443D01*
X23362Y51434D01*
X23371Y51426D01*
X23381Y51419D01*
X23392Y51414D01*
X23404Y51411D01*
X23416Y51410D01*
X23428Y51411D01*
X23440Y51414D01*
X23451Y51418D01*
X23461Y51424D01*
X23520Y51463D01*
X23582Y51495D01*
X23646Y51522D01*
X23713Y51543D01*
X23781Y51558D01*
X23850Y51567D01*
X23920Y51570D01*
X23920Y51570D01*
Y49970D01*
X23920Y49970D01*
X23850Y49973D01*
X23781Y49982D01*
X23713Y49997D01*
X23646Y50018D01*
X23582Y50045D01*
X23520Y50077D01*
X23461Y50115D01*
X23451Y50121D01*
X23439Y50126D01*
X23428Y50128D01*
X23416Y50129D01*
X23404Y50128D01*
X23392Y50125D01*
X23381Y50120D01*
X23371Y50114D01*
X23362Y50106D01*
X23354Y50096D01*
X23348Y50086D01*
X23344Y50075D01*
X23341Y50063D01*
X23341Y50051D01*
X23342Y50039D01*
X23345Y50028D01*
X23349Y50017D01*
X23356Y50007D01*
X23364Y49998D01*
X23373Y49990D01*
X23443Y49945D01*
X23517Y49906D01*
X23594Y49874D01*
X23673Y49849D01*
X23754Y49831D01*
X23837Y49820D01*
X23920Y49817D01*
X23920Y49817D01*
Y49185D01*
X23920Y49185D01*
X23771Y49174D01*
X23625Y49139D01*
X23486Y49081D01*
X23358Y49003D01*
X23244Y48906D01*
X23147Y48792D01*
X23123Y48753D01*
Y50248D01*
X23139Y50223D01*
X23147Y50213D01*
X23156Y50205D01*
X23166Y50199D01*
X23177Y50194D01*
X23189Y50191D01*
X23201Y50190D01*
X23213Y50191D01*
X23225Y50193D01*
X23236Y50198D01*
X23247Y50204D01*
X23256Y50212D01*
X23264Y50221D01*
X23271Y50231D01*
X23276Y50242D01*
X23279Y50254D01*
X23280Y50266D01*
X23279Y50278D01*
X23276Y50290D01*
X23272Y50301D01*
X23266Y50311D01*
X23227Y50370D01*
X23195Y50432D01*
X23168Y50496D01*
X23147Y50563D01*
X23132Y50631D01*
X23123Y50699D01*
Y50841D01*
X23132Y50909D01*
X23147Y50977D01*
X23168Y51044D01*
X23195Y51108D01*
X23227Y51170D01*
X23265Y51229D01*
X23271Y51239D01*
X23276Y51251D01*
X23278Y51262D01*
X23279Y51274D01*
X23278Y51286D01*
X23275Y51298D01*
X23270Y51309D01*
X23264Y51319D01*
X23256Y51328D01*
X23246Y51336D01*
X23236Y51342D01*
X23225Y51346D01*
X23213Y51349D01*
X23201Y51349D01*
X23189Y51348D01*
X23178Y51345D01*
X23167Y51341D01*
X23157Y51334D01*
X23148Y51326D01*
X23140Y51317D01*
X23123Y51291D01*
Y60619D01*
G37*
G36*
Y50699D02*X23123Y50700D01*
X23120Y50770D01*
X23123Y50840D01*
X23123Y50841D01*
Y50699D01*
G37*
G36*
X22389Y60619D02*X23123D01*
Y51291D01*
X23095Y51247D01*
X23056Y51173D01*
X23024Y51096D01*
X22999Y51017D01*
X22981Y50936D01*
X22970Y50853D01*
X22967Y50770D01*
X22970Y50687D01*
X22981Y50604D01*
X22999Y50523D01*
X23024Y50444D01*
X23056Y50367D01*
X23095Y50293D01*
X23123Y50248D01*
Y48753D01*
X23069Y48664D01*
X23011Y48525D01*
X22976Y48379D01*
X22965Y48230D01*
X22976Y48081D01*
X23011Y47935D01*
X23069Y47796D01*
X23123Y47707D01*
Y31967D01*
X22740Y31583D01*
X22668Y31601D01*
X22590Y31607D01*
X22512Y31601D01*
X22436Y31583D01*
X22389Y31563D01*
Y31956D01*
X22416Y31967D01*
X22482Y32008D01*
X22541Y32059D01*
X22592Y32118D01*
X22633Y32184D01*
X22663Y32256D01*
X22681Y32332D01*
X22685Y32410D01*
X22681Y32488D01*
X22663Y32560D01*
X22745Y32642D01*
X22752Y32648D01*
X22776Y32675D01*
X22794Y32706D01*
X22808Y32739D01*
X22816Y32774D01*
X22819Y32810D01*
X22819Y32819D01*
Y33569D01*
X22882Y33608D01*
X22941Y33659D01*
X22992Y33718D01*
X23033Y33784D01*
X23063Y33856D01*
X23081Y33932D01*
X23085Y34010D01*
X23081Y34088D01*
X23063Y34164D01*
X23033Y34236D01*
X22992Y34302D01*
X22941Y34361D01*
X22882Y34412D01*
X22816Y34453D01*
X22744Y34483D01*
X22668Y34501D01*
X22590Y34507D01*
X22512Y34501D01*
X22436Y34483D01*
X22389Y34463D01*
Y34713D01*
X22390Y34713D01*
X22468Y34719D01*
X22544Y34737D01*
X22616Y34767D01*
X22682Y34808D01*
X22741Y34859D01*
X22792Y34918D01*
X22833Y34984D01*
X22863Y35056D01*
X22881Y35132D01*
X22885Y35210D01*
X22881Y35288D01*
X22863Y35364D01*
X22833Y35436D01*
X22792Y35502D01*
X22741Y35561D01*
X22682Y35612D01*
X22616Y35653D01*
X22544Y35683D01*
X22468Y35701D01*
X22390Y35707D01*
X22389Y35707D01*
Y60619D01*
G37*
G36*
Y28126D02*X22328Y28141D01*
X22250Y28147D01*
X22172Y28141D01*
X22096Y28123D01*
X22024Y28093D01*
X21958Y28052D01*
X21899Y28001D01*
X21848Y27942D01*
X21807Y27876D01*
X21777Y27804D01*
X21759Y27728D01*
X21753Y27650D01*
X21759Y27572D01*
X21777Y27496D01*
X21807Y27424D01*
X21848Y27358D01*
X21899Y27299D01*
X21958Y27248D01*
X22024Y27207D01*
X22096Y27177D01*
X22172Y27159D01*
X22250Y27153D01*
X22271Y27155D01*
Y26300D01*
X21399D01*
Y33623D01*
X21441Y33659D01*
X21492Y33718D01*
X21533Y33784D01*
X21563Y33856D01*
X21581Y33932D01*
X21585Y34010D01*
X21581Y34078D01*
X22240Y34737D01*
X22312Y34719D01*
X22389Y34713D01*
Y34463D01*
X22364Y34453D01*
X22298Y34412D01*
X22239Y34361D01*
X22188Y34302D01*
X22147Y34236D01*
X22117Y34164D01*
X22099Y34088D01*
X22093Y34010D01*
X22099Y33932D01*
X22117Y33856D01*
X22147Y33784D01*
X22188Y33718D01*
X22239Y33659D01*
X22298Y33608D01*
X22361Y33569D01*
Y32905D01*
X22340Y32883D01*
X22268Y32901D01*
X22190Y32907D01*
X22112Y32901D01*
X22036Y32883D01*
X21964Y32853D01*
X21898Y32812D01*
X21839Y32761D01*
X21788Y32702D01*
X21747Y32636D01*
X21717Y32564D01*
X21699Y32488D01*
X21693Y32410D01*
X21699Y32332D01*
X21717Y32256D01*
X21747Y32184D01*
X21788Y32118D01*
X21839Y32059D01*
X21898Y32008D01*
X21964Y31967D01*
X22036Y31937D01*
X22112Y31919D01*
X22190Y31913D01*
X22268Y31919D01*
X22344Y31937D01*
X22389Y31956D01*
Y31563D01*
X22364Y31553D01*
X22298Y31512D01*
X22239Y31461D01*
X22188Y31402D01*
X22147Y31336D01*
X22117Y31264D01*
X22099Y31188D01*
X22093Y31110D01*
X22099Y31032D01*
X22117Y30956D01*
X22147Y30884D01*
X22188Y30818D01*
X22239Y30759D01*
X22298Y30708D01*
X22364Y30667D01*
X22389Y30657D01*
Y28126D01*
G37*
G36*
X21399Y60619D02*X22389D01*
Y35707D01*
X22312Y35701D01*
X22236Y35683D01*
X22164Y35653D01*
X22098Y35612D01*
X22039Y35561D01*
X21988Y35502D01*
X21947Y35436D01*
X21917Y35364D01*
X21899Y35288D01*
X21893Y35210D01*
X21899Y35132D01*
X21917Y35060D01*
X21399Y34543D01*
Y35223D01*
X21441Y35259D01*
X21492Y35318D01*
X21533Y35384D01*
X21563Y35456D01*
X21581Y35532D01*
X21585Y35610D01*
X21581Y35688D01*
X21563Y35764D01*
X21533Y35836D01*
X21492Y35902D01*
X21441Y35961D01*
X21399Y35997D01*
Y49816D01*
X21529Y49826D01*
X21675Y49861D01*
X21814Y49919D01*
X21942Y49997D01*
X22056Y50094D01*
X22153Y50208D01*
X22231Y50336D01*
X22289Y50475D01*
X22324Y50621D01*
X22332Y50770D01*
X22324Y50919D01*
X22289Y51065D01*
X22231Y51204D01*
X22153Y51332D01*
X22056Y51446D01*
X21942Y51543D01*
X21814Y51621D01*
X21675Y51679D01*
X21529Y51714D01*
X21399Y51724D01*
Y52903D01*
X21400Y52903D01*
X21478Y52909D01*
X21554Y52927D01*
X21626Y52957D01*
X21692Y52998D01*
X21751Y53049D01*
X21802Y53108D01*
X21843Y53174D01*
X21873Y53246D01*
X21891Y53322D01*
X21895Y53400D01*
Y55600D01*
X21891Y55678D01*
X21873Y55754D01*
X21843Y55826D01*
X21802Y55892D01*
X21751Y55951D01*
X21692Y56002D01*
X21626Y56043D01*
X21554Y56073D01*
X21478Y56091D01*
X21400Y56097D01*
X21399Y56097D01*
Y60619D01*
G37*
G36*
X26299Y1381D02*X26081D01*
Y7700D01*
X26081Y7700D01*
X26078Y7781D01*
X26068Y7862D01*
X26050Y7941D01*
X26026Y8019D01*
X25995Y8094D01*
X25957Y8166D01*
X25913Y8235D01*
X25864Y8299D01*
X25809Y8359D01*
X25749Y8414D01*
X25685Y8463D01*
X25616Y8507D01*
X25544Y8545D01*
X25469Y8576D01*
X25391Y8600D01*
X25312Y8618D01*
X25231Y8628D01*
X25150Y8632D01*
X25127Y8630D01*
X25069Y8628D01*
X24988Y8618D01*
X24909Y8600D01*
X24831Y8576D01*
X24756Y8545D01*
X24684Y8507D01*
X24615Y8463D01*
X24551Y8414D01*
X24491Y8359D01*
X24436Y8299D01*
X24387Y8235D01*
X24343Y8166D01*
X24305Y8094D01*
X24274Y8019D01*
X24250Y7941D01*
X24232Y7862D01*
X24222Y7781D01*
X24218Y7700D01*
X24219Y7688D01*
Y1381D01*
X21399D01*
Y13014D01*
X21454Y13027D01*
X21526Y13057D01*
X21592Y13098D01*
X21651Y13149D01*
X21702Y13208D01*
X21743Y13274D01*
X21773Y13346D01*
X21791Y13422D01*
X21797Y13500D01*
X21791Y13578D01*
X21773Y13654D01*
X21743Y13726D01*
X21702Y13792D01*
X21651Y13851D01*
X21592Y13902D01*
X21526Y13943D01*
X21454Y13973D01*
X21399Y13986D01*
Y18700D01*
X22850D01*
Y24850D01*
X26299D01*
Y13750D01*
X26064Y13514D01*
X26049Y13501D01*
X25998Y13442D01*
X25957Y13376D01*
X25927Y13304D01*
X25909Y13228D01*
X25909Y13228D01*
X25903Y13150D01*
X25905Y13131D01*
Y12505D01*
X25795Y12395D01*
X24919D01*
X24900Y12397D01*
X24822Y12391D01*
X24746Y12373D01*
X24674Y12343D01*
X24608Y12302D01*
X24549Y12251D01*
X24498Y12192D01*
X24457Y12126D01*
X24427Y12054D01*
X24409Y11978D01*
X24403Y11900D01*
X24409Y11822D01*
X24427Y11746D01*
X24457Y11674D01*
X24498Y11608D01*
X24549Y11549D01*
X24608Y11498D01*
X24674Y11457D01*
X24746Y11427D01*
X24822Y11409D01*
X24900Y11403D01*
X24919Y11405D01*
X25981D01*
X26000Y11403D01*
X26078Y11409D01*
X26078Y11409D01*
X26154Y11427D01*
X26226Y11457D01*
X26292Y11498D01*
X26299Y11504D01*
Y10604D01*
X26197Y10542D01*
X26095Y10455D01*
X26008Y10353D01*
X25938Y10238D01*
X25887Y10114D01*
X25855Y9984D01*
X25845Y9850D01*
X25855Y9716D01*
X25887Y9586D01*
X25938Y9462D01*
X26008Y9347D01*
X26095Y9245D01*
X26197Y9158D01*
X26299Y9096D01*
Y1381D01*
G37*
G36*
X21399Y34543D02*X21311Y34454D01*
X21244Y34483D01*
X21168Y34501D01*
X21090Y34507D01*
X21012Y34501D01*
X20936Y34483D01*
X20864Y34453D01*
X20798Y34412D01*
X20739Y34361D01*
X20688Y34302D01*
X20647Y34236D01*
X20617Y34164D01*
X20599Y34088D01*
X20593Y34010D01*
X20599Y33932D01*
X20617Y33856D01*
X20647Y33784D01*
X20688Y33718D01*
X20739Y33659D01*
X20798Y33608D01*
X20861Y33569D01*
Y32905D01*
X20812Y32901D01*
X20736Y32883D01*
X20664Y32853D01*
X20598Y32812D01*
X20539Y32761D01*
X20488Y32702D01*
X20447Y32636D01*
X20443Y32625D01*
X20443Y32626D01*
X20402Y32692D01*
X20351Y32751D01*
X20292Y32802D01*
X20229Y32841D01*
Y34405D01*
X20956Y35133D01*
X21012Y35119D01*
X21090Y35113D01*
X21168Y35119D01*
X21244Y35137D01*
X21316Y35167D01*
X21382Y35208D01*
X21399Y35223D01*
Y34543D01*
G37*
G36*
Y13986D02*X21378Y13991D01*
X21300Y13997D01*
X21281Y13995D01*
X19295D01*
Y17395D01*
X20700Y18800D01*
Y18700D01*
X21399D01*
Y13986D01*
G37*
G36*
X17950Y60619D02*X21399D01*
Y56097D01*
X21322Y56091D01*
X21246Y56073D01*
X21174Y56043D01*
X21108Y56002D01*
X21049Y55951D01*
X20998Y55892D01*
X20957Y55826D01*
X20927Y55754D01*
X20909Y55678D01*
X20909Y55678D01*
X20903Y55600D01*
X20905Y55581D01*
Y53419D01*
X20903Y53400D01*
X20909Y53322D01*
X20927Y53246D01*
X20957Y53174D01*
X20998Y53108D01*
X21049Y53049D01*
X21108Y52998D01*
X21174Y52957D01*
X21246Y52927D01*
X21322Y52909D01*
X21399Y52903D01*
Y51724D01*
X21380Y51725D01*
X21231Y51714D01*
X21085Y51679D01*
X20946Y51621D01*
X20818Y51543D01*
X20704Y51446D01*
X20607Y51332D01*
X20529Y51204D01*
X20471Y51065D01*
X20436Y50919D01*
X20425Y50770D01*
X20436Y50621D01*
X20471Y50475D01*
X20529Y50336D01*
X20607Y50208D01*
X20704Y50094D01*
X20818Y49997D01*
X20946Y49919D01*
X21085Y49861D01*
X21231Y49826D01*
X21380Y49815D01*
X21399Y49816D01*
Y35997D01*
X21382Y36012D01*
X21316Y36053D01*
X21244Y36083D01*
X21168Y36101D01*
X21090Y36107D01*
X21012Y36101D01*
X20936Y36083D01*
X20864Y36053D01*
X20798Y36012D01*
X20739Y35961D01*
X20688Y35902D01*
X20647Y35836D01*
X20617Y35764D01*
X20599Y35688D01*
X20593Y35610D01*
X20599Y35532D01*
X20617Y35456D01*
X20622Y35445D01*
X19845Y34668D01*
X19838Y34662D01*
X19814Y34635D01*
X19796Y34604D01*
X19782Y34571D01*
X19774Y34536D01*
X19774Y34536D01*
X19771Y34500D01*
X19771Y34491D01*
Y33328D01*
X19751Y33351D01*
X19692Y33402D01*
X19629Y33441D01*
Y34491D01*
X19629Y34500D01*
X19626Y34536D01*
X19618Y34571D01*
X19604Y34604D01*
X19593Y34623D01*
X19586Y34635D01*
X19563Y34661D01*
X19581Y34732D01*
X19585Y34810D01*
X19581Y34888D01*
X19563Y34964D01*
X19533Y35036D01*
X19492Y35102D01*
X19441Y35161D01*
X19382Y35212D01*
X19316Y35253D01*
X19244Y35283D01*
X19168Y35301D01*
X19090Y35307D01*
X19012Y35301D01*
X18936Y35283D01*
X18864Y35253D01*
X18798Y35212D01*
X18739Y35161D01*
X18688Y35102D01*
X18647Y35036D01*
X18617Y34964D01*
X18599Y34888D01*
X18593Y34810D01*
X18599Y34732D01*
X18617Y34656D01*
X18647Y34584D01*
X18688Y34518D01*
X18739Y34459D01*
X18798Y34408D01*
X18864Y34367D01*
X18936Y34337D01*
X19012Y34319D01*
X19090Y34313D01*
X19168Y34319D01*
X19171Y34320D01*
Y33441D01*
X19108Y33402D01*
X19049Y33351D01*
X18998Y33292D01*
X18957Y33226D01*
X18927Y33154D01*
X18909Y33078D01*
X18903Y33000D01*
X18909Y32922D01*
X18927Y32846D01*
X18957Y32774D01*
X18998Y32708D01*
X19049Y32649D01*
X19108Y32598D01*
X19174Y32557D01*
X19246Y32527D01*
X19322Y32509D01*
X19400Y32503D01*
X19478Y32509D01*
X19519Y32519D01*
X19509Y32478D01*
X19503Y32400D01*
X19509Y32322D01*
X19527Y32246D01*
X19557Y32174D01*
X19598Y32108D01*
X19649Y32049D01*
X19708Y31998D01*
X19774Y31957D01*
X19846Y31927D01*
X19922Y31909D01*
X20000Y31903D01*
X20078Y31909D01*
X20154Y31927D01*
X20226Y31957D01*
X20292Y31998D01*
X20351Y32049D01*
X20402Y32108D01*
X20443Y32174D01*
X20447Y32185D01*
X20447Y32184D01*
X20488Y32118D01*
X20539Y32059D01*
X20598Y32008D01*
X20664Y31967D01*
X20736Y31937D01*
X20812Y31919D01*
X20890Y31913D01*
X20968Y31919D01*
X21044Y31937D01*
X21116Y31967D01*
X21182Y32008D01*
X21241Y32059D01*
X21292Y32118D01*
X21333Y32184D01*
X21363Y32256D01*
X21381Y32332D01*
X21385Y32410D01*
X21381Y32488D01*
X21363Y32564D01*
X21333Y32636D01*
X21319Y32659D01*
Y33569D01*
X21382Y33608D01*
X21399Y33623D01*
Y26300D01*
X20700D01*
Y19795D01*
X20519D01*
X20500Y19797D01*
X20422Y19791D01*
X20346Y19773D01*
X20274Y19743D01*
X20208Y19702D01*
X20149Y19651D01*
X20136Y19637D01*
X18595Y18095D01*
X17995D01*
Y18700D01*
X17991Y18778D01*
X17973Y18854D01*
X17950Y18908D01*
Y32871D01*
X18000Y32867D01*
X18099Y32875D01*
X18196Y32898D01*
X18287Y32936D01*
X18372Y32988D01*
X18448Y33052D01*
X18512Y33128D01*
X18564Y33213D01*
X18602Y33304D01*
X18625Y33401D01*
X18633Y33500D01*
X18625Y33599D01*
X18602Y33696D01*
X18564Y33787D01*
X18512Y33872D01*
X18446Y33946D01*
X17950Y34442D01*
Y35469D01*
X18800D01*
X18899Y35475D01*
X18996Y35498D01*
X19087Y35536D01*
X19172Y35588D01*
X19248Y35652D01*
X19312Y35728D01*
X19364Y35813D01*
X19402Y35904D01*
X19425Y36001D01*
X19433Y36100D01*
X19425Y36199D01*
X19402Y36296D01*
X19364Y36387D01*
X19312Y36472D01*
X19248Y36548D01*
X19172Y36612D01*
X19087Y36664D01*
X18996Y36702D01*
X18899Y36725D01*
X18800Y36731D01*
X17950D01*
Y43147D01*
X17976Y43157D01*
X18042Y43198D01*
X18101Y43249D01*
X18152Y43308D01*
X18193Y43374D01*
X18223Y43446D01*
X18241Y43522D01*
X18245Y43600D01*
X18241Y43678D01*
X18223Y43754D01*
X18193Y43826D01*
X18152Y43892D01*
X18101Y43951D01*
X18042Y44002D01*
X17976Y44043D01*
X17950Y44053D01*
Y50430D01*
X17989Y50336D01*
X18067Y50208D01*
X18164Y50094D01*
X18278Y49997D01*
X18406Y49919D01*
X18545Y49861D01*
X18691Y49826D01*
X18840Y49815D01*
X18989Y49826D01*
X19135Y49861D01*
X19274Y49919D01*
X19402Y49997D01*
X19516Y50094D01*
X19613Y50208D01*
X19691Y50336D01*
X19749Y50475D01*
X19784Y50621D01*
X19792Y50770D01*
X19784Y50919D01*
X19749Y51065D01*
X19691Y51204D01*
X19613Y51332D01*
X19516Y51446D01*
X19402Y51543D01*
X19274Y51621D01*
X19135Y51679D01*
X18989Y51714D01*
X18840Y51725D01*
X18691Y51714D01*
X18545Y51679D01*
X18406Y51621D01*
X18278Y51543D01*
X18164Y51446D01*
X18067Y51332D01*
X17989Y51204D01*
X17950Y51110D01*
Y60619D01*
G37*
G36*
X21399Y1381D02*X17950D01*
Y17105D01*
X18305D01*
Y13519D01*
X18303Y13500D01*
X18309Y13422D01*
X18327Y13346D01*
X18357Y13274D01*
X18398Y13208D01*
X18449Y13149D01*
X18508Y13098D01*
X18574Y13057D01*
X18646Y13027D01*
X18722Y13009D01*
X18800Y13003D01*
X18819Y13005D01*
X21281D01*
X21300Y13003D01*
X21378Y13009D01*
X21399Y13014D01*
Y1381D01*
G37*
G36*
X17731Y35339D02*X17861Y35469D01*
X17950D01*
Y34442D01*
X17731Y34661D01*
Y35339D01*
G37*
G36*
X16300Y60619D02*X17950D01*
Y51110D01*
X17931Y51065D01*
X17896Y50919D01*
X17885Y50770D01*
X17896Y50621D01*
X17931Y50475D01*
X17950Y50430D01*
Y44053D01*
X17904Y44073D01*
X17828Y44091D01*
X17750Y44097D01*
X17672Y44091D01*
X17596Y44073D01*
X17524Y44043D01*
X17458Y44002D01*
X17399Y43951D01*
X17348Y43892D01*
X17307Y43826D01*
X17277Y43754D01*
X17259Y43678D01*
X17253Y43600D01*
X17259Y43522D01*
X17277Y43450D01*
X16300Y42473D01*
Y49815D01*
X16449Y49826D01*
X16595Y49861D01*
X16734Y49919D01*
X16862Y49997D01*
X16976Y50094D01*
X17073Y50208D01*
X17151Y50336D01*
X17209Y50475D01*
X17244Y50621D01*
X17252Y50770D01*
X17244Y50919D01*
X17209Y51065D01*
X17151Y51204D01*
X17073Y51332D01*
X16976Y51446D01*
X16862Y51543D01*
X16734Y51621D01*
X16595Y51679D01*
X16449Y51714D01*
X16300Y51725D01*
Y52167D01*
X16399Y52175D01*
X16496Y52198D01*
X16587Y52236D01*
X16672Y52288D01*
X16748Y52352D01*
X16812Y52428D01*
X16864Y52513D01*
X16902Y52604D01*
X16925Y52701D01*
X16931Y52800D01*
Y56200D01*
X16925Y56299D01*
X16902Y56396D01*
X16864Y56487D01*
X16812Y56572D01*
X16748Y56648D01*
X16672Y56712D01*
X16587Y56764D01*
X16496Y56802D01*
X16399Y56825D01*
X16300Y56833D01*
Y60619D01*
G37*
G36*
X16999Y42526D02*X17600Y43127D01*
X17672Y43109D01*
X17750Y43103D01*
X17828Y43109D01*
X17904Y43127D01*
X17950Y43147D01*
Y36731D01*
X17625D01*
X17600Y36733D01*
X17501Y36725D01*
X17404Y36702D01*
X17313Y36664D01*
X17228Y36612D01*
X17228Y36612D01*
X17152Y36548D01*
X17136Y36529D01*
X16999Y36392D01*
Y42526D01*
G37*
G36*
X17950Y1381D02*X16999D01*
Y10603D01*
X17000Y10603D01*
X17078Y10609D01*
X17154Y10627D01*
X17226Y10657D01*
X17292Y10698D01*
X17351Y10749D01*
X17402Y10808D01*
X17443Y10874D01*
X17473Y10946D01*
X17491Y11022D01*
X17495Y11100D01*
Y12900D01*
X17491Y12978D01*
X17473Y13054D01*
X17443Y13126D01*
X17402Y13192D01*
X17351Y13251D01*
X17292Y13302D01*
X17226Y13343D01*
X17154Y13373D01*
X17078Y13391D01*
X17000Y13397D01*
X16999Y13397D01*
Y33608D01*
X17554Y33054D01*
X17628Y32988D01*
X17713Y32936D01*
X17804Y32898D01*
X17901Y32875D01*
X17950Y32871D01*
Y18908D01*
X17943Y18926D01*
X17902Y18992D01*
X17851Y19051D01*
X17792Y19102D01*
X17726Y19143D01*
X17654Y19173D01*
X17578Y19191D01*
X17500Y19197D01*
X17422Y19191D01*
X17346Y19173D01*
X17274Y19143D01*
X17208Y19102D01*
X17149Y19051D01*
X17098Y18992D01*
X17057Y18926D01*
X17027Y18854D01*
X17009Y18778D01*
X17009Y18778D01*
X17003Y18700D01*
X17005Y18681D01*
Y17819D01*
X17003Y17800D01*
X17009Y17722D01*
X17009Y17722D01*
X17027Y17646D01*
X17057Y17574D01*
X17098Y17508D01*
X17149Y17449D01*
X17164Y17436D01*
X17336Y17264D01*
X17349Y17249D01*
X17408Y17198D01*
X17474Y17157D01*
X17546Y17127D01*
X17622Y17109D01*
X17622Y17109D01*
X17700Y17103D01*
X17719Y17105D01*
X17950D01*
Y1381D01*
G37*
G36*
X16999D02*X16300D01*
Y41077D01*
X16555Y41332D01*
X16562Y41338D01*
X16585Y41365D01*
X16586Y41365D01*
X16604Y41396D01*
X16618Y41429D01*
X16626Y41464D01*
X16629Y41500D01*
X16629Y41509D01*
Y42155D01*
X16999Y42526D01*
Y36392D01*
X16671Y36064D01*
X16652Y36048D01*
X16588Y35972D01*
X16536Y35887D01*
X16498Y35796D01*
X16475Y35699D01*
X16475Y35699D01*
X16467Y35600D01*
X16469Y35575D01*
Y34425D01*
X16467Y34400D01*
X16475Y34301D01*
Y34301D01*
X16498Y34204D01*
X16514Y34166D01*
X16536Y34113D01*
X16588Y34028D01*
X16588Y34028D01*
X16652Y33952D01*
X16671Y33936D01*
X16999Y33608D01*
Y13397D01*
X16922Y13391D01*
X16846Y13373D01*
X16774Y13343D01*
X16708Y13302D01*
X16649Y13251D01*
X16598Y13192D01*
X16557Y13126D01*
X16527Y13054D01*
X16509Y12978D01*
X16509Y12978D01*
X16503Y12900D01*
X16505Y12881D01*
Y11119D01*
X16503Y11100D01*
X16509Y11022D01*
X16527Y10946D01*
X16557Y10874D01*
X16598Y10808D01*
X16649Y10749D01*
X16708Y10698D01*
X16774Y10657D01*
X16846Y10627D01*
X16922Y10609D01*
X16999Y10603D01*
Y1381D01*
G37*
G36*
X13300Y13800D02*X13605Y13495D01*
Y13019D01*
X13603Y13000D01*
X13605Y12981D01*
Y12705D01*
X13300Y12400D01*
Y13800D01*
G37*
G36*
Y47377D02*X13435Y47321D01*
X13581Y47286D01*
X13730Y47275D01*
X13879Y47286D01*
X14025Y47321D01*
X14164Y47379D01*
X14222Y47415D01*
X15471Y46165D01*
Y42141D01*
X15408Y42102D01*
X15349Y42051D01*
X15298Y41992D01*
X15257Y41926D01*
X15227Y41854D01*
X15209Y41778D01*
X15203Y41700D01*
X15209Y41622D01*
X15212Y41611D01*
X14375Y42448D01*
X14406Y42474D01*
X14503Y42588D01*
X14581Y42716D01*
X14639Y42855D01*
X14674Y43001D01*
X14682Y43150D01*
X14674Y43299D01*
X14639Y43445D01*
X14581Y43584D01*
X14503Y43712D01*
X14406Y43826D01*
X14292Y43923D01*
X14164Y44001D01*
X14025Y44059D01*
X13879Y44094D01*
X13730Y44105D01*
X13581Y44094D01*
X13435Y44059D01*
X13300Y44003D01*
Y44837D01*
X13435Y44781D01*
X13581Y44746D01*
X13730Y44735D01*
X13879Y44746D01*
X14025Y44781D01*
X14164Y44839D01*
X14292Y44917D01*
X14406Y45014D01*
X14503Y45128D01*
X14581Y45256D01*
X14639Y45395D01*
X14674Y45541D01*
X14682Y45690D01*
X14674Y45839D01*
X14639Y45985D01*
X14581Y46124D01*
X14503Y46252D01*
X14406Y46366D01*
X14292Y46463D01*
X14164Y46541D01*
X14025Y46599D01*
X13879Y46634D01*
X13730Y46645D01*
X13581Y46634D01*
X13435Y46599D01*
X13300Y46543D01*
Y47377D01*
G37*
G36*
X14527Y50841D02*X14527Y50840D01*
X14530Y50770D01*
X14527Y50700D01*
X14527Y50699D01*
Y50841D01*
G37*
G36*
Y60619D02*X16300D01*
Y56833D01*
X16201Y56825D01*
X16104Y56802D01*
X16013Y56764D01*
X15928Y56712D01*
X15852Y56648D01*
X15788Y56572D01*
X15736Y56487D01*
X15698Y56396D01*
X15675Y56299D01*
X15669Y56200D01*
Y52800D01*
X15675Y52701D01*
X15698Y52604D01*
X15736Y52513D01*
X15788Y52428D01*
X15852Y52352D01*
X15928Y52288D01*
X16013Y52236D01*
X16104Y52198D01*
X16201Y52175D01*
X16300Y52167D01*
Y51725D01*
X16151Y51714D01*
X16005Y51679D01*
X15866Y51621D01*
X15738Y51543D01*
X15624Y51446D01*
X15527Y51332D01*
X15449Y51204D01*
X15391Y51065D01*
X15356Y50919D01*
X15345Y50770D01*
X15356Y50621D01*
X15391Y50475D01*
X15449Y50336D01*
X15527Y50208D01*
X15624Y50094D01*
X15738Y49997D01*
X15866Y49919D01*
X16005Y49861D01*
X16151Y49826D01*
X16300Y49815D01*
Y42473D01*
X16245Y42418D01*
X16238Y42412D01*
X16214Y42385D01*
X16196Y42354D01*
X16182Y42321D01*
X16174Y42286D01*
X16174Y42286D01*
X16171Y42250D01*
X16171Y42241D01*
Y41856D01*
X16143Y41926D01*
X16102Y41992D01*
X16051Y42051D01*
X15992Y42102D01*
X15929Y42141D01*
Y46251D01*
X15929Y46260D01*
X15926Y46296D01*
X15926Y46296D01*
X15918Y46331D01*
X15904Y46364D01*
X15886Y46395D01*
X15862Y46422D01*
X15855Y46428D01*
X14545Y47738D01*
X14581Y47796D01*
X14639Y47935D01*
X14674Y48081D01*
X14682Y48230D01*
X14674Y48379D01*
X14639Y48525D01*
X14581Y48664D01*
X14527Y48753D01*
Y50249D01*
X14555Y50293D01*
X14594Y50367D01*
X14626Y50444D01*
X14651Y50523D01*
X14669Y50604D01*
X14680Y50687D01*
X14683Y50770D01*
X14680Y50853D01*
X14669Y50936D01*
X14651Y51017D01*
X14626Y51096D01*
X14594Y51173D01*
X14555Y51247D01*
X14527Y51292D01*
Y60619D01*
G37*
G36*
X13300D02*X14527D01*
Y51292D01*
X14511Y51317D01*
X14503Y51327D01*
X14494Y51335D01*
X14484Y51341D01*
X14473Y51346D01*
X14461Y51349D01*
X14449Y51350D01*
X14437Y51349D01*
X14425Y51347D01*
X14414Y51342D01*
X14403Y51336D01*
X14394Y51328D01*
X14386Y51319D01*
X14379Y51309D01*
X14374Y51298D01*
X14371Y51286D01*
X14370Y51274D01*
X14371Y51262D01*
X14374Y51250D01*
X14378Y51239D01*
X14384Y51229D01*
X14423Y51170D01*
X14455Y51108D01*
X14482Y51044D01*
X14503Y50977D01*
X14518Y50909D01*
X14527Y50841D01*
Y50699D01*
X14518Y50631D01*
X14503Y50563D01*
X14482Y50496D01*
X14455Y50432D01*
X14423Y50370D01*
X14385Y50311D01*
X14379Y50301D01*
X14374Y50289D01*
X14372Y50278D01*
X14371Y50266D01*
X14372Y50254D01*
X14375Y50242D01*
X14380Y50231D01*
X14386Y50221D01*
X14394Y50212D01*
X14404Y50204D01*
X14414Y50198D01*
X14425Y50194D01*
X14437Y50191D01*
X14449Y50191D01*
X14461Y50192D01*
X14472Y50195D01*
X14483Y50199D01*
X14493Y50206D01*
X14502Y50214D01*
X14510Y50223D01*
X14527Y50249D01*
Y48753D01*
X14503Y48792D01*
X14406Y48906D01*
X14292Y49003D01*
X14164Y49081D01*
X14025Y49139D01*
X13879Y49174D01*
X13730Y49185D01*
X13581Y49174D01*
X13435Y49139D01*
X13300Y49083D01*
Y49920D01*
X13327Y49906D01*
X13404Y49874D01*
X13483Y49849D01*
X13564Y49831D01*
X13647Y49820D01*
X13730Y49817D01*
X13813Y49820D01*
X13896Y49831D01*
X13977Y49849D01*
X14056Y49874D01*
X14133Y49906D01*
X14207Y49945D01*
X14277Y49989D01*
X14287Y49997D01*
X14295Y50006D01*
X14301Y50016D01*
X14306Y50027D01*
X14309Y50039D01*
X14310Y50051D01*
X14309Y50063D01*
X14307Y50075D01*
X14302Y50086D01*
X14296Y50097D01*
X14288Y50106D01*
X14279Y50114D01*
X14269Y50121D01*
X14258Y50126D01*
X14246Y50129D01*
X14234Y50130D01*
X14222Y50129D01*
X14210Y50126D01*
X14199Y50122D01*
X14189Y50116D01*
X14130Y50077D01*
X14068Y50045D01*
X14004Y50018D01*
X13937Y49997D01*
X13869Y49982D01*
X13800Y49973D01*
X13730Y49970D01*
X13660Y49973D01*
X13591Y49982D01*
X13523Y49997D01*
X13456Y50018D01*
X13392Y50045D01*
X13330Y50077D01*
X13300Y50096D01*
Y51443D01*
X13330Y51463D01*
X13392Y51495D01*
X13456Y51522D01*
X13523Y51543D01*
X13591Y51558D01*
X13660Y51567D01*
X13730Y51570D01*
X13800Y51567D01*
X13869Y51558D01*
X13937Y51543D01*
X14004Y51522D01*
X14068Y51495D01*
X14130Y51463D01*
X14189Y51425D01*
X14199Y51419D01*
X14211Y51414D01*
X14222Y51412D01*
X14234Y51411D01*
X14246Y51412D01*
X14258Y51415D01*
X14269Y51420D01*
X14279Y51426D01*
X14288Y51434D01*
X14296Y51444D01*
X14302Y51454D01*
X14306Y51465D01*
X14309Y51477D01*
X14309Y51489D01*
X14308Y51501D01*
X14305Y51512D01*
X14301Y51523D01*
X14294Y51533D01*
X14286Y51542D01*
X14277Y51550D01*
X14207Y51595D01*
X14133Y51634D01*
X14056Y51666D01*
X13977Y51691D01*
X13896Y51709D01*
X13813Y51720D01*
X13730Y51723D01*
X13647Y51720D01*
X13564Y51709D01*
X13483Y51691D01*
X13404Y51666D01*
X13327Y51634D01*
X13300Y51620D01*
Y60619D01*
G37*
G36*
X14517Y29251D02*X14517Y29250D01*
X14520Y29180D01*
X14517Y29110D01*
X14517Y29109D01*
Y29251D01*
G37*
G36*
X16300Y1381D02*X14517D01*
Y12232D01*
X14543Y12274D01*
X14573Y12346D01*
X14591Y12422D01*
X14597Y12500D01*
X14595Y12519D01*
Y13681D01*
X14597Y13700D01*
X14591Y13778D01*
X14591Y13778D01*
X14573Y13854D01*
X14543Y13926D01*
X14517Y13968D01*
Y21037D01*
X14571Y21126D01*
X14629Y21265D01*
X14664Y21411D01*
X14672Y21560D01*
X14664Y21709D01*
X14629Y21855D01*
X14571Y21994D01*
X14517Y22083D01*
Y23577D01*
X14571Y23666D01*
X14629Y23805D01*
X14664Y23951D01*
X14672Y24100D01*
X14664Y24249D01*
X14629Y24395D01*
X14571Y24534D01*
X14517Y24623D01*
Y26117D01*
X14571Y26206D01*
X14629Y26345D01*
X14664Y26491D01*
X14672Y26640D01*
X14664Y26789D01*
X14629Y26935D01*
X14571Y27074D01*
X14517Y27163D01*
Y28659D01*
X14545Y28703D01*
X14584Y28777D01*
X14616Y28854D01*
X14641Y28933D01*
X14659Y29014D01*
X14670Y29097D01*
X14673Y29180D01*
X14670Y29263D01*
X14659Y29346D01*
X14641Y29427D01*
X14616Y29506D01*
X14584Y29583D01*
X14545Y29657D01*
X14517Y29702D01*
Y31197D01*
X14571Y31286D01*
X14629Y31425D01*
X14664Y31571D01*
X14672Y31720D01*
X14664Y31869D01*
X14629Y32015D01*
X14571Y32154D01*
X14517Y32243D01*
Y33737D01*
X14571Y33826D01*
X14629Y33965D01*
X14664Y34111D01*
X14672Y34260D01*
X14664Y34409D01*
X14629Y34555D01*
X14571Y34694D01*
X14517Y34783D01*
Y40071D01*
X14581Y40176D01*
X14639Y40315D01*
X14674Y40461D01*
X14682Y40610D01*
X14674Y40759D01*
X14639Y40905D01*
X14581Y41044D01*
X14517Y41149D01*
Y41660D01*
X15282Y40895D01*
X15288Y40888D01*
X15315Y40864D01*
X15346Y40846D01*
X15379Y40832D01*
X15414Y40824D01*
X15414D01*
X15450Y40821D01*
X15459Y40821D01*
X15941D01*
X15950Y40821D01*
X15986Y40824D01*
X15986Y40824D01*
X16021Y40832D01*
X16054Y40846D01*
X16085Y40864D01*
X16112Y40888D01*
X16118Y40895D01*
X16300Y41077D01*
Y1381D01*
G37*
G36*
X14517Y41149D02*X14503Y41172D01*
X14406Y41286D01*
X14292Y41383D01*
X14164Y41461D01*
X14025Y41519D01*
X13879Y41554D01*
X13730Y41565D01*
X13581Y41554D01*
X13435Y41519D01*
X13300Y41463D01*
Y42297D01*
X13435Y42241D01*
X13581Y42206D01*
X13730Y42195D01*
X13879Y42206D01*
X13953Y42224D01*
X14517Y41660D01*
Y41149D01*
G37*
G36*
Y34783D02*X14493Y34822D01*
X14396Y34936D01*
X14282Y35033D01*
X14154Y35111D01*
X14015Y35169D01*
X13869Y35204D01*
X13720Y35215D01*
X13571Y35204D01*
X13425Y35169D01*
X13300Y35117D01*
Y39757D01*
X13435Y39701D01*
X13581Y39666D01*
X13730Y39655D01*
X13879Y39666D01*
X14025Y39701D01*
X14164Y39759D01*
X14292Y39837D01*
X14406Y39934D01*
X14503Y40048D01*
X14517Y40071D01*
Y34783D01*
G37*
G36*
Y32243D02*X14493Y32282D01*
X14396Y32396D01*
X14282Y32493D01*
X14154Y32571D01*
X14015Y32629D01*
X13869Y32664D01*
X13720Y32675D01*
X13571Y32664D01*
X13425Y32629D01*
X13300Y32577D01*
Y33403D01*
X13425Y33351D01*
X13571Y33316D01*
X13720Y33305D01*
X13869Y33316D01*
X14015Y33351D01*
X14154Y33409D01*
X14282Y33487D01*
X14396Y33584D01*
X14493Y33698D01*
X14517Y33737D01*
Y32243D01*
G37*
G36*
Y27163D02*X14493Y27202D01*
X14396Y27316D01*
X14282Y27413D01*
X14154Y27491D01*
X14015Y27549D01*
X13869Y27584D01*
X13720Y27595D01*
X13571Y27584D01*
X13425Y27549D01*
X13300Y27497D01*
Y28325D01*
X13317Y28316D01*
X13394Y28284D01*
X13473Y28259D01*
X13554Y28241D01*
X13637Y28230D01*
X13720Y28227D01*
X13803Y28230D01*
X13886Y28241D01*
X13967Y28259D01*
X14046Y28284D01*
X14123Y28316D01*
X14197Y28355D01*
X14267Y28399D01*
X14277Y28407D01*
X14285Y28416D01*
X14291Y28426D01*
X14296Y28437D01*
X14299Y28449D01*
X14300Y28461D01*
X14299Y28473D01*
X14297Y28485D01*
X14292Y28496D01*
X14286Y28507D01*
X14278Y28516D01*
X14269Y28524D01*
X14259Y28531D01*
X14248Y28536D01*
X14236Y28539D01*
X14224Y28540D01*
X14212Y28539D01*
X14200Y28536D01*
X14189Y28532D01*
X14179Y28526D01*
X14120Y28487D01*
X14058Y28455D01*
X13994Y28428D01*
X13927Y28407D01*
X13859Y28392D01*
X13790Y28383D01*
X13720Y28380D01*
X13650Y28383D01*
X13581Y28392D01*
X13513Y28407D01*
X13446Y28428D01*
X13382Y28455D01*
X13320Y28487D01*
X13300Y28500D01*
Y29860D01*
X13320Y29873D01*
X13382Y29905D01*
X13446Y29932D01*
X13513Y29953D01*
X13581Y29968D01*
X13650Y29977D01*
X13720Y29980D01*
X13790Y29977D01*
X13859Y29968D01*
X13927Y29953D01*
X13994Y29932D01*
X14058Y29905D01*
X14120Y29873D01*
X14179Y29835D01*
X14189Y29829D01*
X14201Y29824D01*
X14212Y29822D01*
X14224Y29821D01*
X14236Y29822D01*
X14248Y29825D01*
X14259Y29830D01*
X14269Y29836D01*
X14278Y29844D01*
X14286Y29854D01*
X14292Y29864D01*
X14296Y29875D01*
X14299Y29887D01*
X14299Y29899D01*
X14298Y29911D01*
X14295Y29922D01*
X14291Y29933D01*
X14284Y29943D01*
X14276Y29952D01*
X14267Y29960D01*
X14197Y30005D01*
X14123Y30044D01*
X14046Y30076D01*
X13967Y30101D01*
X13886Y30119D01*
X13803Y30130D01*
X13720Y30133D01*
X13637Y30130D01*
X13554Y30119D01*
X13473Y30101D01*
X13394Y30076D01*
X13317Y30044D01*
X13300Y30035D01*
Y30863D01*
X13425Y30811D01*
X13571Y30776D01*
X13720Y30765D01*
X13869Y30776D01*
X14015Y30811D01*
X14154Y30869D01*
X14282Y30947D01*
X14396Y31044D01*
X14493Y31158D01*
X14517Y31197D01*
Y29702D01*
X14501Y29727D01*
X14493Y29737D01*
X14484Y29745D01*
X14474Y29751D01*
X14463Y29756D01*
X14451Y29759D01*
X14439Y29760D01*
X14427Y29759D01*
X14415Y29757D01*
X14404Y29752D01*
X14393Y29746D01*
X14384Y29738D01*
X14376Y29729D01*
X14369Y29719D01*
X14364Y29708D01*
X14361Y29696D01*
X14360Y29684D01*
X14361Y29672D01*
X14364Y29660D01*
X14368Y29649D01*
X14374Y29639D01*
X14413Y29580D01*
X14445Y29518D01*
X14472Y29454D01*
X14493Y29387D01*
X14508Y29319D01*
X14517Y29251D01*
Y29109D01*
X14508Y29041D01*
X14493Y28973D01*
X14472Y28906D01*
X14445Y28842D01*
X14413Y28780D01*
X14375Y28721D01*
X14369Y28711D01*
X14364Y28699D01*
X14362Y28688D01*
X14361Y28676D01*
X14362Y28664D01*
X14365Y28652D01*
X14370Y28641D01*
X14376Y28631D01*
X14384Y28622D01*
X14394Y28614D01*
X14404Y28608D01*
X14415Y28604D01*
X14427Y28601D01*
X14439Y28601D01*
X14451Y28602D01*
X14462Y28605D01*
X14473Y28609D01*
X14483Y28616D01*
X14492Y28624D01*
X14500Y28633D01*
X14517Y28659D01*
Y27163D01*
G37*
G36*
Y24623D02*X14493Y24662D01*
X14396Y24776D01*
X14282Y24873D01*
X14154Y24951D01*
X14015Y25009D01*
X13869Y25044D01*
X13720Y25055D01*
X13571Y25044D01*
X13425Y25009D01*
X13300Y24957D01*
Y25783D01*
X13425Y25731D01*
X13571Y25696D01*
X13720Y25685D01*
X13869Y25696D01*
X14015Y25731D01*
X14154Y25789D01*
X14282Y25867D01*
X14396Y25964D01*
X14493Y26078D01*
X14517Y26117D01*
Y24623D01*
G37*
G36*
Y22083D02*X14493Y22122D01*
X14396Y22236D01*
X14282Y22333D01*
X14154Y22411D01*
X14015Y22469D01*
X13869Y22504D01*
X13720Y22515D01*
X13571Y22504D01*
X13425Y22469D01*
X13300Y22417D01*
Y23243D01*
X13425Y23191D01*
X13571Y23156D01*
X13720Y23145D01*
X13869Y23156D01*
X14015Y23191D01*
X14154Y23249D01*
X14282Y23327D01*
X14396Y23424D01*
X14493Y23538D01*
X14517Y23577D01*
Y22083D01*
G37*
G36*
Y13968D02*X14502Y13992D01*
X14451Y14051D01*
X14436Y14064D01*
X13764Y14736D01*
X13751Y14751D01*
X13692Y14802D01*
X13626Y14843D01*
X13554Y14873D01*
X13478Y14891D01*
X13478Y14891D01*
X13400Y14897D01*
X13381Y14895D01*
X13300D01*
Y20703D01*
X13425Y20651D01*
X13571Y20616D01*
X13720Y20605D01*
X13869Y20616D01*
X14015Y20651D01*
X14154Y20709D01*
X14282Y20787D01*
X14396Y20884D01*
X14493Y20998D01*
X14517Y21037D01*
Y13968D01*
G37*
G36*
Y1381D02*X13300D01*
Y11305D01*
X13381D01*
X13400Y11303D01*
X13478Y11309D01*
X13478Y11309D01*
X13554Y11327D01*
X13626Y11357D01*
X13692Y11398D01*
X13751Y11449D01*
X13764Y11464D01*
X14436Y12136D01*
X14451Y12149D01*
X14502Y12208D01*
X14517Y12232D01*
Y1381D01*
G37*
G36*
X12933Y13905D02*X13195D01*
X13300Y13800D01*
Y12400D01*
X13195Y12295D01*
X12933D01*
Y13905D01*
G37*
G36*
Y21021D02*X12947Y20998D01*
X13044Y20884D01*
X13158Y20787D01*
X13286Y20709D01*
X13300Y20703D01*
Y14895D01*
X12933D01*
Y21021D01*
G37*
G36*
Y23561D02*X12947Y23538D01*
X13044Y23424D01*
X13158Y23327D01*
X13286Y23249D01*
X13300Y23243D01*
Y22417D01*
X13286Y22411D01*
X13158Y22333D01*
X13044Y22236D01*
X12947Y22122D01*
X12933Y22099D01*
Y23561D01*
G37*
G36*
Y26101D02*X12947Y26078D01*
X13044Y25964D01*
X13158Y25867D01*
X13286Y25789D01*
X13300Y25783D01*
Y24957D01*
X13286Y24951D01*
X13158Y24873D01*
X13044Y24776D01*
X12947Y24662D01*
X12933Y24639D01*
Y26101D01*
G37*
G36*
Y31181D02*X12947Y31158D01*
X13044Y31044D01*
X13158Y30947D01*
X13286Y30869D01*
X13300Y30863D01*
Y30035D01*
X13243Y30005D01*
X13173Y29961D01*
X13163Y29953D01*
X13155Y29944D01*
X13149Y29934D01*
X13144Y29923D01*
X13141Y29911D01*
X13140Y29899D01*
X13141Y29887D01*
X13143Y29875D01*
X13148Y29864D01*
X13154Y29853D01*
X13162Y29844D01*
X13171Y29836D01*
X13181Y29829D01*
X13192Y29824D01*
X13204Y29821D01*
X13216Y29820D01*
X13228Y29821D01*
X13240Y29824D01*
X13251Y29828D01*
X13261Y29834D01*
X13300Y29860D01*
Y28500D01*
X13261Y28525D01*
X13251Y28531D01*
X13239Y28536D01*
X13228Y28538D01*
X13216Y28539D01*
X13204Y28538D01*
X13192Y28535D01*
X13181Y28530D01*
X13171Y28524D01*
X13162Y28516D01*
X13154Y28506D01*
X13148Y28496D01*
X13144Y28485D01*
X13141Y28473D01*
X13141Y28461D01*
X13142Y28449D01*
X13145Y28438D01*
X13149Y28427D01*
X13156Y28417D01*
X13164Y28408D01*
X13173Y28400D01*
X13243Y28355D01*
X13300Y28325D01*
Y27497D01*
X13286Y27491D01*
X13158Y27413D01*
X13044Y27316D01*
X12947Y27202D01*
X12933Y27179D01*
Y28642D01*
X12939Y28633D01*
X12947Y28623D01*
X12956Y28615D01*
X12966Y28609D01*
X12977Y28604D01*
X12989Y28601D01*
X13001Y28600D01*
X13013Y28601D01*
X13025Y28603D01*
X13036Y28608D01*
X13047Y28614D01*
X13056Y28622D01*
X13064Y28631D01*
X13071Y28641D01*
X13076Y28652D01*
X13079Y28664D01*
X13080Y28676D01*
X13079Y28688D01*
X13076Y28700D01*
X13072Y28711D01*
X13066Y28721D01*
X13027Y28780D01*
X12995Y28842D01*
X12968Y28906D01*
X12947Y28973D01*
X12933Y29036D01*
Y29324D01*
X12947Y29387D01*
X12968Y29454D01*
X12995Y29518D01*
X13027Y29580D01*
X13065Y29639D01*
X13071Y29649D01*
X13076Y29661D01*
X13078Y29672D01*
X13079Y29684D01*
X13078Y29696D01*
X13075Y29708D01*
X13070Y29719D01*
X13064Y29729D01*
X13056Y29738D01*
X13046Y29746D01*
X13036Y29752D01*
X13025Y29756D01*
X13013Y29759D01*
X13001Y29759D01*
X12989Y29758D01*
X12978Y29755D01*
X12967Y29751D01*
X12957Y29744D01*
X12948Y29736D01*
X12940Y29727D01*
X12933Y29716D01*
Y31181D01*
G37*
G36*
Y33721D02*X12947Y33698D01*
X13044Y33584D01*
X13158Y33487D01*
X13286Y33409D01*
X13300Y33403D01*
Y32577D01*
X13286Y32571D01*
X13158Y32493D01*
X13044Y32396D01*
X12947Y32282D01*
X12933Y32259D01*
Y33721D01*
G37*
G36*
Y40087D02*X12957Y40048D01*
X13054Y39934D01*
X13168Y39837D01*
X13296Y39759D01*
X13300Y39757D01*
Y35117D01*
X13286Y35111D01*
X13158Y35033D01*
X13044Y34936D01*
X12947Y34822D01*
X12933Y34799D01*
Y40087D01*
G37*
G36*
Y42627D02*X12957Y42588D01*
X13054Y42474D01*
X13168Y42377D01*
X13296Y42299D01*
X13300Y42297D01*
Y41463D01*
X13296Y41461D01*
X13168Y41383D01*
X13054Y41286D01*
X12957Y41172D01*
X12933Y41133D01*
Y42627D01*
G37*
G36*
Y45167D02*X12957Y45128D01*
X13054Y45014D01*
X13168Y44917D01*
X13296Y44839D01*
X13300Y44837D01*
Y44003D01*
X13296Y44001D01*
X13168Y43923D01*
X13054Y43826D01*
X12957Y43712D01*
X12933Y43673D01*
Y45167D01*
G37*
G36*
Y47707D02*X12957Y47668D01*
X13054Y47554D01*
X13168Y47457D01*
X13296Y47379D01*
X13300Y47377D01*
Y46543D01*
X13296Y46541D01*
X13168Y46463D01*
X13054Y46366D01*
X12957Y46252D01*
X12933Y46213D01*
Y47707D01*
G37*
G36*
Y60619D02*X13300D01*
Y51620D01*
X13253Y51595D01*
X13183Y51551D01*
X13173Y51543D01*
X13165Y51534D01*
X13159Y51524D01*
X13154Y51513D01*
X13151Y51501D01*
X13150Y51489D01*
X13151Y51477D01*
X13153Y51465D01*
X13158Y51454D01*
X13164Y51443D01*
X13172Y51434D01*
X13181Y51426D01*
X13191Y51419D01*
X13202Y51414D01*
X13214Y51411D01*
X13226Y51410D01*
X13238Y51411D01*
X13250Y51414D01*
X13261Y51418D01*
X13271Y51424D01*
X13300Y51443D01*
Y50096D01*
X13271Y50115D01*
X13261Y50121D01*
X13249Y50126D01*
X13238Y50128D01*
X13226Y50129D01*
X13214Y50128D01*
X13202Y50125D01*
X13191Y50120D01*
X13181Y50114D01*
X13172Y50106D01*
X13164Y50096D01*
X13158Y50086D01*
X13154Y50075D01*
X13151Y50063D01*
X13151Y50051D01*
X13152Y50039D01*
X13155Y50028D01*
X13159Y50017D01*
X13166Y50007D01*
X13174Y49998D01*
X13183Y49990D01*
X13253Y49945D01*
X13300Y49920D01*
Y49083D01*
X13296Y49081D01*
X13168Y49003D01*
X13054Y48906D01*
X12957Y48792D01*
X12933Y48753D01*
Y50248D01*
X12949Y50223D01*
X12957Y50213D01*
X12966Y50205D01*
X12976Y50199D01*
X12987Y50194D01*
X12999Y50191D01*
X13011Y50190D01*
X13023Y50191D01*
X13035Y50193D01*
X13046Y50198D01*
X13057Y50204D01*
X13066Y50212D01*
X13074Y50221D01*
X13081Y50231D01*
X13086Y50242D01*
X13089Y50254D01*
X13090Y50266D01*
X13089Y50278D01*
X13086Y50290D01*
X13082Y50301D01*
X13076Y50311D01*
X13037Y50370D01*
X13005Y50432D01*
X12978Y50496D01*
X12957Y50563D01*
X12942Y50631D01*
X12933Y50699D01*
Y50841D01*
X12942Y50909D01*
X12957Y50977D01*
X12978Y51044D01*
X13005Y51108D01*
X13037Y51170D01*
X13075Y51229D01*
X13081Y51239D01*
X13086Y51251D01*
X13088Y51262D01*
X13089Y51274D01*
X13088Y51286D01*
X13085Y51298D01*
X13080Y51309D01*
X13074Y51319D01*
X13066Y51328D01*
X13056Y51336D01*
X13046Y51342D01*
X13035Y51346D01*
X13023Y51349D01*
X13011Y51349D01*
X12999Y51348D01*
X12988Y51345D01*
X12977Y51341D01*
X12967Y51334D01*
X12958Y51326D01*
X12950Y51317D01*
X12933Y51291D01*
Y60619D01*
G37*
G36*
X13300Y1381D02*X12933D01*
Y11305D01*
X13300D01*
Y1381D01*
G37*
G36*
X12933Y29036D02*X12932Y29041D01*
X12923Y29110D01*
X12920Y29180D01*
X12923Y29250D01*
X12932Y29319D01*
X12933Y29324D01*
Y29036D01*
G37*
G36*
Y50699D02*X12933Y50700D01*
X12930Y50770D01*
X12933Y50840D01*
X12933Y50841D01*
Y50699D01*
G37*
G36*
X11977Y34331D02*X11977Y34330D01*
X11980Y34260D01*
X11977Y34190D01*
X11977Y34189D01*
Y34331D01*
G37*
G36*
X12933Y1381D02*X11977D01*
Y21037D01*
X12031Y21126D01*
X12089Y21265D01*
X12124Y21411D01*
X12132Y21560D01*
X12124Y21709D01*
X12089Y21855D01*
X12031Y21994D01*
X11977Y22083D01*
Y23577D01*
X12031Y23666D01*
X12089Y23805D01*
X12124Y23951D01*
X12132Y24100D01*
X12124Y24249D01*
X12089Y24395D01*
X12031Y24534D01*
X11977Y24623D01*
Y26117D01*
X12031Y26206D01*
X12089Y26345D01*
X12124Y26491D01*
X12132Y26640D01*
X12124Y26789D01*
X12089Y26935D01*
X12031Y27074D01*
X11977Y27163D01*
Y28657D01*
X12031Y28746D01*
X12089Y28885D01*
X12124Y29031D01*
X12132Y29180D01*
X12124Y29329D01*
X12089Y29475D01*
X12031Y29614D01*
X11977Y29703D01*
Y31197D01*
X12031Y31286D01*
X12089Y31425D01*
X12124Y31571D01*
X12132Y31720D01*
X12124Y31869D01*
X12089Y32015D01*
X12031Y32154D01*
X11977Y32243D01*
Y33739D01*
X12005Y33783D01*
X12044Y33857D01*
X12076Y33934D01*
X12101Y34013D01*
X12119Y34094D01*
X12130Y34177D01*
X12133Y34260D01*
X12130Y34343D01*
X12119Y34426D01*
X12101Y34507D01*
X12076Y34586D01*
X12044Y34663D01*
X12005Y34737D01*
X11977Y34782D01*
Y40071D01*
X12041Y40176D01*
X12099Y40315D01*
X12134Y40461D01*
X12142Y40610D01*
X12134Y40759D01*
X12099Y40905D01*
X12041Y41044D01*
X11977Y41149D01*
Y42611D01*
X12041Y42716D01*
X12099Y42855D01*
X12134Y43001D01*
X12142Y43150D01*
X12134Y43299D01*
X12099Y43445D01*
X12041Y43584D01*
X11977Y43689D01*
Y45151D01*
X12041Y45256D01*
X12099Y45395D01*
X12134Y45541D01*
X12142Y45690D01*
X12134Y45839D01*
X12099Y45985D01*
X12041Y46124D01*
X11977Y46229D01*
Y47691D01*
X12041Y47796D01*
X12099Y47935D01*
X12134Y48081D01*
X12142Y48230D01*
X12134Y48379D01*
X12099Y48525D01*
X12041Y48664D01*
X11977Y48769D01*
Y50231D01*
X12041Y50336D01*
X12099Y50475D01*
X12134Y50621D01*
X12142Y50770D01*
X12134Y50919D01*
X12099Y51065D01*
X12041Y51204D01*
X11977Y51309D01*
Y60619D01*
X12933D01*
Y51291D01*
X12905Y51247D01*
X12866Y51173D01*
X12834Y51096D01*
X12809Y51017D01*
X12791Y50936D01*
X12780Y50853D01*
X12777Y50770D01*
X12780Y50687D01*
X12791Y50604D01*
X12809Y50523D01*
X12834Y50444D01*
X12866Y50367D01*
X12905Y50293D01*
X12933Y50248D01*
Y48753D01*
X12879Y48664D01*
X12821Y48525D01*
X12786Y48379D01*
X12775Y48230D01*
X12786Y48081D01*
X12821Y47935D01*
X12879Y47796D01*
X12933Y47707D01*
Y46213D01*
X12879Y46124D01*
X12821Y45985D01*
X12786Y45839D01*
X12775Y45690D01*
X12786Y45541D01*
X12821Y45395D01*
X12879Y45256D01*
X12933Y45167D01*
Y43673D01*
X12879Y43584D01*
X12821Y43445D01*
X12786Y43299D01*
X12775Y43150D01*
X12786Y43001D01*
X12821Y42855D01*
X12879Y42716D01*
X12933Y42627D01*
Y41133D01*
X12879Y41044D01*
X12821Y40905D01*
X12786Y40759D01*
X12775Y40610D01*
X12786Y40461D01*
X12821Y40315D01*
X12879Y40176D01*
X12933Y40087D01*
Y34799D01*
X12869Y34694D01*
X12811Y34555D01*
X12776Y34409D01*
X12765Y34260D01*
X12776Y34111D01*
X12811Y33965D01*
X12869Y33826D01*
X12933Y33721D01*
Y32259D01*
X12869Y32154D01*
X12811Y32015D01*
X12776Y31869D01*
X12765Y31720D01*
X12776Y31571D01*
X12811Y31425D01*
X12869Y31286D01*
X12933Y31181D01*
Y29716D01*
X12895Y29657D01*
X12856Y29583D01*
X12824Y29506D01*
X12799Y29427D01*
X12781Y29346D01*
X12770Y29263D01*
X12767Y29180D01*
X12770Y29097D01*
X12781Y29014D01*
X12799Y28933D01*
X12824Y28854D01*
X12856Y28777D01*
X12895Y28703D01*
X12933Y28642D01*
Y27179D01*
X12869Y27074D01*
X12811Y26935D01*
X12776Y26789D01*
X12765Y26640D01*
X12776Y26491D01*
X12811Y26345D01*
X12869Y26206D01*
X12933Y26101D01*
Y24639D01*
X12869Y24534D01*
X12811Y24395D01*
X12776Y24249D01*
X12765Y24100D01*
X12776Y23951D01*
X12811Y23805D01*
X12869Y23666D01*
X12933Y23561D01*
Y22099D01*
X12869Y21994D01*
X12811Y21855D01*
X12776Y21709D01*
X12765Y21560D01*
X12776Y21411D01*
X12811Y21265D01*
X12869Y21126D01*
X12933Y21021D01*
Y14895D01*
X12519D01*
X12500Y14897D01*
X12422Y14891D01*
X12346Y14873D01*
X12274Y14843D01*
X12208Y14802D01*
X12149Y14751D01*
X12098Y14692D01*
X12057Y14626D01*
X12027Y14554D01*
X12009Y14478D01*
X12003Y14400D01*
X12009Y14322D01*
X12027Y14246D01*
X12057Y14174D01*
X12098Y14108D01*
X12149Y14049D01*
X12208Y13998D01*
X12274Y13957D01*
X12346Y13927D01*
X12422Y13909D01*
X12500Y13903D01*
X12519Y13905D01*
X12933D01*
Y12295D01*
X12519D01*
X12500Y12297D01*
X12422Y12291D01*
X12346Y12273D01*
X12274Y12243D01*
X12208Y12202D01*
X12149Y12151D01*
X12098Y12092D01*
X12057Y12026D01*
X12027Y11954D01*
X12009Y11878D01*
X12003Y11800D01*
X12009Y11722D01*
X12027Y11646D01*
X12057Y11574D01*
X12098Y11508D01*
X12149Y11449D01*
X12208Y11398D01*
X12274Y11357D01*
X12346Y11327D01*
X12422Y11309D01*
X12500Y11303D01*
X12519Y11305D01*
X12933D01*
Y1381D01*
G37*
G36*
X11977Y51309D02*X11963Y51332D01*
X11866Y51446D01*
X11752Y51543D01*
X11624Y51621D01*
X11485Y51679D01*
X11339Y51714D01*
X11190Y51725D01*
X11041Y51714D01*
X10895Y51679D01*
X10756Y51621D01*
X10643Y51552D01*
Y60619D01*
X11977D01*
Y51309D01*
G37*
G36*
Y48769D02*X11963Y48792D01*
X11866Y48906D01*
X11752Y49003D01*
X11624Y49081D01*
X11485Y49139D01*
X11339Y49174D01*
X11190Y49185D01*
X11041Y49174D01*
X10895Y49139D01*
X10756Y49081D01*
X10643Y49012D01*
Y49988D01*
X10756Y49919D01*
X10895Y49861D01*
X11041Y49826D01*
X11190Y49815D01*
X11339Y49826D01*
X11485Y49861D01*
X11624Y49919D01*
X11752Y49997D01*
X11866Y50094D01*
X11963Y50208D01*
X11977Y50231D01*
Y48769D01*
G37*
G36*
Y46229D02*X11963Y46252D01*
X11866Y46366D01*
X11752Y46463D01*
X11624Y46541D01*
X11485Y46599D01*
X11339Y46634D01*
X11190Y46645D01*
X11041Y46634D01*
X10895Y46599D01*
X10756Y46541D01*
X10643Y46472D01*
Y47448D01*
X10756Y47379D01*
X10895Y47321D01*
X11041Y47286D01*
X11190Y47275D01*
X11339Y47286D01*
X11485Y47321D01*
X11624Y47379D01*
X11752Y47457D01*
X11866Y47554D01*
X11963Y47668D01*
X11977Y47691D01*
Y46229D01*
G37*
G36*
Y43689D02*X11963Y43712D01*
X11866Y43826D01*
X11752Y43923D01*
X11624Y44001D01*
X11485Y44059D01*
X11339Y44094D01*
X11190Y44105D01*
X11041Y44094D01*
X10895Y44059D01*
X10756Y44001D01*
X10643Y43932D01*
Y44908D01*
X10756Y44839D01*
X10895Y44781D01*
X11041Y44746D01*
X11190Y44735D01*
X11339Y44746D01*
X11485Y44781D01*
X11624Y44839D01*
X11752Y44917D01*
X11866Y45014D01*
X11963Y45128D01*
X11977Y45151D01*
Y43689D01*
G37*
G36*
Y41149D02*X11963Y41172D01*
X11866Y41286D01*
X11752Y41383D01*
X11624Y41461D01*
X11485Y41519D01*
X11339Y41554D01*
X11190Y41565D01*
X11041Y41554D01*
X10895Y41519D01*
X10756Y41461D01*
X10643Y41392D01*
Y42368D01*
X10756Y42299D01*
X10895Y42241D01*
X11041Y42206D01*
X11190Y42195D01*
X11339Y42206D01*
X11485Y42241D01*
X11624Y42299D01*
X11752Y42377D01*
X11866Y42474D01*
X11963Y42588D01*
X11977Y42611D01*
Y41149D01*
G37*
G36*
Y32243D02*X11953Y32282D01*
X11856Y32396D01*
X11742Y32493D01*
X11614Y32571D01*
X11475Y32629D01*
X11329Y32664D01*
X11180Y32675D01*
X11031Y32664D01*
X10885Y32629D01*
X10746Y32571D01*
X10643Y32508D01*
Y32567D01*
X10645Y32610D01*
X10643Y32653D01*
Y33474D01*
X10703Y33435D01*
X10777Y33396D01*
X10854Y33364D01*
X10933Y33339D01*
X11014Y33321D01*
X11097Y33310D01*
X11180Y33307D01*
X11263Y33310D01*
X11346Y33321D01*
X11427Y33339D01*
X11506Y33364D01*
X11583Y33396D01*
X11657Y33435D01*
X11727Y33479D01*
X11737Y33487D01*
X11745Y33496D01*
X11751Y33506D01*
X11756Y33517D01*
X11759Y33529D01*
X11760Y33541D01*
X11759Y33553D01*
X11757Y33565D01*
X11752Y33576D01*
X11746Y33587D01*
X11738Y33596D01*
X11729Y33604D01*
X11719Y33611D01*
X11708Y33616D01*
X11696Y33619D01*
X11684Y33620D01*
X11672Y33619D01*
X11660Y33616D01*
X11649Y33612D01*
X11639Y33606D01*
X11580Y33567D01*
X11518Y33535D01*
X11454Y33508D01*
X11387Y33487D01*
X11319Y33472D01*
X11250Y33463D01*
X11180Y33460D01*
X11110Y33463D01*
X11041Y33472D01*
X10973Y33487D01*
X10906Y33508D01*
X10842Y33535D01*
X10780Y33567D01*
X10721Y33605D01*
X10711Y33611D01*
X10699Y33616D01*
X10688Y33618D01*
X10676Y33619D01*
X10664Y33618D01*
X10652Y33615D01*
X10643Y33611D01*
Y34908D01*
X10652Y34904D01*
X10664Y34901D01*
X10676Y34900D01*
X10688Y34901D01*
X10700Y34904D01*
X10711Y34908D01*
X10721Y34914D01*
X10780Y34953D01*
X10842Y34985D01*
X10906Y35012D01*
X10973Y35033D01*
X11041Y35048D01*
X11110Y35057D01*
X11180Y35060D01*
X11250Y35057D01*
X11319Y35048D01*
X11387Y35033D01*
X11454Y35012D01*
X11518Y34985D01*
X11580Y34953D01*
X11639Y34915D01*
X11649Y34909D01*
X11661Y34904D01*
X11672Y34902D01*
X11684Y34901D01*
X11696Y34902D01*
X11708Y34905D01*
X11719Y34910D01*
X11729Y34916D01*
X11738Y34924D01*
X11746Y34934D01*
X11752Y34944D01*
X11756Y34955D01*
X11759Y34967D01*
X11759Y34979D01*
X11758Y34991D01*
X11755Y35002D01*
X11751Y35013D01*
X11744Y35023D01*
X11736Y35032D01*
X11727Y35040D01*
X11657Y35085D01*
X11583Y35124D01*
X11506Y35156D01*
X11427Y35181D01*
X11346Y35199D01*
X11263Y35210D01*
X11180Y35213D01*
X11097Y35210D01*
X11014Y35199D01*
X10933Y35181D01*
X10854Y35156D01*
X10777Y35124D01*
X10703Y35085D01*
X10643Y35047D01*
Y39828D01*
X10756Y39759D01*
X10895Y39701D01*
X11041Y39666D01*
X11190Y39655D01*
X11339Y39666D01*
X11485Y39701D01*
X11624Y39759D01*
X11752Y39837D01*
X11866Y39934D01*
X11963Y40048D01*
X11977Y40071D01*
Y34782D01*
X11961Y34807D01*
X11953Y34817D01*
X11944Y34825D01*
X11934Y34831D01*
X11923Y34836D01*
X11911Y34839D01*
X11899Y34840D01*
X11887Y34839D01*
X11875Y34837D01*
X11864Y34832D01*
X11853Y34826D01*
X11844Y34818D01*
X11836Y34809D01*
X11829Y34799D01*
X11824Y34788D01*
X11821Y34776D01*
X11820Y34764D01*
X11821Y34752D01*
X11824Y34740D01*
X11828Y34729D01*
X11834Y34719D01*
X11873Y34660D01*
X11905Y34598D01*
X11932Y34534D01*
X11953Y34467D01*
X11968Y34399D01*
X11977Y34331D01*
Y34189D01*
X11968Y34121D01*
X11953Y34053D01*
X11932Y33986D01*
X11905Y33922D01*
X11873Y33860D01*
X11835Y33801D01*
X11829Y33791D01*
X11824Y33779D01*
X11822Y33768D01*
X11821Y33756D01*
X11822Y33744D01*
X11825Y33732D01*
X11830Y33721D01*
X11836Y33711D01*
X11844Y33702D01*
X11854Y33694D01*
X11864Y33688D01*
X11875Y33684D01*
X11887Y33681D01*
X11899Y33681D01*
X11911Y33682D01*
X11922Y33685D01*
X11933Y33689D01*
X11943Y33696D01*
X11952Y33704D01*
X11960Y33713D01*
X11977Y33739D01*
Y32243D01*
G37*
G36*
Y29703D02*X11953Y29742D01*
X11856Y29856D01*
X11742Y29953D01*
X11614Y30031D01*
X11475Y30089D01*
X11329Y30124D01*
X11180Y30135D01*
X11031Y30124D01*
X10885Y30089D01*
X10746Y30031D01*
X10643Y29968D01*
Y30932D01*
X10746Y30869D01*
X10885Y30811D01*
X11031Y30776D01*
X11180Y30765D01*
X11329Y30776D01*
X11475Y30811D01*
X11614Y30869D01*
X11742Y30947D01*
X11856Y31044D01*
X11953Y31158D01*
X11977Y31197D01*
Y29703D01*
G37*
G36*
Y27163D02*X11953Y27202D01*
X11856Y27316D01*
X11742Y27413D01*
X11614Y27491D01*
X11475Y27549D01*
X11329Y27584D01*
X11180Y27595D01*
X11031Y27584D01*
X10986Y27573D01*
X10993Y27584D01*
X11023Y27656D01*
X11041Y27732D01*
X11045Y27810D01*
X11041Y27888D01*
X11023Y27964D01*
X10993Y28036D01*
X10952Y28102D01*
X10901Y28161D01*
X10842Y28212D01*
X10776Y28253D01*
X10704Y28283D01*
X10643Y28297D01*
Y28392D01*
X10746Y28329D01*
X10885Y28271D01*
X11031Y28236D01*
X11180Y28225D01*
X11329Y28236D01*
X11475Y28271D01*
X11614Y28329D01*
X11742Y28407D01*
X11856Y28504D01*
X11953Y28618D01*
X11977Y28657D01*
Y27163D01*
G37*
G36*
Y24623D02*X11953Y24662D01*
X11856Y24776D01*
X11742Y24873D01*
X11614Y24951D01*
X11475Y25009D01*
X11329Y25044D01*
X11180Y25055D01*
X11031Y25044D01*
X10885Y25009D01*
X10746Y24951D01*
X10643Y24888D01*
Y25852D01*
X10746Y25789D01*
X10885Y25731D01*
X11031Y25696D01*
X11180Y25685D01*
X11329Y25696D01*
X11475Y25731D01*
X11614Y25789D01*
X11742Y25867D01*
X11856Y25964D01*
X11953Y26078D01*
X11977Y26117D01*
Y24623D01*
G37*
G36*
Y22083D02*X11953Y22122D01*
X11856Y22236D01*
X11742Y22333D01*
X11614Y22411D01*
X11475Y22469D01*
X11329Y22504D01*
X11180Y22515D01*
X11031Y22504D01*
X10885Y22469D01*
X10746Y22411D01*
X10643Y22348D01*
Y23312D01*
X10746Y23249D01*
X10885Y23191D01*
X11031Y23156D01*
X11180Y23145D01*
X11329Y23156D01*
X11475Y23191D01*
X11614Y23249D01*
X11742Y23327D01*
X11856Y23424D01*
X11953Y23538D01*
X11977Y23577D01*
Y22083D01*
G37*
G36*
Y1381D02*X10643D01*
Y20772D01*
X10746Y20709D01*
X10885Y20651D01*
X11031Y20616D01*
X11180Y20605D01*
X11329Y20616D01*
X11475Y20651D01*
X11614Y20709D01*
X11742Y20787D01*
X11856Y20884D01*
X11953Y20998D01*
X11977Y21037D01*
Y1381D01*
G37*
G36*
X10643Y32508D02*X10633Y32502D01*
X10641Y32532D01*
X10643Y32567D01*
Y32508D01*
G37*
G36*
X10383Y23577D02*X10407Y23538D01*
X10504Y23424D01*
X10618Y23327D01*
X10643Y23312D01*
Y22348D01*
X10618Y22333D01*
X10504Y22236D01*
X10407Y22122D01*
X10383Y22083D01*
Y23577D01*
G37*
G36*
Y26117D02*X10407Y26078D01*
X10504Y25964D01*
X10618Y25867D01*
X10643Y25852D01*
Y24888D01*
X10618Y24873D01*
X10504Y24776D01*
X10407Y24662D01*
X10383Y24623D01*
Y26117D01*
G37*
G36*
Y27343D02*X10396Y27337D01*
X10472Y27319D01*
X10506Y27317D01*
X10504Y27316D01*
X10407Y27202D01*
X10383Y27163D01*
Y27343D01*
G37*
G36*
Y28657D02*X10407Y28618D01*
X10504Y28504D01*
X10618Y28407D01*
X10643Y28392D01*
Y28297D01*
X10628Y28301D01*
X10550Y28307D01*
X10472Y28301D01*
X10396Y28283D01*
X10383Y28277D01*
Y28657D01*
G37*
G36*
Y31197D02*X10407Y31158D01*
X10504Y31044D01*
X10618Y30947D01*
X10643Y30932D01*
Y29968D01*
X10618Y29953D01*
X10504Y29856D01*
X10407Y29742D01*
X10383Y29703D01*
Y31197D01*
G37*
G36*
Y40104D02*X10417Y40048D01*
X10514Y39934D01*
X10628Y39837D01*
X10643Y39828D01*
Y35047D01*
X10633Y35041D01*
X10623Y35033D01*
X10615Y35024D01*
X10609Y35014D01*
X10604Y35003D01*
X10601Y34991D01*
X10600Y34979D01*
X10601Y34967D01*
X10603Y34955D01*
X10608Y34944D01*
X10614Y34933D01*
X10622Y34924D01*
X10631Y34916D01*
X10641Y34909D01*
X10643Y34908D01*
Y33611D01*
X10641Y33610D01*
X10631Y33604D01*
X10622Y33596D01*
X10614Y33586D01*
X10608Y33576D01*
X10604Y33565D01*
X10601Y33553D01*
X10601Y33541D01*
X10602Y33529D01*
X10605Y33518D01*
X10609Y33507D01*
X10616Y33497D01*
X10624Y33488D01*
X10633Y33480D01*
X10643Y33474D01*
Y32653D01*
X10641Y32688D01*
X10623Y32764D01*
X10593Y32836D01*
X10552Y32902D01*
X10501Y32961D01*
X10442Y33012D01*
X10383Y33048D01*
Y33738D01*
X10399Y33713D01*
X10407Y33703D01*
X10416Y33695D01*
X10426Y33689D01*
X10437Y33684D01*
X10449Y33681D01*
X10461Y33680D01*
X10473Y33681D01*
X10485Y33683D01*
X10496Y33688D01*
X10507Y33694D01*
X10516Y33702D01*
X10524Y33711D01*
X10531Y33721D01*
X10536Y33732D01*
X10539Y33744D01*
X10540Y33756D01*
X10539Y33768D01*
X10536Y33780D01*
X10532Y33791D01*
X10526Y33801D01*
X10487Y33860D01*
X10455Y33922D01*
X10428Y33986D01*
X10407Y34053D01*
X10392Y34121D01*
X10383Y34189D01*
Y34331D01*
X10392Y34399D01*
X10407Y34467D01*
X10428Y34534D01*
X10455Y34598D01*
X10487Y34660D01*
X10525Y34719D01*
X10531Y34729D01*
X10536Y34741D01*
X10538Y34752D01*
X10539Y34764D01*
X10538Y34776D01*
X10535Y34788D01*
X10530Y34799D01*
X10524Y34809D01*
X10516Y34818D01*
X10506Y34826D01*
X10496Y34832D01*
X10485Y34836D01*
X10473Y34839D01*
X10461Y34839D01*
X10449Y34838D01*
X10438Y34835D01*
X10427Y34831D01*
X10417Y34824D01*
X10408Y34816D01*
X10400Y34807D01*
X10383Y34781D01*
Y40104D01*
G37*
G36*
Y42644D02*X10417Y42588D01*
X10514Y42474D01*
X10628Y42377D01*
X10643Y42368D01*
Y41392D01*
X10628Y41383D01*
X10514Y41286D01*
X10417Y41172D01*
X10383Y41116D01*
Y42644D01*
G37*
G36*
Y45184D02*X10417Y45128D01*
X10514Y45014D01*
X10628Y44917D01*
X10643Y44908D01*
Y43932D01*
X10628Y43923D01*
X10514Y43826D01*
X10417Y43712D01*
X10383Y43656D01*
Y45184D01*
G37*
G36*
Y47724D02*X10417Y47668D01*
X10514Y47554D01*
X10628Y47457D01*
X10643Y47448D01*
Y46472D01*
X10628Y46463D01*
X10514Y46366D01*
X10417Y46252D01*
X10383Y46196D01*
Y47724D01*
G37*
G36*
Y50264D02*X10417Y50208D01*
X10514Y50094D01*
X10628Y49997D01*
X10643Y49988D01*
Y49012D01*
X10628Y49003D01*
X10514Y48906D01*
X10417Y48792D01*
X10383Y48736D01*
Y50264D01*
G37*
G36*
Y60619D02*X10643D01*
Y51552D01*
X10628Y51543D01*
X10514Y51446D01*
X10417Y51332D01*
X10383Y51276D01*
Y60619D01*
G37*
G36*
X10643Y1381D02*X10383D01*
Y21037D01*
X10407Y20998D01*
X10504Y20884D01*
X10618Y20787D01*
X10643Y20772D01*
Y1381D01*
G37*
G36*
X10383Y34189D02*X10383Y34190D01*
X10380Y34260D01*
X10383Y34330D01*
X10383Y34331D01*
Y34189D01*
G37*
G36*
Y1381D02*X8200D01*
Y7748D01*
X8210Y7742D01*
X8398Y7664D01*
X8597Y7617D01*
X8800Y7601D01*
X8852Y7605D01*
X9967Y7606D01*
X9990Y7612D01*
X10012Y7621D01*
X10033Y7633D01*
X10051Y7649D01*
X10067Y7667D01*
X10079Y7688D01*
X10088Y7710D01*
X10094Y7733D01*
X10095Y7757D01*
X10095Y8888D01*
X10095Y8900D01*
X10095Y8912D01*
X10094Y10067D01*
X10088Y10090D01*
X10079Y10112D01*
X10067Y10133D01*
X10051Y10151D01*
X10033Y10167D01*
X10012Y10179D01*
X9990Y10188D01*
X9967Y10194D01*
X9943Y10195D01*
X8867Y10194D01*
X8800Y10199D01*
X8597Y10183D01*
X8398Y10136D01*
X8210Y10058D01*
X8200Y10052D01*
Y14805D01*
X8733Y14806D01*
X8800Y14801D01*
X8852Y14805D01*
X9967Y14806D01*
X9990Y14812D01*
X10012Y14821D01*
X10033Y14833D01*
X10051Y14849D01*
X10067Y14867D01*
X10079Y14888D01*
X10088Y14910D01*
X10094Y14933D01*
X10095Y14957D01*
X10095Y16088D01*
X10095Y16100D01*
X10095Y16112D01*
X10094Y17267D01*
X10088Y17290D01*
X10079Y17312D01*
X10067Y17333D01*
X10051Y17351D01*
X10033Y17367D01*
X10012Y17379D01*
X9990Y17388D01*
X9967Y17394D01*
X9943Y17395D01*
X8867Y17394D01*
X8800Y17399D01*
X8748Y17395D01*
X8200Y17395D01*
Y23647D01*
X8226Y23657D01*
X8292Y23698D01*
X8351Y23749D01*
X8402Y23808D01*
X8443Y23874D01*
X8473Y23946D01*
X8491Y24022D01*
X8495Y24100D01*
X8491Y24178D01*
X8473Y24254D01*
X8443Y24326D01*
X8402Y24392D01*
X8351Y24451D01*
X8292Y24502D01*
X8226Y24543D01*
X8200Y24553D01*
Y37069D01*
X9200D01*
X9299Y37075D01*
X9396Y37098D01*
X9487Y37136D01*
X9572Y37188D01*
X9648Y37252D01*
X9712Y37328D01*
X9764Y37413D01*
X9802Y37504D01*
X9825Y37601D01*
X9833Y37700D01*
X9825Y37799D01*
X9802Y37896D01*
X9764Y37987D01*
X9712Y38072D01*
X9648Y38148D01*
X9572Y38212D01*
X9487Y38264D01*
X9396Y38302D01*
X9299Y38325D01*
X9200Y38331D01*
X8200D01*
Y60619D01*
X10383D01*
Y51276D01*
X10339Y51204D01*
X10281Y51065D01*
X10246Y50919D01*
X10235Y50770D01*
X10246Y50621D01*
X10281Y50475D01*
X10339Y50336D01*
X10383Y50264D01*
Y48736D01*
X10339Y48664D01*
X10281Y48525D01*
X10246Y48379D01*
X10235Y48230D01*
X10246Y48081D01*
X10281Y47935D01*
X10339Y47796D01*
X10383Y47724D01*
Y46196D01*
X10339Y46124D01*
X10281Y45985D01*
X10246Y45839D01*
X10235Y45690D01*
X10246Y45541D01*
X10281Y45395D01*
X10339Y45256D01*
X10383Y45184D01*
Y43656D01*
X10339Y43584D01*
X10281Y43445D01*
X10246Y43299D01*
X10235Y43150D01*
X10246Y43001D01*
X10281Y42855D01*
X10339Y42716D01*
X10383Y42644D01*
Y41116D01*
X10339Y41044D01*
X10281Y40905D01*
X10246Y40759D01*
X10235Y40610D01*
X10246Y40461D01*
X10281Y40315D01*
X10339Y40176D01*
X10383Y40104D01*
Y34781D01*
X10355Y34737D01*
X10316Y34663D01*
X10284Y34586D01*
X10259Y34507D01*
X10241Y34426D01*
X10230Y34343D01*
X10227Y34260D01*
X10230Y34177D01*
X10241Y34094D01*
X10259Y34013D01*
X10284Y33934D01*
X10316Y33857D01*
X10355Y33783D01*
X10383Y33738D01*
Y33048D01*
X10376Y33053D01*
X10304Y33083D01*
X10228Y33101D01*
X10150Y33107D01*
X10072Y33101D01*
X10000Y33083D01*
X9879Y33205D01*
Y33569D01*
X9942Y33608D01*
X10001Y33659D01*
X10052Y33718D01*
X10093Y33784D01*
X10123Y33856D01*
X10141Y33932D01*
X10145Y34010D01*
X10141Y34088D01*
X10123Y34164D01*
X10093Y34236D01*
X10052Y34302D01*
X10001Y34361D01*
X9942Y34412D01*
X9876Y34453D01*
X9804Y34483D01*
X9728Y34501D01*
X9650Y34507D01*
X9572Y34501D01*
X9496Y34483D01*
X9424Y34453D01*
X9358Y34412D01*
X9299Y34361D01*
X9248Y34302D01*
X9207Y34236D01*
X9177Y34164D01*
X9159Y34088D01*
X9153Y34010D01*
X9159Y33932D01*
X9177Y33856D01*
X9207Y33784D01*
X9248Y33718D01*
X9299Y33659D01*
X9358Y33608D01*
X9421Y33569D01*
Y33119D01*
X9421Y33110D01*
X9424Y33074D01*
Y33074D01*
X9432Y33039D01*
X9446Y33006D01*
X9464Y32975D01*
X9488Y32948D01*
X9495Y32942D01*
X9677Y32760D01*
X9659Y32688D01*
X9653Y32610D01*
X9659Y32532D01*
X9677Y32456D01*
X9707Y32384D01*
X9748Y32318D01*
X9799Y32259D01*
X9858Y32208D01*
X9924Y32167D01*
X9996Y32137D01*
X10072Y32119D01*
X10150Y32113D01*
X10228Y32119D01*
X10304Y32137D01*
X10326Y32147D01*
X10271Y32015D01*
X10236Y31869D01*
X10225Y31720D01*
X10236Y31571D01*
X10271Y31425D01*
X10329Y31286D01*
X10383Y31197D01*
Y29703D01*
X10329Y29614D01*
X10271Y29475D01*
X10236Y29329D01*
X10225Y29180D01*
X10236Y29031D01*
X10271Y28885D01*
X10329Y28746D01*
X10383Y28657D01*
Y28277D01*
X10324Y28253D01*
X10258Y28212D01*
X10199Y28161D01*
X10148Y28102D01*
X10109Y28039D01*
X9391D01*
X9352Y28102D01*
X9301Y28161D01*
X9242Y28212D01*
X9176Y28253D01*
X9104Y28283D01*
X9028Y28301D01*
X8950Y28307D01*
X8872Y28301D01*
X8796Y28283D01*
X8724Y28253D01*
X8658Y28212D01*
X8599Y28161D01*
X8548Y28102D01*
X8507Y28036D01*
X8477Y27964D01*
X8459Y27888D01*
X8453Y27810D01*
X8459Y27732D01*
X8477Y27656D01*
X8507Y27584D01*
X8548Y27518D01*
X8599Y27459D01*
X8658Y27408D01*
X8724Y27367D01*
X8796Y27337D01*
X8872Y27319D01*
X8950Y27313D01*
X9028Y27319D01*
X9104Y27337D01*
X9176Y27367D01*
X9242Y27408D01*
X9301Y27459D01*
X9352Y27518D01*
X9391Y27581D01*
X10109D01*
X10148Y27518D01*
X10199Y27459D01*
X10258Y27408D01*
X10324Y27367D01*
X10383Y27343D01*
Y27163D01*
X10329Y27074D01*
X10271Y26935D01*
X10236Y26789D01*
X10225Y26640D01*
X10236Y26491D01*
X10271Y26345D01*
X10329Y26206D01*
X10383Y26117D01*
Y24623D01*
X10329Y24534D01*
X10271Y24395D01*
X10236Y24249D01*
X10225Y24100D01*
X10236Y23951D01*
X10271Y23805D01*
X10329Y23666D01*
X10383Y23577D01*
Y22083D01*
X10329Y21994D01*
X10271Y21855D01*
X10236Y21709D01*
X10225Y21560D01*
X10236Y21411D01*
X10271Y21265D01*
X10329Y21126D01*
X10383Y21037D01*
Y1381D01*
G37*
G36*
X8200Y24553D02*X8154Y24573D01*
X8078Y24591D01*
X8000Y24597D01*
X7922Y24591D01*
X7846Y24573D01*
X7774Y24543D01*
X7708Y24502D01*
X7649Y24451D01*
X7598Y24392D01*
X7557Y24326D01*
X7550Y24308D01*
X7543Y24326D01*
X7502Y24392D01*
X7451Y24451D01*
X7392Y24502D01*
X7326Y24543D01*
X7254Y24573D01*
X7178Y24591D01*
X7100Y24597D01*
X7022Y24591D01*
X6946Y24573D01*
X6874Y24543D01*
X6808Y24502D01*
X6749Y24451D01*
X6698Y24392D01*
X6657Y24326D01*
X6650Y24308D01*
X6643Y24326D01*
X6602Y24392D01*
X6551Y24451D01*
X6492Y24502D01*
X6426Y24543D01*
X6354Y24573D01*
X6278Y24591D01*
X6200Y24597D01*
X6122Y24591D01*
X6046Y24573D01*
X5974Y24543D01*
X5908Y24502D01*
X5849Y24451D01*
X5798Y24392D01*
X5757Y24326D01*
X5727Y24254D01*
X5709Y24178D01*
X5703Y24100D01*
X5709Y24022D01*
X5727Y23950D01*
X5045Y23268D01*
X5038Y23262D01*
X5014Y23235D01*
X4996Y23204D01*
X4995Y23203D01*
Y53991D01*
X5000Y53991D01*
X5471Y54028D01*
X5930Y54138D01*
X6366Y54319D01*
X6769Y54565D01*
X7128Y54872D01*
X7435Y55231D01*
X7681Y55634D01*
X7862Y56070D01*
X7972Y56529D01*
X8000Y57000D01*
X7972Y57471D01*
X7862Y57930D01*
X7681Y58366D01*
X7435Y58769D01*
X7128Y59128D01*
X6769Y59435D01*
X6366Y59681D01*
X5930Y59862D01*
X5471Y59972D01*
X5000Y60009D01*
X4995Y60009D01*
Y60619D01*
X5000Y60619D01*
X5000Y60619D01*
X8200D01*
Y38331D01*
X7200D01*
X7101Y38325D01*
X7004Y38302D01*
X6913Y38264D01*
X6828Y38212D01*
X6752Y38148D01*
X6688Y38072D01*
X6636Y37987D01*
X6598Y37896D01*
X6575Y37799D01*
X6567Y37700D01*
X6575Y37601D01*
X6598Y37504D01*
X6636Y37413D01*
X6688Y37328D01*
X6752Y37252D01*
X6828Y37188D01*
X6913Y37136D01*
X7004Y37098D01*
X7101Y37075D01*
X7200Y37069D01*
X8200D01*
Y24553D01*
G37*
G36*
Y1381D02*X6799D01*
Y2591D01*
X7128Y2872D01*
X7435Y3231D01*
X7681Y3634D01*
X7862Y4070D01*
X7972Y4529D01*
X8000Y5000D01*
X7972Y5471D01*
X7862Y5930D01*
X7681Y6366D01*
X7435Y6769D01*
X7128Y7128D01*
X6799Y7409D01*
Y10189D01*
X6800Y10189D01*
X6896Y10196D01*
X6989Y10218D01*
X7078Y10255D01*
X7159Y10305D01*
X7232Y10368D01*
X7295Y10441D01*
X7345Y10522D01*
X7382Y10611D01*
X7404Y10704D01*
X7410Y10800D01*
X7404Y10896D01*
X7382Y10989D01*
X7345Y11078D01*
X7295Y11159D01*
X7232Y11232D01*
X7159Y11295D01*
X7078Y11345D01*
X6989Y11382D01*
X6896Y11404D01*
X6800Y11411D01*
X6799Y11411D01*
Y13589D01*
X6800Y13589D01*
X6896Y13596D01*
X6989Y13618D01*
X7078Y13655D01*
X7159Y13705D01*
X7232Y13768D01*
X7295Y13841D01*
X7345Y13922D01*
X7382Y14011D01*
X7404Y14104D01*
X7410Y14200D01*
X7404Y14296D01*
X7382Y14389D01*
X7345Y14478D01*
X7295Y14559D01*
X7232Y14632D01*
X7159Y14695D01*
X7078Y14745D01*
X6989Y14782D01*
X6896Y14804D01*
X6800Y14811D01*
X6799Y14811D01*
Y16447D01*
X6846Y16427D01*
X6922Y16409D01*
X7000Y16403D01*
X7078Y16409D01*
X7154Y16427D01*
X7226Y16457D01*
X7292Y16498D01*
X7351Y16549D01*
X7402Y16608D01*
X7443Y16674D01*
X7473Y16746D01*
X7491Y16822D01*
X7495Y16900D01*
X7491Y16978D01*
X7473Y17054D01*
X7443Y17126D01*
X7402Y17192D01*
X7351Y17251D01*
X7292Y17302D01*
X7229Y17341D01*
Y23005D01*
X7850Y23627D01*
X7922Y23609D01*
X8000Y23603D01*
X8078Y23609D01*
X8154Y23627D01*
X8200Y23647D01*
Y17395D01*
X7633Y17394D01*
X7610Y17388D01*
X7588Y17379D01*
X7567Y17367D01*
X7549Y17351D01*
X7533Y17333D01*
X7521Y17312D01*
X7512Y17290D01*
X7506Y17267D01*
X7505Y17243D01*
X7505Y16159D01*
X7501Y16100D01*
X7505Y16040D01*
X7506Y14933D01*
X7512Y14910D01*
X7521Y14888D01*
X7533Y14867D01*
X7549Y14849D01*
X7567Y14833D01*
X7588Y14821D01*
X7610Y14812D01*
X7633Y14806D01*
X7657Y14805D01*
X8200Y14805D01*
Y10052D01*
X8036Y9951D01*
X7881Y9819D01*
X7749Y9664D01*
X7642Y9490D01*
X7564Y9302D01*
X7517Y9103D01*
X7501Y8900D01*
X7517Y8697D01*
X7564Y8498D01*
X7642Y8310D01*
X7749Y8136D01*
X7881Y7981D01*
X8036Y7849D01*
X8200Y7748D01*
Y1381D01*
G37*
G36*
X6799Y7409D02*X6769Y7435D01*
X6366Y7681D01*
X5930Y7862D01*
X5471Y7972D01*
X5000Y8009D01*
X4995Y8009D01*
Y16449D01*
X5046Y16427D01*
X5122Y16409D01*
X5200Y16403D01*
X5278Y16409D01*
X5354Y16427D01*
X5426Y16457D01*
X5492Y16498D01*
X5551Y16549D01*
X5602Y16608D01*
X5643Y16674D01*
X5650Y16692D01*
X5657Y16674D01*
X5698Y16608D01*
X5749Y16549D01*
X5808Y16498D01*
X5874Y16457D01*
X5946Y16427D01*
X6022Y16409D01*
X6100Y16403D01*
X6178Y16409D01*
X6254Y16427D01*
X6326Y16457D01*
X6392Y16498D01*
X6451Y16549D01*
X6502Y16608D01*
X6543Y16674D01*
X6550Y16692D01*
X6557Y16674D01*
X6598Y16608D01*
X6649Y16549D01*
X6708Y16498D01*
X6774Y16457D01*
X6799Y16447D01*
Y14811D01*
X6704Y14804D01*
X6611Y14782D01*
X6522Y14745D01*
X6441Y14695D01*
X6368Y14632D01*
X6305Y14559D01*
X6255Y14478D01*
X6218Y14389D01*
X6196Y14296D01*
X6189Y14200D01*
X6196Y14104D01*
X6218Y14011D01*
X6255Y13922D01*
X6305Y13841D01*
X6368Y13768D01*
X6441Y13705D01*
X6522Y13655D01*
X6611Y13618D01*
X6704Y13596D01*
X6799Y13589D01*
Y11411D01*
X6704Y11404D01*
X6611Y11382D01*
X6522Y11345D01*
X6441Y11295D01*
X6368Y11232D01*
X6305Y11159D01*
X6255Y11078D01*
X6218Y10989D01*
X6196Y10896D01*
X6189Y10800D01*
X6196Y10704D01*
X6218Y10611D01*
X6255Y10522D01*
X6305Y10441D01*
X6368Y10368D01*
X6441Y10305D01*
X6522Y10255D01*
X6611Y10218D01*
X6704Y10196D01*
X6799Y10189D01*
Y7409D01*
G37*
G36*
Y1381D02*X5058D01*
X5000Y1384D01*
X4995Y1385D01*
Y1991D01*
X5000Y1991D01*
X5471Y2028D01*
X5930Y2138D01*
X6366Y2319D01*
X6769Y2565D01*
X6799Y2591D01*
Y1381D01*
G37*
G36*
X3569Y14805D02*X4667Y14806D01*
X4690Y14812D01*
X4712Y14821D01*
X4733Y14833D01*
X4751Y14849D01*
X4767Y14867D01*
X4779Y14888D01*
X4788Y14910D01*
X4794Y14933D01*
X4795Y14957D01*
X4795Y16035D01*
X4795Y16043D01*
Y16157D01*
X4795Y16165D01*
X4794Y16614D01*
X4798Y16608D01*
X4849Y16549D01*
X4908Y16498D01*
X4974Y16457D01*
X4995Y16449D01*
Y8009D01*
X4529Y7972D01*
X4361Y7932D01*
X4419Y7981D01*
X4551Y8136D01*
X4658Y8310D01*
X4736Y8498D01*
X4783Y8697D01*
X4795Y8900D01*
X4783Y9103D01*
X4736Y9302D01*
X4658Y9490D01*
X4551Y9664D01*
X4419Y9819D01*
X4264Y9951D01*
X4090Y10058D01*
X3902Y10136D01*
X3703Y10183D01*
X3569Y10194D01*
Y12016D01*
X3570Y12016D01*
X3672Y12024D01*
X3772Y12048D01*
X3867Y12087D01*
X3955Y12141D01*
X4033Y12207D01*
X4099Y12285D01*
X4153Y12373D01*
X4192Y12468D01*
X4216Y12568D01*
X4222Y12670D01*
X4216Y12772D01*
X4192Y12872D01*
X4153Y12967D01*
X4099Y13055D01*
X4033Y13133D01*
X3955Y13199D01*
X3867Y13253D01*
X3772Y13292D01*
X3672Y13316D01*
X3570Y13324D01*
X3569Y13324D01*
Y14805D01*
G37*
G36*
Y54358D02*X3634Y54319D01*
X4070Y54138D01*
X4529Y54028D01*
X4995Y53991D01*
Y23203D01*
X4982Y23171D01*
X4974Y23136D01*
X4974Y23136D01*
X4971Y23100D01*
X4971Y23091D01*
Y17341D01*
X4908Y17302D01*
X4849Y17251D01*
X4798Y17192D01*
X4794Y17185D01*
X4794Y17267D01*
X4788Y17290D01*
X4779Y17312D01*
X4767Y17333D01*
X4751Y17351D01*
X4733Y17367D01*
X4712Y17379D01*
X4690Y17388D01*
X4667Y17394D01*
X4643Y17395D01*
X3572Y17394D01*
X3569Y17394D01*
Y50878D01*
X3570Y50878D01*
X3672Y50886D01*
X3772Y50910D01*
X3867Y50949D01*
X3955Y51003D01*
X4033Y51069D01*
X4099Y51147D01*
X4153Y51235D01*
X4192Y51330D01*
X4216Y51430D01*
X4222Y51532D01*
X4216Y51634D01*
X4192Y51734D01*
X4153Y51829D01*
X4099Y51917D01*
X4033Y51995D01*
X3955Y52061D01*
X3867Y52115D01*
X3772Y52154D01*
X3672Y52178D01*
X3570Y52186D01*
X3569Y52186D01*
Y54358D01*
G37*
G36*
Y60321D02*X3762Y60401D01*
X4063Y60496D01*
X4372Y60564D01*
X4685Y60605D01*
X4995Y60619D01*
Y60009D01*
X4529Y59972D01*
X4070Y59862D01*
X3634Y59681D01*
X3569Y59642D01*
Y60321D01*
G37*
G36*
X4995Y1385D02*X4685Y1395D01*
X4372Y1436D01*
X4063Y1504D01*
X3762Y1599D01*
X3569Y1679D01*
Y2358D01*
X3634Y2319D01*
X4070Y2138D01*
X4529Y2028D01*
X4995Y1991D01*
Y1385D01*
G37*
G36*
X3569Y1679D02*X3471Y1720D01*
X3190Y1866D01*
X2924Y2035D01*
X2674Y2228D01*
X2441Y2441D01*
X2228Y2674D01*
X2035Y2924D01*
X1866Y3190D01*
X1720Y3471D01*
X1599Y3762D01*
X1504Y4063D01*
X1436Y4372D01*
X1395Y4685D01*
X1381Y5000D01*
X1381Y5000D01*
Y56942D01*
X1384Y57000D01*
X1395Y57315D01*
X1436Y57628D01*
X1504Y57937D01*
X1599Y58238D01*
X1720Y58529D01*
X1866Y58810D01*
X2035Y59076D01*
X2228Y59326D01*
X2441Y59559D01*
X2674Y59772D01*
X2924Y59965D01*
X3190Y60134D01*
X3471Y60280D01*
X3569Y60321D01*
Y59642D01*
X3231Y59435D01*
X2872Y59128D01*
X2565Y58769D01*
X2319Y58366D01*
X2138Y57930D01*
X2028Y57471D01*
X1991Y57000D01*
X2028Y56529D01*
X2138Y56070D01*
X2319Y55634D01*
X2565Y55231D01*
X2872Y54872D01*
X3231Y54565D01*
X3569Y54358D01*
Y52186D01*
X3468Y52178D01*
X3368Y52154D01*
X3273Y52115D01*
X3185Y52061D01*
X3107Y51995D01*
X3041Y51917D01*
X2987Y51829D01*
X2948Y51734D01*
X2924Y51634D01*
X2916Y51532D01*
X2924Y51430D01*
X2948Y51330D01*
X2987Y51235D01*
X3041Y51147D01*
X3107Y51069D01*
X3185Y51003D01*
X3273Y50949D01*
X3368Y50910D01*
X3468Y50886D01*
X3569Y50878D01*
Y17394D01*
X3557Y17395D01*
X3500D01*
X3500Y17395D01*
X3499Y17395D01*
X3443D01*
X3442Y17395D01*
X2333Y17394D01*
X2310Y17388D01*
X2288Y17379D01*
X2267Y17367D01*
X2249Y17351D01*
X2233Y17333D01*
X2221Y17312D01*
X2212Y17290D01*
X2206Y17267D01*
X2205Y17243D01*
X2205Y16165D01*
X2205Y16157D01*
Y16043D01*
X2205Y16035D01*
X2206Y14933D01*
X2212Y14910D01*
X2221Y14888D01*
X2233Y14867D01*
X2249Y14849D01*
X2267Y14833D01*
X2288Y14821D01*
X2310Y14812D01*
X2333Y14806D01*
X2357Y14805D01*
X3428Y14806D01*
X3443Y14805D01*
X3500D01*
X3500Y14805D01*
X3501Y14805D01*
X3557D01*
X3558Y14805D01*
X3569Y14805D01*
Y13324D01*
X3468Y13316D01*
X3368Y13292D01*
X3273Y13253D01*
X3185Y13199D01*
X3107Y13133D01*
X3041Y13055D01*
X2987Y12967D01*
X2948Y12872D01*
X2924Y12772D01*
X2916Y12670D01*
X2924Y12568D01*
X2948Y12468D01*
X2987Y12373D01*
X3041Y12285D01*
X3107Y12207D01*
X3185Y12141D01*
X3273Y12087D01*
X3368Y12048D01*
X3468Y12024D01*
X3569Y12016D01*
Y10194D01*
X3500Y10199D01*
X3448Y10195D01*
X2333Y10194D01*
X2310Y10188D01*
X2288Y10179D01*
X2267Y10167D01*
X2249Y10151D01*
X2233Y10133D01*
X2221Y10112D01*
X2212Y10090D01*
X2206Y10067D01*
X2205Y10043D01*
X2205Y8959D01*
X2201Y8900D01*
X2205Y8840D01*
X2206Y7733D01*
X2212Y7710D01*
X2221Y7688D01*
X2233Y7667D01*
X2249Y7649D01*
X2267Y7633D01*
X2288Y7621D01*
X2310Y7612D01*
X2333Y7606D01*
X2357Y7605D01*
X3433Y7606D01*
X3500Y7601D01*
X3503Y7601D01*
X3231Y7435D01*
X2872Y7128D01*
X2565Y6769D01*
X2319Y6366D01*
X2138Y5930D01*
X2028Y5471D01*
X1991Y5000D01*
X2028Y4529D01*
X2138Y4070D01*
X2319Y3634D01*
X2565Y3231D01*
X2872Y2872D01*
X3231Y2565D01*
X3569Y2358D01*
Y1679D01*
G37*
G54D64*X1000Y5000D02*Y57000D01*
G54D65*X8950Y27810D02*X10550D01*
X9650Y34010D02*Y33110D01*
X10150Y32610D01*
G54D66*X7200Y37700D02*X9200D01*
G54D67*X8800Y17600D02*Y14600D01*
X7200Y16100D02*X10200D01*
G54D68*X12500Y11800D02*X13400D01*
X14100Y12500D01*
Y13700D01*
X13400Y14400D01*
X12500D01*
G54D67*X8800Y8900D02*X10300D01*
X8800D02*X7300D01*
X8800D02*Y10400D01*
Y8900D02*Y7500D01*
X1800Y8900D02*X5100D01*
X3500D02*Y10400D01*
X1800Y16100D02*X5000D01*
X3500Y17600D02*Y14700D01*
G54D65*X5200Y16900D02*Y23100D01*
X6200Y24100D01*
X6100Y16900D02*Y23100D01*
X7100Y24100D01*
X7000Y16900D02*Y23100D01*
X8000Y24100D01*
G54D64*X24600Y1000D02*X5000D01*
X24600D02*Y7700D01*
G54D68*X17000Y12900D02*Y11100D01*
X21300Y13500D02*X18800D01*
Y17600D01*
X17700D01*
X17500Y17800D01*
Y18700D01*
X18800Y17600D02*X20500Y19300D01*
X21200D01*
G54D69*X21050Y19900D02*Y19050D01*
X21200Y19700D02*X21600D01*
Y19300D01*
X21300Y19350D02*X21450Y19500D01*
X21050Y19050D02*X21650D01*
G54D65*X22250Y27650D02*X22500Y27400D01*
Y25900D01*
G54D69*X22050Y25950D02*X22850D01*
G54D68*X21400Y55600D02*Y53400D01*
G54D69*X22200Y25700D02*X22750D01*
G54D65*X17750Y43600D02*X16400Y42250D01*
Y41500D01*
X15950Y41050D01*
X15450D01*
X13730Y42770D01*
Y43150D01*
G54D68*X23920Y45430D02*Y48230D01*
G54D64*X61000Y57000D02*Y5000D01*
G54D65*X45200Y29730D02*X48230D01*
X52400Y31100D02*X52800Y31500D01*
X45900Y47510D02*X48230D01*
X51795Y30795D02*X52705D01*
X52900Y30600D01*
X45070Y44970D02*X48230D01*
X44850Y50050D02*X48230D01*
X43300Y38900D02*X34750Y30350D01*
X41150Y31250D02*X41300Y31100D01*
G54D70*X30400Y40200D02*X28915Y38715D01*
G54D68*X37100Y38800D02*X38500Y40200D01*
G54D65*X43500Y39100D02*Y45110D01*
X45900Y47510D01*
X28000Y43700D02*X28700Y44400D01*
Y46200D01*
X34200Y44800D02*Y46200D01*
X31800Y44800D02*Y46200D01*
X43100Y39200D02*Y48300D01*
X42200Y54900D02*Y56800D01*
X41000Y56600D02*Y53700D01*
X41500Y53200D01*
X43100Y48300D02*X44850Y50050D01*
G54D68*X35800Y56600D02*Y52500D01*
X38000Y55600D02*Y53400D01*
G54D65*X51805Y30795D02*X41695D01*
X41300Y31100D02*X52400D01*
G54D64*X45900Y1000D02*X57000D01*
X37200D02*Y7700D01*
X44800Y1000D02*Y7700D01*
X45900Y1000D02*Y7700D01*
G54D69*X41500Y9850D02*Y11000D01*
Y9850D02*X40500D01*
X45500Y10250D02*X44650Y11100D01*
X45500Y10250D02*X46300Y11050D01*
G54D65*X41695Y30795D02*X41150Y30250D01*
X36250Y27200D02*X36345Y27105D01*
X37750Y27200D02*X37845Y27105D01*
Y26695D01*
X37750Y26600D01*
Y26200D01*
X36345Y27105D02*Y26695D01*
X34750Y27200D02*X34845Y27105D01*
Y26695D01*
X34750Y26600D01*
Y26200D01*
X36345Y26695D02*X36250Y26600D01*
Y26200D01*
X36850Y26050D02*Y25500D01*
X39250Y27200D02*X39345Y27105D01*
Y26695D01*
X39250Y26600D01*
Y26200D01*
X29100Y20700D02*X29300D01*
G54D69*X28950Y21300D02*Y19350D01*
G54D68*X40200Y15000D02*Y19000D01*
X39000Y20200D01*
X36700Y20350D02*X36350Y20700D01*
X29100D01*
G54D69*X28700Y21200D02*Y20350D01*
X28200Y19350D02*Y20100D01*
X28800D01*
G54D68*X29150Y14900D02*Y19200D01*
X28600Y19750D02*X29150Y19200D01*
G54D64*X5000Y61000D02*X57000D01*
G54D65*X26300Y44800D02*Y46200D01*
X15160Y46800D02*X13730Y48230D01*
X15130Y46830D02*X15700Y46260D01*
Y41700D01*
G54D66*X16300Y52800D02*Y56200D01*
G54D69*X25000Y42000D02*Y40100D01*
G54D68*X26750Y40650D02*Y42600D01*
X23920Y45430D01*
G54D65*X22390Y35210D02*X21190Y34010D01*
X20990Y35610D02*X21090D01*
G54D70*X28915Y38715D02*X26415D01*
G54D65*X21190Y34010D02*X21090D01*
Y32610D02*Y34010D01*
X20000Y34500D02*X21110Y35610D01*
X22590Y31110D02*X23790Y32310D01*
Y33410D01*
X22190Y32410D02*X22590Y32810D01*
Y34010D01*
X20890Y32410D02*X21090Y32610D01*
X20000Y34500D02*Y32400D01*
X19400Y34500D02*Y33000D01*
X19090Y34810D02*X19400Y34500D01*
G54D66*X17100Y35600D02*Y34400D01*
X18000Y33500D01*
X18800Y36100D02*X17600D01*
X17100Y35600D01*
G54D69*X25000Y40100D02*X26400Y38700D01*
G54D68*Y40300D02*X26750Y40650D01*
G54D65*X39850Y26050D02*Y25500D01*
X39650Y26608D02*Y27100D01*
X39750Y27200D01*
X45010Y27190D02*X48230D01*
X39750Y27800D02*Y27650D01*
X42200Y56800D02*X42600Y57200D01*
X46000Y59900D02*Y58700D01*
X46050Y24650D02*X42100Y28600D01*
X43200Y29000D02*X45010Y27190D01*
X45200Y29730D02*X44820Y29350D01*
X42100Y28600D02*X40000D01*
X39750Y29350D02*X44820D01*
X39670Y32270D02*X48230D01*
X41710Y34810D02*X48230D01*
X43750Y37350D02*X48230D01*
X45810Y39890D02*X48210D01*
X39750Y27200D02*Y27750D01*
X38750Y26900D02*Y27850D01*
X40150Y28200D02*X39750Y27800D01*
X40000Y28600D02*X39250Y27850D01*
X38750D02*X39900Y29000D01*
X38250Y27850D02*X39750Y29350D01*
X43500Y39100D02*X34750Y30350D01*
X43100Y39200D02*X34250Y30350D01*
X41710Y34810D02*X37250Y30350D01*
X37750D02*X39670Y32270D01*
X39650Y32250D02*X39670Y32270D01*
X34250Y26900D02*Y30350D01*
X37250D02*Y26900D01*
X36750Y30350D02*Y27200D01*
X39900Y29000D02*X43200D01*
X43600Y26000D02*X42000Y27600D01*
X40400D01*
X44000Y26100D02*X41900Y28200D01*
X40150D01*
X35250Y27200D02*Y30350D01*
X34750Y27200D02*Y30350D01*
X36250Y27200D02*Y28450D01*
Y30330D02*Y27200D01*
X35750Y26900D02*Y30350D01*
X37750Y27200D02*Y30350D01*
X39250Y27200D02*Y27850D01*
X38250D02*Y27200D01*
X33600Y27600D02*X33100Y28100D01*
X32850Y27150D02*X32300Y27700D01*
X33100Y28100D02*X31300D01*
X32300Y27700D02*X30800D01*
X30700Y27800D01*
X31300Y28100D02*X30700Y28700D01*
X43900Y39000D02*X35250Y30350D01*
X36750D02*X43750Y37350D01*
X36250Y30330D02*X45810Y39890D01*
X35750Y30350D02*X47830Y42430D01*
X48230D01*
X43900Y39000D02*Y43800D01*
X45070Y44970D01*
X48230Y17030D02*X44970D01*
X46120Y16600D02*X44800D01*
X44970Y17030D02*X43200Y18800D01*
X44800Y16600D02*X42800Y18600D01*
X44990Y22110D02*X44000Y23100D01*
Y26100D01*
X46930Y19570D02*X43600Y22900D01*
Y26000D01*
X43200Y18800D02*Y25300D01*
X42800Y18600D02*Y25000D01*
X46250Y11950D02*X44200Y14000D01*
Y16600D01*
X46050Y24650D02*X48230D01*
Y22110D02*X44990D01*
X48230Y19570D02*X46930D01*
X48230Y14490D02*X46120Y16600D01*
X48230Y11950D02*X46250D01*
X44200Y16600D02*X42400Y18400D01*
X38000Y15800D02*X38400Y16200D01*
X35300Y15300D02*X36300Y16300D01*
X38400Y16200D02*Y17200D01*
X36300Y16300D02*Y17700D01*
X39900Y12600D02*Y10600D01*
X31800Y13900D02*Y17900D01*
X32700Y18700D02*Y14200D01*
G54D69*X28950Y19350D02*X28050D01*
G54D68*X28250Y14000D02*X29150Y14900D01*
G54D69*X27700Y19500D02*X28450D01*
G54D65*X42400Y18400D02*Y24100D01*
X41600Y24900D01*
X35150Y26608D02*X35350Y26408D01*
Y26050D01*
Y25450D01*
X35150Y26608D02*Y27100D01*
X35250Y27200D01*
X36650Y26608D02*X36850Y26408D01*
Y26050D01*
X36650Y26608D02*Y27100D01*
X36750Y27200D01*
X37250Y26900D02*Y27750D01*
X38150Y26608D02*X38350Y26408D01*
Y26050D01*
Y25500D01*
X38150Y26608D02*Y27100D01*
X38250Y27200D01*
X39650Y26608D02*X39850Y26408D01*
Y26050D01*
X41800Y26700D02*X40400D01*
X41600Y24900D02*X40600D01*
X42800Y25000D02*X42000Y25800D01*
X40600D01*
X43200Y25300D02*X41800Y26700D01*
G54D64*X25700Y1000D02*X33300D01*
X25700D02*Y7700D01*
X33300Y1000D02*Y7700D01*
G54D65*X30500Y12600D02*X31800Y13900D01*
X32700Y14200D02*X30300Y11800D01*
G54D64*X37200Y1000D02*X44800D01*
X34400D02*X36100D01*
X34400D02*Y7700D01*
X36100Y1000D02*Y7700D01*
G54D65*X28000Y12600D02*X30500D01*
X30300Y11800D02*X28800D01*
G54D68*X27250Y14000D02*X28250D01*
X27250D02*X26400Y13150D01*
Y12300D01*
X26000Y11900D01*
X24900D01*
G54D64*X61000Y57000D02*G75*G03X57000Y61000I-4000J0D01*G01*
X5000D02*G75*G03X1000Y57000I0J-4000D01*G01*
X57000Y1000D02*G75*G03X61000Y5000I0J4000D01*G01*
X1000D02*G75*G03X5000Y1000I4000J0D01*G01*
X25700Y7700D02*G75*G03X25150Y8250I-550J0D01*G01*
G75*G03X24600Y7700I0J-550D01*G01*
X34400D02*G75*G03X33850Y8250I-550J0D01*G01*
G75*G03X33300Y7700I0J-550D01*G01*
X37200D02*G75*G03X36650Y8250I-550J0D01*G01*
G75*G03X36100Y7700I0J-550D01*G01*
X45900D02*G75*G03X45350Y8250I-550J0D01*G01*
G75*G03X44800Y7700I0J-550D01*G01*
G54D71*X48230Y37350D03*
Y34810D03*
Y32270D03*
X50770Y37350D03*
Y34810D03*
Y32270D03*
Y29730D03*
Y27190D03*
Y24650D03*
X48230Y29730D03*
Y27190D03*
Y24650D03*
Y22110D03*
Y44970D03*
X50770D03*
X48230Y42430D03*
X50770D03*
X48230Y50050D03*
X50770D03*
X48230Y47510D03*
X50770D03*
X48230Y39890D03*
X50770D03*
X23920Y48230D03*
X26460D03*
X29000D03*
X31540D03*
X34080D03*
X26460Y50770D03*
X29000D03*
X31540D03*
X34080D03*
X23920D03*
X21380D03*
X18840D03*
X16300D03*
X13730Y40610D03*
Y43150D03*
Y45690D03*
Y48230D03*
Y50770D03*
X13720Y34260D03*
X11190Y40610D03*
Y43150D03*
Y45690D03*
Y48230D03*
Y50770D03*
X50770Y22110D03*
X48230Y19570D03*
Y17030D03*
X50770Y19570D03*
Y17030D03*
Y14490D03*
Y11950D03*
X48230Y14490D03*
Y11950D03*
G54D72*X38200Y9850D03*
X41500D03*
G54D73*X45500Y10250D03*
G54D72*X26700Y9850D03*
X30000D03*
G54D73*X34000Y10250D03*
G54D71*X11180Y34260D03*
Y31720D03*
X13720D03*
Y29180D03*
Y26640D03*
Y24100D03*
Y21560D03*
X11180Y29180D03*
Y26640D03*
Y24100D03*
Y21560D03*
G54D74*X3500Y8900D03*
X8800D03*
X3500Y16100D03*
X8800D03*
G54D75*X8228Y9472D02*Y8328D01*
G54D76*X9372Y9472D02*Y8328D01*
X2928Y9472D02*Y8328D01*
G54D75*X4072Y9472D02*Y8328D01*
G54D76*X2928Y16672D02*Y15528D01*
X4072Y16672D02*Y15528D01*
X8228Y16672D02*Y15528D01*
X9372Y16672D02*Y15528D01*
G54D68*X54500Y10700D03*
X45500Y33500D03*
Y28500D03*
Y23500D03*
Y18500D03*
X52900Y31600D03*
Y30600D03*
X45500Y14500D03*
X47300Y7600D03*
Y6800D03*
Y6000D03*
Y5200D03*
X41150Y31250D03*
Y30250D03*
X23790Y33410D03*
X22590Y31110D03*
X35250Y25500D03*
X28600Y25250D03*
X24250Y25600D03*
X26800Y24550D03*
X34750Y26200D03*
X35750Y26900D03*
X36250Y26200D03*
X37250Y26900D03*
X27750Y26950D03*
X34250Y26900D03*
X32900Y28750D03*
X33600Y27600D03*
X32850Y27150D03*
X23200Y24550D03*
X30500Y17800D03*
X28000Y12600D03*
X28800Y11800D03*
X31800Y17900D03*
X32700Y18700D03*
X34300Y22500D03*
X29950Y22250D03*
X34000Y20700D03*
X25500Y14800D03*
X22300Y15500D03*
X25500Y12800D03*
X23250Y18400D03*
X23200Y19450D03*
X24900Y11900D03*
X26000Y18400D03*
X26800Y19450D03*
X26900Y14800D03*
X27250Y14000D03*
X28250Y18400D03*
X28600Y19750D03*
X34000Y17200D03*
X38000Y15800D03*
X36300Y17700D03*
X35300Y15300D03*
X40800Y20900D03*
X39000Y20200D03*
X36700Y20350D03*
X38400Y17200D03*
X40200Y15000D03*
X43700Y8200D03*
X42900D03*
X42100D03*
X42500Y8900D03*
X41000Y14200D03*
X42600Y15500D03*
X39900Y10600D03*
Y12600D03*
X39000Y12800D03*
X36750Y25500D03*
X38250D03*
X39750D03*
X37750Y26200D03*
X38750Y26900D03*
X39250Y26200D03*
X40400Y27600D03*
X40600Y25800D03*
Y24900D03*
X40400Y26700D03*
X7200Y37700D03*
X5200Y16900D03*
X6100D03*
X7000D03*
X6200Y24100D03*
X7100D03*
X22190Y32410D03*
X20890D03*
X20000Y32400D03*
X19400Y33000D03*
X15000Y33500D03*
X18000D03*
X22590Y34010D03*
X21090D03*
X22390Y35210D03*
X21090Y35610D03*
X19090Y34810D03*
X18800Y36100D03*
X24000Y43700D03*
Y37300D03*
X17000Y37700D03*
X17100Y35600D03*
X17000Y11100D03*
X18800Y13500D03*
X15700Y41700D03*
X15725Y39725D03*
X30400Y40200D03*
X26400Y38700D03*
Y40300D03*
X25000Y42000D03*
X13400Y11800D03*
X17000Y46300D03*
X17750Y43600D03*
X18500Y46300D03*
X16300Y56200D03*
Y52800D03*
X21400Y55600D03*
Y53400D03*
X49000Y57300D03*
X46000Y58700D03*
Y59900D03*
X38000Y55600D03*
Y53400D03*
X35800Y56600D03*
Y52500D03*
X33200Y34500D03*
X33000Y45500D03*
X31800Y44800D03*
X28700Y46200D03*
X31800D03*
X34200D03*
X26300Y44800D03*
X34200D03*
X45300Y56500D03*
X45000Y53200D03*
X41500D03*
X43200Y54500D03*
X42600Y57200D03*
X41000Y56600D03*
X42200Y54900D03*
X41000D03*
X38500Y40200D03*
X37100Y38800D03*
X40850Y50500D03*
X45500Y49000D03*
Y43500D03*
Y38500D03*
X25700Y38000D03*
Y41000D03*
X26300Y46200D03*
X27500Y45500D03*
X28000Y43700D03*
X30350Y39250D03*
X31200Y34500D03*
X10900Y13000D03*
X13800Y17000D03*
X11500Y16700D03*
X12500Y14400D03*
X13400D03*
X18500Y18700D03*
X17500D03*
X20300Y17600D03*
X15800Y18000D03*
X17560Y15410D03*
X19800Y14900D03*
X14100Y13000D03*
X27000Y29200D03*
X24500D03*
X29800Y26500D03*
X30700Y27800D03*
Y28700D03*
X21750Y26950D03*
X21550Y24900D03*
X22250Y27650D03*
X10500Y10900D03*
X10150Y32610D03*
X9650Y34010D03*
X10500Y10100D03*
X16500Y29000D03*
X8950Y27810D03*
X10550D03*
X18800Y23000D03*
X20200Y27000D03*
X17800Y26000D03*
X17850Y24800D03*
X19900Y24200D03*
X17000Y23200D03*
X8000Y24100D03*
X9200Y37700D03*
X21300Y13500D03*
X20000Y4700D03*
Y6500D03*
X12000Y6300D03*
X12800Y7000D03*
X14600D03*
X12000Y10700D03*
X14800Y9100D03*
Y10900D03*
X12500Y11800D03*
X21550Y22250D03*
X17000Y12900D03*
G54D77*G54D78*G54D77*G54D79*G54D78*G54D79*G54D78*G54D77*G54D78*G54D79*G54D80*G54D81*G54D79*G54D80*G54D79*G54D82*G54D83*G54D82*G54D83*M02*
