G04 start of page 8 for group -4062 idx -4062 *
G04 Title: pmc, soldermask *
G04 Creator: pcb 1.99z *
G04 CreationDate: Mon 09 Sep 2013 06:37:42 AM GMT UTC *
G04 For: russ *
G04 Format: Gerber/RS-274X *
G04 PCB-Dimensions (mm): 62.00 62.00 *
G04 PCB-Coordinate-Origin: lower left *
%MOMM*%
%FSLAX43Y43*%
%LNBOTTOMMASK*%
%ADD145R,1.270X1.270*%
%ADD144R,0.470X0.470*%
%ADD143C,1.152*%
%ADD142C,3.352*%
%ADD141C,0.914*%
%ADD140C,2.413*%
%ADD139C,1.800*%
%ADD138C,1.827*%
%ADD137C,1.527*%
%ADD136C,1.700*%
G54D136*X48230Y37350D03*
Y34810D03*
Y32270D03*
X50770Y37350D03*
Y34810D03*
Y32270D03*
Y29730D03*
Y27190D03*
Y24650D03*
X48230Y29730D03*
Y27190D03*
Y24650D03*
Y22110D03*
Y44970D03*
X50770D03*
X48230Y42430D03*
X50770D03*
X48230Y50050D03*
X50770D03*
X48230Y47510D03*
X50770D03*
X48230Y39890D03*
X50770D03*
X23920Y48230D03*
X26460D03*
X29000D03*
X31540D03*
X34080D03*
X26460Y50770D03*
X29000D03*
X31540D03*
X34080D03*
X23920D03*
X21380D03*
X18840D03*
X16300D03*
X13730Y40610D03*
Y43150D03*
Y45690D03*
Y48230D03*
Y50770D03*
X13720Y34260D03*
X11190Y40610D03*
Y43150D03*
Y45690D03*
Y48230D03*
Y50770D03*
X50770Y22110D03*
X48230Y19570D03*
Y17030D03*
X50770Y19570D03*
Y17030D03*
Y14490D03*
Y11950D03*
X48230Y14490D03*
Y11950D03*
G54D137*X38200Y9850D03*
X41500D03*
G54D138*X45500Y10250D03*
G54D139*X42000Y2750D03*
X30500D03*
G54D137*X26700Y9850D03*
X30000D03*
G54D138*X34000Y10250D03*
G54D136*X11180Y34260D03*
Y31720D03*
X13720D03*
Y29180D03*
Y26640D03*
Y24100D03*
Y21560D03*
X11180Y29180D03*
Y26640D03*
Y24100D03*
Y21560D03*
G54D140*X3500Y8900D03*
X8800D03*
G54D141*X6800Y10800D03*
G54D140*X3500Y16100D03*
X8800D03*
G54D141*X6800Y14200D03*
G54D142*X57000Y5000D03*
X5000Y57000D03*
Y5000D03*
G54D143*X3570Y12670D03*
Y51532D03*
G54D142*X57000Y57000D03*
G54D144*X8228Y9472D02*Y8328D01*
G54D145*X9372Y9472D02*Y8328D01*
X2928Y9472D02*Y8328D01*
G54D144*X4072Y9472D02*Y8328D01*
G54D145*X2928Y16672D02*Y15528D01*
X4072Y16672D02*Y15528D01*
X8228Y16672D02*Y15528D01*
X9372Y16672D02*Y15528D01*
M02*
