M48
METRIC,000.000
T88C0.330
T87C1.727
T86C1.300
T85C1.000
%
T88
X005200Y016900
X006100Y016900
X006200Y024100
X007000Y016900
X007100Y024100
X007200Y037700
X008000Y024100
X008950Y027810
X009200Y037700
X009650Y034010
X010150Y032610
X010500Y010900
X010500Y010100
X010550Y027810
X010900Y013000
X011500Y016700
X012000Y010700
X012000Y006300
X012500Y014400
X012500Y011800
X012800Y007000
X013400Y014400
X013400Y011800
X013800Y017000
X014100Y013000
X014600Y007000
X014800Y010900
X014800Y009100
X015000Y033500
X015700Y041700
X015725Y039725
X015800Y018000
X016300Y056200
X016300Y052800
X016500Y029000
X017000Y046300
X017000Y037700
X017000Y023200
X017000Y012900
X017000Y011100
X017100Y035600
X017500Y018700
X017560Y015410
X017750Y043600
X017800Y026000
X017850Y024800
X018000Y033500
X018500Y046300
X018500Y018700
X018800Y036100
X018800Y023000
X018800Y013500
X019090Y034810
X019400Y033000
X019800Y014900
X019900Y024200
X020000Y032400
X020000Y006500
X020000Y004700
X020200Y027000
X020300Y017600
X020890Y032410
X021090Y035610
X021090Y034010
X021300Y013500
X021400Y055600
X021400Y053400
X021550Y024900
X021550Y022250
X021750Y026950
X022190Y032410
X022250Y027650
X022300Y015500
X022390Y035210
X022590Y034010
X022590Y031110
X023200Y024550
X023200Y019450
X023250Y018400
X023790Y033410
X024000Y043700
X024000Y037300
X024250Y025600
X024500Y029200
X024900Y011900
X025000Y042000
X025500Y014800
X025500Y012800
X025700Y041000
X025700Y038000
X026000Y018400
X026300Y046200
X026300Y044800
X026400Y040300
X026400Y038700
X026800Y024550
X026800Y019450
X026900Y014800
X027000Y029200
X027250Y014000
X027500Y045500
X027750Y026950
X028000Y043700
X028000Y012600
X028250Y018400
X028600Y025250
X028600Y019750
X028700Y046200
X028800Y011800
X029800Y026500
X029950Y022250
X030350Y039250
X030400Y040200
X030500Y017800
X030700Y028700
X030700Y027800
X031200Y034500
X031800Y046200
X031800Y044800
X031800Y017900
X032700Y018700
X032850Y027150
X032900Y028750
X033000Y045500
X033200Y034500
X033600Y027600
X034000Y020700
X034000Y017200
X034200Y046200
X034200Y044800
X034250Y026900
X034300Y022500
X034750Y026200
X035250Y025500
X035300Y015300
X035750Y026900
X035800Y056600
X035800Y052500
X036250Y026200
X036300Y017700
X036700Y020350
X036750Y025500
X037100Y038800
X037250Y026900
X037750Y026200
X038000Y055600
X038000Y053400
X038000Y015800
X038250Y025500
X038400Y017200
X038500Y040200
X038750Y026900
X039000Y020200
X039000Y012800
X039250Y026200
X039750Y025500
X039900Y012600
X039900Y010600
X040200Y015000
X040400Y027600
X040400Y026700
X040600Y025800
X040600Y024900
X040800Y020900
X040850Y050500
X041000Y056600
X041000Y054900
X041000Y014200
X041150Y031250
X041150Y030250
X041500Y053200
X042100Y008200
X042200Y054900
X042500Y008900
X042600Y057200
X042600Y015500
X042900Y008200
X043200Y054500
X043700Y008200
X045000Y053200
X045300Y056500
X045500Y049000
X045500Y043500
X045500Y038500
X045500Y033500
X045500Y028500
X045500Y023500
X045500Y018500
X045500Y014500
X046000Y059900
X046000Y058700
X047300Y007600
X047300Y006800
X047300Y006000
X047300Y005200
X049000Y057300
X052900Y031600
X052900Y030600
X054500Y010700
T85
X011180Y034260
X011180Y031720
X011180Y029180
X011180Y026640
X011180Y024100
X011180Y021560
X011190Y050770
X011190Y048230
X011190Y045690
X011190Y043150
X011190Y040610
X013720Y034260
X013720Y031720
X013720Y029180
X013720Y026640
X013720Y024100
X013720Y021560
X013730Y050770
X013730Y048230
X013730Y045690
X013730Y043150
X013730Y040610
X016300Y050770
X018840Y050770
X021380Y050770
X023920Y050770
X023920Y048230
X026460Y050770
X026460Y048230
X026700Y009850
X029000Y050770
X029000Y048230
X030000Y009850
X031540Y050770
X031540Y048230
X034080Y050770
X034080Y048230
X038200Y009850
X041500Y009850
X048230Y050050
X048230Y047510
X048230Y044970
X048230Y042430
X048230Y039890
X048230Y037350
X048230Y034810
X048230Y032270
X048230Y029730
X048230Y027190
X048230Y024650
X048230Y022110
X048230Y019570
X048230Y017030
X048230Y014490
X048230Y011950
X050770Y050050
X050770Y047510
X050770Y044970
X050770Y042430
X050770Y039890
X050770Y037350
X050770Y034810
X050770Y032270
X050770Y029730
X050770Y027190
X050770Y024650
X050770Y022110
X050770Y019570
X050770Y017030
X050770Y014490
X050770Y011950
T86
X034000Y010250
X045500Y010250
T87
X003500Y016100
X003500Y008900
X008800Y016100
X008800Y008900
M30
