G04 start of page 11 for group -4015 idx -4015 *
G04 Title: pmc, toppaste *
G04 Creator: pcb 1.99z *
G04 CreationDate: Mon 09 Sep 2013 06:37:42 AM GMT UTC *
G04 For: russ *
G04 Format: Gerber/RS-274X *
G04 PCB-Dimensions (mm): 62.00 62.00 *
G04 PCB-Coordinate-Origin: lower left *
%MOMM*%
%FSLAX43Y43*%
%LNTOPPASTE*%
%ADD188C,1.000*%
%ADD187R,0.400X0.400*%
%ADD186R,0.900X0.900*%
%ADD185R,0.207X0.207*%
%ADD184R,0.268X0.268*%
%ADD183C,0.268*%
%ADD182R,0.984X0.984*%
%ADD181R,0.260X0.260*%
%ADD180R,0.314X0.314*%
%ADD179R,0.240X0.240*%
%ADD178C,0.240*%
%ADD177R,0.550X0.550*%
%ADD176C,0.083*%
%ADD175R,0.165X0.165*%
%ADD174R,0.209X0.209*%
%ADD173C,0.300*%
%ADD172R,0.300X0.300*%
%ADD171C,0.089*%
%ADD170R,0.179X0.179*%
%ADD169C,0.100*%
%ADD168R,0.200X0.200*%
%ADD167C,0.141*%
%ADD166R,1.025X1.025*%
%ADD165C,0.200*%
%ADD164R,0.410X0.410*%
%ADD163C,0.400*%
%ADD162R,0.700X0.700*%
G54D162*X33050Y13800D02*X33700D01*
G54D163*X34050Y14150D02*Y13450D01*
X32700Y14150D02*Y13450D01*
X34050D01*
X32700Y14150D02*X34050D01*
G54D162*X30300Y13800D02*X30950D01*
G54D163*X31300Y14150D02*Y13450D01*
X29950Y14150D02*Y13450D01*
X31300D01*
X29950Y14150D02*X31300D01*
G54D162*X33050Y15200D02*X33700D01*
G54D163*X34050Y15550D02*Y14850D01*
X32700Y15550D02*Y14850D01*
X34050D01*
X32700Y15550D02*X34050D01*
G54D162*X30300Y15200D02*X30950D01*
G54D163*X31300Y15550D02*Y14850D01*
X29950Y15550D02*Y14850D01*
X31300D01*
X29950Y15550D02*X31300D01*
G54D164*X48095Y3160D02*Y2500D01*
G54D165*X47890Y3365D02*Y2295D01*
X48300Y3365D02*Y2295D01*
X47890Y3365D02*X48300D01*
X47890Y2295D02*X48300D01*
G54D164*X49365Y3160D02*Y2500D01*
G54D165*X49160Y3365D02*Y2295D01*
X49570Y3365D02*Y2295D01*
X49160Y3365D02*X49570D01*
X49160Y2295D02*X49570D01*
G54D164*X50635Y3160D02*Y2500D01*
G54D165*X50430Y3365D02*Y2295D01*
X50840Y3365D02*Y2295D01*
X50430Y3365D02*X50840D01*
X50430Y2295D02*X50840D01*
G54D164*X51905Y3160D02*Y2500D01*
G54D165*X51700Y3365D02*Y2295D01*
X52110Y3365D02*Y2295D01*
X51700Y3365D02*X52110D01*
X51700Y2295D02*X52110D01*
G54D164*X48095Y8500D02*Y8090D01*
G54D165*X47890Y8705D02*Y7885D01*
X48300Y8705D02*Y7885D01*
X47890Y8705D02*X48300D01*
X47890Y7885D02*X48300D01*
G54D164*X49365Y8500D02*Y8090D01*
G54D165*X49160Y8705D02*Y7885D01*
X49570Y8705D02*Y7885D01*
X49160Y8705D02*X49570D01*
X49160Y7885D02*X49570D01*
G54D164*X50635Y8500D02*Y8090D01*
G54D165*X50430Y8705D02*Y7885D01*
X50840Y8705D02*Y7885D01*
X50430Y8705D02*X50840D01*
X50430Y7885D02*X50840D01*
G54D164*X51905Y8500D02*Y8090D01*
G54D165*X51700Y8705D02*Y7885D01*
X52110Y8705D02*Y7885D01*
X51700Y8705D02*X52110D01*
X51700Y7885D02*X52110D01*
G54D166*X48870Y6954D02*Y5426D01*
G54D167*X48357Y7466D02*Y4914D01*
X49383Y7466D02*Y4914D01*
X48357Y7466D02*X49383D01*
X48357Y4914D02*X49383D01*
G54D166*X51130Y6954D02*Y5426D01*
G54D167*X50617Y7466D02*Y4914D01*
X51643Y7466D02*Y4914D01*
X50617Y7466D02*X51643D01*
X50617Y4914D02*X51643D01*
G54D168*X44750Y44000D02*X44900D01*
G54D169*X44650Y44100D02*X45000D01*
X44650Y43900D02*X45000D01*
Y44100D02*Y43900D01*
X44650Y44100D02*Y43900D01*
G54D168*X44750Y43500D02*X44900D01*
G54D169*X44650Y43600D02*X45000D01*
X44650Y43400D02*X45000D01*
Y43600D02*Y43400D01*
X44650Y43600D02*Y43400D01*
G54D168*X44750Y43000D02*X44900D01*
G54D169*X44650Y43100D02*X45000D01*
X44650Y42900D02*X45000D01*
Y43100D02*Y42900D01*
X44650Y43100D02*Y42900D01*
G54D168*X46100Y43000D02*X46250D01*
G54D169*X46000Y42900D02*X46350D01*
X46000Y43100D02*X46350D01*
X46000D02*Y42900D01*
X46350Y43100D02*Y42900D01*
G54D168*X46100Y44000D02*X46250D01*
G54D169*X46000Y43900D02*X46350D01*
X46000Y44100D02*X46350D01*
X46000D02*Y43900D01*
X46350Y44100D02*Y43900D01*
G54D168*X44750Y34000D02*X44900D01*
G54D169*X44650Y34100D02*X45000D01*
X44650Y33900D02*X45000D01*
Y34100D02*Y33900D01*
X44650Y34100D02*Y33900D01*
G54D168*X44750Y33500D02*X44900D01*
G54D169*X44650Y33600D02*X45000D01*
X44650Y33400D02*X45000D01*
Y33600D02*Y33400D01*
X44650Y33600D02*Y33400D01*
G54D168*X44750Y33000D02*X44900D01*
G54D169*X44650Y33100D02*X45000D01*
X44650Y32900D02*X45000D01*
Y33100D02*Y32900D01*
X44650Y33100D02*Y32900D01*
G54D168*X46100Y33000D02*X46250D01*
G54D169*X46000Y32900D02*X46350D01*
X46000Y33100D02*X46350D01*
X46000D02*Y32900D01*
X46350Y33100D02*Y32900D01*
G54D168*X46100Y34000D02*X46250D01*
G54D169*X46000Y33900D02*X46350D01*
X46000Y34100D02*X46350D01*
X46000D02*Y33900D01*
X46350Y34100D02*Y33900D01*
G54D168*X44750Y39000D02*X44900D01*
G54D169*X44650Y39100D02*X45000D01*
X44650Y38900D02*X45000D01*
Y39100D02*Y38900D01*
X44650Y39100D02*Y38900D01*
G54D168*X44750Y38500D02*X44900D01*
G54D169*X44650Y38600D02*X45000D01*
X44650Y38400D02*X45000D01*
Y38600D02*Y38400D01*
X44650Y38600D02*Y38400D01*
G54D168*X44750Y38000D02*X44900D01*
G54D169*X44650Y38100D02*X45000D01*
X44650Y37900D02*X45000D01*
Y38100D02*Y37900D01*
X44650Y38100D02*Y37900D01*
G54D168*X46100Y38000D02*X46250D01*
G54D169*X46000Y37900D02*X46350D01*
X46000Y38100D02*X46350D01*
X46000D02*Y37900D01*
X46350Y38100D02*Y37900D01*
G54D168*X46100Y39000D02*X46250D01*
G54D169*X46000Y38900D02*X46350D01*
X46000Y39100D02*X46350D01*
X46000D02*Y38900D01*
X46350Y39100D02*Y38900D01*
G54D168*X44750Y49500D02*X44900D01*
G54D169*X44650Y49600D02*X45000D01*
X44650Y49400D02*X45000D01*
Y49600D02*Y49400D01*
X44650Y49600D02*Y49400D01*
G54D168*X44750Y49000D02*X44900D01*
G54D169*X44650Y49100D02*X45000D01*
X44650Y48900D02*X45000D01*
Y49100D02*Y48900D01*
X44650Y49100D02*Y48900D01*
G54D168*X44750Y48500D02*X44900D01*
G54D169*X44650Y48600D02*X45000D01*
X44650Y48400D02*X45000D01*
Y48600D02*Y48400D01*
X44650Y48600D02*Y48400D01*
G54D168*X46100Y48500D02*X46250D01*
G54D169*X46000Y48400D02*X46350D01*
X46000Y48600D02*X46350D01*
X46000D02*Y48400D01*
X46350Y48600D02*Y48400D01*
G54D168*X46100Y49500D02*X46250D01*
G54D169*X46000Y49400D02*X46350D01*
X46000Y49600D02*X46350D01*
X46000D02*Y49400D01*
X46350Y49600D02*Y49400D01*
G54D168*X44750Y15000D02*X44900D01*
G54D169*X44650Y15100D02*X45000D01*
X44650Y14900D02*X45000D01*
Y15100D02*Y14900D01*
X44650Y15100D02*Y14900D01*
G54D168*X44750Y14500D02*X44900D01*
G54D169*X44650Y14600D02*X45000D01*
X44650Y14400D02*X45000D01*
Y14600D02*Y14400D01*
X44650Y14600D02*Y14400D01*
G54D168*X44750Y14000D02*X44900D01*
G54D169*X44650Y14100D02*X45000D01*
X44650Y13900D02*X45000D01*
Y14100D02*Y13900D01*
X44650Y14100D02*Y13900D01*
G54D168*X46100Y14000D02*X46250D01*
G54D169*X46000Y13900D02*X46350D01*
X46000Y14100D02*X46350D01*
X46000D02*Y13900D01*
X46350Y14100D02*Y13900D01*
G54D168*X46100Y15000D02*X46250D01*
G54D169*X46000Y14900D02*X46350D01*
X46000Y15100D02*X46350D01*
X46000D02*Y14900D01*
X46350Y15100D02*Y14900D01*
G54D168*X44750Y19000D02*X44900D01*
G54D169*X44650Y19100D02*X45000D01*
X44650Y18900D02*X45000D01*
Y19100D02*Y18900D01*
X44650Y19100D02*Y18900D01*
G54D168*X44750Y18500D02*X44900D01*
G54D169*X44650Y18600D02*X45000D01*
X44650Y18400D02*X45000D01*
Y18600D02*Y18400D01*
X44650Y18600D02*Y18400D01*
G54D168*X44750Y18000D02*X44900D01*
G54D169*X44650Y18100D02*X45000D01*
X44650Y17900D02*X45000D01*
Y18100D02*Y17900D01*
X44650Y18100D02*Y17900D01*
G54D168*X46100Y18000D02*X46250D01*
G54D169*X46000Y17900D02*X46350D01*
X46000Y18100D02*X46350D01*
X46000D02*Y17900D01*
X46350Y18100D02*Y17900D01*
G54D168*X46100Y19000D02*X46250D01*
G54D169*X46000Y18900D02*X46350D01*
X46000Y19100D02*X46350D01*
X46000D02*Y18900D01*
X46350Y19100D02*Y18900D01*
G54D168*X44750Y24000D02*X44900D01*
G54D169*X44650Y24100D02*X45000D01*
X44650Y23900D02*X45000D01*
Y24100D02*Y23900D01*
X44650Y24100D02*Y23900D01*
G54D168*X44750Y23500D02*X44900D01*
G54D169*X44650Y23600D02*X45000D01*
X44650Y23400D02*X45000D01*
Y23600D02*Y23400D01*
X44650Y23600D02*Y23400D01*
G54D168*X44750Y23000D02*X44900D01*
G54D169*X44650Y23100D02*X45000D01*
X44650Y22900D02*X45000D01*
Y23100D02*Y22900D01*
X44650Y23100D02*Y22900D01*
G54D168*X46100Y23000D02*X46250D01*
G54D169*X46000Y22900D02*X46350D01*
X46000Y23100D02*X46350D01*
X46000D02*Y22900D01*
X46350Y23100D02*Y22900D01*
G54D168*X46100Y24000D02*X46250D01*
G54D169*X46000Y23900D02*X46350D01*
X46000Y24100D02*X46350D01*
X46000D02*Y23900D01*
X46350Y24100D02*Y23900D01*
G54D168*X44750Y29000D02*X44900D01*
G54D169*X44650Y29100D02*X45000D01*
X44650Y28900D02*X45000D01*
Y29100D02*Y28900D01*
X44650Y29100D02*Y28900D01*
G54D168*X44750Y28500D02*X44900D01*
G54D169*X44650Y28600D02*X45000D01*
X44650Y28400D02*X45000D01*
Y28600D02*Y28400D01*
X44650Y28600D02*Y28400D01*
G54D168*X44750Y28000D02*X44900D01*
G54D169*X44650Y28100D02*X45000D01*
X44650Y27900D02*X45000D01*
Y28100D02*Y27900D01*
X44650Y28100D02*Y27900D01*
G54D168*X46100Y28000D02*X46250D01*
G54D169*X46000Y27900D02*X46350D01*
X46000Y28100D02*X46350D01*
X46000D02*Y27900D01*
X46350Y28100D02*Y27900D01*
G54D168*X46100Y29000D02*X46250D01*
G54D169*X46000Y28900D02*X46350D01*
X46000Y29100D02*X46350D01*
X46000D02*Y28900D01*
X46350Y29100D02*Y28900D01*
G54D170*X11529Y13500D02*X12021D01*
G54D171*X11440Y13589D02*X12110D01*
X11440Y13411D02*X12110D01*
Y13589D02*Y13411D01*
X11440Y13589D02*Y13411D01*
G54D170*X11529Y13000D02*X12021D01*
G54D171*X11440Y13089D02*X12110D01*
X11440Y12911D02*X12110D01*
Y13089D02*Y12911D01*
X11440Y13089D02*Y12911D01*
G54D170*X11529Y12500D02*X12021D01*
G54D171*X11440Y12589D02*X12110D01*
X11440Y12411D02*X12110D01*
Y12589D02*Y12411D01*
X11440Y12589D02*Y12411D01*
G54D170*X12979Y12500D02*X13471D01*
G54D171*X12890Y12411D02*X13560D01*
X12890Y12589D02*X13560D01*
X12890D02*Y12411D01*
X13560Y12589D02*Y12411D01*
G54D170*X12979Y13000D02*X13471D01*
G54D171*X12890Y12911D02*X13560D01*
X12890Y13089D02*X13560D01*
X12890D02*Y12911D01*
X13560Y13089D02*Y12911D01*
G54D170*X12979Y13500D02*X13471D01*
G54D171*X12890Y13411D02*X13560D01*
X12890Y13589D02*X13560D01*
X12890D02*Y13411D01*
X13560Y13589D02*Y13411D01*
G54D172*X11475Y16000D02*X11525D01*
G54D173*X11325Y16150D02*X11675D01*
X11325Y15850D02*X11675D01*
Y16150D02*Y15850D01*
X11325Y16150D02*Y15850D01*
G54D172*X11475Y15000D02*X11525D01*
G54D173*X11325Y15150D02*X11675D01*
X11325Y14850D02*X11675D01*
Y15150D02*Y14850D01*
X11325Y15150D02*Y14850D01*
G54D172*X20475Y15900D02*X20525D01*
G54D173*X20325Y16050D02*X20675D01*
X20325Y15750D02*X20675D01*
Y16050D02*Y15750D01*
X20325Y16050D02*Y15750D01*
G54D172*X20475Y14900D02*X20525D01*
G54D173*X20325Y15050D02*X20675D01*
X20325Y14750D02*X20675D01*
Y15050D02*Y14750D01*
X20325Y15050D02*Y14750D01*
G54D172*X14475Y16000D02*X14525D01*
G54D173*X14325Y15850D02*X14675D01*
X14325Y16150D02*X14675D01*
X14325D02*Y15850D01*
X14675Y16150D02*Y15850D01*
G54D172*X14475Y17000D02*X14525D01*
G54D173*X14325Y16850D02*X14675D01*
X14325Y17150D02*X14675D01*
X14325D02*Y16850D01*
X14675Y17150D02*Y16850D01*
G54D172*X41000Y13525D02*Y13475D01*
G54D173*X40850Y13675D02*Y13325D01*
X41150Y13675D02*Y13325D01*
X40850Y13675D02*X41150D01*
X40850Y13325D02*X41150D01*
G54D172*X42000Y13525D02*Y13475D01*
G54D173*X41850Y13675D02*Y13325D01*
X42150Y13675D02*Y13325D01*
X41850Y13675D02*X42150D01*
X41850Y13325D02*X42150D01*
G54D172*X30500Y16525D02*Y16475D01*
G54D173*X30350Y16675D02*Y16325D01*
X30650Y16675D02*Y16325D01*
X30350Y16675D02*X30650D01*
X30350Y16325D02*X30650D01*
G54D172*X31500Y16525D02*Y16475D01*
G54D173*X31350Y16675D02*Y16325D01*
X31650Y16675D02*Y16325D01*
X31350Y16675D02*X31650D01*
X31350Y16325D02*X31650D01*
G54D172*X34000Y16525D02*Y16475D01*
G54D173*X34150Y16675D02*Y16325D01*
X33850Y16675D02*Y16325D01*
X34150D01*
X33850Y16675D02*X34150D01*
G54D172*X33000Y16525D02*Y16475D01*
G54D173*X33150Y16675D02*Y16325D01*
X32850Y16675D02*Y16325D01*
X33150D01*
X32850Y16675D02*X33150D01*
G54D172*X54500Y10025D02*Y9975D01*
G54D173*X54650Y10175D02*Y9825D01*
X54350Y10175D02*Y9825D01*
X54650D01*
X54350Y10175D02*X54650D01*
G54D172*X53500Y10025D02*Y9975D01*
G54D173*X53650Y10175D02*Y9825D01*
X53350Y10175D02*Y9825D01*
X53650D01*
X53350Y10175D02*X53650D01*
G54D172*X54500Y9025D02*Y8975D01*
G54D173*X54650Y9175D02*Y8825D01*
X54350Y9175D02*Y8825D01*
X54650D01*
X54350Y9175D02*X54650D01*
G54D172*X53500Y9025D02*Y8975D01*
G54D173*X53650Y9175D02*Y8825D01*
X53350Y9175D02*Y8825D01*
X53650D01*
X53350Y9175D02*X53650D01*
G54D172*X26975Y28500D02*X27025D01*
G54D173*X26825Y28650D02*X27175D01*
X26825Y28350D02*X27175D01*
Y28650D02*Y28350D01*
X26825Y28650D02*Y28350D01*
G54D172*X26975Y27500D02*X27025D01*
G54D173*X26825Y27650D02*X27175D01*
X26825Y27350D02*X27175D01*
Y27650D02*Y27350D01*
X26825Y27650D02*Y27350D01*
G54D172*X18500Y18025D02*Y17975D01*
G54D173*X18350Y18175D02*Y17825D01*
X18650Y18175D02*Y17825D01*
X18350Y18175D02*X18650D01*
X18350Y17825D02*X18650D01*
G54D172*X19500Y18025D02*Y17975D01*
G54D173*X19350Y18175D02*Y17825D01*
X19650Y18175D02*Y17825D01*
X19350Y18175D02*X19650D01*
X19350Y17825D02*X19650D01*
G54D172*X18500Y25025D02*Y24975D01*
G54D173*X18350Y25175D02*Y24825D01*
X18650Y25175D02*Y24825D01*
X18350Y25175D02*X18650D01*
X18350Y24825D02*X18650D01*
G54D172*X19500Y25025D02*Y24975D01*
G54D173*X19350Y25175D02*Y24825D01*
X19650Y25175D02*Y24825D01*
X19350Y25175D02*X19650D01*
X19350Y24825D02*X19650D01*
G54D172*X25500Y13525D02*Y13475D01*
G54D173*X25350Y13675D02*Y13325D01*
X25650Y13675D02*Y13325D01*
X25350Y13675D02*X25650D01*
X25350Y13325D02*X25650D01*
G54D172*X26500Y13525D02*Y13475D01*
G54D173*X26350Y13675D02*Y13325D01*
X26650Y13675D02*Y13325D01*
X26350Y13675D02*X26650D01*
X26350Y13325D02*X26650D01*
G54D172*X25475Y15500D02*X25525D01*
G54D173*X25325Y15350D02*X25675D01*
X25325Y15650D02*X25675D01*
X25325D02*Y15350D01*
X25675Y15650D02*Y15350D01*
G54D172*X25475Y16500D02*X25525D01*
G54D173*X25325Y16350D02*X25675D01*
X25325Y16650D02*X25675D01*
X25325D02*Y16350D01*
X25675Y16650D02*Y16350D01*
G54D172*X21975Y13500D02*X22025D01*
G54D173*X21825Y13350D02*X22175D01*
X21825Y13650D02*X22175D01*
X21825D02*Y13350D01*
X22175Y13650D02*Y13350D01*
G54D172*X21975Y14500D02*X22025D01*
G54D173*X21825Y14350D02*X22175D01*
X21825Y14650D02*X22175D01*
X21825D02*Y14350D01*
X22175Y14650D02*Y14350D01*
G54D172*X22975Y15500D02*X23025D01*
G54D173*X22825Y15350D02*X23175D01*
X22825Y15650D02*X23175D01*
X22825D02*Y15350D01*
X23175Y15650D02*Y15350D01*
G54D172*X22975Y16500D02*X23025D01*
G54D173*X22825Y16350D02*X23175D01*
X22825Y16650D02*X23175D01*
X22825D02*Y16350D01*
X23175Y16650D02*Y16350D01*
G54D172*X30475Y26500D02*X30525D01*
G54D173*X30325Y26650D02*X30675D01*
X30325Y26350D02*X30675D01*
Y26650D02*Y26350D01*
X30325Y26650D02*Y26350D01*
G54D172*X30475Y25500D02*X30525D01*
G54D173*X30325Y25650D02*X30675D01*
X30325Y25350D02*X30675D01*
Y25650D02*Y25350D01*
X30325Y25650D02*Y25350D01*
G54D172*X30475Y18500D02*X30525D01*
G54D173*X30325Y18350D02*X30675D01*
X30325Y18650D02*X30675D01*
X30325D02*Y18350D01*
X30675Y18650D02*Y18350D01*
G54D172*X30475Y19500D02*X30525D01*
G54D173*X30325Y19350D02*X30675D01*
X30325Y19650D02*X30675D01*
X30325D02*Y19350D01*
X30675Y19650D02*Y19350D01*
G54D172*X19475Y23000D02*X19525D01*
G54D173*X19325Y23150D02*X19675D01*
X19325Y22850D02*X19675D01*
Y23150D02*Y22850D01*
X19325Y23150D02*Y22850D01*
G54D172*X19475Y22000D02*X19525D01*
G54D173*X19325Y22150D02*X19675D01*
X19325Y21850D02*X19675D01*
Y22150D02*Y21850D01*
X19325Y22150D02*Y21850D01*
G54D172*X24475Y28500D02*X24525D01*
G54D173*X24325Y28650D02*X24675D01*
X24325Y28350D02*X24675D01*
Y28650D02*Y28350D01*
X24325Y28650D02*Y28350D01*
G54D172*X24475Y27500D02*X24525D01*
G54D173*X24325Y27650D02*X24675D01*
X24325Y27350D02*X24675D01*
Y27650D02*Y27350D01*
X24325Y27650D02*Y27350D01*
G54D172*X27975Y15500D02*X28025D01*
G54D173*X27825Y15350D02*X28175D01*
X27825Y15650D02*X28175D01*
X27825D02*Y15350D01*
X28175Y15650D02*Y15350D01*
G54D172*X27975Y16500D02*X28025D01*
G54D173*X27825Y16350D02*X28175D01*
X27825Y16650D02*X28175D01*
X27825D02*Y16350D01*
X28175Y16650D02*Y16350D01*
G54D172*X26975Y15500D02*X27025D01*
G54D173*X26825Y15350D02*X27175D01*
X26825Y15650D02*X27175D01*
X26825D02*Y15350D01*
X27175Y15650D02*Y15350D01*
G54D172*X26975Y16500D02*X27025D01*
G54D173*X26825Y16350D02*X27175D01*
X26825Y16650D02*X27175D01*
X26825D02*Y16350D01*
X27175Y16650D02*Y16350D01*
G54D172*X19475Y27000D02*X19525D01*
G54D173*X19325Y27150D02*X19675D01*
X19325Y26850D02*X19675D01*
Y27150D02*Y26850D01*
X19325Y27150D02*Y26850D01*
G54D172*X19475Y26000D02*X19525D01*
G54D173*X19325Y26150D02*X19675D01*
X19325Y25850D02*X19675D01*
Y26150D02*Y25850D01*
X19325Y26150D02*Y25850D01*
G54D172*X32475Y34500D02*X32525D01*
G54D173*X32325Y34650D02*X32675D01*
X32325Y34350D02*X32675D01*
Y34650D02*Y34350D01*
X32325Y34650D02*Y34350D01*
G54D172*X32475Y33500D02*X32525D01*
G54D173*X32325Y33650D02*X32675D01*
X32325Y33350D02*X32675D01*
Y33650D02*Y33350D01*
X32325Y33650D02*Y33350D01*
G54D169*X39650Y34700D02*X39850D01*
G54D173*X39750Y34100D03*
G54D172*Y34550D02*Y34250D01*
G54D169*X39150Y34700D02*X39350D01*
G54D173*X39250Y34100D03*
G54D172*Y34550D02*Y34250D01*
G54D169*X38650Y34700D02*X38850D01*
G54D173*X38750Y34100D03*
G54D172*Y34550D02*Y34250D01*
G54D169*X38150Y34700D02*X38350D01*
G54D173*X38250Y34100D03*
G54D172*Y34550D02*Y34250D01*
G54D169*X37650Y34700D02*X37850D01*
G54D173*X37750Y34100D03*
G54D172*Y34550D02*Y34250D01*
G54D169*X37150Y34700D02*X37350D01*
G54D173*X37250Y34100D03*
G54D172*Y34550D02*Y34250D01*
G54D169*X36650Y34700D02*X36850D01*
G54D173*X36750Y34100D03*
G54D172*Y34550D02*Y34250D01*
G54D169*X36150Y34700D02*X36350D01*
G54D173*X36250Y34100D03*
G54D172*Y34550D02*Y34250D01*
G54D169*X35650Y34700D02*X35850D01*
G54D173*X35750Y34100D03*
G54D172*Y34550D02*Y34250D01*
G54D169*X35150Y34700D02*X35350D01*
G54D173*X35250Y34100D03*
G54D172*Y34550D02*Y34250D01*
G54D169*X34650Y34700D02*X34850D01*
G54D173*X34750Y34100D03*
G54D172*Y34550D02*Y34250D01*
G54D169*X34150Y34700D02*X34350D01*
G54D173*X34250Y34100D03*
G54D172*Y34550D02*Y34250D01*
G54D169*X33300Y33850D02*Y33650D01*
G54D173*X33900Y33750D03*
G54D172*X33450D02*X33750D01*
G54D169*X33300Y33350D02*Y33150D01*
G54D173*X33900Y33250D03*
G54D172*X33450D02*X33750D01*
G54D169*X33300Y32850D02*Y32650D01*
G54D173*X33900Y32750D03*
G54D172*X33450D02*X33750D01*
G54D169*X33300Y32350D02*Y32150D01*
G54D173*X33900Y32250D03*
G54D172*X33450D02*X33750D01*
G54D169*X33300Y31850D02*Y31650D01*
G54D173*X33900Y31750D03*
G54D172*X33450D02*X33750D01*
G54D169*X33300Y31350D02*Y31150D01*
G54D173*X33900Y31250D03*
G54D172*X33450D02*X33750D01*
G54D169*X33300Y30850D02*Y30650D01*
G54D173*X33900Y30750D03*
G54D172*X33450D02*X33750D01*
G54D169*X33300Y30350D02*Y30150D01*
G54D173*X33900Y30250D03*
G54D172*X33450D02*X33750D01*
G54D169*X33300Y29850D02*Y29650D01*
G54D173*X33900Y29750D03*
G54D172*X33450D02*X33750D01*
G54D169*X33300Y29350D02*Y29150D01*
G54D173*X33900Y29250D03*
G54D172*X33450D02*X33750D01*
G54D169*X33300Y28850D02*Y28650D01*
G54D173*X33900Y28750D03*
G54D172*X33450D02*X33750D01*
G54D169*X33300Y28350D02*Y28150D01*
G54D173*X33900Y28250D03*
G54D172*X33450D02*X33750D01*
G54D169*X34150Y27300D02*X34350D01*
G54D173*X34250Y27900D03*
G54D172*Y27750D02*Y27450D01*
G54D169*X34650Y27300D02*X34850D01*
G54D173*X34750Y27900D03*
G54D172*Y27750D02*Y27450D01*
G54D169*X35150Y27300D02*X35350D01*
G54D173*X35250Y27900D03*
G54D172*Y27750D02*Y27450D01*
G54D169*X35650Y27300D02*X35850D01*
G54D173*X35750Y27900D03*
G54D172*Y27750D02*Y27450D01*
G54D169*X36150Y27300D02*X36350D01*
G54D173*X36250Y27900D03*
G54D172*Y27750D02*Y27450D01*
G54D169*X36650Y27300D02*X36850D01*
G54D173*X36750Y27900D03*
G54D172*Y27750D02*Y27450D01*
G54D169*X37150Y27300D02*X37350D01*
G54D173*X37250Y27900D03*
G54D172*Y27750D02*Y27450D01*
G54D169*X37650Y27300D02*X37850D01*
G54D173*X37750Y27900D03*
G54D172*Y27750D02*Y27450D01*
G54D169*X38150Y27300D02*X38350D01*
G54D173*X38250Y27900D03*
G54D172*Y27750D02*Y27450D01*
G54D169*X38650Y27300D02*X38850D01*
G54D173*X38750Y27900D03*
G54D172*Y27750D02*Y27450D01*
G54D169*X39150Y27300D02*X39350D01*
G54D173*X39250Y27900D03*
G54D172*Y27750D02*Y27450D01*
G54D169*X39650Y27300D02*X39850D01*
G54D173*X39750Y27900D03*
G54D172*Y27750D02*Y27450D01*
G54D169*X40700Y28350D02*Y28150D01*
G54D173*X40100Y28250D03*
G54D172*X40250D02*X40550D01*
G54D169*X40700Y28850D02*Y28650D01*
G54D173*X40100Y28750D03*
G54D172*X40250D02*X40550D01*
G54D169*X40700Y29350D02*Y29150D01*
G54D173*X40100Y29250D03*
G54D172*X40250D02*X40550D01*
G54D169*X40700Y29850D02*Y29650D01*
G54D173*X40100Y29750D03*
G54D172*X40250D02*X40550D01*
G54D169*X40700Y30350D02*Y30150D01*
G54D173*X40100Y30250D03*
G54D172*X40250D02*X40550D01*
G54D169*X40700Y30850D02*Y30650D01*
G54D173*X40100Y30750D03*
G54D172*X40250D02*X40550D01*
G54D169*X40700Y31350D02*Y31150D01*
G54D173*X40100Y31250D03*
G54D172*X40250D02*X40550D01*
G54D169*X40700Y31850D02*Y31650D01*
G54D173*X40100Y31750D03*
G54D172*X40250D02*X40550D01*
G54D169*X40700Y32350D02*Y32150D01*
G54D173*X40100Y32250D03*
G54D172*X40250D02*X40550D01*
G54D169*X40700Y32850D02*Y32650D01*
G54D173*X40100Y32750D03*
G54D172*X40250D02*X40550D01*
G54D169*X40700Y33350D02*Y33150D01*
G54D173*X40100Y33250D03*
G54D172*X40250D02*X40550D01*
G54D169*X40700Y33850D02*Y33650D01*
G54D173*X40100Y33750D03*
G54D172*X40250D02*X40550D01*
G54D174*X39083Y33292D02*X39292D01*
X39083Y33083D02*X39292D01*
G54D169*X38979Y33396D02*X39396D01*
X38979Y32979D02*X39396D01*
Y33396D02*Y32979D01*
X38979Y33396D02*Y32979D01*
G54D174*X39083Y32417D02*X39292D01*
X39083Y32208D02*X39292D01*
G54D169*X38979Y32521D02*X39396D01*
X38979Y32104D02*X39396D01*
Y32521D02*Y32104D01*
X38979Y32521D02*Y32104D01*
G54D174*X39083Y31542D02*X39292D01*
X39083Y31333D02*X39292D01*
G54D169*X38979Y31646D02*X39396D01*
X38979Y31229D02*X39396D01*
Y31646D02*Y31229D01*
X38979Y31646D02*Y31229D01*
G54D174*X39083Y30667D02*X39292D01*
X39083Y30458D02*X39292D01*
G54D169*X38979Y30771D02*X39396D01*
X38979Y30354D02*X39396D01*
Y30771D02*Y30354D01*
X38979Y30771D02*Y30354D01*
G54D174*X39083Y29792D02*X39292D01*
X39083Y29583D02*X39292D01*
G54D169*X38979Y29896D02*X39396D01*
X38979Y29479D02*X39396D01*
Y29896D02*Y29479D01*
X38979Y29896D02*Y29479D01*
G54D174*X39083Y28917D02*X39292D01*
X39083Y28708D02*X39292D01*
G54D169*X38979Y29021D02*X39396D01*
X38979Y28604D02*X39396D01*
Y29021D02*Y28604D01*
X38979Y29021D02*Y28604D01*
G54D174*X38208Y33292D02*X38417D01*
X38208Y33083D02*X38417D01*
G54D169*X38104Y33396D02*X38521D01*
X38104Y32979D02*X38521D01*
Y33396D02*Y32979D01*
X38104Y33396D02*Y32979D01*
G54D174*X38208Y32417D02*X38417D01*
X38208Y32208D02*X38417D01*
G54D169*X38104Y32521D02*X38521D01*
X38104Y32104D02*X38521D01*
Y32521D02*Y32104D01*
X38104Y32521D02*Y32104D01*
G54D174*X38208Y31542D02*X38417D01*
X38208Y31333D02*X38417D01*
G54D169*X38104Y31646D02*X38521D01*
X38104Y31229D02*X38521D01*
Y31646D02*Y31229D01*
X38104Y31646D02*Y31229D01*
G54D174*X38208Y30667D02*X38417D01*
X38208Y30458D02*X38417D01*
G54D169*X38104Y30771D02*X38521D01*
X38104Y30354D02*X38521D01*
Y30771D02*Y30354D01*
X38104Y30771D02*Y30354D01*
G54D174*X38208Y29792D02*X38417D01*
X38208Y29583D02*X38417D01*
G54D169*X38104Y29896D02*X38521D01*
X38104Y29479D02*X38521D01*
Y29896D02*Y29479D01*
X38104Y29896D02*Y29479D01*
G54D174*X38208Y28917D02*X38417D01*
X38208Y28708D02*X38417D01*
G54D169*X38104Y29021D02*X38521D01*
X38104Y28604D02*X38521D01*
Y29021D02*Y28604D01*
X38104Y29021D02*Y28604D01*
G54D174*X37333Y33292D02*X37542D01*
X37333Y33083D02*X37542D01*
G54D169*X37229Y33396D02*X37646D01*
X37229Y32979D02*X37646D01*
Y33396D02*Y32979D01*
X37229Y33396D02*Y32979D01*
G54D174*X37333Y32417D02*X37542D01*
X37333Y32208D02*X37542D01*
G54D169*X37229Y32521D02*X37646D01*
X37229Y32104D02*X37646D01*
Y32521D02*Y32104D01*
X37229Y32521D02*Y32104D01*
G54D174*X37333Y31542D02*X37542D01*
X37333Y31333D02*X37542D01*
G54D169*X37229Y31646D02*X37646D01*
X37229Y31229D02*X37646D01*
Y31646D02*Y31229D01*
X37229Y31646D02*Y31229D01*
G54D174*X37333Y30667D02*X37542D01*
X37333Y30458D02*X37542D01*
G54D169*X37229Y30771D02*X37646D01*
X37229Y30354D02*X37646D01*
Y30771D02*Y30354D01*
X37229Y30771D02*Y30354D01*
G54D174*X37333Y29792D02*X37542D01*
X37333Y29583D02*X37542D01*
G54D169*X37229Y29896D02*X37646D01*
X37229Y29479D02*X37646D01*
Y29896D02*Y29479D01*
X37229Y29896D02*Y29479D01*
G54D174*X37333Y28917D02*X37542D01*
X37333Y28708D02*X37542D01*
G54D169*X37229Y29021D02*X37646D01*
X37229Y28604D02*X37646D01*
Y29021D02*Y28604D01*
X37229Y29021D02*Y28604D01*
G54D174*X36458Y33292D02*X36667D01*
X36458Y33083D02*X36667D01*
G54D169*X36354Y33396D02*X36771D01*
X36354Y32979D02*X36771D01*
Y33396D02*Y32979D01*
X36354Y33396D02*Y32979D01*
G54D174*X36458Y32417D02*X36667D01*
X36458Y32208D02*X36667D01*
G54D169*X36354Y32521D02*X36771D01*
X36354Y32104D02*X36771D01*
Y32521D02*Y32104D01*
X36354Y32521D02*Y32104D01*
G54D174*X36458Y31542D02*X36667D01*
X36458Y31333D02*X36667D01*
G54D169*X36354Y31646D02*X36771D01*
X36354Y31229D02*X36771D01*
Y31646D02*Y31229D01*
X36354Y31646D02*Y31229D01*
G54D174*X36458Y30667D02*X36667D01*
X36458Y30458D02*X36667D01*
G54D169*X36354Y30771D02*X36771D01*
X36354Y30354D02*X36771D01*
Y30771D02*Y30354D01*
X36354Y30771D02*Y30354D01*
G54D174*X36458Y29792D02*X36667D01*
X36458Y29583D02*X36667D01*
G54D169*X36354Y29896D02*X36771D01*
X36354Y29479D02*X36771D01*
Y29896D02*Y29479D01*
X36354Y29896D02*Y29479D01*
G54D174*X36458Y28917D02*X36667D01*
X36458Y28708D02*X36667D01*
G54D169*X36354Y29021D02*X36771D01*
X36354Y28604D02*X36771D01*
Y29021D02*Y28604D01*
X36354Y29021D02*Y28604D01*
G54D174*X35583Y33292D02*X35792D01*
X35583Y33083D02*X35792D01*
G54D169*X35479Y33396D02*X35896D01*
X35479Y32979D02*X35896D01*
Y33396D02*Y32979D01*
X35479Y33396D02*Y32979D01*
G54D174*X35583Y32417D02*X35792D01*
X35583Y32208D02*X35792D01*
G54D169*X35479Y32521D02*X35896D01*
X35479Y32104D02*X35896D01*
Y32521D02*Y32104D01*
X35479Y32521D02*Y32104D01*
G54D174*X35583Y31542D02*X35792D01*
X35583Y31333D02*X35792D01*
G54D169*X35479Y31646D02*X35896D01*
X35479Y31229D02*X35896D01*
Y31646D02*Y31229D01*
X35479Y31646D02*Y31229D01*
G54D174*X35583Y30667D02*X35792D01*
X35583Y30458D02*X35792D01*
G54D169*X35479Y30771D02*X35896D01*
X35479Y30354D02*X35896D01*
Y30771D02*Y30354D01*
X35479Y30771D02*Y30354D01*
G54D174*X35583Y29792D02*X35792D01*
X35583Y29583D02*X35792D01*
G54D169*X35479Y29896D02*X35896D01*
X35479Y29479D02*X35896D01*
Y29896D02*Y29479D01*
X35479Y29896D02*Y29479D01*
G54D174*X35583Y28917D02*X35792D01*
X35583Y28708D02*X35792D01*
G54D169*X35479Y29021D02*X35896D01*
X35479Y28604D02*X35896D01*
Y29021D02*Y28604D01*
X35479Y29021D02*Y28604D01*
G54D174*X34708Y33292D02*X34917D01*
X34708Y33083D02*X34917D01*
G54D169*X34604Y33396D02*X35021D01*
X34604Y32979D02*X35021D01*
Y33396D02*Y32979D01*
X34604Y33396D02*Y32979D01*
G54D174*X34708Y32417D02*X34917D01*
X34708Y32208D02*X34917D01*
G54D169*X34604Y32521D02*X35021D01*
X34604Y32104D02*X35021D01*
Y32521D02*Y32104D01*
X34604Y32521D02*Y32104D01*
G54D174*X34708Y31542D02*X34917D01*
X34708Y31333D02*X34917D01*
G54D169*X34604Y31646D02*X35021D01*
X34604Y31229D02*X35021D01*
Y31646D02*Y31229D01*
X34604Y31646D02*Y31229D01*
G54D174*X34708Y30667D02*X34917D01*
X34708Y30458D02*X34917D01*
G54D169*X34604Y30771D02*X35021D01*
X34604Y30354D02*X35021D01*
Y30771D02*Y30354D01*
X34604Y30771D02*Y30354D01*
G54D174*X34708Y29792D02*X34917D01*
X34708Y29583D02*X34917D01*
G54D169*X34604Y29896D02*X35021D01*
X34604Y29479D02*X35021D01*
Y29896D02*Y29479D01*
X34604Y29896D02*Y29479D01*
G54D174*X34708Y28917D02*X34917D01*
X34708Y28708D02*X34917D01*
G54D169*X34604Y29021D02*X35021D01*
X34604Y28604D02*X35021D01*
Y29021D02*Y28604D01*
X34604Y29021D02*Y28604D01*
G54D172*X27975Y14500D02*X28025D01*
G54D173*X27825Y14650D02*X28175D01*
X27825Y14350D02*X28175D01*
Y14650D02*Y14350D01*
X27825Y14650D02*Y14350D01*
G54D172*X27975Y13500D02*X28025D01*
G54D173*X27825Y13650D02*X28175D01*
X27825Y13350D02*X28175D01*
Y13650D02*Y13350D01*
X27825Y13650D02*Y13350D01*
G54D172*X22975Y14500D02*X23025D01*
G54D173*X22825Y14650D02*X23175D01*
X22825Y14350D02*X23175D01*
Y14650D02*Y14350D01*
X22825Y14650D02*Y14350D01*
G54D172*X22975Y13500D02*X23025D01*
G54D173*X22825Y13650D02*X23175D01*
X22825Y13350D02*X23175D01*
Y13650D02*Y13350D01*
X22825Y13650D02*Y13350D01*
G54D172*X20475Y13900D02*X20525D01*
G54D173*X20325Y14050D02*X20675D01*
X20325Y13750D02*X20675D01*
Y14050D02*Y13750D01*
X20325Y14050D02*Y13750D01*
G54D172*X20475Y12900D02*X20525D01*
G54D173*X20325Y13050D02*X20675D01*
X20325Y12750D02*X20675D01*
Y13050D02*Y12750D01*
X20325Y13050D02*Y12750D01*
G54D175*X36296Y17000D02*X37204D01*
G54D176*X36214Y17082D02*X37286D01*
X36214Y16918D02*X37286D01*
Y17082D02*Y16918D01*
X36214Y17082D02*Y16918D01*
G54D175*X36296Y16500D02*X37204D01*
G54D176*X36214Y16582D02*X37286D01*
X36214Y16418D02*X37286D01*
Y16582D02*Y16418D01*
X36214Y16582D02*Y16418D01*
G54D175*X36296Y16000D02*X37204D01*
G54D176*X36214Y16082D02*X37286D01*
X36214Y15918D02*X37286D01*
Y16082D02*Y15918D01*
X36214Y16082D02*Y15918D01*
G54D175*X36296Y15500D02*X37204D01*
G54D176*X36214Y15582D02*X37286D01*
X36214Y15418D02*X37286D01*
Y15582D02*Y15418D01*
X36214Y15582D02*Y15418D01*
G54D175*X36296Y15000D02*X37204D01*
G54D176*X36214Y15082D02*X37286D01*
X36214Y14918D02*X37286D01*
Y15082D02*Y14918D01*
X36214Y15082D02*Y14918D01*
G54D175*X40796Y15000D02*X41704D01*
G54D176*X40714Y14918D02*X41786D01*
X40714Y15082D02*X41786D01*
X40714D02*Y14918D01*
X41786Y15082D02*Y14918D01*
G54D175*X40796Y15500D02*X41704D01*
G54D176*X40714Y15418D02*X41786D01*
X40714Y15582D02*X41786D01*
X40714D02*Y15418D01*
X41786Y15582D02*Y15418D01*
G54D175*X40796Y16000D02*X41704D01*
G54D176*X40714Y15918D02*X41786D01*
X40714Y16082D02*X41786D01*
X40714D02*Y15918D01*
X41786Y16082D02*Y15918D01*
G54D175*X40796Y16500D02*X41704D01*
G54D176*X40714Y16418D02*X41786D01*
X40714Y16582D02*X41786D01*
X40714D02*Y16418D01*
X41786Y16582D02*Y16418D01*
G54D175*X40796Y17000D02*X41704D01*
G54D176*X40714Y16918D02*X41786D01*
X40714Y17082D02*X41786D01*
X40714D02*Y16918D01*
X41786Y17082D02*Y16918D01*
G54D172*X38000Y18525D02*Y18475D01*
G54D173*X38150Y18675D02*Y18325D01*
X37850Y18675D02*Y18325D01*
X38150D01*
X37850Y18675D02*X38150D01*
G54D172*X37000Y18525D02*Y18475D01*
G54D173*X37150Y18675D02*Y18325D01*
X36850Y18675D02*Y18325D01*
X37150D01*
X36850Y18675D02*X37150D01*
G54D172*X41000Y18525D02*Y18475D01*
G54D173*X41150Y18675D02*Y18325D01*
X40850Y18675D02*Y18325D01*
X41150D01*
X40850Y18675D02*X41150D01*
G54D172*X40000Y18525D02*Y18475D01*
G54D173*X40150Y18675D02*Y18325D01*
X39850Y18675D02*Y18325D01*
X40150D01*
X39850Y18675D02*X40150D01*
G54D177*X37575Y21550D02*X38025D01*
G54D169*X37300Y21275D02*X38300D01*
X37300Y21825D02*X38300D01*
X37300D02*Y21275D01*
X38300Y21825D02*Y21275D01*
G54D177*X37575Y22500D02*X38025D01*
G54D169*X37300Y22225D02*X38300D01*
X37300Y22775D02*X38300D01*
X37300D02*Y22225D01*
X38300Y22775D02*Y22225D01*
G54D177*X37575Y23450D02*X38025D01*
G54D169*X37300Y23175D02*X38300D01*
X37300Y23725D02*X38300D01*
X37300D02*Y23175D01*
X38300Y23725D02*Y23175D01*
G54D177*X34975Y23450D02*X35425D01*
G54D169*X34700Y23725D02*X35700D01*
X34700Y23175D02*X35700D01*
Y23725D02*Y23175D01*
X34700Y23725D02*Y23175D01*
G54D177*X34975Y22500D02*X35425D01*
G54D169*X34700Y22775D02*X35700D01*
X34700Y22225D02*X35700D01*
Y22775D02*Y22225D01*
X34700Y22775D02*Y22225D01*
G54D177*X34975Y21550D02*X35425D01*
G54D169*X34700Y21825D02*X35700D01*
X34700Y21275D02*X35700D01*
Y21825D02*Y21275D01*
X34700Y21825D02*Y21275D01*
G54D172*X39475Y24000D02*X39525D01*
G54D173*X39325Y24150D02*X39675D01*
X39325Y23850D02*X39675D01*
Y24150D02*Y23850D01*
X39325Y24150D02*Y23850D01*
G54D172*X39475Y23000D02*X39525D01*
G54D173*X39325Y23150D02*X39675D01*
X39325Y22850D02*X39675D01*
Y23150D02*Y22850D01*
X39325Y23150D02*Y22850D01*
G54D172*X39475Y21000D02*X39525D01*
G54D173*X39325Y20850D02*X39675D01*
X39325Y21150D02*X39675D01*
X39325D02*Y20850D01*
X39675Y21150D02*Y20850D01*
G54D172*X39475Y22000D02*X39525D01*
G54D173*X39325Y21850D02*X39675D01*
X39325Y22150D02*X39675D01*
X39325D02*Y21850D01*
X39675Y22150D02*Y21850D01*
G54D172*X32000Y20025D02*Y19975D01*
G54D173*X31850Y20175D02*Y19825D01*
X32150Y20175D02*Y19825D01*
X31850Y20175D02*X32150D01*
X31850Y19825D02*X32150D01*
G54D172*X33000Y20025D02*Y19975D01*
G54D173*X32850Y20175D02*Y19825D01*
X33150Y20175D02*Y19825D01*
X32850Y20175D02*X33150D01*
X32850Y19825D02*X33150D01*
G54D172*X35000Y20025D02*Y19975D01*
G54D173*X35150Y20175D02*Y19825D01*
X34850Y20175D02*Y19825D01*
X35150D01*
X34850Y20175D02*X35150D01*
G54D172*X34000Y20025D02*Y19975D01*
G54D173*X34150Y20175D02*Y19825D01*
X33850Y20175D02*Y19825D01*
X34150D01*
X33850Y20175D02*X34150D01*
G54D172*X41000Y58025D02*Y57975D01*
G54D173*X40850Y58175D02*Y57825D01*
X41150Y58175D02*Y57825D01*
X40850Y58175D02*X41150D01*
X40850Y57825D02*X41150D01*
G54D172*X42000Y58025D02*Y57975D01*
G54D173*X41850Y58175D02*Y57825D01*
X42150Y58175D02*Y57825D01*
X41850Y58175D02*X42150D01*
X41850Y57825D02*X42150D01*
G54D175*X39296Y56000D02*X40204D01*
G54D176*X39214Y56082D02*X40286D01*
X39214Y55918D02*X40286D01*
Y56082D02*Y55918D01*
X39214Y56082D02*Y55918D01*
G54D175*X39296Y55500D02*X40204D01*
G54D176*X39214Y55582D02*X40286D01*
X39214Y55418D02*X40286D01*
Y55582D02*Y55418D01*
X39214Y55582D02*Y55418D01*
G54D175*X39296Y55000D02*X40204D01*
G54D176*X39214Y55082D02*X40286D01*
X39214Y54918D02*X40286D01*
Y55082D02*Y54918D01*
X39214Y55082D02*Y54918D01*
G54D175*X39296Y54500D02*X40204D01*
G54D176*X39214Y54582D02*X40286D01*
X39214Y54418D02*X40286D01*
Y54582D02*Y54418D01*
X39214Y54582D02*Y54418D01*
G54D175*X39296Y54000D02*X40204D01*
G54D176*X39214Y54082D02*X40286D01*
X39214Y53918D02*X40286D01*
Y54082D02*Y53918D01*
X39214Y54082D02*Y53918D01*
G54D175*X43796Y54000D02*X44704D01*
G54D176*X43714Y53918D02*X44786D01*
X43714Y54082D02*X44786D01*
X43714D02*Y53918D01*
X44786Y54082D02*Y53918D01*
G54D175*X43796Y54500D02*X44704D01*
G54D176*X43714Y54418D02*X44786D01*
X43714Y54582D02*X44786D01*
X43714D02*Y54418D01*
X44786Y54582D02*Y54418D01*
G54D175*X43796Y55000D02*X44704D01*
G54D176*X43714Y54918D02*X44786D01*
X43714Y55082D02*X44786D01*
X43714D02*Y54918D01*
X44786Y55082D02*Y54918D01*
G54D175*X43796Y55500D02*X44704D01*
G54D176*X43714Y55418D02*X44786D01*
X43714Y55582D02*X44786D01*
X43714D02*Y55418D01*
X44786Y55582D02*Y55418D01*
G54D175*X43796Y56000D02*X44704D01*
G54D176*X43714Y55918D02*X44786D01*
X43714Y56082D02*X44786D01*
X43714D02*Y55918D01*
X44786Y56082D02*Y55918D01*
G54D172*X45000Y52525D02*Y52475D01*
G54D173*X45150Y52675D02*Y52325D01*
X44850Y52675D02*Y52325D01*
X45150D01*
X44850Y52675D02*X45150D01*
G54D172*X44000Y52525D02*Y52475D01*
G54D173*X44150Y52675D02*Y52325D01*
X43850Y52675D02*Y52325D01*
X44150D01*
X43850Y52675D02*X44150D01*
G54D172*X46975Y52500D02*X47025D01*
G54D173*X46825Y52350D02*X47175D01*
X46825Y52650D02*X47175D01*
X46825D02*Y52350D01*
X47175Y52650D02*Y52350D01*
G54D172*X46975Y53500D02*X47025D01*
G54D173*X46825Y53350D02*X47175D01*
X46825Y53650D02*X47175D01*
X46825D02*Y53350D01*
X47175Y53650D02*Y53350D01*
G54D172*X45975Y55500D02*X46025D01*
G54D173*X45825Y55650D02*X46175D01*
X45825Y55350D02*X46175D01*
Y55650D02*Y55350D01*
X45825Y55650D02*Y55350D01*
G54D172*X45975Y54500D02*X46025D01*
G54D173*X45825Y54650D02*X46175D01*
X45825Y54350D02*X46175D01*
Y54650D02*Y54350D01*
X45825Y54650D02*Y54350D01*
G54D172*X41500Y52525D02*Y52475D01*
G54D173*X41350Y52675D02*Y52325D01*
X41650Y52675D02*Y52325D01*
X41350Y52675D02*X41650D01*
X41350Y52325D02*X41650D01*
G54D172*X42500Y52525D02*Y52475D01*
G54D173*X42350Y52675D02*Y52325D01*
X42650Y52675D02*Y52325D01*
X42350Y52675D02*X42650D01*
X42350Y52325D02*X42650D01*
G54D177*X31550Y40425D02*Y39975D01*
G54D169*X31275Y40700D02*Y39700D01*
X31825Y40700D02*Y39700D01*
X31275Y40700D02*X31825D01*
X31275Y39700D02*X31825D01*
G54D177*X32500Y40425D02*Y39975D01*
G54D169*X32225Y40700D02*Y39700D01*
X32775Y40700D02*Y39700D01*
X32225Y40700D02*X32775D01*
X32225Y39700D02*X32775D01*
G54D177*X33450Y40425D02*Y39975D01*
G54D169*X33175Y40700D02*Y39700D01*
X33725Y40700D02*Y39700D01*
X33175Y40700D02*X33725D01*
X33175Y39700D02*X33725D01*
G54D177*X33450Y43025D02*Y42575D01*
G54D169*X33725Y43300D02*Y42300D01*
X33175Y43300D02*Y42300D01*
X33725D01*
X33175Y43300D02*X33725D01*
G54D177*X32500Y43025D02*Y42575D01*
G54D169*X32775Y43300D02*Y42300D01*
X32225Y43300D02*Y42300D01*
X32775D01*
X32225Y43300D02*X32775D01*
G54D177*X31550Y43025D02*Y42575D01*
G54D169*X31825Y43300D02*Y42300D01*
X31275Y43300D02*Y42300D01*
X31825D01*
X31275Y43300D02*X31825D01*
G54D168*X32500Y44900D02*Y44750D01*
G54D169*X32400Y45000D02*Y44650D01*
X32600Y45000D02*Y44650D01*
X32400Y45000D02*X32600D01*
X32400Y44650D02*X32600D01*
G54D168*X33000Y44900D02*Y44750D01*
G54D169*X32900Y45000D02*Y44650D01*
X33100Y45000D02*Y44650D01*
X32900Y45000D02*X33100D01*
X32900Y44650D02*X33100D01*
G54D168*X33500Y44900D02*Y44750D01*
G54D169*X33400Y45000D02*Y44650D01*
X33600Y45000D02*Y44650D01*
X33400Y45000D02*X33600D01*
X33400Y44650D02*X33600D01*
G54D168*X33500Y46250D02*Y46100D01*
G54D169*X33600Y46350D02*Y46000D01*
X33400Y46350D02*Y46000D01*
X33600D01*
X33400Y46350D02*X33600D01*
G54D168*X32500Y46250D02*Y46100D01*
G54D169*X32600Y46350D02*Y46000D01*
X32400Y46350D02*Y46000D01*
X32600D01*
X32400Y46350D02*X32600D01*
G54D168*X27000Y44900D02*Y44750D01*
G54D169*X26900Y45000D02*Y44650D01*
X27100Y45000D02*Y44650D01*
X26900Y45000D02*X27100D01*
X26900Y44650D02*X27100D01*
G54D168*X27500Y44900D02*Y44750D01*
G54D169*X27400Y45000D02*Y44650D01*
X27600Y45000D02*Y44650D01*
X27400Y45000D02*X27600D01*
X27400Y44650D02*X27600D01*
G54D168*X28000Y44900D02*Y44750D01*
G54D169*X27900Y45000D02*Y44650D01*
X28100Y45000D02*Y44650D01*
X27900Y45000D02*X28100D01*
X27900Y44650D02*X28100D01*
G54D168*X28000Y46250D02*Y46100D01*
G54D169*X28100Y46350D02*Y46000D01*
X27900Y46350D02*Y46000D01*
X28100D01*
X27900Y46350D02*X28100D01*
G54D168*X27000Y46250D02*Y46100D01*
G54D169*X27100Y46350D02*Y46000D01*
X26900Y46350D02*Y46000D01*
X27100D01*
X26900Y46350D02*X27100D01*
G54D172*X31000Y38525D02*Y38475D01*
G54D173*X30850Y38675D02*Y38325D01*
X31150Y38675D02*Y38325D01*
X30850Y38675D02*X31150D01*
X30850Y38325D02*X31150D01*
G54D172*X32000Y38525D02*Y38475D01*
G54D173*X31850Y38675D02*Y38325D01*
X32150Y38675D02*Y38325D01*
X31850Y38675D02*X32150D01*
X31850Y38325D02*X32150D01*
G54D172*X27975Y42000D02*X28025D01*
G54D173*X27825Y41850D02*X28175D01*
X27825Y42150D02*X28175D01*
X27825D02*Y41850D01*
X28175Y42150D02*Y41850D01*
G54D172*X27975Y43000D02*X28025D01*
G54D173*X27825Y42850D02*X28175D01*
X27825Y43150D02*X28175D01*
X27825D02*Y42850D01*
X28175Y43150D02*Y42850D01*
G54D172*X25975Y42000D02*X26025D01*
G54D173*X25825Y41850D02*X26175D01*
X25825Y42150D02*X26175D01*
X25825D02*Y41850D01*
X26175Y42150D02*Y41850D01*
G54D172*X25975Y43000D02*X26025D01*
G54D173*X25825Y42850D02*X26175D01*
X25825Y43150D02*X26175D01*
X25825D02*Y42850D01*
X26175Y43150D02*Y42850D01*
G54D172*X26975Y42000D02*X27025D01*
G54D173*X26825Y41850D02*X27175D01*
X26825Y42150D02*X27175D01*
X26825D02*Y41850D01*
X27175Y42150D02*Y41850D01*
G54D172*X26975Y43000D02*X27025D01*
G54D173*X26825Y42850D02*X27175D01*
X26825Y43150D02*X27175D01*
X26825D02*Y42850D01*
X27175Y43150D02*Y42850D01*
G54D172*X28975Y42000D02*X29025D01*
G54D173*X28825Y41850D02*X29175D01*
X28825Y42150D02*X29175D01*
X28825D02*Y41850D01*
X29175Y42150D02*Y41850D01*
G54D172*X28975Y43000D02*X29025D01*
G54D173*X28825Y42850D02*X29175D01*
X28825Y43150D02*X29175D01*
X28825D02*Y42850D01*
X29175Y43150D02*Y42850D01*
G54D169*X26930Y37800D02*X27070D01*
G54D178*X27000Y38530D03*
G54D179*Y38410D02*Y37920D01*
G54D169*X27430Y37800D02*X27570D01*
G54D178*X27500Y38530D03*
G54D179*Y38410D02*Y37920D01*
G54D169*X27930Y37800D02*X28070D01*
G54D178*X28000Y38530D03*
G54D179*Y38410D02*Y37920D01*
G54D169*X28430Y37800D02*X28570D01*
G54D178*X28500Y38530D03*
G54D179*Y38410D02*Y37920D01*
G54D169*X28930Y37800D02*X29070D01*
G54D178*X29000Y38530D03*
G54D179*Y38410D02*Y37920D01*
G54D169*X29950Y39320D02*Y39180D01*
G54D178*X29220Y39250D03*
G54D179*X29340D02*X29830D01*
G54D169*X29950Y39820D02*Y39680D01*
G54D178*X29220Y39750D03*
G54D179*X29340D02*X29830D01*
G54D169*X28930Y41200D02*X29070D01*
G54D178*X29000Y40470D03*
G54D179*Y41080D02*Y40590D01*
G54D169*X28430Y41200D02*X28570D01*
G54D178*X28500Y40470D03*
G54D179*Y41080D02*Y40590D01*
G54D169*X27930Y41200D02*X28070D01*
G54D178*X28000Y40470D03*
G54D179*Y41080D02*Y40590D01*
G54D169*X27430Y41200D02*X27570D01*
G54D178*X27500Y40470D03*
G54D179*Y41080D02*Y40590D01*
G54D169*X26930Y41200D02*X27070D01*
G54D178*X27000Y40470D03*
G54D179*Y41080D02*Y40590D01*
G54D169*X26050Y39820D02*Y39680D01*
G54D178*X26780Y39750D03*
G54D179*X26170D02*X26660D01*
G54D169*X26050Y39320D02*Y39180D01*
G54D178*X26780Y39250D03*
G54D179*X26170D02*X26660D01*
G54D180*X27650Y39559D02*Y39441D01*
G54D169*X27493Y39284D02*X27807D01*
X27493Y39716D02*X27807D01*
X27493D02*Y39284D01*
X27807Y39716D02*Y39284D01*
G54D180*X28350Y39559D02*Y39441D01*
G54D169*X28193Y39284D02*X28507D01*
X28193Y39716D02*X28507D01*
X28193D02*Y39284D01*
X28507Y39716D02*Y39284D01*
G54D172*X24975Y38000D02*X25025D01*
G54D173*X24825Y37850D02*X25175D01*
X24825Y38150D02*X25175D01*
X24825D02*Y37850D01*
X25175Y38150D02*Y37850D01*
G54D172*X24975Y39000D02*X25025D01*
G54D173*X24825Y38850D02*X25175D01*
X24825Y39150D02*X25175D01*
X24825D02*Y38850D01*
X25175Y39150D02*Y38850D01*
G54D172*X24975Y41000D02*X25025D01*
G54D173*X24825Y41150D02*X25175D01*
X24825Y40850D02*X25175D01*
Y41150D02*Y40850D01*
X24825Y41150D02*Y40850D01*
G54D172*X24975Y40000D02*X25025D01*
G54D173*X24825Y40150D02*X25175D01*
X24825Y39850D02*X25175D01*
Y40150D02*Y39850D01*
X24825Y40150D02*Y39850D01*
G54D177*X35550Y40425D02*Y39975D01*
G54D169*X35275Y40700D02*Y39700D01*
X35825Y40700D02*Y39700D01*
X35275Y40700D02*X35825D01*
X35275Y39700D02*X35825D01*
G54D177*X36500Y40425D02*Y39975D01*
G54D169*X36225Y40700D02*Y39700D01*
X36775Y40700D02*Y39700D01*
X36225Y40700D02*X36775D01*
X36225Y39700D02*X36775D01*
G54D177*X37450Y40425D02*Y39975D01*
G54D169*X37175Y40700D02*Y39700D01*
X37725Y40700D02*Y39700D01*
X37175Y40700D02*X37725D01*
X37175Y39700D02*X37725D01*
G54D177*X37450Y43025D02*Y42575D01*
G54D169*X37725Y43300D02*Y42300D01*
X37175Y43300D02*Y42300D01*
X37725D01*
X37175Y43300D02*X37725D01*
G54D177*X36500Y43025D02*Y42575D01*
G54D169*X36775Y43300D02*Y42300D01*
X36225Y43300D02*Y42300D01*
X36775D01*
X36225Y43300D02*X36775D01*
G54D177*X35550Y43025D02*Y42575D01*
G54D169*X35825Y43300D02*Y42300D01*
X35275Y43300D02*Y42300D01*
X35825D01*
X35275Y43300D02*X35825D01*
G54D172*X33000Y38525D02*Y38475D01*
G54D173*X32850Y38675D02*Y38325D01*
X33150Y38675D02*Y38325D01*
X32850Y38675D02*X33150D01*
X32850Y38325D02*X33150D01*
G54D172*X34000Y38525D02*Y38475D01*
G54D173*X33850Y38675D02*Y38325D01*
X34150Y38675D02*Y38325D01*
X33850Y38675D02*X34150D01*
X33850Y38325D02*X34150D01*
G54D172*X40000Y58025D02*Y57975D01*
G54D173*X40150Y58175D02*Y57825D01*
X39850Y58175D02*Y57825D01*
X40150D01*
X39850Y58175D02*X40150D01*
G54D172*X39000Y58025D02*Y57975D01*
G54D173*X39150Y58175D02*Y57825D01*
X38850Y58175D02*Y57825D01*
X39150D01*
X38850Y58175D02*X39150D01*
G54D168*X17100Y25500D02*X17250D01*
G54D169*X17000Y25400D02*X17350D01*
X17000Y25600D02*X17350D01*
X17000D02*Y25400D01*
X17350Y25600D02*Y25400D01*
G54D168*X17100Y26000D02*X17250D01*
G54D169*X17000Y25900D02*X17350D01*
X17000Y26100D02*X17350D01*
X17000D02*Y25900D01*
X17350Y26100D02*Y25900D01*
G54D168*X17100Y26500D02*X17250D01*
G54D169*X17000Y26400D02*X17350D01*
X17000Y26600D02*X17350D01*
X17000D02*Y26400D01*
X17350Y26600D02*Y26400D01*
G54D168*X15750Y26500D02*X15900D01*
G54D169*X15650Y26600D02*X16000D01*
X15650Y26400D02*X16000D01*
Y26600D02*Y26400D01*
X15650Y26600D02*Y26400D01*
G54D168*X15750Y25500D02*X15900D01*
G54D169*X15650Y25600D02*X16000D01*
X15650Y25400D02*X16000D01*
Y25600D02*Y25400D01*
X15650Y25600D02*Y25400D01*
G54D168*X17100Y28500D02*X17250D01*
G54D169*X17000Y28400D02*X17350D01*
X17000Y28600D02*X17350D01*
X17000D02*Y28400D01*
X17350Y28600D02*Y28400D01*
G54D168*X17100Y29000D02*X17250D01*
G54D169*X17000Y28900D02*X17350D01*
X17000Y29100D02*X17350D01*
X17000D02*Y28900D01*
X17350Y29100D02*Y28900D01*
G54D168*X17100Y29500D02*X17250D01*
G54D169*X17000Y29400D02*X17350D01*
X17000Y29600D02*X17350D01*
X17000D02*Y29400D01*
X17350Y29600D02*Y29400D01*
G54D168*X15750Y29500D02*X15900D01*
G54D169*X15650Y29600D02*X16000D01*
X15650Y29400D02*X16000D01*
Y29600D02*Y29400D01*
X15650Y29600D02*Y29400D01*
G54D168*X15750Y28500D02*X15900D01*
G54D169*X15650Y28600D02*X16000D01*
X15650Y28400D02*X16000D01*
Y28600D02*Y28400D01*
X15650Y28600D02*Y28400D01*
G54D172*X16500Y31025D02*Y30975D01*
G54D173*X16650Y31175D02*Y30825D01*
X16350Y31175D02*Y30825D01*
X16650D01*
X16350Y31175D02*X16650D01*
G54D172*X15500Y31025D02*Y30975D01*
G54D173*X15650Y31175D02*Y30825D01*
X15350Y31175D02*Y30825D01*
X15650D01*
X15350Y31175D02*X15650D01*
G54D172*X19490Y31035D02*Y30985D01*
G54D173*X19640Y31185D02*Y30835D01*
X19340Y31185D02*Y30835D01*
X19640D01*
X19340Y31185D02*X19640D01*
G54D172*X18490Y31035D02*Y30985D01*
G54D173*X18640Y31185D02*Y30835D01*
X18340Y31185D02*Y30835D01*
X18640D01*
X18340Y31185D02*X18640D01*
G54D170*X15529Y34000D02*X16021D01*
G54D171*X15440Y34089D02*X16110D01*
X15440Y33911D02*X16110D01*
Y34089D02*Y33911D01*
X15440Y34089D02*Y33911D01*
G54D170*X15529Y33500D02*X16021D01*
G54D171*X15440Y33589D02*X16110D01*
X15440Y33411D02*X16110D01*
Y33589D02*Y33411D01*
X15440Y33589D02*Y33411D01*
G54D170*X15529Y33000D02*X16021D01*
G54D171*X15440Y33089D02*X16110D01*
X15440Y32911D02*X16110D01*
Y33089D02*Y32911D01*
X15440Y33089D02*Y32911D01*
G54D170*X16979Y33000D02*X17471D01*
G54D171*X16890Y32911D02*X17560D01*
X16890Y33089D02*X17560D01*
X16890D02*Y32911D01*
X17560Y33089D02*Y32911D01*
G54D170*X16979Y33500D02*X17471D01*
G54D171*X16890Y33411D02*X17560D01*
X16890Y33589D02*X17560D01*
X16890D02*Y33411D01*
X17560Y33589D02*Y33411D01*
G54D170*X16979Y34000D02*X17471D01*
G54D171*X16890Y33911D02*X17560D01*
X16890Y34089D02*X17560D01*
X16890D02*Y33911D01*
X17560Y34089D02*Y33911D01*
G54D172*X17000Y47025D02*Y46975D01*
G54D173*X17150Y47175D02*Y46825D01*
X16850Y47175D02*Y46825D01*
X17150D01*
X16850Y47175D02*X17150D01*
G54D172*X16000Y47025D02*Y46975D01*
G54D173*X16150Y47175D02*Y46825D01*
X15850Y47175D02*Y46825D01*
X16150D01*
X15850Y47175D02*X16150D01*
G54D181*X21780Y38425D02*X22720D01*
G54D169*X21650Y38295D02*X22850D01*
X21650Y38555D02*X22850D01*
X21650D02*Y38295D01*
X22850Y38555D02*Y38295D01*
G54D181*X21780Y39075D02*X22720D01*
G54D169*X21650Y38945D02*X22850D01*
X21650Y39205D02*X22850D01*
X21650D02*Y38945D01*
X22850Y39205D02*Y38945D01*
G54D181*X21780Y39725D02*X22720D01*
G54D169*X21650Y39595D02*X22850D01*
X21650Y39855D02*X22850D01*
X21650D02*Y39595D01*
X22850Y39855D02*Y39595D01*
G54D181*X21780Y40375D02*X22720D01*
G54D169*X21650Y40245D02*X22850D01*
X21650Y40505D02*X22850D01*
X21650D02*Y40245D01*
X22850Y40505D02*Y40245D01*
G54D181*X21780Y41025D02*X22720D01*
G54D169*X21650Y40895D02*X22850D01*
X21650Y41155D02*X22850D01*
X21650D02*Y40895D01*
X22850Y41155D02*Y40895D01*
G54D181*X21780Y41675D02*X22720D01*
G54D169*X21650Y41545D02*X22850D01*
X21650Y41805D02*X22850D01*
X21650D02*Y41545D01*
X22850Y41805D02*Y41545D01*
G54D181*X21780Y42325D02*X22720D01*
G54D169*X21650Y42195D02*X22850D01*
X21650Y42455D02*X22850D01*
X21650D02*Y42195D01*
X22850Y42455D02*Y42195D01*
G54D181*X21780Y42975D02*X22720D01*
G54D169*X21650Y42845D02*X22850D01*
X21650Y43105D02*X22850D01*
X21650D02*Y42845D01*
X22850Y43105D02*Y42845D01*
G54D181*X21780Y43625D02*X22720D01*
G54D169*X21650Y43495D02*X22850D01*
X21650Y43755D02*X22850D01*
X21650D02*Y43495D01*
X22850Y43755D02*Y43495D01*
G54D181*X21780Y44275D02*X22720D01*
G54D169*X21650Y44145D02*X22850D01*
X21650Y44405D02*X22850D01*
X21650D02*Y44145D01*
X22850Y44405D02*Y44145D01*
G54D181*X21780Y44925D02*X22720D01*
G54D169*X21650Y44795D02*X22850D01*
X21650Y45055D02*X22850D01*
X21650D02*Y44795D01*
X22850Y45055D02*Y44795D01*
G54D181*X21780Y45575D02*X22720D01*
G54D169*X21650Y45445D02*X22850D01*
X21650Y45705D02*X22850D01*
X21650D02*Y45445D01*
X22850Y45705D02*Y45445D01*
G54D181*X16280Y45575D02*X17220D01*
G54D169*X16150Y45705D02*X17350D01*
X16150Y45445D02*X17350D01*
Y45705D02*Y45445D01*
X16150Y45705D02*Y45445D01*
G54D181*X16280Y44925D02*X17220D01*
G54D169*X16150Y45055D02*X17350D01*
X16150Y44795D02*X17350D01*
Y45055D02*Y44795D01*
X16150Y45055D02*Y44795D01*
G54D181*X16280Y44275D02*X17220D01*
G54D169*X16150Y44405D02*X17350D01*
X16150Y44145D02*X17350D01*
Y44405D02*Y44145D01*
X16150Y44405D02*Y44145D01*
G54D181*X16280Y43625D02*X17220D01*
G54D169*X16150Y43755D02*X17350D01*
X16150Y43495D02*X17350D01*
Y43755D02*Y43495D01*
X16150Y43755D02*Y43495D01*
G54D181*X16280Y42975D02*X17220D01*
G54D169*X16150Y43105D02*X17350D01*
X16150Y42845D02*X17350D01*
Y43105D02*Y42845D01*
X16150Y43105D02*Y42845D01*
G54D181*X16280Y42325D02*X17220D01*
G54D169*X16150Y42455D02*X17350D01*
X16150Y42195D02*X17350D01*
Y42455D02*Y42195D01*
X16150Y42455D02*Y42195D01*
G54D181*X16280Y41675D02*X17220D01*
G54D169*X16150Y41805D02*X17350D01*
X16150Y41545D02*X17350D01*
Y41805D02*Y41545D01*
X16150Y41805D02*Y41545D01*
G54D181*X16280Y41025D02*X17220D01*
G54D169*X16150Y41155D02*X17350D01*
X16150Y40895D02*X17350D01*
Y41155D02*Y40895D01*
X16150Y41155D02*Y40895D01*
G54D181*X16280Y40375D02*X17220D01*
G54D169*X16150Y40505D02*X17350D01*
X16150Y40245D02*X17350D01*
Y40505D02*Y40245D01*
X16150Y40505D02*Y40245D01*
G54D181*X16280Y39725D02*X17220D01*
G54D169*X16150Y39855D02*X17350D01*
X16150Y39595D02*X17350D01*
Y39855D02*Y39595D01*
X16150Y39855D02*Y39595D01*
G54D181*X16280Y39075D02*X17220D01*
G54D169*X16150Y39205D02*X17350D01*
X16150Y38945D02*X17350D01*
Y39205D02*Y38945D01*
X16150Y39205D02*Y38945D01*
G54D181*X16280Y38425D02*X17220D01*
G54D169*X16150Y38555D02*X17350D01*
X16150Y38295D02*X17350D01*
Y38555D02*Y38295D01*
X16150Y38555D02*Y38295D01*
G54D172*X23975Y40000D02*X24025D01*
G54D173*X23825Y39850D02*X24175D01*
X23825Y40150D02*X24175D01*
X23825D02*Y39850D01*
X24175Y40150D02*Y39850D01*
G54D172*X23975Y41000D02*X24025D01*
G54D173*X23825Y40850D02*X24175D01*
X23825Y41150D02*X24175D01*
X23825D02*Y40850D01*
X24175Y41150D02*Y40850D01*
G54D172*X23000Y37025D02*Y36975D01*
G54D173*X23150Y37175D02*Y36825D01*
X22850Y37175D02*Y36825D01*
X23150D01*
X22850Y37175D02*X23150D01*
G54D172*X22000Y37025D02*Y36975D01*
G54D173*X22150Y37175D02*Y36825D01*
X21850Y37175D02*Y36825D01*
X22150D01*
X21850Y37175D02*X22150D01*
G54D172*X23975Y43000D02*X24025D01*
G54D173*X23825Y43150D02*X24175D01*
X23825Y42850D02*X24175D01*
Y43150D02*Y42850D01*
X23825Y43150D02*Y42850D01*
G54D172*X23975Y42000D02*X24025D01*
G54D173*X23825Y42150D02*X24175D01*
X23825Y41850D02*X24175D01*
Y42150D02*Y41850D01*
X23825Y42150D02*Y41850D01*
G54D172*X23975Y38000D02*X24025D01*
G54D173*X23825Y37850D02*X24175D01*
X23825Y38150D02*X24175D01*
X23825D02*Y37850D01*
X24175Y38150D02*Y37850D01*
G54D172*X23975Y39000D02*X24025D01*
G54D173*X23825Y38850D02*X24175D01*
X23825Y39150D02*X24175D01*
X23825D02*Y38850D01*
X24175Y39150D02*Y38850D01*
G54D172*X17000Y37025D02*Y36975D01*
G54D173*X17150Y37175D02*Y36825D01*
X16850Y37175D02*Y36825D01*
X17150D01*
X16850Y37175D02*X17150D01*
G54D172*X16000Y37025D02*Y36975D01*
G54D173*X16150Y37175D02*Y36825D01*
X15850Y37175D02*Y36825D01*
X16150D01*
X15850Y37175D02*X16150D01*
G54D172*X13475Y18500D02*X13525D01*
G54D173*X13325Y18350D02*X13675D01*
X13325Y18650D02*X13675D01*
X13325D02*Y18350D01*
X13675Y18650D02*Y18350D01*
G54D172*X13475Y19500D02*X13525D01*
G54D173*X13325Y19350D02*X13675D01*
X13325Y19650D02*X13675D01*
X13325D02*Y19350D01*
X13675Y19650D02*Y19350D01*
G54D172*X14475Y19500D02*X14525D01*
G54D173*X14325Y19650D02*X14675D01*
X14325Y19350D02*X14675D01*
Y19650D02*Y19350D01*
X14325Y19650D02*Y19350D01*
G54D172*X14475Y18500D02*X14525D01*
G54D173*X14325Y18650D02*X14675D01*
X14325Y18350D02*X14675D01*
Y18650D02*Y18350D01*
X14325Y18650D02*Y18350D01*
G54D172*X16500Y18025D02*Y17975D01*
G54D173*X16350Y18175D02*Y17825D01*
X16650Y18175D02*Y17825D01*
X16350Y18175D02*X16650D01*
X16350Y17825D02*X16650D01*
G54D172*X17500Y18025D02*Y17975D01*
G54D173*X17350Y18175D02*Y17825D01*
X17650Y18175D02*Y17825D01*
X17350Y18175D02*X17650D01*
X17350Y17825D02*X17650D01*
G54D172*X16500Y24025D02*Y23975D01*
G54D173*X16650Y24175D02*Y23825D01*
X16350Y24175D02*Y23825D01*
X16650D01*
X16350Y24175D02*X16650D01*
G54D172*X15500Y24025D02*Y23975D01*
G54D173*X15650Y24175D02*Y23825D01*
X15350Y24175D02*Y23825D01*
X15650D01*
X15350Y24175D02*X15650D01*
G54D177*X17950Y22525D02*Y22075D01*
G54D169*X18225Y22800D02*Y21800D01*
X17675Y22800D02*Y21800D01*
X18225D01*
X17675Y22800D02*X18225D01*
G54D177*X17000Y22525D02*Y22075D01*
G54D169*X17275Y22800D02*Y21800D01*
X16725Y22800D02*Y21800D01*
X17275D01*
X16725Y22800D02*X17275D01*
G54D177*X16050Y22525D02*Y22075D01*
G54D169*X16325Y22800D02*Y21800D01*
X15775Y22800D02*Y21800D01*
X16325D01*
X15775Y22800D02*X16325D01*
G54D177*X16050Y19925D02*Y19475D01*
G54D169*X15775Y20200D02*Y19200D01*
X16325Y20200D02*Y19200D01*
X15775Y20200D02*X16325D01*
X15775Y19200D02*X16325D01*
G54D177*X17000Y19925D02*Y19475D01*
G54D169*X16725Y20200D02*Y19200D01*
X17275Y20200D02*Y19200D01*
X16725Y20200D02*X17275D01*
X16725Y19200D02*X17275D01*
G54D177*X17950Y19925D02*Y19475D01*
G54D169*X17675Y20200D02*Y19200D01*
X18225Y20200D02*Y19200D01*
X17675Y20200D02*X18225D01*
X17675Y19200D02*X18225D01*
G54D172*X17500Y24025D02*Y23975D01*
G54D173*X17350Y24175D02*Y23825D01*
X17650Y24175D02*Y23825D01*
X17350Y24175D02*X17650D01*
X17350Y23825D02*X17650D01*
G54D172*X18500Y24025D02*Y23975D01*
G54D173*X18350Y24175D02*Y23825D01*
X18650Y24175D02*Y23825D01*
X18350Y24175D02*X18650D01*
X18350Y23825D02*X18650D01*
G54D182*X18511Y16350D02*X18689D01*
G54D171*X19181Y16842D02*Y15858D01*
X18019Y16842D02*Y15858D01*
X19181D01*
X18019Y16842D02*X19181D01*
G54D182*X16311Y16350D02*X16489D01*
G54D171*X16981Y16842D02*Y15858D01*
X15819Y16842D02*Y15858D01*
X16981D01*
X15819Y16842D02*X16981D01*
G54D182*X16311Y14650D02*X16489D01*
G54D171*X15819Y15142D02*Y14158D01*
X16981Y15142D02*Y14158D01*
X15819Y15142D02*X16981D01*
X15819Y14158D02*X16981D01*
G54D182*X18511Y14650D02*X18689D01*
G54D171*X18019Y15142D02*Y14158D01*
X19181Y15142D02*Y14158D01*
X18019Y15142D02*X19181D01*
X18019Y14158D02*X19181D01*
X21161Y17479D02*X21339D01*
G54D183*X21250Y17882D03*
G54D184*Y17747D02*Y17613D01*
G54D171*X21661Y17479D02*X21839D01*
G54D183*X21750Y17882D03*
G54D184*Y17747D02*Y17613D01*
G54D171*X22161Y17479D02*X22339D01*
G54D183*X22250Y17882D03*
G54D184*Y17747D02*Y17613D01*
G54D171*X22661Y17479D02*X22839D01*
G54D183*X22750Y17882D03*
G54D184*Y17747D02*Y17613D01*
G54D171*X23161Y17479D02*X23339D01*
G54D183*X23250Y17882D03*
G54D184*Y17747D02*Y17613D01*
G54D171*X23661Y17479D02*X23839D01*
G54D183*X23750Y17882D03*
G54D184*Y17747D02*Y17613D01*
G54D171*X24161Y17479D02*X24339D01*
G54D183*X24250Y17882D03*
G54D184*Y17747D02*Y17613D01*
G54D171*X24661Y17479D02*X24839D01*
G54D183*X24750Y17882D03*
G54D184*Y17747D02*Y17613D01*
G54D171*X25161Y17479D02*X25339D01*
G54D183*X25250Y17882D03*
G54D184*Y17747D02*Y17613D01*
G54D171*X25661Y17479D02*X25839D01*
G54D183*X25750Y17882D03*
G54D184*Y17747D02*Y17613D01*
G54D171*X26161Y17479D02*X26339D01*
G54D183*X26250Y17882D03*
G54D184*Y17747D02*Y17613D01*
G54D171*X26661Y17479D02*X26839D01*
G54D183*X26750Y17882D03*
G54D184*Y17747D02*Y17613D01*
G54D171*X27161Y17479D02*X27339D01*
G54D183*X27250Y17882D03*
G54D184*Y17747D02*Y17613D01*
G54D171*X27661Y17479D02*X27839D01*
G54D183*X27750Y17882D03*
G54D184*Y17747D02*Y17613D01*
G54D171*X28161Y17479D02*X28339D01*
G54D183*X28250Y17882D03*
G54D184*Y17747D02*Y17613D01*
G54D171*X28661Y17479D02*X28839D01*
G54D183*X28750Y17882D03*
G54D184*Y17747D02*Y17613D01*
G54D171*X29521Y18339D02*Y18161D01*
G54D183*X29118Y18250D03*
G54D184*X29253D02*X29387D01*
G54D171*X29521Y18839D02*Y18661D01*
G54D183*X29118Y18750D03*
G54D184*X29253D02*X29387D01*
G54D171*X29521Y19339D02*Y19161D01*
G54D183*X29118Y19250D03*
G54D184*X29253D02*X29387D01*
G54D171*X29521Y19839D02*Y19661D01*
G54D183*X29118Y19750D03*
G54D184*X29253D02*X29387D01*
G54D171*X29521Y20339D02*Y20161D01*
G54D183*X29118Y20250D03*
G54D184*X29253D02*X29387D01*
G54D171*X29521Y20839D02*Y20661D01*
G54D183*X29118Y20750D03*
G54D184*X29253D02*X29387D01*
G54D171*X29521Y21339D02*Y21161D01*
G54D183*X29118Y21250D03*
G54D184*X29253D02*X29387D01*
G54D171*X29521Y21839D02*Y21661D01*
G54D183*X29118Y21750D03*
G54D184*X29253D02*X29387D01*
G54D171*X29521Y22339D02*Y22161D01*
G54D183*X29118Y22250D03*
G54D184*X29253D02*X29387D01*
G54D171*X29521Y22839D02*Y22661D01*
G54D183*X29118Y22750D03*
G54D184*X29253D02*X29387D01*
G54D171*X29521Y23339D02*Y23161D01*
G54D183*X29118Y23250D03*
G54D184*X29253D02*X29387D01*
G54D171*X29521Y23839D02*Y23661D01*
G54D183*X29118Y23750D03*
G54D184*X29253D02*X29387D01*
G54D171*X29521Y24339D02*Y24161D01*
G54D183*X29118Y24250D03*
G54D184*X29253D02*X29387D01*
G54D171*X29521Y24839D02*Y24661D01*
G54D183*X29118Y24750D03*
G54D184*X29253D02*X29387D01*
G54D171*X29521Y25339D02*Y25161D01*
G54D183*X29118Y25250D03*
G54D184*X29253D02*X29387D01*
G54D171*X29521Y25839D02*Y25661D01*
G54D183*X29118Y25750D03*
G54D184*X29253D02*X29387D01*
G54D171*X28661Y26521D02*X28839D01*
G54D183*X28750Y26118D03*
G54D184*Y26387D02*Y26253D01*
G54D171*X28161Y26521D02*X28339D01*
G54D183*X28250Y26118D03*
G54D184*Y26387D02*Y26253D01*
G54D171*X27661Y26521D02*X27839D01*
G54D183*X27750Y26118D03*
G54D184*Y26387D02*Y26253D01*
G54D171*X27161Y26521D02*X27339D01*
G54D183*X27250Y26118D03*
G54D184*Y26387D02*Y26253D01*
G54D171*X26661Y26521D02*X26839D01*
G54D183*X26750Y26118D03*
G54D184*Y26387D02*Y26253D01*
G54D171*X26161Y26521D02*X26339D01*
G54D183*X26250Y26118D03*
G54D184*Y26387D02*Y26253D01*
G54D171*X25661Y26521D02*X25839D01*
G54D183*X25750Y26118D03*
G54D184*Y26387D02*Y26253D01*
G54D171*X25161Y26521D02*X25339D01*
G54D183*X25250Y26118D03*
G54D184*Y26387D02*Y26253D01*
G54D171*X24661Y26521D02*X24839D01*
G54D183*X24750Y26118D03*
G54D184*Y26387D02*Y26253D01*
G54D171*X24161Y26521D02*X24339D01*
G54D183*X24250Y26118D03*
G54D184*Y26387D02*Y26253D01*
G54D171*X23661Y26521D02*X23839D01*
G54D183*X23750Y26118D03*
G54D184*Y26387D02*Y26253D01*
G54D171*X23161Y26521D02*X23339D01*
G54D183*X23250Y26118D03*
G54D184*Y26387D02*Y26253D01*
G54D171*X22661Y26521D02*X22839D01*
G54D183*X22750Y26118D03*
G54D184*Y26387D02*Y26253D01*
G54D171*X22161Y26521D02*X22339D01*
G54D183*X22250Y26118D03*
G54D184*Y26387D02*Y26253D01*
G54D171*X21661Y26521D02*X21839D01*
G54D183*X21750Y26118D03*
G54D184*Y26387D02*Y26253D01*
G54D171*X21161Y26521D02*X21339D01*
G54D183*X21250Y26118D03*
G54D184*Y26387D02*Y26253D01*
G54D171*X20479Y25839D02*Y25661D01*
G54D183*X20882Y25750D03*
G54D184*X20613D02*X20747D01*
G54D171*X20479Y25339D02*Y25161D01*
G54D183*X20882Y25250D03*
G54D184*X20613D02*X20747D01*
G54D171*X20479Y24839D02*Y24661D01*
G54D183*X20882Y24750D03*
G54D184*X20613D02*X20747D01*
G54D171*X20479Y24339D02*Y24161D01*
G54D183*X20882Y24250D03*
G54D184*X20613D02*X20747D01*
G54D171*X20479Y23839D02*Y23661D01*
G54D183*X20882Y23750D03*
G54D184*X20613D02*X20747D01*
G54D171*X20479Y23339D02*Y23161D01*
G54D183*X20882Y23250D03*
G54D184*X20613D02*X20747D01*
G54D171*X20479Y22839D02*Y22661D01*
G54D183*X20882Y22750D03*
G54D184*X20613D02*X20747D01*
G54D171*X20479Y22339D02*Y22161D01*
G54D183*X20882Y22250D03*
G54D184*X20613D02*X20747D01*
G54D171*X20479Y21839D02*Y21661D01*
G54D183*X20882Y21750D03*
G54D184*X20613D02*X20747D01*
G54D171*X20479Y21339D02*Y21161D01*
G54D183*X20882Y21250D03*
G54D184*X20613D02*X20747D01*
G54D171*X20479Y20839D02*Y20661D01*
G54D183*X20882Y20750D03*
G54D184*X20613D02*X20747D01*
G54D171*X20479Y20339D02*Y20161D01*
G54D183*X20882Y20250D03*
G54D184*X20613D02*X20747D01*
G54D171*X20479Y19839D02*Y19661D01*
G54D183*X20882Y19750D03*
G54D184*X20613D02*X20747D01*
G54D171*X20479Y19339D02*Y19161D01*
G54D183*X20882Y19250D03*
G54D184*X20613D02*X20747D01*
G54D171*X20479Y18839D02*Y18661D01*
G54D183*X20882Y18750D03*
G54D184*X20613D02*X20747D01*
G54D171*X20479Y18339D02*Y18161D01*
G54D183*X20882Y18250D03*
G54D184*X20613D02*X20747D01*
G54D185*X23156Y20156D02*X23364D01*
X23156Y20364D02*X23364D01*
G54D169*X23053Y20053D02*X23467D01*
X23053Y20467D02*X23467D01*
X23053D02*Y20053D01*
X23467Y20467D02*Y20053D01*
G54D185*X23156Y21026D02*X23364D01*
X23156Y21234D02*X23364D01*
G54D169*X23053Y20923D02*X23467D01*
X23053Y21337D02*X23467D01*
X23053D02*Y20923D01*
X23467Y21337D02*Y20923D01*
G54D185*X23156Y21896D02*X23364D01*
X23156Y22104D02*X23364D01*
G54D169*X23053Y21793D02*X23467D01*
X23053Y22207D02*X23467D01*
X23053D02*Y21793D01*
X23467Y22207D02*Y21793D01*
G54D185*X23156Y22766D02*X23364D01*
X23156Y22974D02*X23364D01*
G54D169*X23053Y22663D02*X23467D01*
X23053Y23077D02*X23467D01*
X23053D02*Y22663D01*
X23467Y23077D02*Y22663D01*
G54D185*X23156Y23636D02*X23364D01*
X23156Y23844D02*X23364D01*
G54D169*X23053Y23533D02*X23467D01*
X23053Y23947D02*X23467D01*
X23053D02*Y23533D01*
X23467Y23947D02*Y23533D01*
G54D185*X24026Y20156D02*X24234D01*
X24026Y20364D02*X24234D01*
G54D169*X23923Y20053D02*X24337D01*
X23923Y20467D02*X24337D01*
X23923D02*Y20053D01*
X24337Y20467D02*Y20053D01*
G54D185*X24026Y21026D02*X24234D01*
X24026Y21234D02*X24234D01*
G54D169*X23923Y20923D02*X24337D01*
X23923Y21337D02*X24337D01*
X23923D02*Y20923D01*
X24337Y21337D02*Y20923D01*
G54D185*X24026Y21896D02*X24234D01*
X24026Y22104D02*X24234D01*
G54D169*X23923Y21793D02*X24337D01*
X23923Y22207D02*X24337D01*
X23923D02*Y21793D01*
X24337Y22207D02*Y21793D01*
G54D185*X24026Y22766D02*X24234D01*
X24026Y22974D02*X24234D01*
G54D169*X23923Y22663D02*X24337D01*
X23923Y23077D02*X24337D01*
X23923D02*Y22663D01*
X24337Y23077D02*Y22663D01*
G54D185*X24026Y23636D02*X24234D01*
X24026Y23844D02*X24234D01*
G54D169*X23923Y23533D02*X24337D01*
X23923Y23947D02*X24337D01*
X23923D02*Y23533D01*
X24337Y23947D02*Y23533D01*
G54D185*X24896Y20156D02*X25104D01*
X24896Y20364D02*X25104D01*
G54D169*X24793Y20053D02*X25207D01*
X24793Y20467D02*X25207D01*
X24793D02*Y20053D01*
X25207Y20467D02*Y20053D01*
G54D185*X24896Y21026D02*X25104D01*
X24896Y21234D02*X25104D01*
G54D169*X24793Y20923D02*X25207D01*
X24793Y21337D02*X25207D01*
X24793D02*Y20923D01*
X25207Y21337D02*Y20923D01*
G54D185*X24896Y21896D02*X25104D01*
X24896Y22104D02*X25104D01*
G54D169*X24793Y21793D02*X25207D01*
X24793Y22207D02*X25207D01*
X24793D02*Y21793D01*
X25207Y22207D02*Y21793D01*
G54D185*X24896Y22766D02*X25104D01*
X24896Y22974D02*X25104D01*
G54D169*X24793Y22663D02*X25207D01*
X24793Y23077D02*X25207D01*
X24793D02*Y22663D01*
X25207Y23077D02*Y22663D01*
G54D185*X24896Y23636D02*X25104D01*
X24896Y23844D02*X25104D01*
G54D169*X24793Y23533D02*X25207D01*
X24793Y23947D02*X25207D01*
X24793D02*Y23533D01*
X25207Y23947D02*Y23533D01*
G54D185*X25766Y20156D02*X25974D01*
X25766Y20364D02*X25974D01*
G54D169*X25663Y20053D02*X26077D01*
X25663Y20467D02*X26077D01*
X25663D02*Y20053D01*
X26077Y20467D02*Y20053D01*
G54D185*X25766Y21026D02*X25974D01*
X25766Y21234D02*X25974D01*
G54D169*X25663Y20923D02*X26077D01*
X25663Y21337D02*X26077D01*
X25663D02*Y20923D01*
X26077Y21337D02*Y20923D01*
G54D185*X25766Y21896D02*X25974D01*
X25766Y22104D02*X25974D01*
G54D169*X25663Y21793D02*X26077D01*
X25663Y22207D02*X26077D01*
X25663D02*Y21793D01*
X26077Y22207D02*Y21793D01*
G54D185*X25766Y22766D02*X25974D01*
X25766Y22974D02*X25974D01*
G54D169*X25663Y22663D02*X26077D01*
X25663Y23077D02*X26077D01*
X25663D02*Y22663D01*
X26077Y23077D02*Y22663D01*
G54D185*X25766Y23636D02*X25974D01*
X25766Y23844D02*X25974D01*
G54D169*X25663Y23533D02*X26077D01*
X25663Y23947D02*X26077D01*
X25663D02*Y23533D01*
X26077Y23947D02*Y23533D01*
G54D185*X26636Y20156D02*X26844D01*
X26636Y20364D02*X26844D01*
G54D169*X26533Y20053D02*X26947D01*
X26533Y20467D02*X26947D01*
X26533D02*Y20053D01*
X26947Y20467D02*Y20053D01*
G54D185*X26636Y21026D02*X26844D01*
X26636Y21234D02*X26844D01*
G54D169*X26533Y20923D02*X26947D01*
X26533Y21337D02*X26947D01*
X26533D02*Y20923D01*
X26947Y21337D02*Y20923D01*
G54D185*X26636Y21896D02*X26844D01*
X26636Y22104D02*X26844D01*
G54D169*X26533Y21793D02*X26947D01*
X26533Y22207D02*X26947D01*
X26533D02*Y21793D01*
X26947Y22207D02*Y21793D01*
G54D185*X26636Y22766D02*X26844D01*
X26636Y22974D02*X26844D01*
G54D169*X26533Y22663D02*X26947D01*
X26533Y23077D02*X26947D01*
X26533D02*Y22663D01*
X26947Y23077D02*Y22663D01*
G54D185*X26636Y23636D02*X26844D01*
X26636Y23844D02*X26844D01*
G54D169*X26533Y23533D02*X26947D01*
X26533Y23947D02*X26947D01*
X26533D02*Y23533D01*
X26947Y23947D02*Y23533D01*
G54D172*X11975Y10000D02*X12025D01*
G54D173*X11825Y10150D02*X12175D01*
X11825Y9850D02*X12175D01*
Y10150D02*Y9850D01*
X11825Y10150D02*Y9850D01*
G54D172*X11975Y9000D02*X12025D01*
G54D173*X11825Y9150D02*X12175D01*
X11825Y8850D02*X12175D01*
Y9150D02*Y8850D01*
X11825Y9150D02*Y8850D01*
G54D172*X11975Y7000D02*X12025D01*
G54D173*X11825Y6850D02*X12175D01*
X11825Y7150D02*X12175D01*
X11825D02*Y6850D01*
X12175Y7150D02*Y6850D01*
G54D172*X11975Y8000D02*X12025D01*
G54D173*X11825Y7850D02*X12175D01*
X11825Y8150D02*X12175D01*
X11825D02*Y7850D01*
X12175Y8150D02*Y7850D01*
G54D177*X13475Y7950D02*X13925D01*
G54D169*X13200Y8225D02*X14200D01*
X13200Y7675D02*X14200D01*
Y8225D02*Y7675D01*
X13200Y8225D02*Y7675D01*
G54D177*X13475Y7000D02*X13925D01*
G54D169*X13200Y7275D02*X14200D01*
X13200Y6725D02*X14200D01*
Y7275D02*Y6725D01*
X13200Y7275D02*Y6725D01*
G54D177*X13475Y6050D02*X13925D01*
G54D169*X13200Y6325D02*X14200D01*
X13200Y5775D02*X14200D01*
Y6325D02*Y5775D01*
X13200Y6325D02*Y5775D01*
G54D177*X16075Y6050D02*X16525D01*
G54D169*X15800Y5775D02*X16800D01*
X15800Y6325D02*X16800D01*
X15800D02*Y5775D01*
X16800Y6325D02*Y5775D01*
G54D177*X16075Y7950D02*X16525D01*
G54D169*X15800Y7675D02*X16800D01*
X15800Y8225D02*X16800D01*
X15800D02*Y7675D01*
X16800Y8225D02*Y7675D01*
G54D186*X18425Y9550D02*X18975D01*
G54D163*X17975Y10000D02*X19425D01*
X17975Y9100D02*X19425D01*
Y10000D02*Y9100D01*
X17975Y10000D02*Y9100D01*
G54D186*X18425Y7650D02*X18975D01*
G54D163*X17975Y8100D02*X19425D01*
X17975Y7200D02*X19425D01*
Y8100D02*Y7200D01*
X17975Y8100D02*Y7200D01*
G54D187*X20000Y5675D02*Y5525D01*
G54D163*X20200Y5875D02*Y5325D01*
X19800Y5875D02*Y5325D01*
X20200D01*
X19800Y5875D02*X20200D01*
G54D187*X18400Y5675D02*Y5525D01*
G54D163*X18600Y5875D02*Y5325D01*
X18200Y5875D02*Y5325D01*
X18600D01*
X18200Y5875D02*X18600D01*
G54D187*X14800Y10075D02*Y9925D01*
G54D163*X15000Y10275D02*Y9725D01*
X14600Y10275D02*Y9725D01*
X15000D01*
X14600Y10275D02*X15000D01*
G54D187*X13200Y10075D02*Y9925D01*
G54D163*X13400Y10275D02*Y9725D01*
X13000Y10275D02*Y9725D01*
X13400D01*
X13000Y10275D02*X13400D01*
G54D172*X39000Y13525D02*Y13475D01*
G54D173*X38850Y13675D02*Y13325D01*
X39150Y13675D02*Y13325D01*
X38850Y13675D02*X39150D01*
X38850Y13325D02*X39150D01*
G54D172*X40000Y13525D02*Y13475D01*
G54D173*X39850Y13675D02*Y13325D01*
X40150Y13675D02*Y13325D01*
X39850Y13675D02*X40150D01*
X39850Y13325D02*X40150D01*
G54D172*X18500Y47025D02*Y46975D01*
G54D173*X18350Y47175D02*Y46825D01*
X18650Y47175D02*Y46825D01*
X18350Y47175D02*X18650D01*
X18350Y46825D02*X18650D01*
G54D172*X19500Y47025D02*Y46975D01*
G54D173*X19350Y47175D02*Y46825D01*
X19650Y47175D02*Y46825D01*
X19350Y47175D02*X19650D01*
X19350Y46825D02*X19650D01*
G54D172*X30475Y34500D02*X30525D01*
G54D173*X30325Y34650D02*X30675D01*
X30325Y34350D02*X30675D01*
Y34650D02*Y34350D01*
X30325Y34650D02*Y34350D01*
G54D172*X30475Y33500D02*X30525D01*
G54D173*X30325Y33650D02*X30675D01*
X30325Y33350D02*X30675D01*
Y33650D02*Y33350D01*
X30325Y33650D02*Y33350D01*
G54D172*X41500Y50525D02*Y50475D01*
G54D173*X41350Y50675D02*Y50325D01*
X41650Y50675D02*Y50325D01*
X41350Y50675D02*X41650D01*
X41350Y50325D02*X41650D01*
G54D172*X42500Y50525D02*Y50475D01*
G54D173*X42350Y50675D02*Y50325D01*
X42650Y50675D02*Y50325D01*
X42350Y50675D02*X42650D01*
X42350Y50325D02*X42650D01*
G54D172*X8250Y14100D02*X9750D01*
G54D165*X8100Y14250D02*X9900D01*
X8100Y13950D02*X9900D01*
Y14250D02*Y13950D01*
X8100Y14250D02*Y13950D01*
G54D172*X8250Y13300D02*X9750D01*
G54D165*X8100Y13450D02*X9900D01*
X8100Y13150D02*X9900D01*
Y13450D02*Y13150D01*
X8100Y13450D02*Y13150D01*
G54D172*X8250Y12500D02*X9750D01*
G54D165*X8100Y12650D02*X9900D01*
X8100Y12350D02*X9900D01*
Y12650D02*Y12350D01*
X8100Y12650D02*Y12350D01*
G54D172*X8250Y11700D02*X9750D01*
G54D165*X8100Y11850D02*X9900D01*
X8100Y11550D02*X9900D01*
Y11850D02*Y11550D01*
X8100Y11850D02*Y11550D01*
G54D172*X8250Y10900D02*X9750D01*
G54D165*X8100Y11050D02*X9900D01*
X8100Y10750D02*X9900D01*
Y11050D02*Y10750D01*
X8100Y11050D02*Y10750D01*
G54D188*X3570Y12670D03*
Y51532D03*
M02*
